<?xml version="1.0" standalone="no"?>
<!DOCTYPE svg PUBLIC "-//W3C//DTD SVG 1.1//EN" "http://www.w3.org/Graphics/SVG/1.1/DTD/svg11.dtd" >
<svg>
<metadata>
Created by FontForge 20090914 at Tue Jun 26 12:47:40 2018
 By www-data
(c) !22! Soft 1993
</metadata>
<defs>
<font id="AcademiaRoma" horiz-adv-x="259" >
  <font-face 
    font-family="Academia"
    font-weight="400"
    font-stretch="normal"
    units-per-em="1000"
    panose-1="2 11 6 4 2 2 2 2 2 4"
    ascent="800"
    descent="-200"
    x-height="385"
    cap-height="700"
    bbox="-39 -259 1270 970.001"
    underline-thickness="56"
    underline-position="-231"
    unicode-range="U+0020-U+2219"
  />
<missing-glyph horiz-adv-x="500" 
d="M40 667h420v-667h-420v667zM60 647v-627h380v627h-380z" />
    <glyph glyph-name=".notdef" horiz-adv-x="500" 
d="M40 667h420v-667h-420v667zM60 647v-627h380v627h-380z" />
    <glyph glyph-name="space" unicode=" " horiz-adv-x="351" 
 />
    <glyph glyph-name="exclam" unicode="!" horiz-adv-x="253" 
d="M102 149l-32 551h113l-41 -551h-40zM70 45c0 14.667 5.33301 27 16 37s22.667 15 36 15s25.5 -4.83301 36.5 -14.5s16.5 -22.167 16.5 -37.5c0 -16 -5.66699 -28.833 -17 -38.5s-23.333 -14.5 -36 -14.5s-24.5 4.83301 -35.5 14.5s-16.5 22.5 -16.5 38.5z" />
    <glyph glyph-name="quotedbl" unicode="&#x22;" horiz-adv-x="387" 
d="M156 700l-27 -204h-36l-27 204h90zM321 700l-27 -204h-36l-26 204h89z" />
    <glyph glyph-name="numbersign" unicode="#" horiz-adv-x="825" 
d="M504 0h-62l35 194h-188l-35 -194h-62l34 194h-160l9 48h160l40 225h-160l9 48h160l33 185h62l-33 -185h188l33 185h62l-33 -185h163l-9 -48h-163l-40 -225h163l-9 -48h-163zM485 242l41 225h-189l-40 -224z" />
    <glyph glyph-name="dollar" unicode="$" horiz-adv-x="599" 
d="M323 776l-0.000976562 -68c44 -3.33301 83.333 -16.833 118 -40.5s52 -52.167 52 -85.5c0 -26.667 -6.33301 -44.5 -19 -53.5s-25.667 -13.5 -39 -13.5c-16.667 0 -30 5.33301 -40 16s-15 23.667 -15 39c0 6.66699 2 17.334 6 32.001c2 6 3 12 3 18
c0 10.667 -5.5 20.334 -16.5 29.001s-27.5 13 -49.5 13v-228c17.333 -8 33.333 -15 48 -21c36.667 -13.333 72.167 -35.5 106.5 -66.5s51.5 -74.167 51.5 -129.5c0 -48.667 -16.5 -94.5 -49.5 -137.5s-85.167 -69.5 -156.5 -79.5v-76h-45v76
c-53.333 5.33301 -95.333 16.333 -126 33s-52 35.167 -64 55.5s-18 40.166 -18 59.499c0 21.333 7 38.166 21 50.499s30 18.5 48 18.5c19.333 0 33.5 -6.33301 42.5 -19s13.5 -26.667 13.5 -42c0 -4 -2.66699 -13.333 -8 -28s-8 -24.334 -8 -29.001
c0 -12 8.83301 -23.5 26.5 -34.5s41.834 -16.833 72.501 -17.5v299c-37.333 15.333 -70 31.5 -98 48.5s-49.833 37.167 -65.5 60.5s-23.5 51 -23.5 83c0 48.667 18.5 88.834 55.5 120.501s80.833 48.167 131.5 49.5v68h45zM277.999 452v210
c-34.667 -2.66699 -61.167 -13.5 -79.5 -32.5s-27.5 -41.833 -27.5 -68.5c0 -27.333 9.66699 -49 29 -65s45.333 -30.667 78 -44zM322.999 328l0.000976562 -281c38 4 69.5 20.5 94.5 49.5s37.5 59.833 37.5 92.5c0 29.333 -10.333 56.333 -31 81s-54.334 44 -101.001 58z
" />
    <glyph glyph-name="percent" unicode="%" horiz-adv-x="949" 
d="M231 795c40.667 0 73.167 -11.667 97.5 -35s40.833 -50.5 49.5 -81.5s13 -59.167 13 -84.5c0 -70.667 -16.667 -121.834 -50 -153.501s-70 -47.5 -110 -47.5c-39.333 0 -75.833 15.833 -109.5 47.5s-50.5 82.834 -50.5 153.501c0 25.333 4.33301 53.5 13 84.5
s25.167 58.167 49.5 81.5s56.833 35 97.5 35zM231 752c-50 0 -75 -38 -75 -114v-88c0 -78 25 -116 75 -114c50 -1.33301 75 36.667 75 114v88c0 76 -25 114 -75 114zM283 18l328 778l38 -16l-328 -780zM719 402c56.667 0 97.5 -20.8301 122.5 -62.4971
s37.5 -87.834 37.5 -138.501c0 -70.667 -16.833 -121.834 -50.5 -153.501s-70.167 -47.5 -109.5 -47.5c-35.333 0 -70.833 14.167 -106.5 42.5s-53.5 81.166 -53.5 158.499c0 50 12.5 96 37.5 138s65.833 63 122.5 63zM719 359.003c-50 0 -75 -38 -75 -114v-88
c0 -78 25 -116 75 -114c50 0 75 38 75 114v88c0 76 -25 114 -75 114z" />
    <glyph glyph-name="ampersand" unicode="&#x26;" horiz-adv-x="845" 
d="M529 446l201.002 -0.00195312v-39c-27.333 -5.33301 -49.333 -16.5 -66 -33.5s-35.334 -43.5 -56.001 -79.5c-29.333 -54 -59 -98.333 -89 -133c46.667 -61.333 95.334 -92 146.001 -92c20 0 37.667 6.83301 53 20.5s25 30.5 29 50.5h28
c-5.33301 -31.333 -19.5 -63.833 -42.5 -97.5s-56.833 -50.5 -101.5 -50.5c-58 0 -115 33.667 -171 101c-64.667 -67.333 -137.334 -101 -218.001 -101c-53.333 0 -95.333 15.667 -126 47s-46 70.666 -46 117.999c0 93.333 67.333 175 202 245
c-23.333 53.333 -35 101 -35 143c0 49.333 13.833 88.833 41.5 118.5s64.167 44.5 109.5 44.5c41.333 0 74.166 -11.833 98.499 -35.5s36.5 -52.167 36.5 -85.5c0 -71.333 -52 -131.666 -156 -180.999c32 -73.333 74.667 -144.666 128 -213.999
c17.333 22.667 35.333 53.334 54 92.001s28 67.667 28 87c0 20 -16 32 -48 36v39zM435.002 123.998c-32 41.333 -54 70.833 -66 88.5s-24.833 38.667 -38.5 63s-27.834 53.5 -42.501 87.5c-77.333 -41.333 -116 -94.333 -116 -159c0 -38.667 10.333 -73 31 -103
s50.334 -45 89.001 -45c49.333 0 97 22.667 143 68zM352.002 441.998c32 13.333 58.333 32 79 56s31 53.667 31 89c0 26 -6.33301 46.167 -19 60.5s-28.667 21.5 -48 21.5c-20 0 -38 -6.66699 -54 -20s-24 -35.333 -24 -66c0 -35.333 11.667 -82.333 35 -141z" />
    <glyph glyph-name="quotesingle" unicode="'" horiz-adv-x="221" 
d="M155 700l-27 -204h-36l-26 204h89z" />
    <glyph glyph-name="parenleft" unicode="(" horiz-adv-x="399" 
d="M329 691c0 -2 -4.66602 -9 -13.999 -21c-36.667 -42 -70 -96 -100 -162s-45 -148 -45 -246c0 -94 13.333 -172.167 40 -234.5s59.667 -117.833 99 -166.5c13.333 -16 20 -25.333 20 -28c0 -4 -1.83301 -7.83301 -5.5 -11.5s-7.16699 -5.5 -10.5 -5.5
c-13.333 0 -37 17.333 -71 52s-61 65 -81 91c-60.667 91.333 -91 192.333 -91 303c0 72.667 15.167 143.667 45.5 213s65.166 125.5 104.499 168.5s70.333 64.5 93 64.5c4.66699 0 8.5 -1.83301 11.5 -5.5s4.5 -7.5 4.5 -11.5z" />
    <glyph glyph-name="parenright" unicode=")" horiz-adv-x="399" 
d="M70 691c0 4 1.66797 7.83496 5.00098 11.502s7 5.5 11 5.5c22.667 0 53.667 -21.5 93 -64.5s74.166 -99.167 104.499 -168.5s45.5 -140.333 45.5 -213c0 -110.667 -30.333 -211.667 -91 -303c-11.333 -16.667 -36 -44.667 -74 -84s-64 -59 -78 -59
c-3.33301 0 -6.83301 1.83301 -10.5 5.5s-5.5 7.5 -5.5 11.5c0 2.66699 6.66699 12 20 28c23.333 26.667 45 57.167 65 91.5s37.333 77.333 52 129s22 111.834 22 180.501c0 71.333 -8.16699 133.666 -24.5 186.999s-35 97.166 -56 131.499s-42.5 64.166 -64.5 89.499
c-9.33301 12 -14 19 -14 21z" />
    <glyph glyph-name="asterisk" unicode="*" horiz-adv-x="455" 
d="M251 509c3.33301 -1.33301 6.00195 -3.33301 8.00195 -6c18 2 41 12.833 69 32.5s46 37.167 54 52.5c17.333 2 32.666 -2.33301 45.999 -13s20 -24 20 -40c0 -24.667 -10.333 -43 -31 -55c-17.333 7.33301 -42 11 -74 11s-57.333 -5 -76 -15
c-1.33301 -4 -2.66602 -7 -3.99902 -9c11.333 -19.333 34 -41.333 68 -66c18.667 -14 36 -22.333 52 -25c9.33301 -21.333 7.33301 -40.333 -6 -57s-29.333 -25 -48 -25c-13.333 0 -26 5 -38 15c2 23.333 -2.33301 48.833 -13 76.5s-23 49.5 -37 65.5
c-4.66699 0 -8 0.333008 -10 1c-18.667 -22.667 -32.667 -51 -42 -85c-6.66699 -24 -9.33398 -43 -8.00098 -57c-10.667 -10.667 -23 -16 -37 -16c-19.333 0 -35.833 8.16699 -49.5 24.5s-15.167 35.833 -4.5 58.5c21.333 5.33301 44.666 18 69.999 38
s41.666 37.667 48.999 53c-1.33301 2 -2 5.33301 -2 10c-22 9.33301 -48.333 14 -79 14c-30 0 -54 -3.66699 -72 -11c-20 13.333 -30 31.666 -30 54.999c0 14 5.66699 26.833 17 38.5s27.333 16.5 48 14.5c14 -20 32.833 -37.833 56.5 -53.5s46.167 -26.167 67.5 -31.5
c2.66699 1.33301 4.5 2.33301 5.5 3s2.16699 1.33398 3.5 2.00098c0.666992 26.667 -4.66602 57.667 -15.999 93c-8 23.333 -17 40.333 -27 51c4 16 11.333 27.833 22 35.5s22 11.5 34 11.5c11.333 0 22.833 -3.5 34.5 -10.5s19.167 -19.167 22.5 -36.5
c-20 -21.333 -34 -59 -42 -113c-2 -12 -2.33301 -22.333 -1 -31z" />
    <glyph glyph-name="plus" unicode="+" horiz-adv-x="702" 
d="M376 35h-50v256h-256v50h256v256h50v-256h256v-50h-256v-256z" />
    <glyph glyph-name="comma" unicode="," 
d="M90 -123l-19.999 21c38 32 60.333 62.333 67 91l-2 3c-19.333 -2 -35 2 -47 12s-18 24 -18 42c0 14 5 26.167 15 36.5s23.667 15.5 41 15.5s32.166 -5.16699 44.499 -15.5s18.5 -28.5 18.5 -54.5c0 -28.667 -10 -57 -30 -85s-43 -50 -69 -66z" />
    <glyph glyph-name="hyphen" unicode="-" horiz-adv-x="368" 
d="M70 117l21 92.999h132c28.667 0 45.667 9 51 27h24l-18 -93h-135c-16.667 0 -27.167 -0.666992 -31.5 -2s-11.833 -9.66602 -22.5 -24.999h-21z" />
    <glyph glyph-name="period" unicode="." horiz-adv-x="245" 
d="M123 97c12.667 0 24.5 -4.33301 35.5 -13s16.5 -21.667 16.5 -39c0 -16.667 -5.33301 -29.667 -16 -39s-22.667 -14 -36 -14c-17.333 0 -30.5 5.5 -39.5 16.5s-13.5 23.167 -13.5 36.5c0 6.66699 2 14.167 6 22.5s10.167 15.333 18.5 21s17.833 8.5 28.5 8.5z" />
    <glyph glyph-name="slash" unicode="/" horiz-adv-x="546" 
d="M127 -184h-57l347 884h59z" />
    <glyph glyph-name="zero" unicode="0" horiz-adv-x="504" 
d="M252 -8c-56 0 -105.501 30 -148.501 90s-64.5 149.333 -64.5 268c0 64.667 8.5 124.667 25.5 180s42 98.833 75 130.5s70.5 47.5 112.5 47.5s79.5 -15.833 112.5 -47.5s58 -75.167 75 -130.5s25.5 -115.333 25.5 -180c0 -79.333 -10.5 -146.333 -31.5 -201
s-47.667 -94.5 -80 -119.5s-66.166 -37.5 -101.499 -37.5zM251.999 31c48.667 0 79.667 31 93 93s20 137.333 20 226s-6.66699 164 -20 226s-44.333 93 -93 93c-48 0 -78.833 -31 -92.5 -93s-20.5 -137.333 -20.5 -226s6.83301 -164 20.5 -226s44.5 -93 92.5 -93z" />
    <glyph glyph-name="one" unicode="1" horiz-adv-x="379" 
d="M327 34l0.000976562 -34h-204v34c40.667 4 60.334 31 59.001 81v462h-6c-22.667 -25.333 -46.334 -47.666 -71.001 -66.999c-16.667 -14 -34.334 -26.333 -53.001 -37v43c67.333 45.333 122.666 106.666 165.999 183.999h50v-585
c-1.33301 -49.333 18.334 -76.333 59.001 -81z" />
    <glyph glyph-name="two" unicode="2" horiz-adv-x="498" 
d="M464 155l-38.001 -154.998h-392v38c42 46 85 97 129 153s83.833 115.667 119.5 179s53.5 117 53.5 161c0 35.333 -9.16699 63.166 -27.5 83.499s-43.166 30.5 -74.499 30.5c-52.667 0 -99.667 -29 -141 -87l-30 19c30 48.667 62 82.667 96 102s70 29 108 29
c56 0 98.167 -14.833 126.5 -44.5s42.5 -64.834 42.5 -105.501c0 -102 -103 -258 -309 -468v-4h181c30 0 54.333 3.5 73 10.5s35 26.5 49 58.5h34z" />
    <glyph glyph-name="three" unicode="3" horiz-adv-x="475" 
d="M77 551l-30 18.998c21.333 36.667 49 68.834 83 96.501s76.333 41.5 127 41.5c44 0 77 -12 99 -36s33 -50.667 33 -80c0 -22.667 -7.83301 -48.334 -23.5 -77.001s-44.5 -56 -86.5 -82v-4c42 2 77.333 -10.667 106 -38s43 -64.666 43 -111.999
c0 -44.667 -13 -87 -39 -127s-64.167 -74 -114.5 -102s-109.5 -46 -177.5 -54c-28.667 -3.33301 -51 -4.66602 -67 -3.99902v33c64.667 4.66699 120 19 166 43s80.5 53.667 103.5 89s34.5 71.333 34.5 108c0 34 -9.83301 60.5 -29.5 79.5s-45.5 28.5 -77.5 28.5
c-24 0 -50.333 -7.66699 -79 -23l-17 29c48.667 28.667 90.5 59.5 125.5 92.5s52.5 68.5 52.5 106.5c0 27.333 -8.5 46.666 -25.5 57.999s-36.167 17 -57.5 17c-30 0 -57.833 -10.667 -83.5 -32s-47.5 -44.666 -65.5 -69.999z" />
    <glyph glyph-name="four" unicode="4" horiz-adv-x="508" 
d="M340 700h40v-422c36 -2 59 19.333 69 64l28 -7l-35 -131h-62v-204h-86v204h-260v46zM294 278v285h-6l-185 -274v-11h191z" />
    <glyph glyph-name="five" unicode="5" horiz-adv-x="469" 
d="M368 708l-24.999 -94.999h-177l-44 -168l2 -2c32 18 66 27 102 27c49.333 0 92.166 -15.667 128.499 -47s54.5 -76 54.5 -134c0 -68.667 -23.333 -131.667 -70 -189c-34.667 -42.667 -72 -71.334 -112 -86.001s-77.333 -22 -112 -22s-63 3.66699 -85 11v36
c50.667 -14.667 97.5 -12.167 140.5 7.5s76.833 50.5 101.5 92.5s37 88.667 37 140c0 52 -10.833 89.333 -32.5 112s-46.167 34 -73.5 34c-28 0 -62.333 -9.33301 -103 -28l-18 15l73 288h146c18 0 40.333 2.66699 67 8z" />
    <glyph glyph-name="six" unicode="6" horiz-adv-x="523" 
d="M261 -8c-57.333 0 -108.497 19.1689 -153.497 57.502s-67.5 98.166 -67.5 179.499c0 57.333 6.16699 110.166 18.5 158.499s34.5 95.833 66.5 142.5c29.333 42 67.333 79.167 114 111.5s95.667 54.5 147 66.5v-39c-66 -33.333 -119.333 -72.833 -160 -118.5
s-67.667 -105.167 -81 -178.5h3c34 38.667 77.333 58 130 58c37.333 0 71.666 -8.66699 102.999 -26s56.166 -41.833 74.499 -73.5s27.5 -68.167 27.5 -109.5c0 -62.667 -19.333 -116.5 -58 -161.5s-93.334 -67.5 -164.001 -67.5zM264.003 393.002
c-32 0 -60.833 -12.999 -86.5 -38.999s-38.5 -74.333 -38.5 -145c0 -66.667 13 -113.834 39 -141.501s54.333 -41.5 85 -41.5c80 0 120 61 120 183c0 66 -11.667 113.167 -35 141.5s-51.333 42.5 -84 42.5z" />
    <glyph glyph-name="seven" unicode="7" horiz-adv-x="492" 
d="M55 520l14.001 180h371v-39l-200 -661h-115l261 613h-230c-16 0 -28.167 -1.33301 -36.5 -4s-15.333 -11.167 -21 -25.5s-8.83398 -35.5 -9.50098 -63.5h-34z" />
    <glyph glyph-name="eight" unicode="8" horiz-adv-x="519" 
d="M258 -8c-44.667 0 -83.168 9.66602 -115.501 28.999s-56.666 44.833 -72.999 76.5s-24.5 63.834 -24.5 96.501c0 90 38.333 155 115 195v4c-25.333 18.667 -44.5 41.167 -57.5 67.5s-19.5 53.5 -19.5 81.5c0 24 6.66699 49 20 75s33.833 47.667 61.5 65s62.5 26 104.5 26
c46 0 86 -13.833 120 -41.5s51 -62.5 51 -104.5c0 -62.667 -29 -112 -87 -148v-4c84 -49.333 126 -114.666 126 -195.999c0 -60.667 -20.167 -112.834 -60.5 -156.501s-93.833 -65.5 -160.5 -65.5zM258.999 668.999c-22.667 0 -41.832 -5.16699 -57.499 -15.5
s-27.334 -23.5 -35.001 -39.5s-11.5 -30.667 -11.5 -44c0 -62.667 48.333 -108.334 145 -137.001c45.333 28 68 70.667 68 128c0 30.667 -9.66699 56.334 -29 77.001s-46 31 -80 31zM187.001 374.999c-42 -40.667 -62.999 -97.667 -62.999 -171
c0 -60 14.667 -103.833 44 -131.5s62.666 -41.5 99.999 -41.5c36.667 0 66 12.667 88 38s33 56 33 92c0 54 -16 95.833 -48 125.5s-83.333 59.167 -154 88.5z" />
    <glyph glyph-name="nine" unicode="9" horiz-adv-x="522" 
d="M261 708c44 0 82.6689 -9.66895 116.002 -29.002s59.166 -47.166 77.499 -83.499s27.5 -78.166 27.5 -125.499c0 -118.667 -28.667 -218.667 -86 -300c-30 -42 -67.667 -78.833 -113 -110.5s-94 -54.167 -146 -67.5v39c67.333 34.667 121.166 74.834 161.499 120.501
s66.833 104.167 79.5 175.5h-4c-32 -38.667 -75 -58 -129 -58c-50.667 0 -97.5 18.167 -140.5 54.5s-64.5 88.166 -64.5 155.499c0 53.333 17 104.833 51 154.5s90.667 74.5 170 74.5zM259.002 305.998c32.667 0 61.334 13.667 86.001 41s37 75 37 143
c0 66 -11.833 113.167 -35.5 141.5s-52.834 42.5 -87.501 42.5c-79.333 0 -119 -61.333 -119 -184c0 -70 12.167 -118.167 36.5 -144.5s51.833 -39.5 82.5 -39.5z" />
    <glyph glyph-name="colon" unicode=":" horiz-adv-x="245" 
d="M70 340c0 12.667 4.83301 24.667 14.5 36s22.5 17 38.5 17c15.333 0 27.833 -5.5 37.5 -16.5s14.5 -23.167 14.5 -36.5s-5 -25.333 -15 -36s-22.333 -16 -37 -16c-16 0 -28.833 5.5 -38.5 16.5s-14.5 22.833 -14.5 35.5zM70 45c0 14.667 5.33301 27 16 37s23 15 37 15
c16 0 28.667 -5.33301 38 -16s14 -22.667 14 -36c0 -14 -5 -26.333 -15 -37s-22.333 -16 -37 -16c-14 0 -26.333 5 -37 15s-16 22.667 -16 38z" />
    <glyph glyph-name="semicolon" unicode=";" 
d="M77 341c0 13.333 4.66895 25.333 14.002 36s21.666 16 36.999 16c14 0 26.333 -4.66699 37 -14s16 -22 16 -38c0 -12.667 -4.83301 -24.667 -14.5 -36s-22.5 -17 -38.5 -17c-14.667 0 -26.834 5.5 -36.501 16.5s-14.5 23.167 -14.5 36.5zM90.002 -123l-19.999 21
c38 32 60.333 62.333 67 91l-2 3c-19.333 -2 -35 2 -47 12s-18 24 -18 42c0 14 5 26.167 15 36.5s23.667 15.5 41 15.5s32.166 -5.16699 44.499 -15.5s18.5 -28.5 18.5 -54.5c0 -28.667 -10 -57 -30 -85s-43 -50 -69 -66z" />
    <glyph glyph-name="less" unicode="&#x3c;" horiz-adv-x="727" 
d="M70 326l570 244l17 -46l-462 -198l462 -199l-17 -46z" />
    <glyph glyph-name="equal" unicode="=" horiz-adv-x="551" 
d="M0 216v42h551v-42h-551zM0 376v42h551v-42h-551z" />
    <glyph glyph-name="greater" unicode="&#x3e;" horiz-adv-x="727" 
d="M657 326l-570 -245l-17 46l462 199l-462 198l17 46z" />
    <glyph glyph-name="question" unicode="?" horiz-adv-x="428" 
d="M103 158l-16.998 170l33 6c13.333 -16.667 31 -25 53 -25c29.333 0 51.666 11.5 66.999 34.5s23 54.167 23 93.5c0 55.333 -11 107.166 -33 155.499s-40.333 72.5 -55 72.5c-8.66699 0 -14.334 -5.66699 -17.001 -17c-4 -18 -17 -27 -39 -27c-24.667 0 -37 14 -37 42
c0 10.667 4.5 20.834 13.5 30.501s25.833 14.5 50.5 14.5c50.667 0 102.334 -38.667 155.001 -116c38.667 -58 58 -126.333 58 -205c0 -33.333 -6.5 -61.333 -19.5 -84s-29.333 -39.5 -49 -50.5s-40.834 -16.5 -63.501 -16.5c-32 0 -62 13 -90 39h-7l10 -117h-36zM70.002 49
c0 16 6.00195 28.002 18.002 36.002s24.667 12 38 12c11.333 0 22.166 -4.83301 32.499 -14.5s15.5 -23.834 15.5 -42.501c0 -16.667 -5.83301 -28.834 -17.5 -36.501s-24.834 -11.5 -39.501 -11.5c-11.333 0 -22 5 -32 15s-15 24 -15 42z" />
    <glyph glyph-name="at" unicode="@" horiz-adv-x="995" 
d="M742 531l-77.9971 -257.001c-11.333 -34 -17 -60.333 -17 -79c0 -22.667 5.33301 -38.167 16 -46.5s20.334 -12.5 29.001 -12.5c21.333 0 45.833 8 73.5 24s52 43 73 81s31.5 87 31.5 147c0 46.667 -8.66699 90.334 -26 131.001s-42.333 76 -75 106
s-71.834 53.5 -117.501 70.5s-96.167 25.5 -151.5 25.5c-52.667 0 -102.334 -10.333 -149.001 -31s-86.334 -48.5 -119.001 -83.5s-58.334 -76.667 -77.001 -125s-28 -98.833 -28 -151.5c0 -71.333 16.5 -137.333 49.5 -198s78.833 -108.834 137.5 -144.501
s122 -53.5 190 -53.5c105.333 0 189.333 29 252 87l29 -49c-46 -33.333 -89 -56.833 -129 -70.5s-87.333 -20.5 -142 -20.5c-132.667 0 -240.5 43.667 -323.5 131s-124.5 189 -124.5 305c0 58.667 10 115.5 30 170.5s49 103.5 87 145.5s84.167 75 138.5 99
s113.5 36 177.5 36c84.667 0 159.5 -17 224.5 -51s115.5 -80.167 151.5 -138.5s54 -121.833 54 -190.5c0 -68 -13.333 -124.5 -40 -169.5s-59.167 -78 -97.5 -99s-74.833 -31.5 -109.5 -31.5c-20.667 0 -41 6 -61 18s-36.333 30.667 -49 56
c-44.667 -33.333 -88.667 -50 -132 -50c-38 0 -72.667 15.167 -104 45.5s-47 74.5 -47 132.5c0 42.667 10.167 83.834 30.5 123.501s49.5 72.167 87.5 97.5s82 38 132 38c46.667 0 83.667 -20.333 111 -61l15 43h77zM628.003 428.999c-4.66699 28 -15.832 50 -33.499 66
s-36.834 24 -57.501 24c-35.333 0 -68.666 -21.5 -99.999 -64.5s-50.333 -100.5 -57 -172.5c-2 -18 -2 -36 0 -54c2.66699 -25.333 11.167 -45.333 25.5 -60s32.166 -22 53.499 -22c43.333 0 78.333 19.333 105 58z" />
    <glyph glyph-name="A" unicode="A" horiz-adv-x="724" 
d="M379 708l270.001 -599.999c21.333 -47.333 46.333 -72 75 -74v-34h-196v34c16 2.66699 26 6.66699 30 12s6 14.333 6 27c0 4.66699 -3 14.334 -9 29.001l-40 90h-348l-39 -85c-8 -16.667 -12 -28.334 -12 -35.001c0 -20.667 13 -33.334 39 -38.001v-34h-155v34
c31.333 2 57.666 25.667 78.999 71l225 486c6 14 9 22.333 9 25c0 10 -8 15 -24 15v34c26.667 6.66699 50 21 70 43h20zM497.001 231.001l-148 329h-11l-153 -329h312z" />
    <glyph glyph-name="B" unicode="B" horiz-adv-x="640" 
d="M52 700l272.002 0.00195312c58 0 113.167 -11 165.5 -33s78.5 -69.333 78.5 -142c0 -32.667 -10.833 -64.334 -32.5 -95.001s-55.834 -52.334 -102.501 -65.001v-6c45.333 -6 84.666 -23.167 117.999 -51.5s50 -69.166 50 -122.499
c0 -48.667 -13.833 -86.834 -41.5 -114.501s-59.167 -46.334 -94.5 -56.001s-65.666 -14.5 -90.999 -14.5h-322v34c40 1.33301 60 28.333 60 81v470c0 26 -4.33301 45.833 -13 59.5s-24.334 20.834 -47.001 21.501v34zM198.002 375.002h113c56.667 0 97 14.167 121 42.5
s36 63.5 36 105.5c0 92 -56.667 138 -170 138h-100v-286zM198.002 39.002h133.999c38 0 75.667 9.83301 113 29.5s56 58.5 56 116.5c0 51.333 -16.667 89.333 -50 114s-75.666 37 -126.999 37h-126v-297z" />
    <glyph glyph-name="C" unicode="C" horiz-adv-x="686" 
d="M620 530l-34.002 -0.000976562c-13.333 34 -31.5 61.167 -54.5 81.5s-48.5 35 -76.5 44s-53.667 13.5 -77 13.5c-44 0 -84.167 -13 -120.5 -39s-65.166 -63.5 -86.499 -112.5s-32 -106.5 -32 -172.5c0 -94.667 22.833 -170.667 68.5 -228s108.834 -86 189.501 -86
c38.667 0 79.167 9.83301 121.5 29.5s78.166 46.167 107.499 79.5l21 -23c-74 -83.333 -163.667 -125 -269 -125c-104.667 0 -187.334 33.333 -248.001 100s-91 151.334 -91 254.001c0 73.333 15.167 137.5 45.5 192.5s70.833 97 121.5 126s105.334 43.5 164.001 43.5
c39.333 0 86 -7.33301 140 -22c32.667 -9.33301 56.334 -14 71.001 -14c6.66699 0 14.667 4 24 12h15v-154z" />
    <glyph glyph-name="D" unicode="D" horiz-adv-x="765" 
d="M52 700l292.999 0.00195312c57.333 0 115.333 -11.167 174 -33.5s107.834 -60 147.501 -113s59.5 -122.833 59.5 -209.5c0 -138 -42.167 -229.833 -126.5 -275.5s-168.833 -68.5 -253.5 -68.5h-294v34c22.667 2 38.334 9.66699 47.001 23s13 32.666 13 57.999v470
c0 25.333 -4.33301 44.666 -13 57.999s-24.334 21 -47.001 23v34zM197.999 39.002h126c40 0 82.833 7.16699 128.5 21.5s86 44.333 121 90s52.5 111.167 52.5 196.5c0 129.333 -34.667 214 -104 254s-135.333 60 -198 60h-126v-622z" />
    <glyph glyph-name="E" unicode="E" horiz-adv-x="655" 
d="M52 700l393.999 -0.00195312c34.667 0 62 1.66699 82 5c16.667 2.66699 31 3.66699 43 3v-133h-34c-8.66699 34 -25.334 56.833 -50.001 68.5s-60 17.5 -106 17.5h-183v-287h125c22.667 0 40.834 3.16699 54.501 9.5s22.834 21.833 27.501 46.5h33v-151h-33
c-7.33301 26 -16 41.833 -26 47.5s-28.667 8.5 -56 8.5h-125v-296h205c56 0 101.333 7.83301 136 23.5s53.334 44.834 56.001 87.501h34l-11 -150h-566v34c40 4 60 31 60 81v470c0 26.667 -4.33301 46.834 -13 60.501s-24.334 20.5 -47.001 20.5v34z" />
    <glyph glyph-name="F" unicode="F" horiz-adv-x="603" 
d="M58 700l413 0.000976562c25.333 0 50 1.33301 74 4c12.667 1.33301 29.667 2.66602 51 3.99902v-133h-34c-8 32.667 -25 55.167 -51 67.5s-61 18.5 -105 18.5h-202v-272h145c20.667 0 38.334 3.16699 53.001 9.5s24.334 21.833 29.001 46.5h34v-151h-34
c-4.66699 24.667 -12.834 40.167 -24.501 46.5s-28.834 9.5 -51.501 9.5h-151v-235c0 -25.333 4.16699 -44.333 12.5 -57s23.833 -20.667 46.5 -24v-34h-205v34c40 3.33301 60 30.333 60 81v470c0 51.333 -20 78.333 -60 81v34z" />
    <glyph glyph-name="G" unicode="G" horiz-adv-x="719" 
d="M635 681v-153.995h-34c-20.667 54 -51.667 91.167 -93 111.5s-84.333 30.5 -129 30.5c-38 0 -75.333 -9.83301 -112 -29.5s-67.167 -52.334 -91.5 -98.001s-36.5 -104.834 -36.5 -177.501c0 -82 19.5 -158 58.5 -228s111.833 -105 218.5 -105
c48.667 0 90.5 12.5 125.5 37.5s52.5 59.5 52.5 103.5c0 53.333 -19.667 81 -59 83v34h145v-243c-55.333 -18.667 -103.666 -32.334 -144.999 -41.001s-82 -13 -122 -13c-74 0 -132.833 9.66699 -176.5 29s-77.167 40.666 -100.5 63.999c-64.667 65.333 -97 159 -97 281
c0 54 9 99.5 27 136.5s35.333 65.5 52 85.5c32.667 39.333 71.834 69.166 117.501 89.499s93.167 30.5 142.5 30.5c37.333 0 65 -2 83 -6s36.667 -10 56 -18s35.666 -13 48.999 -15c6 -0.666992 12 -0.666992 18 0c9.33301 2 15.666 6 18.999 12h32z" />
    <glyph glyph-name="H" unicode="H" horiz-adv-x="798" 
d="M256 700v-33.999c-39.333 -3.33301 -59 -30.333 -59 -81v-209h403v209c0 24.667 -4.16699 43.667 -12.5 57s-23.833 21.333 -46.5 24v34h205v-34c-40 -3.33301 -60 -30.333 -60 -81v-470c0 -50.667 20 -77.667 60 -81v-34h-205v34c22 2.66699 37.333 10.667 46 24
s13 32.333 13 57v222h-403v-222c0 -24.667 4.5 -43.834 13.5 -57.501s24.167 -21.5 45.5 -23.5v-34h-204v34c21.333 2 36.5 9.5 45.5 22.5s13.5 32.5 13.5 58.5v470c0 26 -4.5 45.5 -13.5 58.5s-24.167 20.5 -45.5 22.5v34h204z" />
    <glyph glyph-name="I" unicode="I" horiz-adv-x="308" 
d="M256 700v-34c-39.333 -2.66699 -59 -29.667 -59 -81v-470c0 -50 19.667 -77 59 -81v-34h-204v34c39.333 4 59 31 59 81v470c0 50.667 -19.667 77.667 -59 81v34h204z" />
    <glyph glyph-name="J" unicode="J" horiz-adv-x="350" 
d="M93 700h205.002v-34c-39.333 -4 -59 -31 -59 -81v-490c-0.666992 -60.667 -10.334 -109.667 -29.001 -147s-41.5 -64.166 -68.5 -80.499s-53.833 -24.5 -80.5 -24.5s-47.834 6.83301 -63.501 20.5s-23.5 28.5 -23.5 44.5c0 12.667 4 23.834 12 33.501s18 14.5 30 14.5
c10.667 0 20.167 -2.83301 28.5 -8.5s12.5 -14.834 12.5 -27.501c0 -6 -0.166992 -9.83301 -0.5 -11.5s-0.833008 -3.83398 -1.5 -6.50098c0 -12.667 9 -19 27 -19c47.333 0 71 58 71 174v528c0 50.667 -20 77.667 -60 81v34z" />
    <glyph glyph-name="K" unicode="K" horiz-adv-x="742" 
d="M52 700l206 -0.00195312v-34c-39.333 -3.33301 -59 -30.333 -59 -81v-214h6l271 221c22 18 33 34.333 33 49c0 18 -12.667 26.333 -38 25v34h210v-34c-30 -7.33301 -55.333 -17.166 -76 -29.499s-43 -28.166 -67 -47.499l-207 -169l294 -313c42 -44 81 -68.333 117 -73
v-34h-257v34c29.333 -2 44 8 44 30c0 12 -7.66699 26.333 -23 43l-242 258l-65 -53v-197c0 -49.333 19.667 -76.333 59 -81v-34h-206v34c40 4 60 31 60 81v470c0 50.667 -20 77.667 -60 81v34z" />
    <glyph glyph-name="L" unicode="L" horiz-adv-x="616" 
d="M256 700l0.000976562 -34c-21.333 -2 -36.5 -9.83301 -45.5 -23.5s-13.5 -32.834 -13.5 -57.501v-546h214c38.667 0 70.667 11.833 96 35.5s41.666 53.834 48.999 90.501h34v-165h-538v34c39.333 3.33301 59 30.333 59 81v470c0 26 -4.5 45.5 -13.5 58.5
s-24.167 20.5 -45.5 22.5v34h204z" />
    <glyph glyph-name="M" unicode="M" horiz-adv-x="926" 
d="M233 700l224 -568.999h4l234 569h179v-34c-20.667 -2 -35.667 -9.83301 -45 -23.5s-14 -32.834 -14 -57.501v-470c0 -51.333 19.667 -78.333 59 -81v-34h-204v34c39.333 3.33301 59 30.333 59 81v547h-3l-277 -670h-33l-263 669h-3v-548c0 -49.333 20 -75.666 60 -78.999
v-34h-158v34c39.333 4.66699 59 31 59 79v493c0 19.333 -5.5 34.166 -16.5 44.499s-25.167 15.5 -42.5 15.5v34h181z" />
    <glyph glyph-name="N" unicode="N" horiz-adv-x="772" 
d="M52 0l0.00195312 33.999c19.333 -2 34.166 4.33301 44.499 19s15.5 32.667 15.5 54v475c0 24.667 -4.83301 44.834 -14.5 60.501s-24.834 23.5 -45.501 23.5v34h143l424 -537h3v424c0 21.333 -3.33301 39 -10 53s-23 22.667 -49 26v34h157v-34
c-24.667 -5.33301 -40.667 -14 -48 -26s-11 -29.667 -11 -53v-587h-30l-476 604h-4v-497c0 -17.333 4.33301 -33.833 13 -49.5s24 -23.5 46 -23.5v-34h-158z" />
    <glyph glyph-name="O" unicode="O" horiz-adv-x="788" 
d="M394 708c52.667 0 100.834 -9.66895 144.501 -29.002s81.334 -45.666 113.001 -78.999s55.834 -71.333 72.501 -114s25 -88 25 -136c0 -46.667 -8.33301 -91.5 -25 -134.5s-40.834 -81.333 -72.501 -115s-69.834 -60.167 -114.501 -79.5s-92.334 -29 -143.001 -29
c-50 0 -97.167 9.5 -141.5 28.5s-82.166 45 -113.499 78s-55.833 71.5 -73.5 115.5s-26.5 89.333 -26.5 136c0 48 8.83301 93.833 26.5 137.5s42.167 81.834 73.5 114.501s68.666 58.5 111.999 77.5s91 28.5 143 28.5zM394 668.998c-42.667 0 -83.667 -11.667 -123 -35
s-71.166 -58.833 -95.499 -106.5s-36.5 -106.834 -36.5 -177.501s12.167 -129.834 36.5 -177.501s56.166 -83.167 95.499 -106.5s80.333 -35 123 -35s83.667 11.667 123 35s71.166 58.833 95.499 106.5s36.5 106.834 36.5 177.501s-12.167 129.834 -36.5 177.501
s-56.166 83.167 -95.499 106.5s-80.333 35 -123 35z" />
    <glyph glyph-name="P" unicode="P" horiz-adv-x="654" 
d="M52 0l0.000976562 33.999c22 0.666992 37.5 8.33398 46.5 23.001s13.5 36.334 13.5 65.001v353c0 95.333 27.5 158 82.5 188s112.833 45 173.5 45c61.333 0 117.833 -20.667 169.5 -62s77.5 -103 77.5 -185c0 -44 -10.667 -84.833 -32 -122.5s-51.833 -67.5 -91.5 -89.5
s-86.834 -33 -141.501 -33c-60 0 -109.667 16.667 -149 50h-3v-141c0 -18.667 1.5 -34.834 4.5 -48.501s9 -24.167 18 -31.5s22.5 -11 40.5 -11v-34h-209zM198.001 533.999v-201.999c34.667 -51.333 84.667 -77 150 -77c71.333 0 117 20.167 137 60.5s30 88.833 30 145.5
c2 138.667 -53 208 -165 208c-41.333 0 -77 -12.333 -107 -37s-45 -57.334 -45 -98.001z" />
    <glyph glyph-name="Q" unicode="Q" horiz-adv-x="788" 
d="M707 -37c-10.667 -45.333 -24.335 -80.3359 -41.002 -105.003s-41.334 -37 -74.001 -37c-68.667 0 -120.667 58 -156 174c-101.333 -12.667 -190 12 -266 74c-39.333 32.667 -71 73.334 -95 122.001s-36 101.667 -36 159c0 48 8.83301 93.833 26.5 137.5
s42.167 81.834 73.5 114.501s68.666 58.5 111.999 77.5s91 28.5 143 28.5c52.667 0 100.834 -9.66699 144.501 -29s81.334 -45.666 113.001 -78.999s55.834 -71.333 72.501 -114s25 -88 25 -136c0 -72 -20.167 -139.833 -60.5 -203.5s-96.833 -108.167 -169.5 -133.5
c32 -73.333 64 -110 96 -110c26.667 0 46.334 22 59.001 66zM421.999 30.9971c-18 49.333 -46.999 73.999 -86.999 73.999c-14.667 0 -28.334 -3.83301 -41.001 -11.5s-21.667 -17.167 -27 -28.5c42 -25.333 93.667 -36.666 155 -33.999zM239 86.9961
c28 42.667 68.667 64 122 64c59.333 0 105 -32.667 137 -98c58.667 27.333 98.5 69.333 119.5 126s31.5 113 31.5 169c0 80 -15.667 146.333 -47 199c-20.667 36.667 -49.5 66.167 -86.5 88.5s-77.5 33.5 -121.5 33.5s-84 -11 -120 -33s-65.333 -51.667 -88 -89
c-31.333 -52.667 -47 -119 -47 -199c0 -115.333 33.333 -202.333 100 -261z" />
    <glyph glyph-name="R" unicode="R" horiz-adv-x="690" 
d="M52 700l264.002 0.000976562c182 0 273 -59 273 -177c0 -51.333 -13.833 -91.666 -41.5 -120.999s-61.834 -49.333 -102.501 -60l144 -238c12.667 -20.667 25.167 -37.334 37.5 -50.001s29.166 -19.334 50.499 -20.001v-34h-127l-198 327h-155v-212
c0 -50 19.667 -77 59 -81v-34h-204v34c22.667 2.66699 38.167 10.5 46.5 23.5s12.5 32.167 12.5 57.5v470c0 16.667 -2 31.334 -6 44.001c-8 21.333 -25.667 33.666 -53 36.999v34zM197.002 366.001h102.999c126 0 189 50 189 150c0 63.333 -18.667 103.333 -56 120
s-81.666 25 -132.999 25h-103v-295z" />
    <glyph glyph-name="S" unicode="S" horiz-adv-x="541" 
d="M471 675v-157.993h-39c-37.333 101.333 -94.666 152 -171.999 152c-38.667 0 -69.334 -11 -92.001 -33s-34 -48.667 -34 -80c0 -40 15.167 -69.333 45.5 -88s68.5 -34.334 114.5 -47.001c57.333 -16 107.5 -39.333 150.5 -70s64.5 -79.334 64.5 -146.001
c0 -54.667 -19.667 -103.834 -59 -147.501s-89.666 -65.5 -150.999 -65.5c-40 0 -80.667 7 -122 21c-24 8 -42.333 12 -55 12c-22.667 0 -37 -8.33301 -43 -25h-33v216h34c9.33301 -34.667 26.166 -66.334 50.499 -95.001s52 -50.834 83 -66.501s62.167 -23.5 93.5 -23.5
c36.667 0 67.667 14 93 42s38 59.667 38 95c0 73.333 -57.667 126 -173 158c-56 15.333 -103.167 37.666 -141.5 66.999s-57.5 74.333 -57.5 135c0 32.667 8.16699 62.667 24.5 90s39.833 49.166 70.5 65.499s66.667 24.5 108 24.5c42 0 83 -12 123 -36
c12.667 -7.33301 22.667 -11 30 -11c6.66699 0 14 4 22 12l1.5 1.5l0.5 0.5h25z" />
    <glyph glyph-name="T" unicode="T" horiz-adv-x="680" 
d="M13 573v134.999l242 -9h200l212 9v-135h-34c0 22.667 -8.66699 43 -26 61s-45 27 -83 27h-141v-546c0 -25.333 4.33301 -44.5 13 -57.5s24 -20.833 46 -23.5v-34h-205v34c22 2.66699 37.5 10.334 46.5 23.001s13.5 32 13.5 58v546h-142c-60 0 -96 -29.333 -108 -88h-34z
" />
    <glyph glyph-name="U" unicode="U" horiz-adv-x="799" 
d="M52 700h202.001v-34c-21.333 -2 -36.333 -9.5 -45 -22.5s-13 -32.5 -13 -58.5v-274c0 -64.667 14.5 -124.5 43.5 -179.5s90.167 -82.5 183.5 -82.5c64 0 112.667 14.167 146 42.5s55.166 62.833 65.499 103.5s15.5 87 15.5 139v259c0 46 -19.333 70.333 -58 73v34h155
v-34c-38.667 -2.66699 -58 -27 -58 -73v-306c0 -80 -20.333 -149.167 -61 -207.5s-114.667 -87.5 -222 -87.5c-68.667 0 -124.667 11.5 -168 34.5s-75.5 58.333 -96.5 106s-31.5 108.5 -31.5 182.5v270c0 26 -4 45.5 -12 58.5s-23.333 20.5 -46 22.5v34z" />
    <glyph glyph-name="V" unicode="V" horiz-adv-x="754" 
d="M0 700l216.001 0.000976562v-34c-34 0 -51 -12.667 -51 -38c0 -8.66699 5.66699 -25.334 17 -50.001l215 -461h6l219 458c10 23.333 15 39.333 15 48c0 16 -5.83301 27.5 -17.5 34.5s-24.5 9.83301 -38.5 8.5v34h173v-34c-20.667 -2.66699 -36.834 -10.5 -48.501 -23.5
s-25.167 -34.833 -40.5 -65.5l-284 -585h-25l-283 617c-16 35.333 -40.333 54.333 -73 57v34z" />
    <glyph glyph-name="W" unicode="W" horiz-adv-x="996" 
d="M996 700v-34.001c-28 0 -54.667 -29.333 -80 -88l-255 -586h-27l-130 319h-3l-135 -319h-31l-248 603c-8.66699 21.333 -19.334 38.5 -32.001 51.5s-31 19.5 -55 19.5v34h222v-34c-12 0 -23 -3 -33 -9s-15 -16.333 -15 -31c0 -8.66699 4.66699 -24.334 14 -47.001
l189 -450h3l101 238l-100 240c-15.333 36.667 -38.666 56.334 -69.999 59.001v34h386v-34c-32 -4.66699 -59.667 -34 -83 -88l-64 -152l128 -299h2l185 438c10.667 26.667 16 45.334 16 56.001c0 14 -4.66699 25.5 -14 34.5s-22 12.5 -38 10.5v34h167zM531 485.999l50 118
c17.333 41.333 7 62 -31 62h-22c-20.667 0 -36 -1.83301 -46 -5.5s-15 -12.5 -15 -26.5c0 -6.66699 4.33301 -19.667 13 -39l46 -109h5z" />
    <glyph glyph-name="X" unicode="X" horiz-adv-x="790" 
d="M753 700l0.00195312 -33.999c-24.667 -2 -45.167 -8 -61.5 -18s-34.5 -26 -54.5 -48l-197 -219l201 -259c40 -52 85.333 -81.333 136 -88v-34h-243v34c22 -1.33301 33 6 33 22c0 10.667 -6.66699 24.667 -20 42l-170 218l-197 -223
c-11.333 -12.667 -17 -24.334 -17 -35.001c0 -14.667 7 -22.667 21 -24h10h7v-34h-188v34c39.333 2.66699 75.333 22.334 108 59.001l231 256l-170 218c-22.667 28 -40.167 48 -52.5 60s-25.833 21.667 -40.5 29s-30.334 10.666 -47.001 9.99902v34h235v-34
c-6.66699 0.666992 -12.834 -0.666016 -18.501 -3.99902s-8.5 -7.33301 -8.5 -12c0 -17.333 3.33301 -30 10 -38l155 -200l166 191c13.333 15.333 20 27.666 20 36.999c0 8 -2.83301 14.333 -8.5 19s-13.5 7 -23.5 7v34h184z" />
    <glyph glyph-name="Y" unicode="Y" horiz-adv-x="677" 
d="M0 700l230.001 -0.000976562v-34c-24 -4.66699 -36 -14.667 -36 -30c0 -9.33301 4 -19.666 12 -30.999l169 -229h6l142 220c14 21.333 21 36 21 44s-3.66699 14.333 -11 19s-16.333 7 -27 7v34h171v-34c-42.667 0.666992 -82.334 -28 -119.001 -86l-166 -260v-205
c0 -49.333 19.667 -76.333 59 -81v-34h-204v34c39.333 5.33301 59 32.333 59 81v210l-189 258c-36.667 50 -75.667 77.667 -117 83v34z" />
    <glyph glyph-name="Z" unicode="Z" horiz-adv-x="743" 
d="M89 572v127.999h572v-31l-493 -630h370c29.333 0 55 5.33301 77 16s36 34.334 42 71.001h34v-126h-639v37l492 624h-290c-76 0 -119.667 -29.667 -131 -89h-34z" />
    <glyph glyph-name="bracketleft" unicode="[" horiz-adv-x="354" 
d="M284 700v-37h-128v-810h128v-37h-214v884h214z" />
    <glyph glyph-name="backslash" unicode="\" horiz-adv-x="546" 
d="M419 -184l-349 884h59l347 -884h-57z" />
    <glyph glyph-name="bracketright" unicode="]" horiz-adv-x="355" 
d="M70 700h215v-884h-215v37h129v810h-129v37z" />
    <glyph glyph-name="asciicircum" unicode="^" horiz-adv-x="529" 
d="M264 621l-116 -116h-78l194 195l195 -195h-79z" />
    <glyph glyph-name="underscore" unicode="_" horiz-adv-x="543" 
d="M0 -233v49h543v-49h-543z" />
    <glyph glyph-name="underscore" unicode="&#xad;" horiz-adv-x="543" 
d="M0 -233v49h543v-49h-543z" />
    <glyph glyph-name="grave" unicode="`" horiz-adv-x="314" 
d="M238 489c-11.333 4 -25.833 11.332 -43.5 21.999s-38 25 -61 43s-40 33.333 -51 46s-16.5 24.334 -16.5 35.001c0 6.66699 3.66699 10 11 10h87c0.666992 -0.666992 1.16699 -1.5 1.5 -2.5s0.833008 -3.16699 1.5 -6.5c16.667 -52.667 43.667 -97 81 -133z" />
    <glyph glyph-name="a" unicode="a" horiz-adv-x="399" 
d="M385 39l6.99902 -11.001c-16.667 -24 -38 -36 -64 -36c-33.333 0 -55 18.333 -65 55h-2c-34.667 -36.667 -74 -55 -118 -55c-39.333 0 -68.666 10.5 -87.999 31.5s-29 45.833 -29 74.5c0 33.333 10.333 60.166 31 80.499s48.834 35 84.501 44s72.834 14.5 111.501 16.5
c0 40.667 -4.66699 71.334 -14 92.001s-29.333 31 -60 31c-28.667 0 -46 -15 -52 -45c-4.66699 -20 -16.334 -30 -35.001 -30c-21.333 0 -32 10 -32 30s12.333 37.667 37 53s55 23 91 23c61.333 0 99.666 -16.167 114.999 -48.5s23 -73.166 23 -122.499v-126
c0 -30.667 6.16699 -49.5 18.5 -56.5s25.833 -7.16699 40.5 -0.5zM252.999 205.999c-52 -2 -89.833 -13 -113.5 -33s-35.5 -44.333 -35.5 -73c0 -20 6.66699 -36 20 -48s30 -18 50 -18c32 0 53.167 11.833 63.5 35.5s15.5 57.5 15.5 101.5v35z" />
    <glyph glyph-name="b" unicode="b" horiz-adv-x="499" 
d="M151 700v-345.001c34.667 25.333 76 38 124 38c60 0 106.333 -18.167 139 -54.5s49 -82.166 49 -137.499c0 -58.667 -18.667 -108 -56 -148s-87.333 -60 -150 -60c-36.667 0 -76.667 14.333 -120 43l-46 -43h-13v627c0 14.667 -3.83301 26.667 -11.5 36
s-18.5 14.333 -32.5 15v29h117zM151 319.999l-0.000976562 -171.998c0.666992 -4.66699 1.33398 -9.83398 2.00098 -15.501s1 -10.834 1 -15.501c2 -28.667 12.5 -51.167 31.5 -67.5s40.5 -24.5 64.5 -24.5c86 0 129 58.667 129 176c0 106.667 -41.333 160 -124 160
c-42 0 -76.667 -13.667 -104 -41z" />
    <glyph glyph-name="c" unicode="c" horiz-adv-x="392" 
d="M355 89l16.9951 -18.001c-45.333 -52.667 -98.666 -79 -159.999 -79c-54.667 0 -99.334 18 -134.001 54s-52 82.333 -52 139s17.167 105.5 51.5 146.5s80.833 61.5 139.5 61.5c22.667 0 43.834 -3.33301 63.501 -10s34.834 -15.5 45.501 -26.5s16 -23.5 16 -37.5
c0 -8.66699 -3.66699 -16.667 -11 -24s-16 -11 -26 -11c-25.333 0 -38.666 13 -39.999 39c0 10.667 -2.83301 19.834 -8.5 27.501s-18.167 11.5 -37.5 11.5c-28.667 0 -54 -13.667 -76 -41s-33 -72.666 -33 -135.999c0 -58.667 14 -97.834 42 -117.501
s55.333 -29.5 82 -29.5c20.667 0 42.834 5 66.501 15s41.834 22 54.501 36z" />
    <glyph glyph-name="c" horiz-adv-x="392" 
d="M355 89l16.9951 -18.001c-45.333 -52.667 -98.666 -79 -159.999 -79c-54.667 0 -99.334 18 -134.001 54s-52 82.333 -52 139s17.167 105.5 51.5 146.5s80.833 61.5 139.5 61.5c22.667 0 43.834 -3.33301 63.501 -10s34.834 -15.5 45.501 -26.5s16 -23.5 16 -37.5
c0 -8.66699 -3.66699 -16.667 -11 -24s-16 -11 -26 -11c-25.333 0 -38.666 13 -39.999 39c0 10.667 -2.83301 19.834 -8.5 27.501s-18.167 11.5 -37.5 11.5c-28.667 0 -54 -13.667 -76 -41s-33 -72.666 -33 -135.999c0 -58.667 14 -97.834 42 -117.501
s55.333 -29.5 82 -29.5c20.667 0 42.834 5 66.501 15s41.834 22 54.501 36z" />
    <glyph glyph-name="d" unicode="d" horiz-adv-x="484" 
d="M414 708l-0.00195312 -627.002c0 -14.667 4.16699 -26.667 12.5 -36s18.833 -14.666 31.5 -15.999l-1 -29h-116v33h-6c-35.333 -27.333 -72.666 -41 -111.999 -41c-54 0 -100.333 16.833 -139 50.5s-58 81.834 -58 144.501c0 74 21.333 126.833 64 158.5
s91.334 47.5 146.001 47.5c27.333 0 59.333 -11.333 96 -34h9v266c0 28.667 -13 46.667 -39 54v29h112zM340.998 303.998c-8.66699 20.667 -22.835 35.5 -42.502 44.5s-38.5 13.5 -56.5 13.5c-29.333 0 -58.666 -10.5 -87.999 -31.5s-44 -67.167 -44 -138.5
c0 -55.333 10.833 -97.333 32.5 -126s49.834 -43 84.501 -43c17.333 0 33.5 3.16699 48.5 9.5s28.667 15.5 41 27.5s20.5 25.667 24.5 41v203z" />
    <glyph glyph-name="e" unicode="e" horiz-adv-x="386" 
d="M360 77c-20.667 -26 -44.5 -46.667 -71.5 -62s-54.833 -23 -83.5 -23c-47.333 0 -89 15 -125 45s-54 77.333 -54 142c0 67.333 17 119.833 51 157.5s75.667 56.5 125 56.5c46.667 0 83.5 -16.667 110.5 -50s39.5 -73.333 37.5 -120h-239
c-9.33301 -126.667 26.334 -190 107.001 -190c43.333 0 84.666 20.333 123.999 61zM271 254c1.33301 24 -3.16699 48.001 -13.5 72.001s-30.5 36 -60.5 36c-21.333 0 -40.5 -8.33301 -57.5 -25s-25.833 -44.334 -26.5 -83.001h158z" />
    <glyph glyph-name="f" unicode="f" horiz-adv-x="252" 
d="M27 385l48 0.000976562v101c0 43.333 7 81.166 21 113.499s32 57.166 54 74.499s44.333 26 67 26c14.667 0 27.5 -3.66699 38.5 -11s16.5 -17.666 16.5 -30.999c0 -22.667 -10.667 -34 -32 -34c-12 0 -22.333 5 -31 15c-8 8 -16.333 12 -25 12c-24 0 -36 -21.667 -36 -65
v-201h107v-31h-107v-252c0 -52 17 -76.333 51 -73v-29h-173v29c20.667 4 34 11.167 40 21.5s9 27.5 9 51.5v251h-48v32z" />
    <glyph glyph-name="g" unicode="g" horiz-adv-x="435" 
d="M41 -8l-15.001 34.001l78 128c-41.333 23.333 -62 58 -62 104c0 43.333 15.5 76.666 46.5 99.999s66.833 35 107.5 35c53.333 0 95.333 -14.667 126 -44c9.33301 28 26.333 42 51 42c14.667 0 26.5 -4.16699 35.5 -12.5s13.5 -19.833 13.5 -34.5
c0 -22.667 -10.333 -34 -31 -34c-16 0 -24 7.66699 -24 23c0 2.66699 0.666992 6 2 10c4 8 6 12.333 6 13c0 5.33301 -3 8 -9 8c-12.667 0 -20.334 -8.33301 -23.001 -25c-0.666992 -4 -0.666992 -8 0 -12c0.666992 -4.66699 2.33398 -10.167 5.00098 -16.5
s4.83398 -12.833 6.50098 -19.5s2.5 -16.667 2.5 -30c0 -40 -15.167 -72 -45.5 -96s-66.833 -36 -109.5 -36c-24.667 0 -46.667 3.66699 -66 11l-46 -73l3 -4c13.333 4.66699 23.333 8.33398 30 11.001c36.667 14.667 71 22 103 22c41.333 0 80.833 -11.5 118.5 -34.5
s56.5 -56.5 56.5 -100.5c0 -35.333 -15.833 -65.333 -47.5 -90s-74.167 -37 -127.5 -37c-42.667 0 -80.5 8.5 -113.5 25.5s-49.5 40.5 -49.5 70.5c0 14 4.16699 25.167 12.5 33.5s18.833 12.5 31.5 12.5c13.333 0 23 -3.33301 29 -10s9 -14.667 9 -24
c0 -6 -1.66699 -11.667 -5 -17c-1.33301 -2.66699 -4 -6.66699 -8 -12s-6 -10 -6 -14c0 -8.66699 7.5 -16.334 22.5 -23.001s36.5 -10 64.5 -10c48.667 0 83.667 8.16699 105 24.5s32 35.833 32 58.5c0 51.333 -45 77 -135 77c-56 0 -114 -11.333 -174 -34zM199.999 362.001
c-26.667 0 -45.667 -8.49902 -57 -25.499s-17 -42.167 -17 -75.5c0 -41.333 7.16699 -68.5 21.5 -81.5s31.833 -19.5 52.5 -19.5c22 0 39.667 7.16699 53 21.5s20 41.166 20 80.499c0 66.667 -24.333 100 -73 100z" />
    <glyph glyph-name="h" unicode="h" horiz-adv-x="450" 
d="M27 700l116.998 0.00195312v-358h7c38.667 34 80 51 124 51c68.667 0 103.667 -42 105 -126v-167c0 -14 0.833008 -25.5 2.5 -34.5s5.5 -16.833 11.5 -23.5s16 -11 30 -13v-29h-161v29c20 2.66699 32.333 9.66699 37 21s7 28 7 50v170
c0 27.333 -4.16699 47.666 -12.5 60.999s-24.166 20 -47.499 20c-20.667 0 -40.667 -7 -60 -21s-33.666 -31 -42.999 -51v-178c0 -22.667 3 -39.834 9 -51.501s18 -18.5 36 -20.5v-29h-163v29c18 2.66699 30 9.66699 36 21s9 28.333 9 51v518c0 17.333 -4.33301 30 -13 38
s-19 12.667 -31 14v29z" />
    <glyph glyph-name="i" unicode="i" horiz-adv-x="214" 
d="M26 385l117 0.000976562v-284c0 -22.667 3 -39.834 9 -51.501s18 -18.5 36 -20.5v-29h-162v29c18.667 2.66699 30.667 9.66699 36 21s8 28.333 8 51v182c0 24 -2.83301 41.333 -8.5 52s-17.5 17.667 -35.5 21v29zM47 565.001c0 12.667 4.83496 23.834 14.502 33.501
s21.167 14.5 34.5 14.5s24.666 -4.33301 33.999 -13s14 -20.334 14 -35.001s-4.83301 -26.5 -14.5 -35.5s-20.834 -13.5 -33.501 -13.5s-24 5 -34 15s-15 21.333 -15 34z" />
    <glyph glyph-name="i" unicode="&#xb3;" horiz-adv-x="214" 
d="M26 385l117 0.000976562v-284c0 -22.667 3 -39.834 9 -51.501s18 -18.5 36 -20.5v-29h-162v29c18.667 2.66699 30.667 9.66699 36 21s8 28.333 8 51v182c0 24 -2.83301 41.333 -8.5 52s-17.5 17.667 -35.5 21v29zM47 565.001c0 12.667 4.83496 23.834 14.502 33.501
s21.167 14.5 34.5 14.5s24.666 -4.33301 33.999 -13s14 -20.334 14 -35.001s-4.83301 -26.5 -14.5 -35.5s-20.834 -13.5 -33.501 -13.5s-24 5 -34 15s-15 21.333 -15 34z" />
    <glyph glyph-name="j" unicode="j" horiz-adv-x="210" 
d="M11 385l144.002 0.000976562v-361c-2.66699 -68.667 -12.334 -117.667 -29.001 -147c-24 -40.667 -59 -61 -105 -61c-18.667 0 -33.334 4.66699 -44.001 14s-16 19.666 -16 30.999c0 20.667 11.333 31 34 31c9.33301 0 20.333 -6.33301 33 -19
c7.33301 -10.667 17.333 -16 30 -16c16 0 24 10 24 30v396c0 28 -5.33301 47.667 -16 59s-29 16 -55 14v29zM58.002 584.001c0 12.667 4.66699 23.998 14 33.998s21 15 35 15c12.667 0 23.834 -4.83301 33.501 -14.5s14.5 -21.167 14.5 -34.5s-4.33301 -24.666 -13 -33.999
s-20.334 -14 -35.001 -14s-26.5 4.83301 -35.5 14.5s-13.5 20.834 -13.5 33.501z" />
    <glyph glyph-name="k" unicode="k" horiz-adv-x="423" 
d="M143 700l-0.000976562 -472.003l97 83c15.333 12.667 23 22 23 28c0 11.333 -9.33301 17 -28 17v29h155v-29c-31.333 -2.66699 -65.666 -20 -102.999 -52l-57 -49l133 -171c19.333 -23.333 32.5 -38.166 39.5 -44.499s16.167 -9.83301 27.5 -10.5v-29h-181v29
c24.667 -2.66699 37 4 37 20c0 6.66699 -3.66699 14.334 -11 23.001l-102 131l-30 -26v-76c0 -22.667 3 -39.667 9 -51s17.667 -18.333 35 -21v-29h-161v29c18.667 2.66699 30.667 9.66699 36 21s8 28.333 8 51v498c0 22.667 -2.83301 39.834 -8.5 51.501
s-17.5 18.5 -35.5 20.5v29h117z" />
    <glyph glyph-name="l" unicode="l" horiz-adv-x="215" 
d="M27 700l117 0.000976562v-599c0 -22.667 3 -39.834 9 -51.501s18 -18.5 36 -20.5v-29h-163v29c18 2.66699 30 9.66699 36 21s9 28.333 9 51v498c0 25.333 -2.5 43 -7.5 53s-17.167 16.333 -36.5 19v29z" />
    <glyph glyph-name="m" unicode="m" horiz-adv-x="689" 
d="M26 29c18 2.66699 30 9.66699 36 21s9 28.333 9 51v203c0 28 -14.667 45.333 -44 52v29h117v-49h3c19.333 20 41 34.5 65 43.5s46 13.5 66 13.5c21.333 0 40.666 -4.83301 57.999 -14.5s29.333 -23.834 36 -42.501h2c39.333 38 83.666 57 132.999 57
c48.667 0 79.334 -11.833 92.001 -35.5s19 -52.834 19 -87.501v-169c0 -22.667 3 -39.834 9 -51.501s18 -18.5 36 -20.5v-29h-163v29c18.667 2.66699 30.834 9.33398 36.501 20.001s8.5 28 8.5 52v169c0 54 -19.667 81 -59 81c-44 0 -79 -22 -105 -66v-184
c1.33301 -25.333 4.66602 -43.166 9.99902 -53.499s17 -16.5 35 -18.5v-29h-163v29c18.667 2.66699 30.834 9.33398 36.501 20.001s8.5 28 8.5 52v169c0 54 -19.667 81 -59 81c-40.667 0 -75.667 -22.333 -105 -67v-183c0 -44.667 15 -68.667 45 -72v-29h-163v29z" />
    <glyph glyph-name="n" unicode="n" horiz-adv-x="452" 
d="M26 29c18 2.66699 30 9.66406 36 20.9971s9 28.333 9 51v203c0 28 -14.667 45.333 -44 52v29h117v-49h3c36 38 79.667 57 131 57c46.667 0 75.5 -12.167 86.5 -36.5s16.5 -54.166 16.5 -89.499v-166c1.33301 -25.333 4.66602 -43.166 9.99902 -53.499s17 -16.5 35 -18.5
v-29h-163v29c18.667 2.66699 30.834 9.33398 36.501 20.001s8.5 28 8.5 52v169c0 54 -19.667 81 -59 81c-40.667 0 -75.667 -22.333 -105 -67v-183c0 -44.667 15 -68.667 45 -72v-29h-163v29z" />
    <glyph glyph-name="o" unicode="o" horiz-adv-x="432" 
d="M216 393c63.333 0 110.833 -20.667 142.5 -62s47.5 -87.333 47.5 -138c0 -66.667 -20.167 -116.834 -60.5 -150.501s-83.5 -50.5 -129.5 -50.5s-89.167 16.833 -129.5 50.5s-60.5 83.834 -60.5 150.501c0 50.667 16.167 96.667 48.5 138s79.5 62 141.5 62zM216 362
c-44.667 0 -73.5 -16.667 -86.5 -50s-19.5 -73.333 -19.5 -120c0 -48.667 6.66699 -89 20 -121s42 -48 86 -48s72.667 16 86 48s20 72.333 20 121c0 46 -6 85.833 -18 119.5s-41.333 50.5 -88 50.5z" />
    <glyph glyph-name="p" unicode="p" horiz-adv-x="455" 
d="M13 -184l-0.000976562 29c18 2 29.833 9 35.5 21s8.5 29 8.5 51v287c0 43.333 11.5 85.666 34.5 126.999s71.833 62 146.5 62c52.667 0 97.667 -17.667 135 -53s56 -84.333 56 -147c0 -29.333 -5.33301 -57.666 -16 -84.999s-27 -51.333 -49 -72
c-32.667 -29.333 -72.667 -44 -120 -44c-50 0 -87 13.667 -111 41h-3v-115c0 -24.667 3.83301 -43 11.5 -55s20.834 -18 39.501 -18v-29h-168zM129.999 252l-0.000976562 -116c0 -26.667 7.5 -52.167 22.5 -76.5s43.167 -36.5 84.5 -36.5c32.667 0 58.834 12 78.501 36
s29.5 68.333 29.5 133c0 113.333 -35.667 170 -107 170c-34 0 -60.5 -11.833 -79.5 -35.5s-28.5 -48.5 -28.5 -74.5z" />
    <glyph glyph-name="q" unicode="q" horiz-adv-x="490" 
d="M295 -184l-0.00195312 29.001c19.333 4 32.666 11.333 39.999 22s11 27.334 11 50.001v126h-4c-35.333 -34 -75.666 -51 -120.999 -51c-67.333 0 -116.666 20.5 -147.999 61.5s-47 85.5 -47 133.5c0 52.667 16.833 100.167 50.5 142.5s86.5 63.5 158.5 63.5
c44 0 83 -11 117 -33h5l39 33h23v-475c0 -22.667 2.83301 -40.334 8.5 -53.001s17.834 -19.334 36.501 -20.001v-29h-169zM345.998 304.001c-14 22.667 -30.667 38.001 -50 46.001s-37.333 12 -54 12c-32.667 0 -62.834 -12.167 -90.501 -36.5s-41.5 -68.833 -41.5 -133.5
c0 -55.333 10.833 -97.333 32.5 -126s49.834 -43 84.501 -43c24 0 47.333 7.16699 70 21.5s39 33.166 49 56.499v203z" />
    <glyph glyph-name="r" unicode="r" horiz-adv-x="295" 
d="M27 385h117v-62h4c30 46.667 62.667 70 98 70c16 0 28.167 -3.83301 36.5 -11.5s12.5 -18.5 12.5 -32.5c0 -8.66699 -3.16699 -16.834 -9.5 -24.501s-14.833 -11.5 -25.5 -11.5c-13.333 0 -24.333 5.33301 -33 16c-6 7.33301 -12.667 11 -20 11
c-14.667 0 -28.834 -11.833 -42.501 -35.5s-20.5 -55.167 -20.5 -94.5v-109c0 -22 3 -39 9 -51s18 -19 36 -21v-29h-163v29c18.667 2.66699 30.834 9.33398 36.501 20.001s8.5 28 8.5 52v203c0 28 -14.667 45.333 -44 52v29z" />
    <glyph glyph-name="s" unicode="s" horiz-adv-x="341" 
d="M172 393c39.333 0 68.6689 -8.00586 88.002 -24.0059s29 -33 29 -51c0 -20 -10.333 -30 -31 -30c-13.333 0 -23.166 5.33301 -29.499 16s-9.5 18.334 -9.5 23.001c-3.33301 23.333 -20.333 35 -51 35c-22.667 0 -40.834 -5.5 -54.501 -16.5s-20.5 -25.5 -20.5 -43.5
c0 -20.667 6 -35 18 -43s34 -16.667 66 -26c37.333 -9.33301 69.666 -22.333 96.999 -39s41 -43.667 41 -81c0 -38.667 -15.167 -68.5 -45.5 -89.5s-66.5 -31.5 -108.5 -31.5c-40 0 -72.5 9 -97.5 27s-37.5 38.667 -37.5 62c0 10.667 3.5 20.334 10.5 29.001
s16.833 13 29.5 13c12 0 21.333 -3.16699 28 -9.5s10 -13.833 10 -22.5c0 -6 -0.666992 -11.333 -2 -16s-2 -9 -2 -13c0 -9.33301 5.83301 -18.166 17.5 -26.499s27.167 -12.5 46.5 -12.5c27.333 0 47.666 6.66699 60.999 20s20 28.666 20 45.999
c0 20.667 -7.16699 35.334 -21.5 44.001s-38.5 18.334 -72.5 29.001c-44 14 -73.667 30.333 -89 49s-23 40.334 -23 65.001c0 38.667 13 67.834 39 87.501s57.333 29.5 94 29.5z" />
    <glyph glyph-name="s" horiz-adv-x="341" 
d="M172 393c39.333 0 68.6689 -8.00586 88.002 -24.0059s29 -33 29 -51c0 -20 -10.333 -30 -31 -30c-13.333 0 -23.166 5.33301 -29.499 16s-9.5 18.334 -9.5 23.001c-3.33301 23.333 -20.333 35 -51 35c-22.667 0 -40.834 -5.5 -54.501 -16.5s-20.5 -25.5 -20.5 -43.5
c0 -20.667 6 -35 18 -43s34 -16.667 66 -26c37.333 -9.33301 69.666 -22.333 96.999 -39s41 -43.667 41 -81c0 -38.667 -15.167 -68.5 -45.5 -89.5s-66.5 -31.5 -108.5 -31.5c-40 0 -72.5 9 -97.5 27s-37.5 38.667 -37.5 62c0 10.667 3.5 20.334 10.5 29.001
s16.833 13 29.5 13c12 0 21.333 -3.16699 28 -9.5s10 -13.833 10 -22.5c0 -6 -0.666992 -11.333 -2 -16s-2 -9 -2 -13c0 -9.33301 5.83301 -18.166 17.5 -26.499s27.167 -12.5 46.5 -12.5c27.333 0 47.666 6.66699 60.999 20s20 28.666 20 45.999
c0 20.667 -7.16699 35.334 -21.5 44.001s-38.5 18.334 -72.5 29.001c-44 14 -73.667 30.333 -89 49s-23 40.334 -23 65.001c0 38.667 13 67.834 39 87.501s57.333 29.5 94 29.5z" />
    <glyph glyph-name="t" unicode="t" horiz-adv-x="270" 
d="M20 385h44v87l73 40v-127h83v-31h-83v-257c0 -37.333 16 -56 48 -56c16 0 34.333 7 55 21l17 -20c-30 -33.333 -65 -50 -105 -50c-28.667 0 -50.5 8 -65.5 24s-22.5 42 -22.5 78v260h-44v31z" />
    <glyph glyph-name="u" unicode="u" horiz-adv-x="450" 
d="M379 385l-0.00195312 -282.999c0 -24 2.83301 -41 8.5 -51s17.834 -17.333 36.501 -22v-29h-118v49h-3c-35.333 -38 -78.666 -57 -129.999 -57c-46.667 0 -75.5 12.5 -86.5 37.5s-16.5 54.5 -16.5 88.5v185c0 35.333 -14.667 53 -44 53v29h117v-270
c0 -54 19.667 -81 59 -81c40 0 74.667 22.333 104 67v203c0 31.333 -14.667 48.666 -44 51.999v29h117z" />
    <glyph glyph-name="v" unicode="v" horiz-adv-x="413" 
d="M406 385l-0.000976562 -29c-29.333 -3.33301 -50.333 -20.333 -63 -51l-127 -313h-19l-130 301c-15.333 36 -37.666 57 -66.999 63v29h167v-29c-22 -0.666992 -33 -9 -33 -25c0 -5.33301 2.66699 -14 8 -26l81 -184h4l72 184c4.66699 12 7 21.333 7 28
c0 14.667 -12.333 22.667 -37 24v28h137z" />
    <glyph glyph-name="w" unicode="w" horiz-adv-x="584" 
d="M577 385v-29.001c-18.667 -0.666992 -34.667 -15.667 -48 -45l-140 -319h-29l-69 164h-4l-77 -164h-26l-136 330c-10 24.667 -26 36 -48 34v29h139v-29c-14.667 1.33301 -22 -3 -22 -13c0 -4 1.33301 -10 4 -18l96 -237h4l51 109l-53 124c-10 23.333 -22.667 35 -38 35
v29h227v-29c-14 -0.666992 -23.667 -4.66699 -29 -12s-12.333 -19.666 -21 -36.999l-34 -73l63 -150h3l98 224c6 12 9 21.667 9 29c0 14.667 -10.333 21 -31 19v29h111zM309 274.999l28 60c5.33301 10.667 8 17.667 8 21c0 4.66699 -3.33301 7 -10 7h-4h-8h-31h-6
c-8 0 -12 -3 -12 -9c0 -2.66699 2.33301 -9 7 -19l26 -60h2z" />
    <glyph glyph-name="x" unicode="x" horiz-adv-x="416" 
d="M392 385l0.00292969 -29c-14.667 0 -27.834 -4.16699 -39.501 -12.5s-25.834 -23.833 -42.501 -46.5l-59 -78l97 -135c15.333 -20.667 27.333 -35 36 -43s19.334 -12 32.001 -12v-29h-175v29c24 -2.66699 36 5.33301 36 24c0 8 -5 18.333 -15 31l-57 74h-1l-52 -68
c-13.333 -17.333 -20 -30.333 -20 -39c0 -16 13.333 -23.333 40 -22v-29h-152v29c19.333 -0.666992 35.5 4.5 48.5 15.5s29.833 29.833 50.5 56.5l65 87l-72 99c-16.667 24.667 -30.834 42.167 -42.501 52.5s-24.834 15.833 -39.501 16.5v29h170v-29
c-21.333 -1.33301 -32 -5.66602 -32 -12.999c0 -6 9 -21.667 27 -47l35 -48l40 57c12 15.333 18 27 18 35c0 11.333 -8.33301 16.666 -25 15.999v29h129z" />
    <glyph glyph-name="y" unicode="y" horiz-adv-x="429" 
d="M429 385l-0.00390625 -28.998c-18 -3.33301 -30.667 -10 -38 -20s-14.666 -23.333 -21.999 -40l-157 -348c-19.333 -44 -38.5 -77 -57.5 -99s-44.833 -33 -77.5 -33c-20 0 -36.5 4.83301 -49.5 14.5s-19.5 22.5 -19.5 38.5c0 11.333 3.66699 21.333 11 30s16 13 26 13
c10.667 0 22.334 -4.66699 35.001 -14c8.66699 -7.33301 18.334 -11 29.001 -11c22 0 40.333 16 55 48l30 66l-118 294c-17.333 43.333 -41 63.666 -71 60.999v29h184v-29h-10c-19.333 0 -29 -8.33301 -29 -25c0 -6 3 -16.667 9 -32l77 -193h4l80 177
c8.66699 17.333 13 31.333 13 42c0 8.66699 -3.16699 16.167 -9.5 22.5s-16.166 9.16602 -29.499 8.49902v29h135z" />
    <glyph glyph-name="z" unicode="z" horiz-adv-x="385" 
d="M45 303l0.000976562 82.001h307v-19l-227 -331v-4h121c25.333 0 46.333 3.16699 63 9.5s28 22.166 34 47.499h29v-88h-346v27l222 327h-91c-50.667 0 -78.334 -17 -83.001 -51h-29z" />
    <glyph glyph-name="braceleft" unicode="{" horiz-adv-x="347" 
d="M276 726l5 -32.0049c-20.667 -3.33301 -37.834 -12.333 -51.501 -27s-20.5 -35.334 -20.5 -62.001c0 -9.33301 0.666992 -24 2 -44s2 -36 2 -48c1.33301 -17.333 1.33301 -34.666 0 -51.999c-4 -80 -42 -137.667 -114 -173c71.333 -32 109.333 -89.667 114 -173
c1.33301 -16.667 1.33301 -33.667 0 -51c-2.66699 -60 -4 -91 -4 -93c0 -18 5.33301 -35.833 16 -53.5s29.334 -29.5 56.001 -35.5l-5 -32c-61.333 12 -99.833 34.5 -115.5 67.5s-23.5 72.833 -23.5 119.5c0.666992 12 1.16699 22.833 1.5 32.5s0.5 21.834 0.5 36.501
c0 100.667 -29 155.334 -87 164.001v37c17.333 2.66699 29.5 6.33398 36.5 11.001s13.833 12.334 20.5 23.001c12 17.333 20 33.333 24 48s6 42 6 82c0 14.667 -0.166992 26.834 -0.5 36.501s-0.833008 20.167 -1.5 31.5c0 48 7.83301 88.333 23.5 121
s54.167 54.667 115.5 66z" />
    <glyph glyph-name="bar" unicode="|" horiz-adv-x="190" 
d="M70 -224v1053h50v-1053h-50z" />
    <glyph glyph-name="bar" unicode="&#xa6;" horiz-adv-x="190" 
d="M70 -224v1053h50v-1053h-50z" />
    <glyph glyph-name="braceright" unicode="}" horiz-adv-x="347" 
d="M71 -150l-4.99805 32.002c44 8.66699 68 38.334 72 89.001c0.666992 15.333 0.666992 31 0 47c-0.666992 6.66699 -1.33398 13 -2.00098 19s-1 10.667 -1 14s-0.333008 7.66602 -1 12.999c-0.666992 17.333 -0.666992 34.333 0 51c4 82 41.667 139.667 113 173
c-22 11.333 -40.5 24 -55.5 38s-26.167 27.667 -33.5 41s-12.833 28.166 -16.5 44.499s-6.16699 32.833 -7.5 49.5c-1.33301 17.333 -1.33301 34.666 0 51.999c0 6 0.666992 13.667 2 23c1.33301 10.667 2 18.334 2 23.001c1.33301 15.333 1.33301 30.666 0 45.999
c-1.33301 22 -8.33301 41.667 -21 59s-29.667 27.333 -51 30l5 32c60 -11.333 98.333 -33.833 115 -67.5s25 -73.5 25 -119.5c0 -10 -0.333008 -21.167 -1 -33.5s-1.33398 -23.833 -2.00098 -34.5c0 -22.667 1.16699 -44.334 3.5 -65.001s9.83301 -41.167 22.5 -61.5
s33 -32.833 61 -37.5v-37c-38.667 -6 -62.834 -25 -72.501 -57s-14.5 -67.667 -14.5 -107c0.666992 -12 1.33398 -25 2.00098 -39s1 -24 1 -30c0 -44.667 -8.16699 -84.167 -24.5 -118.5s-54.833 -57.166 -115.5 -68.499z" />
    <glyph glyph-name="asciitilde" unicode="~" horiz-adv-x="725" 
d="M70 253c17.333 38 41.6641 71.5 72.9971 100.5s71.666 43.5 120.999 43.5c22.667 0 51 -5 85 -15c20.667 -6 41.834 -13.667 63.501 -23s39.5 -16.5 53.5 -21.5s28 -7.5 42 -7.5c20.667 0 40.667 7.33301 60 22s33 33.667 41 57h46
c-7.33301 -29.333 -20.166 -55.833 -38.499 -79.5s-40.5 -42.334 -66.5 -56.001s-55 -20.5 -87 -20.5c-21.333 0 -44.166 3.83301 -68.499 11.5s-51.833 17.834 -82.5 30.501c-41.333 17.333 -73 26 -95 26c-24 0 -43.667 -5.5 -59 -16.5s-29.666 -28.167 -42.999 -51.5h-45
z" />
    <glyph glyph-name="Agrave" horiz-adv-x="323" 
d="M228 39l-158 164l158 164l25 -20l-108 -144l108 -143z" />
    <glyph glyph-name="quoteleft" 
d="M169 708l20.001 -21.001c-38 -32 -60.333 -62.333 -67 -91l2 -3c19.333 2 35 -1.66699 47 -11s18 -23.666 18 -42.999c0 -14 -4.66699 -26.167 -14 -36.5s-23.333 -15.5 -42 -15.5c-42 0 -63 23.333 -63 70c0 29.333 10.167 58 30.5 86s43.166 49.667 68.499 65z" />
    <glyph glyph-name="quoteleft" unicode="&#x2018;" 
d="M169 708l20.001 -21.001c-38 -32 -60.333 -62.333 -67 -91l2 -3c19.333 2 35 -1.66699 47 -11s18 -23.666 18 -42.999c0 -14 -4.66699 -26.167 -14 -36.5s-23.333 -15.5 -42 -15.5c-42 0 -63 23.333 -63 70c0 29.333 10.167 58 30.5 86s43.166 49.667 68.499 65z" />
    <glyph glyph-name="quoteright" 
d="M90 487l-19.999 21c38 32 60.333 62.333 67 91l-2 3c-19.333 -2 -35 2 -47 12s-18 24 -18 42c0 14 5 26.167 15 36.5s23.667 15.5 41 15.5s32.166 -5.16699 44.499 -15.5s18.5 -28.5 18.5 -54.5c0 -28.667 -10 -57 -30 -85s-43 -50 -69 -66z" />
    <glyph glyph-name="quoteright" unicode="&#x2019;" 
d="M90 487l-19.999 21c38 32 60.333 62.333 67 91l-2 3c-19.333 -2 -35 2 -47 12s-18 24 -18 42c0 14 5 26.167 15 36.5s23.667 15.5 41 15.5s32.166 -5.16699 44.499 -15.5s18.5 -28.5 18.5 -54.5c0 -28.667 -10 -57 -30 -85s-43 -50 -69 -66z" />
    <glyph glyph-name="quoteright" unicode="&#xb4;" 
d="M90 487l-19.999 21c38 32 60.333 62.333 67 91l-2 3c-19.333 -2 -35 2 -47 12s-18 24 -18 42c0 14 5 26.167 15 36.5s23.667 15.5 41 15.5s32.166 -5.16699 44.499 -15.5s18.5 -28.5 18.5 -54.5c0 -28.667 -10 -57 -30 -85s-43 -50 -69 -66z" />
    <glyph glyph-name="quotedblleft" horiz-adv-x="418" 
d="M328 708l20.001 -21.001c-38.667 -32.667 -61 -63 -67 -91l2 -3c19.333 2 35 -1.66699 47 -11s18 -23.666 18 -42.999c0 -14 -4.66699 -26.167 -14 -36.5s-23.333 -15.5 -42 -15.5c-42 0 -63 23.333 -63 70c0 29.333 10.167 58 30.5 86s43.166 49.667 68.499 65z
M169.001 707.999l20.001 -21.001c-38 -32 -60.333 -62.333 -67 -91l2 -3c19.333 2 35 -1.66699 47 -11s18 -23.666 18 -42.999c0 -14 -4.66699 -26.167 -14 -36.5s-23.333 -15.5 -42 -15.5c-42 0 -63 23.333 -63 70c0 29.333 10.167 58 30.5 86s43.166 49.667 68.499 65z
" />
    <glyph glyph-name="quotedblleft" unicode="&#x201c;" horiz-adv-x="418" 
d="M328 708l20.001 -21.001c-38.667 -32.667 -61 -63 -67 -91l2 -3c19.333 2 35 -1.66699 47 -11s18 -23.666 18 -42.999c0 -14 -4.66699 -26.167 -14 -36.5s-23.333 -15.5 -42 -15.5c-42 0 -63 23.333 -63 70c0 29.333 10.167 58 30.5 86s43.166 49.667 68.499 65z
M169.001 707.999l20.001 -21.001c-38 -32 -60.333 -62.333 -67 -91l2 -3c19.333 2 35 -1.66699 47 -11s18 -23.666 18 -42.999c0 -14 -4.66699 -26.167 -14 -36.5s-23.333 -15.5 -42 -15.5c-42 0 -63 23.333 -63 70c0 29.333 10.167 58 30.5 86s43.166 49.667 68.499 65z
" />
    <glyph glyph-name="quotedblright" horiz-adv-x="418" 
d="M90 487l-19.999 21c38 32 60.333 62.333 67 91l-2 3c-19.333 -2 -35 2 -47 12s-18 24 -18 42c0 14 5 26.167 15 36.5s23.667 15.5 41 15.5s32.166 -5.16699 44.499 -15.5s18.5 -28.5 18.5 -54.5c0 -28.667 -10 -57 -30 -85s-43 -50 -69 -66zM249.001 487l-19.999 21
c38.667 32.667 61 63 67 91l-2 3c-19.333 -2 -35 2 -47 12s-18 24 -18 42c0 14 5 26.167 15 36.5s23.667 15.5 41 15.5s32.166 -5.16699 44.499 -15.5s18.5 -28.5 18.5 -54.5c0 -28.667 -10 -57 -30 -85s-43 -50 -69 -66z" />
    <glyph glyph-name="quotedblright" unicode="&#x201d;" horiz-adv-x="418" 
d="M90 487l-19.999 21c38 32 60.333 62.333 67 91l-2 3c-19.333 -2 -35 2 -47 12s-18 24 -18 42c0 14 5 26.167 15 36.5s23.667 15.5 41 15.5s32.166 -5.16699 44.499 -15.5s18.5 -28.5 18.5 -54.5c0 -28.667 -10 -57 -30 -85s-43 -50 -69 -66zM249.001 487l-19.999 21
c38.667 32.667 61 63 67 91l-2 3c-19.333 -2 -35 2 -47 12s-18 24 -18 42c0 14 5 26.167 15 36.5s23.667 15.5 41 15.5s32.166 -5.16699 44.499 -15.5s18.5 -28.5 18.5 -54.5c0 -28.667 -10 -57 -30 -85s-43 -50 -69 -66z" />
    <glyph glyph-name="endash" horiz-adv-x="757" 
d="M70 301v50h617v-50h-617z" />
    <glyph glyph-name="endash" unicode="&#x2013;" horiz-adv-x="757" 
d="M70 301v50h617v-50h-617z" />
    <glyph glyph-name="emdash" horiz-adv-x="1052" 
d="M70 158v55h912v-55h-912z" />
    <glyph glyph-name="emdash" unicode="&#x2014;" horiz-adv-x="1052" 
d="M70 158v55h912v-55h-912z" />
    <glyph glyph-name="trademark" horiz-adv-x="827" 
d="M70 629v71.001c87.333 -4 179.333 -4 276 0v-71h-18c-4 25.333 -19.333 38 -46 38h-48v-213c0 -9.33301 1.16699 -16.833 3.5 -22.5s9.5 -9.83398 21.5 -12.501v-18h-102v18c16.667 1.33301 25 13 25 35v213h-49c-26 0 -41 -12.667 -45 -38h-18zM375 697.001
l117 -0.00195312l81 -204h4l83 204h97v-19c-16.667 -1.33301 -25 -9.66602 -25 -24.999v-199c0 -19.333 8.33301 -31 25 -35v-18h-107v18c16.667 5.33301 25 17 25 35v207h-3l-109 -263h-21l-108 274h-4v-226c0 -15.333 8.33301 -24.333 25 -27v-18h-80v18
c1.33301 0.666992 3 1.33398 5 2.00098c13.333 3.33301 20 11.333 20 24v207c0 8 -2.33301 14.333 -7 19s-10.667 7 -18 7v19z" />
    <glyph glyph-name="trademark" unicode="&#x2122;" horiz-adv-x="827" 
d="M70 629v71.001c87.333 -4 179.333 -4 276 0v-71h-18c-4 25.333 -19.333 38 -46 38h-48v-213c0 -9.33301 1.16699 -16.833 3.5 -22.5s9.5 -9.83398 21.5 -12.501v-18h-102v18c16.667 1.33301 25 13 25 35v213h-49c-26 0 -41 -12.667 -45 -38h-18zM375 697.001
l117 -0.00195312l81 -204h4l83 204h97v-19c-16.667 -1.33301 -25 -9.66602 -25 -24.999v-199c0 -19.333 8.33301 -31 25 -35v-18h-107v18c16.667 5.33301 25 17 25 35v207h-3l-109 -263h-21l-108 274h-4v-226c0 -15.333 8.33301 -24.333 25 -27v-18h-80v18
c1.33301 0.666992 3 1.33398 5 2.00098c13.333 3.33301 20 11.333 20 24v207c0 8 -2.33301 14.333 -7 19s-10.667 7 -18 7v19z" />
    <glyph glyph-name="Atilde" horiz-adv-x="324" 
d="M96 39l-26 21l108 143l-108 144l26 20l158 -164z" />
    <glyph glyph-name="ydieresis" unicode="&#xa1;" horiz-adv-x="630" 
d="M630 700l-0.00195312 -33.999c-42.667 -7.33301 -74.667 -36.333 -96 -87l-143 -331l-43.5 -102.5c-11.667 -27 -25.667 -52.333 -42 -76s-35.666 -42.5 -57.999 -56.5s-50.166 -21 -83.499 -21c-39.333 0 -70.333 8.33301 -93 25s-34 37 -34 61
c0 17.333 5.16699 30.333 15.5 39s21.5 13 33.5 13c12.667 0 24.5 -4.66699 35.5 -14s16.5 -21.333 16.5 -36v-10c-2 -28.667 12.333 -43 43 -43c50 0 94.333 47.667 133 143l-237 419c-15.333 28 -27.5 47.333 -36.5 58s-22.5 17 -40.5 19v34h204v-34
c-27.333 -1.33301 -41 -12 -41 -32c0 -10 7.66699 -29.333 23 -58l170 -301h4l132 304c8 19.333 12 33.666 12 42.999c0 14 -5 25.333 -15 34s-22.333 12 -37 10v34h178zM327.998 796.001c83.333 0 125.002 11.668 125.002 35.001c0 6.66699 -4 10.667 -12 12h-9h-13
c-18 2 -27 11 -27 27c0 8.66699 3.5 16.5 10.5 23.5s17.5 10.5 31.5 10.5c20.667 0 36.5 -6 47.5 -18s16.5 -26 16.5 -42c0 -26 -13.5 -49.833 -40.5 -71.5s-70.167 -32.5 -129.5 -32.5c-58.667 0 -101.834 11 -129.501 33s-41.5 45.667 -41.5 71
c0 15.333 5.83301 29.166 17.5 41.499s27.5 18.5 47.5 18.5c15.333 0 26.166 -3.33301 32.499 -10s9.5 -14.667 9.5 -24c0 -16 -9 -25 -27 -27h-13h-9c-8 -1.33301 -12 -5.33301 -12 -12c0 -23.333 41.667 -35 125 -35z" />
    <glyph glyph-name="Ydieresis" unicode="&#xa2;" horiz-adv-x="415" 
d="M424 385l-0.00195312 -30.002l-15 -4c-18 -8 -33.333 -26.333 -46 -55l-156 -348c-19.333 -42 -39.166 -74.5 -59.499 -97.5s-46.833 -34.5 -79.5 -34.5c-15.333 0 -30 4.33301 -44 13s-21 22 -21 40c0 12.667 3.33301 22.834 10 30.501s15.667 11.5 27 11.5
c12.667 0 24 -4.33301 34 -13c10 -7.33301 20 -11 30 -11c14 0 25.167 4.33301 33.5 13s15.5 20.334 21.5 35.001l30 66l-119 294c-17.333 42.667 -40.666 62.667 -69.999 60v30h184v-30h-10c-19.333 0 -29 -8.66699 -29 -26c0 -3.33301 3 -13.333 9 -30l79 -198l88 195
c4.66699 9.33301 7 19 7 29c0 22 -13 32 -39 30v30h135zM229.998 483.998c-40 0 -73.166 9.33301 -99.499 28s-39.5 40.334 -39.5 65.001c0 15.333 6.5 29.666 19.5 42.999s30.5 20 52.5 20c11.333 0 21 -3 29 -9s12 -14.333 12 -25c0 -17.333 -10 -26 -30 -26
c-7.33301 0 -13.666 1.33301 -18.999 4c-8 4 -14.667 6 -20 6c-11.333 0 -17 -4.66699 -17 -14c0 -12 9.66699 -23.167 29 -33.5s47.666 -15.5 84.999 -15.5c32 0 59.167 4.83301 81.5 14.5s33.5 21.167 33.5 34.5c0 8.66699 -5.66699 13 -17 13c-6 0 -13 -1.66699 -21 -5
c-5.33301 -2.66699 -11.333 -4 -18 -4c-20.667 0 -31 8.66699 -31 26c0 8.66699 3.66699 16.5 11 23.5s17.666 10.5 30.999 10.5c22 0 39.5 -6.66699 52.5 -20s19.5 -27.666 19.5 -42.999c0 -22.667 -12.5 -43.834 -37.5 -63.501s-60.5 -29.5 -106.5 -29.5z" />
    <glyph glyph-name="Ydieresis" unicode="&#x178;" horiz-adv-x="415" 
d="M424 385l-0.00195312 -30.002l-15 -4c-18 -8 -33.333 -26.333 -46 -55l-156 -348c-19.333 -42 -39.166 -74.5 -59.499 -97.5s-46.833 -34.5 -79.5 -34.5c-15.333 0 -30 4.33301 -44 13s-21 22 -21 40c0 12.667 3.33301 22.834 10 30.501s15.667 11.5 27 11.5
c12.667 0 24 -4.33301 34 -13c10 -7.33301 20 -11 30 -11c14 0 25.167 4.33301 33.5 13s15.5 20.334 21.5 35.001l30 66l-119 294c-17.333 42.667 -40.666 62.667 -69.999 60v30h184v-30h-10c-19.333 0 -29 -8.66699 -29 -26c0 -3.33301 3 -13.333 9 -30l79 -198l88 195
c4.66699 9.33301 7 19 7 29c0 22 -13 32 -39 30v30h135zM229.998 483.998c-40 0 -73.166 9.33301 -99.499 28s-39.5 40.334 -39.5 65.001c0 15.333 6.5 29.666 19.5 42.999s30.5 20 52.5 20c11.333 0 21 -3 29 -9s12 -14.333 12 -25c0 -17.333 -10 -26 -30 -26
c-7.33301 0 -13.666 1.33301 -18.999 4c-8 4 -14.667 6 -20 6c-11.333 0 -17 -4.66699 -17 -14c0 -12 9.66699 -23.167 29 -33.5s47.666 -15.5 84.999 -15.5c32 0 59.167 4.83301 81.5 14.5s33.5 21.167 33.5 34.5c0 8.66699 -5.66699 13 -17 13c-6 0 -13 -1.66699 -21 -5
c-5.33301 -2.66699 -11.333 -4 -18 -4c-20.667 0 -31 8.66699 -31 26c0 8.66699 3.66699 16.5 11 23.5s17.666 10.5 30.999 10.5c22 0 39.5 -6.66699 52.5 -20s19.5 -27.666 19.5 -42.999c0 -22.667 -12.5 -43.834 -37.5 -63.501s-60.5 -29.5 -106.5 -29.5z" />
    <glyph glyph-name="lozenge" unicode="&#xa3;" horiz-adv-x="428" 
d="M90 -123l-19.999 21c38 32 60.333 62.333 67 91l-2 3c-19.333 -2 -35 2 -47 12s-18 24 -18 42c0 14 5 26.167 15 36.5s23.667 15.5 41 15.5s32.166 -5.16699 44.499 -15.5s18.5 -28.5 18.5 -54.5c0 -28.667 -10 -57 -30 -85s-43 -50 -69 -66zM259.001 -123l-19.999 21
c38 32 60.333 62.333 67 91l-2 3c-19.333 -2 -35 2 -47 12s-18 24 -18 42c0 14 5 26.167 15 36.5s23.667 15.5 41 15.5s32.166 -5.16699 44.499 -15.5s18.5 -28.5 18.5 -54.5c0 -28.667 -10 -57 -30 -85s-43 -50 -69 -66z" />
    <glyph glyph-name="caron" unicode="&#xa4;" horiz-adv-x="593" 
d="M555 620l37.999 -38.002l-95 -93c40 -47.333 60 -102.666 60 -165.999s-20 -118.666 -60 -165.999l95 -93l-38 -38l-93 95c-47.333 -40 -102.666 -60 -165.999 -60c-64.667 0 -119.667 20 -165 60l-94 -95l-37 38l94 93c-40 50 -60 105.333 -60 166
c0 62 20 117.333 60 166l-94 93l37 38l94 -95c48.667 40 103.667 60 165 60c60.667 0 116 -20 166 -60zM86.999 322.998c0 -62 21.167 -113.333 63.5 -154s90.833 -61 145.5 -61c54 0 102.5 20.333 145.5 61s64.5 92 64.5 154c0 40.667 -10 77.667 -30 111s-46 59 -78 77
s-66 27 -102 27c-35.333 0 -69 -9.16699 -101 -27.5s-58 -44 -78 -77s-30 -69.833 -30 -110.5z" />
    <glyph glyph-name="section" unicode="&#xa7;" horiz-adv-x="558" 
d="M284 708c44 0 81.501 -11.334 112.501 -34.001s46.5 -52 46.5 -88c0 -17.333 -4.33301 -31 -13 -41s-20.334 -15 -35.001 -15c-14 0 -25.667 4 -35 12s-14 19 -14 33c0 16 1.33301 26.667 4 32s4 10 4 14c0 12.667 -7 23.834 -21 33.501s-32.667 14.5 -56 14.5
c-22.667 0 -42.5 -6.16699 -59.5 -18.5s-25.5 -28.5 -25.5 -48.5c0 -34 23 -69.333 69 -106l109 -88c36 -28.667 64.667 -56.167 86 -82.5s32 -56.833 32 -91.5c0 -61.333 -36.667 -113.666 -110 -156.999c30.667 -30.667 46 -67.667 46 -111c0 -42 -16 -77.5 -48 -106.5
s-69 -43.5 -111 -43.5c-40 0 -76.167 10.5 -108.5 31.5s-48.5 50.5 -48.5 88.5c0 18 4.5 34.167 13.5 48.5s22.5 21.5 40.5 21.5c14.667 0 27 -4.33301 37 -13s15 -20.667 15 -36c0 -12.667 -2.16699 -23.334 -6.5 -32.001s-6.5 -16.334 -6.5 -23.001
c0 -12 6.16699 -22.833 18.5 -32.5s29.833 -14.5 52.5 -14.5s43 6.83301 61 20.5s27 33.834 27 60.501c0 24 -6.5 43.167 -19.5 57.5s-34.833 34.833 -65.5 61.5l-130 110c-50 42 -75 89 -75 141c0 60.667 35 110.667 105 150c-30.667 34.667 -46 72.667 -46 114
c0 38 13.167 70.5 39.5 97.5s64.833 40.5 115.5 40.5zM203.001 429.999c-46.667 -26 -70.001 -54.667 -70.001 -86c0 -23.333 5.5 -41.5 16.5 -54.5s29.833 -32.167 56.5 -57.5l148 -127c46 29.333 69 61 69 95c0 20 -7.16699 39 -21.5 57s-35.166 38 -62.499 60z" />
    <glyph glyph-name="guilsinglright" unicode="&#xa8;" horiz-adv-x="655" 
d="M52 700l393.999 -0.00195312c34.667 0 62 1.66699 82 5c16.667 2.66699 31 3.66699 43 3v-133h-34c-8.66699 34 -25.334 56.833 -50.001 68.5s-60 17.5 -106 17.5h-183v-287h125c22.667 0 40.834 3.16699 54.501 9.5s22.834 21.833 27.501 46.5h33v-151h-33
c-7.33301 26 -16 41.833 -26 47.5s-28.667 8.5 -56 8.5h-125v-296h205c56 0 101.333 7.83301 136 23.5s53.334 44.834 56.001 87.501h34l-11 -150h-566v34c40 4 60 31 60 81v470c0 26.667 -4.33301 46.834 -13 60.501s-24.334 20.5 -47.001 20.5v34zM144.999 823.998
c0 16.667 6.16797 31.832 18.501 45.499s27.833 20.5 46.5 20.5c18 0 33.5 -6 46.5 -18s19.5 -28 19.5 -48c0 -19.333 -6.83301 -35.166 -20.5 -47.499s-28.834 -18.5 -45.501 -18.5c-17.333 0 -32.5 7 -45.5 21s-19.5 29 -19.5 45zM391 823.996
c0 19.333 6.83203 35.168 20.499 47.501s28.834 18.5 45.501 18.5c18 0 33.333 -6 46 -18s19 -28 19 -48c0 -18.667 -6.66699 -34.334 -20 -47.001s-28.333 -19 -45 -19c-16 0 -31 6.5 -45 19.5s-21 28.5 -21 46.5z" />
    <glyph glyph-name="guilsinglright" unicode="&#x203a;" horiz-adv-x="655" 
d="M52 700l393.999 -0.00195312c34.667 0 62 1.66699 82 5c16.667 2.66699 31 3.66699 43 3v-133h-34c-8.66699 34 -25.334 56.833 -50.001 68.5s-60 17.5 -106 17.5h-183v-287h125c22.667 0 40.834 3.16699 54.501 9.5s22.834 21.833 27.501 46.5h33v-151h-33
c-7.33301 26 -16 41.833 -26 47.5s-28.667 8.5 -56 8.5h-125v-296h205c56 0 101.333 7.83301 136 23.5s53.334 44.834 56.001 87.501h34l-11 -150h-566v34c40 4 60 31 60 81v470c0 26.667 -4.33301 46.834 -13 60.501s-24.334 20.5 -47.001 20.5v34zM144.999 823.998
c0 16.667 6.16797 31.832 18.501 45.499s27.833 20.5 46.5 20.5c18 0 33.5 -6 46.5 -18s19.5 -28 19.5 -48c0 -19.333 -6.83301 -35.166 -20.5 -47.499s-28.834 -18.5 -45.501 -18.5c-17.333 0 -32.5 7 -45.5 21s-19.5 29 -19.5 45zM391 823.996
c0 19.333 6.83203 35.168 20.499 47.501s28.834 18.5 45.501 18.5c18 0 33.333 -6 46 -18s19 -28 19 -48c0 -18.667 -6.66699 -34.334 -20 -47.001s-28.333 -19 -45 -19c-16 0 -31 6.5 -45 19.5s-21 28.5 -21 46.5z" />
    <glyph glyph-name="copyright" unicode="&#xa9;" horiz-adv-x="795" 
d="M70 314c0 54.667 13.833 107.336 41.5 158.003s66.167 91.667 115.5 123s106 47 170 47c50 0 95 -9.33301 135 -28s74.5 -43.334 103.5 -74.001s51.167 -65.834 66.5 -105.501s23 -79.834 23 -120.501c0 -54 -13.833 -106.333 -41.5 -157s-66.167 -91.667 -115.5 -123
s-106.333 -47 -171 -47c-64 0 -120.667 15.667 -170 47s-87.833 72.333 -115.5 123s-41.5 103 -41.5 157zM109 314.002c0 -83.333 29.3311 -152.168 87.998 -206.501s125.334 -81.5 200.001 -81.5c49.333 0 96 12.167 140 36.5s79.667 58.333 107 102s41 93.5 41 149.5
c0 56.667 -13.667 106.834 -41 150.501s-63 77.667 -107 102s-90.667 36.5 -140 36.5c-75.333 0 -142.166 -27 -200.499 -81s-87.5 -123.333 -87.5 -208zM523.998 218l14.0029 -15.0039c-6 -5.33301 -11.667 -10.666 -17 -15.999c-18 -16 -34.167 -28 -48.5 -36
s-38.166 -12 -71.499 -12c-44.667 0 -79.834 10.333 -105.501 31s-43.667 44.5 -54 71.5s-15.5 51.167 -15.5 72.5c0 40.667 14 81.167 42 121.5s70.667 60.5 128 60.5c28.667 0 54.667 -4.33301 78 -13c10 -3.33301 18.667 -5 26 -5c3.33301 0 7 2 11 6h11v-77h-22
c-8.66699 24.667 -23.167 41.334 -43.5 50.001s-39.5 13 -57.5 13c-12.667 0 -27.667 -4.33301 -45 -13s-32.5 -24.667 -45.5 -48s-19.5 -54.666 -19.5 -93.999c0 -33.333 7.33301 -66.333 22 -99s44.667 -49 90 -49c23.333 0 41.166 2.33301 53.499 7
s27.166 12.334 44.499 23.001c11.333 6.66699 19.666 13.667 24.999 21z" />
    <glyph glyph-name="guillemotleft" unicode="&#xab;" horiz-adv-x="481" 
d="M222 19l-152 164l152 164l25 -20l-114 -144l114 -143zM385 19l-151 164l151 164l26 -20l-114 -144l114 -143z" />
    <glyph glyph-name="logicalnot" unicode="&#xac;" horiz-adv-x="691" 
d="M70 301v49h551v-26v-23v-104h-49v104h-502z" />
    <glyph glyph-name="registered" unicode="&#xae;" horiz-adv-x="795" 
d="M70 314c0 54.667 13.833 107.336 41.5 158.003s66.167 91.667 115.5 123s106 47 170 47c50 0 95 -9.33301 135 -28s74.5 -43.334 103.5 -74.001s51.167 -65.834 66.5 -105.501s23 -79.834 23 -120.501c0 -54 -13.833 -106.333 -41.5 -157s-66.167 -91.667 -115.5 -123
s-106.333 -47 -171 -47c-64 0 -120.667 15.667 -170 47s-87.833 72.333 -115.5 123s-41.5 103 -41.5 157zM109 314.002c0 -83.333 29.3311 -152.168 87.998 -206.501s125.334 -81.5 200.001 -81.5c49.333 0 96 12.167 140 36.5s79.667 58.333 107 102s41 93.5 41 149.5
c0 56.667 -13.667 106.834 -41 150.501s-63 77.667 -107 102s-90.667 36.5 -140 36.5c-75.333 0 -142.166 -27 -200.499 -81s-87.5 -123.333 -87.5 -208zM272.998 484l159 -0.000976562c21.333 0 43.833 -5.16699 67.5 -15.5s35.5 -32.833 35.5 -67.5
c0 -43.333 -22.667 -71.666 -68 -84.999l68 -106c10.667 -15.333 16.667 -23.5 18 -24.5s9.33301 -3.83301 24 -8.5v-21h-66l-90 149h-74v-99c0 -16 8.66699 -25.667 26 -29v-21h-100v21c18.667 3.33301 28 16 28 38v215c0 22 -9.33301 34.667 -28 38v16zM346.998 327.999
h47c59.333 0 89 23.333 89 70c0 41.333 -29.667 62 -89 62h-47v-132z" />
    <glyph glyph-name="integral" unicode="&#xaf;" horiz-adv-x="309" 
d="M256 700v-34c-39.333 -2.66699 -59 -29.667 -59 -81v-470c0 -50.667 20 -77.667 60 -81v-34h-206v34c40 3.33301 60 30.333 60 81v470c0 50 -20 77 -60 81v34h205zM69 854c16 0 29.833 -5.49805 41.5 -16.498s17.5 -25.167 17.5 -42.5
c0 -14.667 -5.5 -28.334 -16.5 -41.001s-25.167 -19 -42.5 -19c-16 0 -29.833 6.16699 -41.5 18.5s-17.5 26.166 -17.5 41.499c0 14.667 5.5 28.167 16.5 40.5s25.167 18.5 42.5 18.5zM240 854.002c17.333 0 31.5 -6.16895 42.5 -18.502s16.5 -25.833 16.5 -40.5
c0 -15.333 -5.83301 -29.166 -17.5 -41.499s-25.5 -18.5 -41.5 -18.5c-17.333 0 -31.5 6.33301 -42.5 19s-16.5 26.334 -16.5 41.001c0 17.333 5.83301 31.5 17.5 42.5s25.5 16.5 41.5 16.5z" />
    <glyph glyph-name="degree" unicode="&#xb0;" horiz-adv-x="340" 
d="M70 608c0 26.667 9.5 49.999 28.5 69.999s42.833 30 71.5 30s52.5 -10.167 71.5 -30.5s28.5 -43.5 28.5 -69.5s-9.33301 -49 -28 -69s-42.667 -30 -72 -30s-53.333 9.83301 -72 29.5s-28 42.834 -28 69.501zM107 607.999c0 -16 6.50195 -30.5 19.502 -43.5
s27.5 -19.5 43.5 -19.5c18 0 33 6.33301 45 19s18 27.334 18 44.001c0 17.333 -5.83301 32.166 -17.5 44.499s-26.834 18.5 -45.501 18.5s-33.834 -6.5 -45.501 -19.5s-17.5 -27.5 -17.5 -43.5z" />
    <glyph glyph-name="plusminus" unicode="&#xb1;" horiz-adv-x="497" 
d="M270 164h-42v140h-228v42h228v181h42v-181h227v-42h-227v-140zM0 52v43h497v-43h-497z" />
    <glyph glyph-name="paragraph" unicode="&#xb6;" horiz-adv-x="605" 
d="M244 -197v625.998c-47.333 -1.33301 -88.166 9.33398 -122.499 32.001s-51.5 61.334 -51.5 116.001c0 41.333 14.667 71.333 44 90s67.666 28 114.999 28h306v-39h-55v-853h-60v853h-116v-853h-60z" />
    <glyph glyph-name="bullet" unicode="&#xb7;" horiz-adv-x="310" 
d="M70 324c0 22.667 7.66699 42.5 23 59.5s36 25.5 62 25.5c22 0 41.667 -7.83301 59 -23.5s26 -36.167 26 -61.5s-8.5 -45.833 -25.5 -61.5s-36.833 -23.5 -59.5 -23.5c-25.333 0 -45.833 8.66699 -61.5 26s-23.5 37 -23.5 59z" />
    <glyph glyph-name="bullet" unicode="&#x2022;" horiz-adv-x="310" 
d="M70 324c0 22.667 7.66699 42.5 23 59.5s36 25.5 62 25.5c22 0 41.667 -7.83301 59 -23.5s26 -36.167 26 -61.5s-8.5 -45.833 -25.5 -61.5s-36.833 -23.5 -59.5 -23.5c-25.333 0 -45.833 8.66699 -61.5 26s-23.5 37 -23.5 59z" />
    <glyph glyph-name="fi" unicode="&#xb8;" horiz-adv-x="386" 
d="M360 77c-20.667 -26 -44.5 -46.667 -71.5 -62s-54.833 -23 -83.5 -23c-47.333 0 -89 15 -125 45s-54 77.333 -54 142c0 67.333 17 119.833 51 157.5s75.667 56.5 125 56.5c46.667 0 83.5 -16.667 110.5 -50s39.5 -73.333 37.5 -120h-239
c-9.33301 -126.667 26.334 -190 107.001 -190c43.333 0 84.666 20.333 123.999 61zM271 254c1.33301 24 -3.16699 48.001 -13.5 72.001s-30.5 36 -60.5 36c-21.333 0 -40.5 -8.33301 -57.5 -25s-25.833 -44.334 -26.5 -83.001h158zM67 572.001c0 12.667 4.33301 24 13 34
s20.667 15 36 15s27.333 -5.33301 36 -16s13 -21.667 13 -33c0 -12.667 -4.66699 -24 -14 -34s-21 -15 -35 -15c-11.333 0 -22.333 4.33301 -33 13s-16 20.667 -16 36zM220 572.001c0 11.333 4.33301 22.333 13 33s20.667 16 36 16s27.333 -4.66699 36 -14s13 -21 13 -35
c0 -15.333 -5.33301 -27.333 -16 -36s-21.667 -13 -33 -13c-14 0 -25.667 5 -35 15s-14 21.333 -14 34z" />
    <glyph glyph-name="guilsinglleft" unicode="&#xb9;" horiz-adv-x="1118" 
d="M138 700l166.997 -0.000976562l303 -511h6v391c0 37.333 8.83301 68 26.5 92s46.5 36 86.5 36c28 0 50 -5.83301 66 -17.5s24 -25.834 24 -42.501c0 -12 -4.16699 -22.5 -12.5 -31.5s-20.166 -13.5 -35.499 -13.5c-12 0 -20.833 1.83301 -26.5 5.5
s-10 8.83398 -13 15.501s-7.16699 12 -12.5 16s-13.666 6 -24.999 6c-26 0 -39 -24 -39 -72v-582h-21l-361 608h-6v-464c0 -28.667 -1.66699 -50.167 -5 -64.5s-9.33301 -27.5 -18 -39.5c-19.333 -26.667 -50 -40 -92 -40c-22 0 -40.833 6.16699 -56.5 18.5
s-23.5 27.833 -23.5 46.5c0 11.333 4 21.666 12 30.999s18.667 14 32 14c22.667 0 39.667 -8.66699 51 -26c10.667 -14.667 20.334 -22 29.001 -22c21.333 0 32 25.333 32 76v472c0 24.667 -6.83301 40.834 -20.5 48.501s-36.167 12.834 -67.5 15.501v34zM794.997 53.999v68
h220v-68h-220zM898.997 188.999c-44.667 0 -81 14.668 -109 44.001c-26.667 28.667 -40 62.667 -40 102s13.667 73.666 41 102.999s63.333 44 108 44s80.667 -14.5 108 -43.5s41 -63.5 41 -103.5c0 -39.333 -13.333 -73.333 -40 -102c-28 -29.333 -64.333 -44 -109 -44z
M898.997 458c-28.667 0 -47.667 -8.66699 -57 -26s-14 -49.666 -14 -96.999c0 -30.667 2 -54.834 6 -72.501s11.167 -30.334 21.5 -38.001s24.833 -11.5 43.5 -11.5s33.167 3.83301 43.5 11.5s17.5 20.334 21.5 38.001s6 41.834 6 72.501
c0 47.333 -4.66699 79.666 -14 96.999s-28.333 26 -57 26z" />
    <glyph glyph-name="guilsinglleft" unicode="&#x2039;" horiz-adv-x="1118" 
d="M138 700l166.997 -0.000976562l303 -511h6v391c0 37.333 8.83301 68 26.5 92s46.5 36 86.5 36c28 0 50 -5.83301 66 -17.5s24 -25.834 24 -42.501c0 -12 -4.16699 -22.5 -12.5 -31.5s-20.166 -13.5 -35.499 -13.5c-12 0 -20.833 1.83301 -26.5 5.5
s-10 8.83398 -13 15.501s-7.16699 12 -12.5 16s-13.666 6 -24.999 6c-26 0 -39 -24 -39 -72v-582h-21l-361 608h-6v-464c0 -28.667 -1.66699 -50.167 -5 -64.5s-9.33301 -27.5 -18 -39.5c-19.333 -26.667 -50 -40 -92 -40c-22 0 -40.833 6.16699 -56.5 18.5
s-23.5 27.833 -23.5 46.5c0 11.333 4 21.666 12 30.999s18.667 14 32 14c22.667 0 39.667 -8.66699 51 -26c10.667 -14.667 20.334 -22 29.001 -22c21.333 0 32 25.333 32 76v472c0 24.667 -6.83301 40.834 -20.5 48.501s-36.167 12.834 -67.5 15.501v34zM794.997 53.999v68
h220v-68h-220zM898.997 188.999c-44.667 0 -81 14.668 -109 44.001c-26.667 28.667 -40 62.667 -40 102s13.667 73.666 41 102.999s63.333 44 108 44s80.667 -14.5 108 -43.5s41 -63.5 41 -103.5c0 -39.333 -13.333 -73.333 -40 -102c-28 -29.333 -64.333 -44 -109 -44z
M898.997 458c-28.667 0 -47.667 -8.66699 -57 -26s-14 -49.666 -14 -96.999c0 -30.667 2 -54.834 6 -72.501s11.167 -30.334 21.5 -38.001s24.833 -11.5 43.5 -11.5s33.167 3.83301 43.5 11.5s17.5 20.334 21.5 38.001s6 41.834 6 72.501
c0 47.333 -4.66699 79.666 -14 96.999s-28.333 26 -57 26z" />
    <glyph glyph-name="guillemotright" unicode="&#xbb;" horiz-adv-x="481" 
d="M259 19l-25 21l114 143l-114 144l25 20l152 -164zM96 19l-26 21l114 143l-114 144l26 20l151 -164z" />
    <glyph glyph-name="divide" unicode="&#xbc;" horiz-adv-x="245" 
d="M70 340c0 12.667 4.83301 24.667 14.5 36s22.5 17 38.5 17c15.333 0 27.833 -5.5 37.5 -16.5s14.5 -23.167 14.5 -36.5s-5 -25.333 -15 -36s-22.333 -16 -37 -16c-16 0 -28.833 5.5 -38.5 16.5s-14.5 22.833 -14.5 35.5zM70 45c0 14.667 5.33301 27 16 37s23 15 37 15
c16 0 28.667 -5.33301 38 -16s14 -22.667 14 -36c0 -14 -5 -26.333 -15 -37s-22.333 -16 -37 -16c-14 0 -26.333 5 -37 15s-16 22.667 -16 38z" />
    <glyph glyph-name="ellipsis" unicode="&#xbe;" horiz-adv-x="994" 
d="M98 68c0 19.333 6.83301 35.5 20.5 48.5s29.5 19.5 47.5 19.5c20.667 0 37.167 -6.66699 49.5 -20s18.5 -29.333 18.5 -48c0 -18 -6.5 -33.833 -19.5 -47.5s-29.167 -20.5 -48.5 -20.5c-17.333 0 -33 6.5 -47 19.5s-21 29.167 -21 48.5zM429 68
c0 19.333 6.83301 35.5 20.5 48.5s29.5 19.5 47.5 19.5c20.667 0 37.167 -6.66699 49.5 -20s18.5 -29.333 18.5 -48c0 -18 -6.5 -33.833 -19.5 -47.5s-29.167 -20.5 -48.5 -20.5c-17.333 0 -33 6.5 -47 19.5s-21 29.167 -21 48.5zM760 68c0 17.333 6.16699 33 18.5 47
s28.833 21 49.5 21s37.167 -6.66699 49.5 -20s18.5 -29.333 18.5 -48c0 -18 -6.5 -33.833 -19.5 -47.5s-29.167 -20.5 -48.5 -20.5s-35.5 7 -48.5 21s-19.5 29.667 -19.5 47z" />
    <glyph glyph-name="ellipsis" unicode="&#x2026;" horiz-adv-x="994" 
d="M98 68c0 19.333 6.83301 35.5 20.5 48.5s29.5 19.5 47.5 19.5c20.667 0 37.167 -6.66699 49.5 -20s18.5 -29.333 18.5 -48c0 -18 -6.5 -33.833 -19.5 -47.5s-29.167 -20.5 -48.5 -20.5c-17.333 0 -33 6.5 -47 19.5s-21 29.167 -21 48.5zM429 68
c0 19.333 6.83301 35.5 20.5 48.5s29.5 19.5 47.5 19.5c20.667 0 37.167 -6.66699 49.5 -20s18.5 -29.333 18.5 -48c0 -18 -6.5 -33.833 -19.5 -47.5s-29.167 -20.5 -48.5 -20.5c-17.333 0 -33 6.5 -47 19.5s-21 29.167 -21 48.5zM760 68c0 17.333 6.16699 33 18.5 47
s28.833 21 49.5 21s37.167 -6.66699 49.5 -20s18.5 -29.333 18.5 -48c0 -18 -6.5 -33.833 -19.5 -47.5s-29.167 -20.5 -48.5 -20.5s-35.5 7 -48.5 21s-19.5 29.667 -19.5 47z" />
    <glyph glyph-name="ordfeminine" unicode="&#xbf;" horiz-adv-x="224" 
d="M36 385l117 0.000976562v-284c0 -22.667 3 -39.834 9 -51.501s18 -18.5 36 -20.5v-29h-162v29c18.667 2.66699 30.667 9.66699 36 21s8 28.333 8 51v182c0 24 -2.83301 41.333 -8.5 52s-17.5 17.667 -35.5 21v29zM-13 573.001c0 13.333 4.33301 24.666 13 33.999
s20.334 14 35.001 14c15.333 0 27.333 -4.66699 36 -14s13 -20.666 13 -33.999c0 -12.667 -4.5 -24 -13.5 -34s-20.833 -15 -35.5 -15c-12.667 0 -23.834 4.5 -33.501 13.5s-14.5 20.833 -14.5 35.5zM123 573.001c0 12 4.33301 23 13 33s20.667 15 36 15
c14.667 0 26.334 -4.5 35.001 -13.5s13 -20.5 13 -34.5c0 -14.667 -4.83301 -26.5 -14.5 -35.5s-20.834 -13.5 -33.501 -13.5c-14.667 0 -26.5 5.33301 -35.5 16s-13.5 21.667 -13.5 33z" />
    <glyph glyph-name="Adieresis" unicode="&#xc0;" horiz-adv-x="724" 
d="M379 708l270.001 -599.999c21.333 -47.333 46.333 -72 75 -74v-34h-196v34c16 2.66699 26 6.66699 30 12s6 14.333 6 27c0 4.66699 -3 14.334 -9 29.001l-40 90h-348l-39 -85c-8 -16.667 -12 -28.334 -12 -35.001c0 -20.667 13 -33.334 39 -38.001v-34h-155v34
c31.333 2 57.666 25.667 78.999 71l225 486c6 14 9 22.333 9 25c0 10 -8 15 -24 15v34c26.667 6.66699 50 21 70 43h20zM497.001 231.001l-148 329h-11l-153 -329h312z" />
    <glyph glyph-name="Adieresis" unicode="&#x410;" horiz-adv-x="724" 
d="M379 708l270.001 -599.999c21.333 -47.333 46.333 -72 75 -74v-34h-196v34c16 2.66699 26 6.66699 30 12s6 14.333 6 27c0 4.66699 -3 14.334 -9 29.001l-40 90h-348l-39 -85c-8 -16.667 -12 -28.334 -12 -35.001c0 -20.667 13 -33.334 39 -38.001v-34h-155v34
c31.333 2 57.666 25.667 78.999 71l225 486c6 14 9 22.333 9 25c0 10 -8 15 -24 15v34c26.667 6.66699 50 21 70 43h20zM497.001 231.001l-148 329h-11l-153 -329h312z" />
    <glyph glyph-name="Aring" unicode="&#xc1;" horiz-adv-x="641" 
d="M52 700h359.998c16.667 0 38.334 1.33301 65.001 4c7.33301 0.666992 15 1.5 23 2.5s16 1.5 24 1.5v-154h-34c-13.333 47.333 -34.333 77 -63 89s-64 18 -106 18h-124v-248h138c67.333 0 119.833 -10.833 157.5 -32.5s63.5 -47.334 77.5 -77.001s21 -59.5 21 -89.5
c0 -30.667 -7.5 -62.834 -22.5 -96.501s-39.167 -61.667 -72.5 -84s-74.666 -33.5 -123.999 -33.5h-320v34c22 2.66699 37.5 10.334 46.5 23.001s13.5 32 13.5 58v470c0 26.667 -4.5 46.334 -13.5 59.001s-24.5 20 -46.5 22v34zM196.998 39l106 -0.000976562
c49.333 0 93 10.5 131 31.5s57 68.167 57 141.5c0 66.667 -17.5 110.334 -52.5 131.001s-71.833 31 -110.5 31h-131v-335z" />
    <glyph glyph-name="Aring" unicode="&#x411;" horiz-adv-x="641" 
d="M52 700h359.998c16.667 0 38.334 1.33301 65.001 4c7.33301 0.666992 15 1.5 23 2.5s16 1.5 24 1.5v-154h-34c-13.333 47.333 -34.333 77 -63 89s-64 18 -106 18h-124v-248h138c67.333 0 119.833 -10.833 157.5 -32.5s63.5 -47.334 77.5 -77.001s21 -59.5 21 -89.5
c0 -30.667 -7.5 -62.834 -22.5 -96.501s-39.167 -61.667 -72.5 -84s-74.666 -33.5 -123.999 -33.5h-320v34c22 2.66699 37.5 10.334 46.5 23.001s13.5 32 13.5 58v470c0 26.667 -4.5 46.334 -13.5 59.001s-24.5 20 -46.5 22v34zM196.998 39l106 -0.000976562
c49.333 0 93 10.5 131 31.5s57 68.167 57 141.5c0 66.667 -17.5 110.334 -52.5 131.001s-71.833 31 -110.5 31h-131v-335z" />
    <glyph glyph-name="Ccedilla" unicode="&#xc2;" horiz-adv-x="640" 
d="M52 700l272.002 0.00195312c58 0 113.167 -11 165.5 -33s78.5 -69.333 78.5 -142c0 -32.667 -10.833 -64.334 -32.5 -95.001s-55.834 -52.334 -102.501 -65.001v-6c45.333 -6 84.666 -23.167 117.999 -51.5s50 -69.166 50 -122.499
c0 -48.667 -13.833 -86.834 -41.5 -114.501s-59.167 -46.334 -94.5 -56.001s-65.666 -14.5 -90.999 -14.5h-322v34c40 1.33301 60 28.333 60 81v470c0 26 -4.33301 45.833 -13 59.5s-24.334 20.834 -47.001 21.501v34zM198.002 375.002h113c56.667 0 97 14.167 121 42.5
s36 63.5 36 105.5c0 92 -56.667 138 -170 138h-100v-286zM198.002 39.002h133.999c38 0 75.667 9.83301 113 29.5s56 58.5 56 116.5c0 51.333 -16.667 89.333 -50 114s-75.666 37 -126.999 37h-126v-297z" />
    <glyph glyph-name="Ccedilla" unicode="&#x412;" horiz-adv-x="640" 
d="M52 700l272.002 0.00195312c58 0 113.167 -11 165.5 -33s78.5 -69.333 78.5 -142c0 -32.667 -10.833 -64.334 -32.5 -95.001s-55.834 -52.334 -102.501 -65.001v-6c45.333 -6 84.666 -23.167 117.999 -51.5s50 -69.166 50 -122.499
c0 -48.667 -13.833 -86.834 -41.5 -114.501s-59.167 -46.334 -94.5 -56.001s-65.666 -14.5 -90.999 -14.5h-322v34c40 1.33301 60 28.333 60 81v470c0 26 -4.33301 45.833 -13 59.5s-24.334 20.834 -47.001 21.501v34zM198.002 375.002h113c56.667 0 97 14.167 121 42.5
s36 63.5 36 105.5c0 92 -56.667 138 -170 138h-100v-286zM198.002 39.002h133.999c38 0 75.667 9.83301 113 29.5s56 58.5 56 116.5c0 51.333 -16.667 89.333 -50 114s-75.666 37 -126.999 37h-126v-297z" />
    <glyph glyph-name="Eacute" unicode="&#xc3;" horiz-adv-x="543" 
d="M52 700l372.998 0.000976562c20.667 0 40.667 1.33301 60 4c13.333 2 28.333 3.33301 45 4v-170h-34c-7.33301 31.333 -20.666 57.666 -39.999 78.999c-29.333 32.667 -76.666 49 -141.999 49h-117v-551c0 -52.667 19.667 -79.667 59 -81v-34h-204v34
c21.333 2.66699 36.5 10.667 45.5 24s13.5 32.333 13.5 57v470c0 54 -19.667 81 -59 81v34z" />
    <glyph glyph-name="Eacute" unicode="&#x413;" horiz-adv-x="543" 
d="M52 700l372.998 0.000976562c20.667 0 40.667 1.33301 60 4c13.333 2 28.333 3.33301 45 4v-170h-34c-7.33301 31.333 -20.666 57.666 -39.999 78.999c-29.333 32.667 -76.666 49 -141.999 49h-117v-551c0 -52.667 19.667 -79.667 59 -81v-34h-204v34
c21.333 2.66699 36.5 10.667 45.5 24s13.5 32.333 13.5 57v470c0 54 -19.667 81 -59 81v34z" />
    <glyph glyph-name="Ntilde" unicode="&#xc4;" horiz-adv-x="697" 
d="M275 700l357.003 0.00390625v-34c-20.667 -4 -34.334 -12.333 -41.001 -25s-10 -31.667 -10 -57v-490c0 -14.667 2.83301 -26.834 8.5 -36.501s18.5 -14.5 38.5 -14.5c6 0.666992 11.333 1.16699 16 1.5s11 0.5 19 0.5c22.667 0 34 -10.667 34 -32
c0 -14.667 -8.33301 -36.667 -25 -66s-35.834 -55.5 -57.501 -78.5s-38.834 -34.5 -51.501 -34.5c-14.667 0 -22 4 -22 12c0 23.333 4 38.666 12 45.999l23.5 21c7.66699 6.66699 11.5 22 11.5 46c0 18.667 -6.5 30.167 -19.5 34.5s-30.833 6.5 -53.5 6.5h-345
c-22 0 -39 -2.66699 -51 -8s-18 -21.666 -18 -48.999c0 -8.66699 2.5 -16.5 7.5 -23.5s9.83301 -12.5 14.5 -16.5s8.66699 -9.33301 12 -16s5 -17.667 5 -33c0 -12.667 -4.66699 -19 -14 -19c-15.333 0 -40.333 22 -75 66c-34 45.333 -51 79.666 -51 102.999
c0 18 3.66699 29.833 11 35.5s19.333 8.5 36 8.5c20 1.33301 36 5.33301 48 12s26.833 23.5 44.5 50.5s42.5 71.833 74.5 134.5c27.333 51.333 57.833 117.166 91.5 197.499s50.5 135.166 50.5 164.499c0 42 -27 61.667 -81 59v34zM495.003 652.004
c-30 4 -51.333 -1.83203 -64 -17.499s-24.334 -38.5 -35.001 -68.5c-24 -76 -56.333 -159.667 -97 -251c-23.333 -52 -49 -103 -77 -153l-22.5 -38.5c-10.333 -17.667 -17.166 -30.5 -20.499 -38.5s-5 -14.333 -5 -19c0 -10.667 4.16699 -17.834 12.5 -21.501
s23.833 -5.5 46.5 -5.5h262v613z" />
    <glyph glyph-name="Ntilde" unicode="&#x414;" horiz-adv-x="697" 
d="M275 700l357.003 0.00390625v-34c-20.667 -4 -34.334 -12.333 -41.001 -25s-10 -31.667 -10 -57v-490c0 -14.667 2.83301 -26.834 8.5 -36.501s18.5 -14.5 38.5 -14.5c6 0.666992 11.333 1.16699 16 1.5s11 0.5 19 0.5c22.667 0 34 -10.667 34 -32
c0 -14.667 -8.33301 -36.667 -25 -66s-35.834 -55.5 -57.501 -78.5s-38.834 -34.5 -51.501 -34.5c-14.667 0 -22 4 -22 12c0 23.333 4 38.666 12 45.999l23.5 21c7.66699 6.66699 11.5 22 11.5 46c0 18.667 -6.5 30.167 -19.5 34.5s-30.833 6.5 -53.5 6.5h-345
c-22 0 -39 -2.66699 -51 -8s-18 -21.666 -18 -48.999c0 -8.66699 2.5 -16.5 7.5 -23.5s9.83301 -12.5 14.5 -16.5s8.66699 -9.33301 12 -16s5 -17.667 5 -33c0 -12.667 -4.66699 -19 -14 -19c-15.333 0 -40.333 22 -75 66c-34 45.333 -51 79.666 -51 102.999
c0 18 3.66699 29.833 11 35.5s19.333 8.5 36 8.5c20 1.33301 36 5.33301 48 12s26.833 23.5 44.5 50.5s42.5 71.833 74.5 134.5c27.333 51.333 57.833 117.166 91.5 197.499s50.5 135.166 50.5 164.499c0 42 -27 61.667 -81 59v34zM495.003 652.004
c-30 4 -51.333 -1.83203 -64 -17.499s-24.334 -38.5 -35.001 -68.5c-24 -76 -56.333 -159.667 -97 -251c-23.333 -52 -49 -103 -77 -153l-22.5 -38.5c-10.333 -17.667 -17.166 -30.5 -20.499 -38.5s-5 -14.333 -5 -19c0 -10.667 4.16699 -17.834 12.5 -21.501
s23.833 -5.5 46.5 -5.5h262v613z" />
    <glyph glyph-name="Odieresis" unicode="&#xc5;" horiz-adv-x="655" 
d="M52 700l393.999 -0.00195312c34.667 0 62 1.66699 82 5c16.667 2.66699 31 3.66699 43 3v-133h-34c-8.66699 34 -25.334 56.833 -50.001 68.5s-60 17.5 -106 17.5h-183v-287h125c22.667 0 40.834 3.16699 54.501 9.5s22.834 21.833 27.501 46.5h33v-151h-33
c-7.33301 26 -16 41.833 -26 47.5s-28.667 8.5 -56 8.5h-125v-296h205c56 0 101.333 7.83301 136 23.5s53.334 44.834 56.001 87.501h34l-11 -150h-566v34c40 4 60 31 60 81v470c0 26.667 -4.33301 46.834 -13 60.501s-24.334 20.5 -47.001 20.5v34z" />
    <glyph glyph-name="Odieresis" unicode="&#x415;" horiz-adv-x="655" 
d="M52 700l393.999 -0.00195312c34.667 0 62 1.66699 82 5c16.667 2.66699 31 3.66699 43 3v-133h-34c-8.66699 34 -25.334 56.833 -50.001 68.5s-60 17.5 -106 17.5h-183v-287h125c22.667 0 40.834 3.16699 54.501 9.5s22.834 21.833 27.501 46.5h33v-151h-33
c-7.33301 26 -16 41.833 -26 47.5s-28.667 8.5 -56 8.5h-125v-296h205c56 0 101.333 7.83301 136 23.5s53.334 44.834 56.001 87.501h34l-11 -150h-566v34c40 4 60 31 60 81v470c0 26.667 -4.33301 46.834 -13 60.501s-24.334 20.5 -47.001 20.5v34z" />
    <glyph glyph-name="Udieresis" unicode="&#xc6;" horiz-adv-x="945" 
d="M370 700l206 -0.000976562v-34c-40 -1.33301 -60 -28.333 -60 -81v-104c43.333 -4.66699 76.833 2.66602 100.5 21.999s46.167 53.333 67.5 102c14.667 32 29.667 57.167 45 75.5s37 27.5 65 27.5c20 0 36.667 -4.33301 50 -13v-140h-33
c-3.33301 18.667 -6.5 32.167 -9.5 40.5s-9.16699 12.5 -18.5 12.5c-20 0 -39.333 -13.333 -58 -40c-22 -32 -39 -55 -51 -69s-28.333 -26 -49 -36v-6c74.667 -22.667 135 -74 181 -154c27.333 -48 46 -107 56 -177c4 -31.333 8.83301 -53.833 14.5 -67.5
s19.834 -21.834 42.501 -24.501v-34h-214v34c34.667 0.666992 52 29 52 85c0 30.667 -4.66699 67.834 -14 111.501s-25.333 81.834 -48 114.501c-48.667 73.333 -108.334 104.333 -179.001 93v-323c0 -25.333 4.16699 -44.5 12.5 -57.5s24.166 -20.833 47.499 -23.5v-34
h-206v34c23.333 2.66699 39.166 10.167 47.499 22.5s12.5 31.833 12.5 58.5v323c-70 12.667 -130 -18.333 -180 -93c-41.333 -62.667 -62 -138 -62 -226c0 -56 17.333 -84.333 52 -85v-34h-214v34c22.667 2.66699 36.834 10.834 42.501 24.501s10.5 36.167 14.5 67.5
l5.5 36.5c1.66699 11 5.16699 25.5 10.5 43.5s11.166 35 17.499 51s13.833 31.333 22.5 46c46 80 106.333 131.333 181 154v6c-14.667 6.66699 -27.334 14.834 -38.001 24.501s-20.167 20.5 -28.5 32.5l-33.5 48c-18.667 26.667 -38 40 -58 40
c-9.33301 0 -15.666 -5.83301 -18.999 -17.5s-6.33301 -23.5 -9 -35.5h-33v140c13.333 8.66699 30 13 50 13c29.333 0 51.333 -9.16699 66 -27.5s29.334 -43.5 44.001 -75.5c14.667 -30.667 29 -55.834 43 -75.501s31.333 -33.667 52 -42s45.334 -10.5 74.001 -6.5v104
c0 52.667 -20 79.667 -60 81v34z" />
    <glyph glyph-name="Udieresis" unicode="&#x416;" horiz-adv-x="945" 
d="M370 700l206 -0.000976562v-34c-40 -1.33301 -60 -28.333 -60 -81v-104c43.333 -4.66699 76.833 2.66602 100.5 21.999s46.167 53.333 67.5 102c14.667 32 29.667 57.167 45 75.5s37 27.5 65 27.5c20 0 36.667 -4.33301 50 -13v-140h-33
c-3.33301 18.667 -6.5 32.167 -9.5 40.5s-9.16699 12.5 -18.5 12.5c-20 0 -39.333 -13.333 -58 -40c-22 -32 -39 -55 -51 -69s-28.333 -26 -49 -36v-6c74.667 -22.667 135 -74 181 -154c27.333 -48 46 -107 56 -177c4 -31.333 8.83301 -53.833 14.5 -67.5
s19.834 -21.834 42.501 -24.501v-34h-214v34c34.667 0.666992 52 29 52 85c0 30.667 -4.66699 67.834 -14 111.501s-25.333 81.834 -48 114.501c-48.667 73.333 -108.334 104.333 -179.001 93v-323c0 -25.333 4.16699 -44.5 12.5 -57.5s24.166 -20.833 47.499 -23.5v-34
h-206v34c23.333 2.66699 39.166 10.167 47.499 22.5s12.5 31.833 12.5 58.5v323c-70 12.667 -130 -18.333 -180 -93c-41.333 -62.667 -62 -138 -62 -226c0 -56 17.333 -84.333 52 -85v-34h-214v34c22.667 2.66699 36.834 10.834 42.501 24.501s10.5 36.167 14.5 67.5
l5.5 36.5c1.66699 11 5.16699 25.5 10.5 43.5s11.166 35 17.499 51s13.833 31.333 22.5 46c46 80 106.333 131.333 181 154v6c-14.667 6.66699 -27.334 14.834 -38.001 24.501s-20.167 20.5 -28.5 32.5l-33.5 48c-18.667 26.667 -38 40 -58 40
c-9.33301 0 -15.666 -5.83301 -18.999 -17.5s-6.33301 -23.5 -9 -35.5h-33v140c13.333 8.66699 30 13 50 13c29.333 0 51.333 -9.16699 66 -27.5s29.334 -43.5 44.001 -75.5c14.667 -30.667 29 -55.834 43 -75.501s31.333 -33.667 52 -42s45.334 -10.5 74.001 -6.5v104
c0 52.667 -20 79.667 -60 81v34z" />
    <glyph glyph-name="aacute" unicode="&#xc7;" horiz-adv-x="679" 
d="M128 526l0.00488281 163.001h33c6 -8.66699 12.667 -14.167 20 -16.5s20.666 -3.5 39.999 -3.5c10.667 0 26.667 3.83301 48 11.5s41.166 14.167 59.499 19.5s40.166 8 65.499 8c79.333 0 138.333 -18.333 177 -55s58 -79.334 58 -128.001s-24.667 -94 -74 -136v-6
l33 -23c48 -40 72 -91.667 72 -155c0 -46 -13.5 -84.833 -40.5 -116.5s-61.5 -55.667 -103.5 -72s-83.667 -24.5 -125 -24.5c-45.333 0 -85.833 5.33301 -121.5 16s-70.5 26.334 -104.5 47.001c-34.667 22.667 -60 34 -76 34c-14.667 0 -32 -14 -52 -42l-21 25
c22.667 32 42.667 56 60 72s37.666 24 60.999 24c27.333 0 66.333 -20 117 -60c28.667 -22.667 55.667 -41.167 81 -55.5s51.666 -21.5 78.999 -21.5c39.333 0 73.5 16.833 102.5 50.5s43.5 73.5 43.5 119.5c0 58.667 -21 105 -63 139c-58 -34.667 -116.667 -52 -176 -52
c-34 0 -59.333 7.16699 -76 21.5s-25 28.833 -25 43.5c0 21.333 12.667 39.666 38 54.999s65 23 119 23c34.667 0 71.334 -7 110.001 -21c34 30.667 51 68.667 51 114c0 26 -5.66699 50 -17 72s-28.333 39.667 -51 53s-48.334 20 -77.001 20c-116 0 -195 -47.667 -237 -143
h-28zM450.005 369.001c-31.333 17.333 -67.334 25.998 -108.001 25.998c-27.333 0 -47.666 -4.16699 -60.999 -12.5s-20 -18.166 -20 -29.499c0 -7.33301 4.33301 -14.666 13 -21.999s24.667 -11 48 -11c18.667 0 40.667 4.16699 66 12.5s46 20.5 62 36.5z" />
    <glyph glyph-name="aacute" unicode="&#x417;" horiz-adv-x="679" 
d="M128 526l0.00488281 163.001h33c6 -8.66699 12.667 -14.167 20 -16.5s20.666 -3.5 39.999 -3.5c10.667 0 26.667 3.83301 48 11.5s41.166 14.167 59.499 19.5s40.166 8 65.499 8c79.333 0 138.333 -18.333 177 -55s58 -79.334 58 -128.001s-24.667 -94 -74 -136v-6
l33 -23c48 -40 72 -91.667 72 -155c0 -46 -13.5 -84.833 -40.5 -116.5s-61.5 -55.667 -103.5 -72s-83.667 -24.5 -125 -24.5c-45.333 0 -85.833 5.33301 -121.5 16s-70.5 26.334 -104.5 47.001c-34.667 22.667 -60 34 -76 34c-14.667 0 -32 -14 -52 -42l-21 25
c22.667 32 42.667 56 60 72s37.666 24 60.999 24c27.333 0 66.333 -20 117 -60c28.667 -22.667 55.667 -41.167 81 -55.5s51.666 -21.5 78.999 -21.5c39.333 0 73.5 16.833 102.5 50.5s43.5 73.5 43.5 119.5c0 58.667 -21 105 -63 139c-58 -34.667 -116.667 -52 -176 -52
c-34 0 -59.333 7.16699 -76 21.5s-25 28.833 -25 43.5c0 21.333 12.667 39.666 38 54.999s65 23 119 23c34.667 0 71.334 -7 110.001 -21c34 30.667 51 68.667 51 114c0 26 -5.66699 50 -17 72s-28.333 39.667 -51 53s-48.334 20 -77.001 20c-116 0 -195 -47.667 -237 -143
h-28zM450.005 369.001c-31.333 17.333 -67.334 25.998 -108.001 25.998c-27.333 0 -47.666 -4.16699 -60.999 -12.5s-20 -18.166 -20 -29.499c0 -7.33301 4.33301 -14.666 13 -21.999s24.667 -11 48 -11c18.667 0 40.667 4.16699 66 12.5s46 20.5 62 36.5z" />
    <glyph glyph-name="agrave" unicode="&#xc8;" horiz-adv-x="799" 
d="M52 700l205.001 -0.00195312v-34c-21.333 -2 -36.5 -9.66699 -45.5 -23s-13.5 -32.666 -13.5 -57.999v-381h3l401 369v32c0 18 -5.83301 32.333 -17.5 43s-25.834 16.667 -42.501 18v34h205v-34c-21.333 -2 -36.5 -9.66699 -45.5 -23s-13.5 -32.666 -13.5 -57.999v-470
c0 -25.333 4.33301 -44.5 13 -57.5s24 -20.833 46 -23.5v-34h-205v34c40 3.33301 60 30.333 60 81v396h-3l-401 -370v-26c0 -24.667 4.5 -43.667 13.5 -57s24.167 -21.333 45.5 -24v-34h-205v34c40 4.66699 60 31.667 60 81v470c0 49.333 -20 76.333 -60 81v34z" />
    <glyph glyph-name="agrave" unicode="&#x418;" horiz-adv-x="799" 
d="M52 700l205.001 -0.00195312v-34c-21.333 -2 -36.5 -9.66699 -45.5 -23s-13.5 -32.666 -13.5 -57.999v-381h3l401 369v32c0 18 -5.83301 32.333 -17.5 43s-25.834 16.667 -42.501 18v34h205v-34c-21.333 -2 -36.5 -9.66699 -45.5 -23s-13.5 -32.666 -13.5 -57.999v-470
c0 -25.333 4.33301 -44.5 13 -57.5s24 -20.833 46 -23.5v-34h-205v34c40 3.33301 60 30.333 60 81v396h-3l-401 -370v-26c0 -24.667 4.5 -43.667 13.5 -57s24.167 -21.333 45.5 -24v-34h-205v34c40 4.66699 60 31.667 60 81v470c0 49.333 -20 76.333 -60 81v34z" />
    <glyph glyph-name="acircumflex" unicode="&#xc9;" horiz-adv-x="799" 
d="M52 700l205 -0.00195312v-34c-21.333 -2 -36.5 -9.66699 -45.5 -23s-13.5 -32.666 -13.5 -57.999v-381h3l401 369v12c0 49.333 -20 76.333 -60 81v34h205v-34c-21.333 -2 -36.5 -9.66699 -45.5 -23s-13.5 -32.666 -13.5 -57.999v-470c0 -25.333 4.33301 -44.5 13 -57.5
s24 -20.833 46 -23.5v-34h-205v34c40 3.33301 60 30.333 60 81v396h-3l-401 -370v-26c0 -24.667 4.5 -43.667 13.5 -57s24.167 -21.333 45.5 -24v-34h-205v34c40 4.66699 60 31.667 60 81v470c0 49.333 -20 76.333 -60 81v34zM397 746.998
c-52 0 -97.834 12.5029 -137.501 37.5029s-59.5 55.5 -59.5 91.5c0 26.667 9.66699 49 29 67s44.333 27 75 27c39.333 0 59 -15.667 59 -47c0 -11.333 -3.83301 -20.833 -11.5 -28.5s-18.167 -11.5 -31.5 -11.5c-8 0 -18.667 3 -32 9c-9.33301 4.66699 -17.666 7 -24.999 7
c-15.333 0 -23 -7.66699 -23 -23c0 -16.667 14.667 -31.834 44 -45.501s67.666 -20.5 114.999 -20.5s86 6.66699 116 20s45 28.666 45 45.999c0 15.333 -7.66699 23 -23 23c-7.33301 0 -15.666 -2.33301 -24.999 -7c-13.333 -6 -24 -9 -32 -9
c-13.333 0 -23.833 3.83301 -31.5 11.5s-11.5 17.167 -11.5 28.5c0 31.333 19.667 47 59 47c30.667 0 55.667 -9 75 -27s29 -40.333 29 -67c0 -27.333 -10.5 -50.833 -31.5 -70.5s-46.667 -34.334 -77 -44.001s-61.833 -14.5 -94.5 -14.5z" />
    <glyph glyph-name="acircumflex" unicode="&#x419;" horiz-adv-x="799" 
d="M52 700l205 -0.00195312v-34c-21.333 -2 -36.5 -9.66699 -45.5 -23s-13.5 -32.666 -13.5 -57.999v-381h3l401 369v12c0 49.333 -20 76.333 -60 81v34h205v-34c-21.333 -2 -36.5 -9.66699 -45.5 -23s-13.5 -32.666 -13.5 -57.999v-470c0 -25.333 4.33301 -44.5 13 -57.5
s24 -20.833 46 -23.5v-34h-205v34c40 3.33301 60 30.333 60 81v396h-3l-401 -370v-26c0 -24.667 4.5 -43.667 13.5 -57s24.167 -21.333 45.5 -24v-34h-205v34c40 4.66699 60 31.667 60 81v470c0 49.333 -20 76.333 -60 81v34zM397 746.998
c-52 0 -97.834 12.5029 -137.501 37.5029s-59.5 55.5 -59.5 91.5c0 26.667 9.66699 49 29 67s44.333 27 75 27c39.333 0 59 -15.667 59 -47c0 -11.333 -3.83301 -20.833 -11.5 -28.5s-18.167 -11.5 -31.5 -11.5c-8 0 -18.667 3 -32 9c-9.33301 4.66699 -17.666 7 -24.999 7
c-15.333 0 -23 -7.66699 -23 -23c0 -16.667 14.667 -31.834 44 -45.501s67.666 -20.5 114.999 -20.5s86 6.66699 116 20s45 28.666 45 45.999c0 15.333 -7.66699 23 -23 23c-7.33301 0 -15.666 -2.33301 -24.999 -7c-13.333 -6 -24 -9 -32 -9
c-13.333 0 -23.833 3.83301 -31.5 11.5s-11.5 17.167 -11.5 28.5c0 31.333 19.667 47 59 47c30.667 0 55.667 -9 75 -27s29 -40.333 29 -67c0 -27.333 -10.5 -50.833 -31.5 -70.5s-46.667 -34.334 -77 -44.001s-61.833 -14.5 -94.5 -14.5z" />
    <glyph glyph-name="adieresis" unicode="&#xca;" horiz-adv-x="704" 
d="M52 700h204.001v-34c-39.333 -4 -59 -31 -59 -81v-151c57.333 -4.66699 99.5 4.33301 126.5 27s50.167 54.667 69.5 96c20 45.333 41.333 81.833 64 109.5s54.334 41.5 95.001 41.5c24 0 44.333 -3.66699 61 -11v-155h-34c-4.66699 39.333 -21.667 59 -51 59
c-14 0 -26.833 -5.5 -38.5 -16.5s-24.167 -26.167 -37.5 -45.5c-13.333 -20 -32 -42.333 -56 -67s-51 -41 -81 -49v-6c63.333 -8 110.333 -29.5 141 -64.5s57 -82.5 79 -142.5c21.333 -56 43.5 -99.5 66.5 -130.5s57.167 -43.5 102.5 -37.5v-45
c-12.667 -3.33301 -32.667 -5 -60 -5c-59.333 0 -103.5 15.667 -132.5 47s-59.5 89.333 -91.5 174c-16.667 44 -31.834 78 -45.501 102s-34.334 43.333 -62.001 58s-66.167 22 -115.5 22v-280c0 -26 4.33301 -45.5 13 -58.5s24 -20.5 46 -22.5v-34h-204v34
c39.333 4.66699 59 31.667 59 81v470c0 50 -19.667 77 -59 81v34z" />
    <glyph glyph-name="adieresis" unicode="&#x41a;" horiz-adv-x="704" 
d="M52 700h204.001v-34c-39.333 -4 -59 -31 -59 -81v-151c57.333 -4.66699 99.5 4.33301 126.5 27s50.167 54.667 69.5 96c20 45.333 41.333 81.833 64 109.5s54.334 41.5 95.001 41.5c24 0 44.333 -3.66699 61 -11v-155h-34c-4.66699 39.333 -21.667 59 -51 59
c-14 0 -26.833 -5.5 -38.5 -16.5s-24.167 -26.167 -37.5 -45.5c-13.333 -20 -32 -42.333 -56 -67s-51 -41 -81 -49v-6c63.333 -8 110.333 -29.5 141 -64.5s57 -82.5 79 -142.5c21.333 -56 43.5 -99.5 66.5 -130.5s57.167 -43.5 102.5 -37.5v-45
c-12.667 -3.33301 -32.667 -5 -60 -5c-59.333 0 -103.5 15.667 -132.5 47s-59.5 89.333 -91.5 174c-16.667 44 -31.834 78 -45.501 102s-34.334 43.333 -62.001 58s-66.167 22 -115.5 22v-280c0 -26 4.33301 -45.5 13 -58.5s24 -20.5 46 -22.5v-34h-204v34
c39.333 4.66699 59 31.667 59 81v470c0 50 -19.667 77 -59 81v34z" />
    <glyph glyph-name="atilde" unicode="&#xcb;" horiz-adv-x="732" 
d="M276 708l174.001 0.000976562l194 -596c10.667 -30 21 -51 31 -63s26.333 -17 49 -15v-34h-138l-198 613h-3c-4.66699 -15.333 -8.33398 -30.333 -11.001 -45c-2 -12 -4.33301 -24.333 -7 -37s-8 -34.334 -16 -65.001l-23.5 -86.5
c-7.66699 -27 -18.167 -60.5 -31.5 -100.5c-32 -100 -62.167 -172.833 -90.5 -218.5s-68.5 -68.5 -120.5 -68.5c-19.333 0 -36.166 4.66699 -50.499 14s-21.5 23 -21.5 41s5.5 31.667 16.5 41s24.167 14 39.5 14c9.33301 0 22 -3.33301 38 -10
c12.667 -4.66699 20.667 -7 24 -7c29.333 0 54.166 25.167 74.499 75.5s44.833 123.5 73.5 219.5c15.333 52 28.833 100 40.5 144s17.5 76.667 17.5 98c0 32 -20.333 49.333 -61 52v34z" />
    <glyph glyph-name="atilde" unicode="&#x41b;" horiz-adv-x="732" 
d="M276 708l174.001 0.000976562l194 -596c10.667 -30 21 -51 31 -63s26.333 -17 49 -15v-34h-138l-198 613h-3c-4.66699 -15.333 -8.33398 -30.333 -11.001 -45c-2 -12 -4.33301 -24.333 -7 -37s-8 -34.334 -16 -65.001l-23.5 -86.5
c-7.66699 -27 -18.167 -60.5 -31.5 -100.5c-32 -100 -62.167 -172.833 -90.5 -218.5s-68.5 -68.5 -120.5 -68.5c-19.333 0 -36.166 4.66699 -50.499 14s-21.5 23 -21.5 41s5.5 31.667 16.5 41s24.167 14 39.5 14c9.33301 0 22 -3.33301 38 -10
c12.667 -4.66699 20.667 -7 24 -7c29.333 0 54.166 25.167 74.499 75.5s44.833 123.5 73.5 219.5c15.333 52 28.833 100 40.5 144s17.5 76.667 17.5 98c0 32 -20.333 49.333 -61 52v34z" />
    <glyph glyph-name="aring" unicode="&#xcc;" horiz-adv-x="926" 
d="M233 700l224 -568.999h4l234 569h179v-34c-20.667 -2 -35.667 -9.83301 -45 -23.5s-14 -32.834 -14 -57.501v-470c0 -51.333 19.667 -78.333 59 -81v-34h-204v34c39.333 3.33301 59 30.333 59 81v547h-3l-277 -670h-33l-263 669h-3v-548c0 -49.333 20 -75.666 60 -78.999
v-34h-158v34c39.333 4.66699 59 31 59 79v493c0 19.333 -5.5 34.166 -16.5 44.499s-25.167 15.5 -42.5 15.5v34h181z" />
    <glyph glyph-name="aring" unicode="&#x41c;" horiz-adv-x="926" 
d="M233 700l224 -568.999h4l234 569h179v-34c-20.667 -2 -35.667 -9.83301 -45 -23.5s-14 -32.834 -14 -57.501v-470c0 -51.333 19.667 -78.333 59 -81v-34h-204v34c39.333 3.33301 59 30.333 59 81v547h-3l-277 -670h-33l-263 669h-3v-548c0 -49.333 20 -75.666 60 -78.999
v-34h-158v34c39.333 4.66699 59 31 59 79v493c0 19.333 -5.5 34.166 -16.5 44.499s-25.167 15.5 -42.5 15.5v34h181z" />
    <glyph glyph-name="ccedilla" unicode="&#xcd;" horiz-adv-x="798" 
d="M256 700v-33.999c-39.333 -3.33301 -59 -30.333 -59 -81v-209h403v209c0 24.667 -4.16699 43.667 -12.5 57s-23.833 21.333 -46.5 24v34h205v-34c-40 -3.33301 -60 -30.333 -60 -81v-470c0 -50.667 20 -77.667 60 -81v-34h-205v34c22 2.66699 37.333 10.667 46 24
s13 32.333 13 57v222h-403v-222c0 -24.667 4.5 -43.834 13.5 -57.501s24.167 -21.5 45.5 -23.5v-34h-204v34c21.333 2 36.5 9.5 45.5 22.5s13.5 32.5 13.5 58.5v470c0 26 -4.5 45.5 -13.5 58.5s-24.167 20.5 -45.5 22.5v34h204z" />
    <glyph glyph-name="ccedilla" unicode="&#x41d;" horiz-adv-x="798" 
d="M256 700v-33.999c-39.333 -3.33301 -59 -30.333 -59 -81v-209h403v209c0 24.667 -4.16699 43.667 -12.5 57s-23.833 21.333 -46.5 24v34h205v-34c-40 -3.33301 -60 -30.333 -60 -81v-470c0 -50.667 20 -77.667 60 -81v-34h-205v34c22 2.66699 37.333 10.667 46 24
s13 32.333 13 57v222h-403v-222c0 -24.667 4.5 -43.834 13.5 -57.501s24.167 -21.5 45.5 -23.5v-34h-204v34c21.333 2 36.5 9.5 45.5 22.5s13.5 32.5 13.5 58.5v470c0 26 -4.5 45.5 -13.5 58.5s-24.167 20.5 -45.5 22.5v34h204z" />
    <glyph glyph-name="eacute" unicode="&#xce;" horiz-adv-x="788" 
d="M394 708c52.667 0 100.834 -9.66895 144.501 -29.002s81.334 -45.666 113.001 -78.999s55.834 -71.333 72.501 -114s25 -88 25 -136c0 -46.667 -8.33301 -91.5 -25 -134.5s-40.834 -81.333 -72.501 -115s-69.834 -60.167 -114.501 -79.5s-92.334 -29 -143.001 -29
c-50 0 -97.167 9.5 -141.5 28.5s-82.166 45 -113.499 78s-55.833 71.5 -73.5 115.5s-26.5 89.333 -26.5 136c0 48 8.83301 93.833 26.5 137.5s42.167 81.834 73.5 114.501s68.666 58.5 111.999 77.5s91 28.5 143 28.5zM394 668.998c-42.667 0 -83.667 -11.667 -123 -35
s-71.166 -58.833 -95.499 -106.5s-36.5 -106.834 -36.5 -177.501s12.167 -129.834 36.5 -177.501s56.166 -83.167 95.499 -106.5s80.333 -35 123 -35s83.667 11.667 123 35s71.166 58.833 95.499 106.5s36.5 106.834 36.5 177.501s-12.167 129.834 -36.5 177.501
s-56.166 83.167 -95.499 106.5s-80.333 35 -123 35z" />
    <glyph glyph-name="eacute" unicode="&#x41e;" horiz-adv-x="788" 
d="M394 708c52.667 0 100.834 -9.66895 144.501 -29.002s81.334 -45.666 113.001 -78.999s55.834 -71.333 72.501 -114s25 -88 25 -136c0 -46.667 -8.33301 -91.5 -25 -134.5s-40.834 -81.333 -72.501 -115s-69.834 -60.167 -114.501 -79.5s-92.334 -29 -143.001 -29
c-50 0 -97.167 9.5 -141.5 28.5s-82.166 45 -113.499 78s-55.833 71.5 -73.5 115.5s-26.5 89.333 -26.5 136c0 48 8.83301 93.833 26.5 137.5s42.167 81.834 73.5 114.501s68.666 58.5 111.999 77.5s91 28.5 143 28.5zM394 668.998c-42.667 0 -83.667 -11.667 -123 -35
s-71.166 -58.833 -95.499 -106.5s-36.5 -106.834 -36.5 -177.501s12.167 -129.834 36.5 -177.501s56.166 -83.167 95.499 -106.5s80.333 -35 123 -35s83.667 11.667 123 35s71.166 58.833 95.499 106.5s36.5 106.834 36.5 177.501s-12.167 129.834 -36.5 177.501
s-56.166 83.167 -95.499 106.5s-80.333 35 -123 35z" />
    <glyph glyph-name="egrave" unicode="&#xcf;" horiz-adv-x="797" 
d="M52 700h693v-34c-21.333 -2 -36.5 -9.83301 -45.5 -23.5s-13.5 -32.834 -13.5 -57.501v-470c0 -25.333 4.5 -44.666 13.5 -57.999s24.167 -21 45.5 -23v-34h-205v34c40 3.33301 60 30.333 60 81v546h-403v-546c0 -50.667 19.667 -77.667 59 -81v-34h-204v34
c39.333 3.33301 59 30.333 59 81v470c0 50.667 -19.667 77.667 -59 81v34z" />
    <glyph glyph-name="egrave" unicode="&#x41f;" horiz-adv-x="797" 
d="M52 700h693v-34c-21.333 -2 -36.5 -9.83301 -45.5 -23.5s-13.5 -32.834 -13.5 -57.501v-470c0 -25.333 4.5 -44.666 13.5 -57.999s24.167 -21 45.5 -23v-34h-205v34c40 3.33301 60 30.333 60 81v546h-403v-546c0 -50.667 19.667 -77.667 59 -81v-34h-204v34
c39.333 3.33301 59 30.333 59 81v470c0 50.667 -19.667 77.667 -59 81v34z" />
    <glyph glyph-name="ecircumflex" unicode="&#xd0;" horiz-adv-x="654" 
d="M52 0l0.000976562 33.999c22 0.666992 37.5 8.33398 46.5 23.001s13.5 36.334 13.5 65.001v353c0 95.333 27.5 158 82.5 188s112.833 45 173.5 45c61.333 0 117.833 -20.667 169.5 -62s77.5 -103 77.5 -185c0 -44 -10.667 -84.833 -32 -122.5s-51.833 -67.5 -91.5 -89.5
s-86.834 -33 -141.501 -33c-60 0 -109.667 16.667 -149 50h-3v-141c0 -18.667 1.5 -34.834 4.5 -48.501s9 -24.167 18 -31.5s22.5 -11 40.5 -11v-34h-209zM198.001 533.999v-201.999c34.667 -51.333 84.667 -77 150 -77c71.333 0 117 20.167 137 60.5s30 88.833 30 145.5
c2 138.667 -53 208 -165 208c-41.333 0 -77 -12.333 -107 -37s-45 -57.334 -45 -98.001z" />
    <glyph glyph-name="ecircumflex" unicode="&#x420;" horiz-adv-x="654" 
d="M52 0l0.000976562 33.999c22 0.666992 37.5 8.33398 46.5 23.001s13.5 36.334 13.5 65.001v353c0 95.333 27.5 158 82.5 188s112.833 45 173.5 45c61.333 0 117.833 -20.667 169.5 -62s77.5 -103 77.5 -185c0 -44 -10.667 -84.833 -32 -122.5s-51.833 -67.5 -91.5 -89.5
s-86.834 -33 -141.501 -33c-60 0 -109.667 16.667 -149 50h-3v-141c0 -18.667 1.5 -34.834 4.5 -48.501s9 -24.167 18 -31.5s22.5 -11 40.5 -11v-34h-209zM198.001 533.999v-201.999c34.667 -51.333 84.667 -77 150 -77c71.333 0 117 20.167 137 60.5s30 88.833 30 145.5
c2 138.667 -53 208 -165 208c-41.333 0 -77 -12.333 -107 -37s-45 -57.334 -45 -98.001z" />
    <glyph glyph-name="edieresis" unicode="&#xd1;" horiz-adv-x="686" 
d="M620 530l-34.002 -0.000976562c-13.333 34 -31.5 61.167 -54.5 81.5s-48.5 35 -76.5 44s-53.667 13.5 -77 13.5c-44 0 -84.167 -13 -120.5 -39s-65.166 -63.5 -86.499 -112.5s-32 -106.5 -32 -172.5c0 -94.667 22.833 -170.667 68.5 -228s108.834 -86 189.501 -86
c38.667 0 79.167 9.83301 121.5 29.5s78.166 46.167 107.499 79.5l21 -23c-74 -83.333 -163.667 -125 -269 -125c-104.667 0 -187.334 33.333 -248.001 100s-91 151.334 -91 254.001c0 73.333 15.167 137.5 45.5 192.5s70.833 97 121.5 126s105.334 43.5 164.001 43.5
c39.333 0 86 -7.33301 140 -22c32.667 -9.33301 56.334 -14 71.001 -14c6.66699 0 14.667 4 24 12h15v-154z" />
    <glyph glyph-name="edieresis" unicode="&#x421;" horiz-adv-x="686" 
d="M620 530l-34.002 -0.000976562c-13.333 34 -31.5 61.167 -54.5 81.5s-48.5 35 -76.5 44s-53.667 13.5 -77 13.5c-44 0 -84.167 -13 -120.5 -39s-65.166 -63.5 -86.499 -112.5s-32 -106.5 -32 -172.5c0 -94.667 22.833 -170.667 68.5 -228s108.834 -86 189.501 -86
c38.667 0 79.167 9.83301 121.5 29.5s78.166 46.167 107.499 79.5l21 -23c-74 -83.333 -163.667 -125 -269 -125c-104.667 0 -187.334 33.333 -248.001 100s-91 151.334 -91 254.001c0 73.333 15.167 137.5 45.5 192.5s70.833 97 121.5 126s105.334 43.5 164.001 43.5
c39.333 0 86 -7.33301 140 -22c32.667 -9.33301 56.334 -14 71.001 -14c6.66699 0 14.667 4 24 12h15v-154z" />
    <glyph glyph-name="iacute" unicode="&#xd2;" horiz-adv-x="680" 
d="M13 573v134.999l242 -9h200l212 9v-135h-34c0 22.667 -8.66699 43 -26 61s-45 27 -83 27h-141v-546c0 -25.333 4.33301 -44.5 13 -57.5s24 -20.833 46 -23.5v-34h-205v34c22 2.66699 37.5 10.334 46.5 23.001s13.5 32 13.5 58v546h-142c-60 0 -96 -29.333 -108 -88h-34z
" />
    <glyph glyph-name="iacute" unicode="&#x422;" horiz-adv-x="680" 
d="M13 573v134.999l242 -9h200l212 9v-135h-34c0 22.667 -8.66699 43 -26 61s-45 27 -83 27h-141v-546c0 -25.333 4.33301 -44.5 13 -57.5s24 -20.833 46 -23.5v-34h-205v34c22 2.66699 37.5 10.334 46.5 23.001s13.5 32 13.5 58v546h-142c-60 0 -96 -29.333 -108 -88h-34z
" />
    <glyph glyph-name="igrave" unicode="&#xd3;" horiz-adv-x="630" 
d="M630 700l-0.000976562 -34c-25.333 -4.66699 -44.5 -13.667 -57.5 -27s-25.5 -33.333 -37.5 -60l-143 -331l-45 -104c-12.667 -28 -26.667 -53.167 -42 -75.5s-34.666 -40.666 -57.999 -54.999s-51 -21.5 -83 -21.5c-31.333 0 -60.166 7.33301 -86.499 22
s-39.5 36 -39.5 64c0 18 4.83301 31.167 14.5 39.5s20.834 12.5 33.501 12.5c16 0 28.833 -4.83301 38.5 -14.5s14.5 -21.5 14.5 -35.5c0 -5.33301 -0.166992 -9.5 -0.5 -12.5s-0.5 -6.5 -0.5 -10.5c0 -20.667 14.333 -31 43 -31c22.667 0 45.667 10.667 69 32
s44.666 58.666 63.999 111.999l-236 419c-13.333 24.667 -25.333 43.5 -36 56.5s-24.667 19.833 -42 20.5v34h205v-34c-15.333 0 -26 -3.33301 -32 -10s-9 -14 -9 -22c0 -10 7.66699 -29.333 23 -58l169 -301h4l133 304c7.33301 16.667 11 31 11 43
c0 14 -4.83301 25.333 -14.5 34s-21.834 12 -36.501 10v34h177z" />
    <glyph glyph-name="igrave" unicode="&#x423;" horiz-adv-x="630" 
d="M630 700l-0.000976562 -34c-25.333 -4.66699 -44.5 -13.667 -57.5 -27s-25.5 -33.333 -37.5 -60l-143 -331l-45 -104c-12.667 -28 -26.667 -53.167 -42 -75.5s-34.666 -40.666 -57.999 -54.999s-51 -21.5 -83 -21.5c-31.333 0 -60.166 7.33301 -86.499 22
s-39.5 36 -39.5 64c0 18 4.83301 31.167 14.5 39.5s20.834 12.5 33.501 12.5c16 0 28.833 -4.83301 38.5 -14.5s14.5 -21.5 14.5 -35.5c0 -5.33301 -0.166992 -9.5 -0.5 -12.5s-0.5 -6.5 -0.5 -10.5c0 -20.667 14.333 -31 43 -31c22.667 0 45.667 10.667 69 32
s44.666 58.666 63.999 111.999l-236 419c-13.333 24.667 -25.333 43.5 -36 56.5s-24.667 19.833 -42 20.5v34h205v-34c-15.333 0 -26 -3.33301 -32 -10s-9 -14 -9 -22c0 -10 7.66699 -29.333 23 -58l169 -301h4l133 304c7.33301 16.667 11 31 11 43
c0 14 -4.83301 25.333 -14.5 34s-21.834 12 -36.501 10v34h177z" />
    <glyph glyph-name="icircumflex" unicode="&#xd4;" horiz-adv-x="918" 
d="M502 335c0 -84 14.5 -141.166 43.5 -171.499s61.167 -45.5 96.5 -45.5c33.333 0 64.5 15.667 93.5 47s43.5 90.666 43.5 177.999s-12.667 149 -38 185s-59.333 54 -102 54c-20 0 -40.333 -5.5 -61 -16.5s-38.5 -30.667 -53.5 -59s-22.5 -65.833 -22.5 -112.5v-59z
M416 335.001v58.999c0 67.333 -14 115.5 -42 144.5s-59.667 43.5 -95 43.5c-36 0 -68.333 -16.333 -97 -49s-43 -96 -43 -190c0 -87.333 14.667 -146.666 44 -177.999s60.333 -47 93 -47c36 0 68.333 16.333 97 49s43 88.667 43 168zM355 700l208.005 -0.000976562v-34
c-40.667 -3.33301 -61 -30.333 -61 -81v-46h4c17.333 28.667 40.666 50.834 69.999 66.501s59 23.5 89 23.5c43.333 0 81.5 -14 114.5 -42s57.833 -64.167 74.5 -108.5s25 -90.833 25 -139.5c0 -87.333 -22.833 -153.833 -68.5 -199.5s-95.834 -68.5 -150.501 -68.5
c-62.667 0 -114.334 32.667 -155.001 98h-3v-54c0 -50.667 20.333 -77.667 61 -81v-34h-208v34c40.667 3.33301 61 30.333 61 81v54h-3c-40.667 -65.333 -92.334 -98 -155.001 -98c-54.667 0 -104.834 23.167 -150.501 69.5s-68.5 112.5 -68.5 198.5
c0 48.667 8.33301 95.167 25 139.5s41.5 80.5 74.5 108.5s71.167 42 114.5 42c30 0 60 -8 90 -24s53 -38 69 -66h4v46c0 50.667 -20.333 77.667 -61 81v34z" />
    <glyph glyph-name="icircumflex" unicode="&#x424;" horiz-adv-x="918" 
d="M502 335c0 -84 14.5 -141.166 43.5 -171.499s61.167 -45.5 96.5 -45.5c33.333 0 64.5 15.667 93.5 47s43.5 90.666 43.5 177.999s-12.667 149 -38 185s-59.333 54 -102 54c-20 0 -40.333 -5.5 -61 -16.5s-38.5 -30.667 -53.5 -59s-22.5 -65.833 -22.5 -112.5v-59z
M416 335.001v58.999c0 67.333 -14 115.5 -42 144.5s-59.667 43.5 -95 43.5c-36 0 -68.333 -16.333 -97 -49s-43 -96 -43 -190c0 -87.333 14.667 -146.666 44 -177.999s60.333 -47 93 -47c36 0 68.333 16.333 97 49s43 88.667 43 168zM355 700l208.005 -0.000976562v-34
c-40.667 -3.33301 -61 -30.333 -61 -81v-46h4c17.333 28.667 40.666 50.834 69.999 66.501s59 23.5 89 23.5c43.333 0 81.5 -14 114.5 -42s57.833 -64.167 74.5 -108.5s25 -90.833 25 -139.5c0 -87.333 -22.833 -153.833 -68.5 -199.5s-95.834 -68.5 -150.501 -68.5
c-62.667 0 -114.334 32.667 -155.001 98h-3v-54c0 -50.667 20.333 -77.667 61 -81v-34h-208v34c40.667 3.33301 61 30.333 61 81v54h-3c-40.667 -65.333 -92.334 -98 -155.001 -98c-54.667 0 -104.834 23.167 -150.501 69.5s-68.5 112.5 -68.5 198.5
c0 48.667 8.33301 95.167 25 139.5s41.5 80.5 74.5 108.5s71.167 42 114.5 42c30 0 60 -8 90 -24s53 -38 69 -66h4v46c0 50.667 -20.333 77.667 -61 81v34z" />
    <glyph glyph-name="idieresis" unicode="&#xd5;" horiz-adv-x="790" 
d="M753 700l0.00195312 -33.999c-24.667 -2 -45.167 -8 -61.5 -18s-34.5 -26 -54.5 -48l-197 -219l201 -259c40 -52 85.333 -81.333 136 -88v-34h-243v34c22 -1.33301 33 6 33 22c0 10.667 -6.66699 24.667 -20 42l-170 218l-197 -223
c-11.333 -12.667 -17 -24.334 -17 -35.001c0 -14.667 7 -22.667 21 -24h10h7v-34h-188v34c39.333 2.66699 75.333 22.334 108 59.001l231 256l-170 218c-22.667 28 -40.167 48 -52.5 60s-25.833 21.667 -40.5 29s-30.334 10.666 -47.001 9.99902v34h235v-34
c-6.66699 0.666992 -12.834 -0.666016 -18.501 -3.99902s-8.5 -7.33301 -8.5 -12c0 -17.333 3.33301 -30 10 -38l155 -200l166 191c13.333 15.333 20 27.666 20 36.999c0 8 -2.83301 14.333 -8.5 19s-13.5 7 -23.5 7v34h184z" />
    <glyph glyph-name="idieresis" unicode="&#x425;" horiz-adv-x="790" 
d="M753 700l0.00195312 -33.999c-24.667 -2 -45.167 -8 -61.5 -18s-34.5 -26 -54.5 -48l-197 -219l201 -259c40 -52 85.333 -81.333 136 -88v-34h-243v34c22 -1.33301 33 6 33 22c0 10.667 -6.66699 24.667 -20 42l-170 218l-197 -223
c-11.333 -12.667 -17 -24.334 -17 -35.001c0 -14.667 7 -22.667 21 -24h10h7v-34h-188v34c39.333 2.66699 75.333 22.334 108 59.001l231 256l-170 218c-22.667 28 -40.167 48 -52.5 60s-25.833 21.667 -40.5 29s-30.334 10.666 -47.001 9.99902v34h235v-34
c-6.66699 0.666992 -12.834 -0.666016 -18.501 -3.99902s-8.5 -7.33301 -8.5 -12c0 -17.333 3.33301 -30 10 -38l155 -200l166 191c13.333 15.333 20 27.666 20 36.999c0 8 -2.83301 14.333 -8.5 19s-13.5 7 -23.5 7v34h184z" />
    <glyph glyph-name="ntilde" unicode="&#xd6;" horiz-adv-x="804" 
d="M52 700l205.001 0.000976562v-34c-39.333 -6 -59 -33 -59 -81v-546h404v546c0 24 -4.33301 42.5 -13 55.5s-24 21.5 -46 25.5v34h204v-34c-20.667 -2 -35.667 -9.83301 -45 -23.5s-14 -32.834 -14 -57.501v-475c0 -26 1 -43.667 3 -53s11.333 -22 28 -38
c33.333 -32 50 -65.333 50 -100c0 -33.333 -13.5 -62.5 -40.5 -87.5s-66.833 -37.5 -119.5 -37.5c-58 0 -140 19 -246 57c-74.667 26.667 -129.334 40 -164.001 40c-36.667 0 -57 -10.333 -61 -31c13.333 2.66699 23.666 0.333984 30.999 -6.99902s11 -16.333 11 -27
c0 -10 -3 -18.333 -9 -25s-14.667 -10 -26 -10c-10.667 0 -20.167 4.5 -28.5 13.5s-12.5 22.167 -12.5 39.5c0 26.667 13.5 49.834 40.5 69.501s65.167 29.5 114.5 29.5c36 0 74.5 -5.5 115.5 -16.5s84.5 -24.833 130.5 -41.5c74 -25.333 125.333 -38 154 -38
c24.667 0 43.5 7 56.5 21s19.5 30.667 19.5 50c0 32 -8.66699 53.667 -26 65s-44.666 17 -81.999 17h-575v34c22.667 2 38.334 9.66699 47.001 23s13 32.666 13 57.999v470c0 25.333 -4.33301 44.666 -13 57.999s-24.334 21 -47.001 23v34z" />
    <glyph glyph-name="ntilde" unicode="&#x426;" horiz-adv-x="804" 
d="M52 700l205.001 0.000976562v-34c-39.333 -6 -59 -33 -59 -81v-546h404v546c0 24 -4.33301 42.5 -13 55.5s-24 21.5 -46 25.5v34h204v-34c-20.667 -2 -35.667 -9.83301 -45 -23.5s-14 -32.834 -14 -57.501v-475c0 -26 1 -43.667 3 -53s11.333 -22 28 -38
c33.333 -32 50 -65.333 50 -100c0 -33.333 -13.5 -62.5 -40.5 -87.5s-66.833 -37.5 -119.5 -37.5c-58 0 -140 19 -246 57c-74.667 26.667 -129.334 40 -164.001 40c-36.667 0 -57 -10.333 -61 -31c13.333 2.66699 23.666 0.333984 30.999 -6.99902s11 -16.333 11 -27
c0 -10 -3 -18.333 -9 -25s-14.667 -10 -26 -10c-10.667 0 -20.167 4.5 -28.5 13.5s-12.5 22.167 -12.5 39.5c0 26.667 13.5 49.834 40.5 69.501s65.167 29.5 114.5 29.5c36 0 74.5 -5.5 115.5 -16.5s84.5 -24.833 130.5 -41.5c74 -25.333 125.333 -38 154 -38
c24.667 0 43.5 7 56.5 21s19.5 30.667 19.5 50c0 32 -8.66699 53.667 -26 65s-44.666 17 -81.999 17h-575v34c22.667 2 38.334 9.66699 47.001 23s13 32.666 13 57.999v470c0 25.333 -4.33301 44.666 -13 57.999s-24.334 21 -47.001 23v34z" />
    <glyph glyph-name="oacute" unicode="&#xd7;" horiz-adv-x="695" 
d="M13 700l204 0.00195312v-34c-20.667 -2 -35.667 -9.83301 -45 -23.5s-14 -32.834 -14 -57.501v-135c0 -35.333 9.83301 -66.166 29.5 -92.499s60.5 -39.5 122.5 -39.5c27.333 0 58.166 4.5 92.499 13.5s65.833 20.5 94.5 34.5v219c0 50 -19.667 77 -59 81v34h205v-34
c-40 -3.33301 -60 -30.333 -60 -81v-470c0 -50.667 20 -77.667 60 -81v-34h-205v34c39.333 4 59 31 59 81v204c-72 -29.333 -140.667 -44 -206 -44c-91.333 0 -150.666 17.667 -177.999 53s-41 78.666 -41 129.999v127c0 25.333 -4.5 44.666 -13.5 57.999
s-24.167 21 -45.5 23v34z" />
    <glyph glyph-name="oacute" unicode="&#x427;" horiz-adv-x="695" 
d="M13 700l204 0.00195312v-34c-20.667 -2 -35.667 -9.83301 -45 -23.5s-14 -32.834 -14 -57.501v-135c0 -35.333 9.83301 -66.166 29.5 -92.499s60.5 -39.5 122.5 -39.5c27.333 0 58.166 4.5 92.499 13.5s65.833 20.5 94.5 34.5v219c0 50 -19.667 77 -59 81v34h205v-34
c-40 -3.33301 -60 -30.333 -60 -81v-470c0 -50.667 20 -77.667 60 -81v-34h-205v34c39.333 4 59 31 59 81v204c-72 -29.333 -140.667 -44 -206 -44c-91.333 0 -150.666 17.667 -177.999 53s-41 78.666 -41 129.999v127c0 25.333 -4.5 44.666 -13.5 57.999
s-24.167 21 -45.5 23v34z" />
    <glyph glyph-name="ograve" unicode="&#xd8;" horiz-adv-x="1110" 
d="M52 0l0.000976562 34c21.333 2.66699 36.5 10.667 45.5 24s13.5 32.333 13.5 57v470c0 24.667 -4.66699 43.834 -14 57.501s-24.333 21.5 -45 23.5v34h204v-34c-20.667 -2 -35.667 -9.83301 -45 -23.5s-14 -32.834 -14 -57.501v-546h315v546
c0 25.333 -4.33301 44.666 -13 57.999s-24.334 21 -47.001 23v34h205v-34c-22 -2.66699 -37.333 -10.5 -46 -23.5s-13 -32.167 -13 -57.5v-546h315v546c0 50 -20 77 -60 81v34h205v-34c-21.333 -2 -36.5 -9.66699 -45.5 -23s-13.5 -32.666 -13.5 -57.999v-470
c0 -25.333 4.33301 -44.5 13 -57.5s24 -20.833 46 -23.5v-34h-1006z" />
    <glyph glyph-name="ograve" unicode="&#x428;" horiz-adv-x="1110" 
d="M52 0l0.000976562 34c21.333 2.66699 36.5 10.667 45.5 24s13.5 32.333 13.5 57v470c0 24.667 -4.66699 43.834 -14 57.501s-24.333 21.5 -45 23.5v34h204v-34c-20.667 -2 -35.667 -9.83301 -45 -23.5s-14 -32.834 -14 -57.501v-546h315v546
c0 25.333 -4.33301 44.666 -13 57.999s-24.334 21 -47.001 23v34h205v-34c-22 -2.66699 -37.333 -10.5 -46 -23.5s-13 -32.167 -13 -57.5v-546h315v546c0 50 -20 77 -60 81v34h205v-34c-21.333 -2 -36.5 -9.66699 -45.5 -23s-13.5 -32.666 -13.5 -57.999v-470
c0 -25.333 4.33301 -44.5 13 -57.5s24 -20.833 46 -23.5v-34h-1006z" />
    <glyph glyph-name="ocircumflex" unicode="&#xd9;" horiz-adv-x="1128" 
d="M1058 700l0.00292969 -33.998c-21.333 -2 -36.5 -9.66699 -45.5 -23s-13.5 -32.666 -13.5 -57.999v-475c0 -20 1.5 -35.5 4.5 -46.5s6.83301 -19.167 11.5 -24.5s11.667 -12 21 -20c38 -31.333 57 -64 57 -98c0 -34.667 -16.833 -64.5 -50.5 -89.5
s-89.5 -37.5 -167.5 -37.5c-84 0 -189 19.333 -315 58c-43.333 13.333 -77.5 23.166 -102.5 29.499s-51.167 9.5 -78.5 9.5c-38 0 -59 -10.333 -63 -31c11.333 2.66699 21.166 0.5 29.499 -6.5s12.5 -16.167 12.5 -27.5c0 -10 -3 -18.333 -9 -25s-14.667 -10 -26 -10
c-10 0 -19.333 3.66699 -28 11s-13 21 -13 41c0 36.667 17.167 63 51.5 79s72.166 23.333 113.499 22c64 0 150 -16 258 -48c114.667 -33.333 196 -50 244 -50c24 0 48.5 5.16699 73.5 15.5s37.5 29.166 37.5 56.499c0 54.667 -43.667 82 -131 82h-877v34
c21.333 2.66699 36.5 10.667 45.5 24s13.5 32.333 13.5 57v470c0 24.667 -4.66699 43.834 -14 57.501s-24.333 21.5 -45 23.5v34h204v-34c-20.667 -2 -35.667 -9.83301 -45 -23.5s-14 -32.834 -14 -57.501v-546h315v546c0 25.333 -4.33301 44.666 -13 57.999
s-24.334 21 -47.001 23v34h205v-34c-22 -2.66699 -37.333 -10.5 -46 -23.5s-13 -32.167 -13 -57.5v-546h315v546c0 50 -20 77 -60 81v34h205z" />
    <glyph glyph-name="ocircumflex" unicode="&#x429;" horiz-adv-x="1128" 
d="M1058 700l0.00292969 -33.998c-21.333 -2 -36.5 -9.66699 -45.5 -23s-13.5 -32.666 -13.5 -57.999v-475c0 -20 1.5 -35.5 4.5 -46.5s6.83301 -19.167 11.5 -24.5s11.667 -12 21 -20c38 -31.333 57 -64 57 -98c0 -34.667 -16.833 -64.5 -50.5 -89.5
s-89.5 -37.5 -167.5 -37.5c-84 0 -189 19.333 -315 58c-43.333 13.333 -77.5 23.166 -102.5 29.499s-51.167 9.5 -78.5 9.5c-38 0 -59 -10.333 -63 -31c11.333 2.66699 21.166 0.5 29.499 -6.5s12.5 -16.167 12.5 -27.5c0 -10 -3 -18.333 -9 -25s-14.667 -10 -26 -10
c-10 0 -19.333 3.66699 -28 11s-13 21 -13 41c0 36.667 17.167 63 51.5 79s72.166 23.333 113.499 22c64 0 150 -16 258 -48c114.667 -33.333 196 -50 244 -50c24 0 48.5 5.16699 73.5 15.5s37.5 29.166 37.5 56.499c0 54.667 -43.667 82 -131 82h-877v34
c21.333 2.66699 36.5 10.667 45.5 24s13.5 32.333 13.5 57v470c0 24.667 -4.66699 43.834 -14 57.501s-24.333 21.5 -45 23.5v34h204v-34c-20.667 -2 -35.667 -9.83301 -45 -23.5s-14 -32.834 -14 -57.501v-546h315v546c0 25.333 -4.33301 44.666 -13 57.999
s-24.334 21 -47.001 23v34h205v-34c-22 -2.66699 -37.333 -10.5 -46 -23.5s-13 -32.167 -13 -57.5v-546h315v546c0 50 -20 77 -60 81v34h205z" />
    <glyph glyph-name="odieresis" unicode="&#xda;" horiz-adv-x="760" 
d="M13 700h380.001v-34c-39.333 -3.33301 -59 -30.333 -59 -81v-179h128c172.667 0 259 -67 259 -201c0 -88 -26 -144.167 -78 -168.5s-110.667 -36.5 -176 -36.5h-278v34c39.333 4 59 31 59 81v546h-73c-32.667 0 -57.834 -10.333 -75.501 -31s-34.5 -52.667 -50.5 -96h-36
v166zM334.001 39h112c48.667 0 86.167 7.33301 112.5 22s43.333 33.5 51 56.5s11.5 50.833 11.5 83.5c0 50 -12 90.167 -36 120.5s-73.333 45.5 -148 45.5h-103v-328z" />
    <glyph glyph-name="odieresis" unicode="&#x42a;" horiz-adv-x="760" 
d="M13 700h380.001v-34c-39.333 -3.33301 -59 -30.333 -59 -81v-179h128c172.667 0 259 -67 259 -201c0 -88 -26 -144.167 -78 -168.5s-110.667 -36.5 -176 -36.5h-278v34c39.333 4 59 31 59 81v546h-73c-32.667 0 -57.834 -10.333 -75.501 -31s-34.5 -52.667 -50.5 -96h-36
v166zM334.001 39h112c48.667 0 86.167 7.33301 112.5 22s43.333 33.5 51 56.5s11.5 50.833 11.5 83.5c0 50 -12 90.167 -36 120.5s-73.333 45.5 -148 45.5h-103v-328z" />
    <glyph glyph-name="otilde" unicode="&#xdb;" horiz-adv-x="851" 
d="M52 700l206 -0.00195312v-34c-40 -3.33301 -60 -30.333 -60 -81v-179h128c172.667 0 259 -67 259 -201c0 -63.333 -14.333 -110 -43 -140s-60.5 -48.333 -95.5 -55s-73.5 -10 -115.5 -10h-279v34c22 2.66699 37.5 10.334 46.5 23.001s13.5 32 13.5 58v470
c0 26.667 -4.5 46.334 -13.5 59.001s-24.5 20 -46.5 22v34zM198 38.998l112 0.000976562c52 0 94.167 9.66699 126.5 29s48.5 63.666 48.5 132.999c0 50 -12 90.167 -36 120.5s-73.333 45.5 -148 45.5h-103v-328zM818 699.999v-34.001
c-24.667 -2.66699 -40.667 -11.5 -48 -26.5s-11 -33.167 -11 -54.5v-470c0 -25.333 4.5 -44.666 13.5 -57.999s24.167 -21 45.5 -23v-34h-205v34c40 3.33301 60 30.333 60 81v470c0 50.667 -20 77.667 -60 81v34h205z" />
    <glyph glyph-name="otilde" unicode="&#x42b;" horiz-adv-x="851" 
d="M52 700l206 -0.00195312v-34c-40 -3.33301 -60 -30.333 -60 -81v-179h128c172.667 0 259 -67 259 -201c0 -63.333 -14.333 -110 -43 -140s-60.5 -48.333 -95.5 -55s-73.5 -10 -115.5 -10h-279v34c22 2.66699 37.5 10.334 46.5 23.001s13.5 32 13.5 58v470
c0 26.667 -4.5 46.334 -13.5 59.001s-24.5 20 -46.5 22v34zM198 38.998l112 0.000976562c52 0 94.167 9.66699 126.5 29s48.5 63.666 48.5 132.999c0 50 -12 90.167 -36 120.5s-73.333 45.5 -148 45.5h-103v-328zM818 699.999v-34.001
c-24.667 -2.66699 -40.667 -11.5 -48 -26.5s-11 -33.167 -11 -54.5v-470c0 -25.333 4.5 -44.666 13.5 -57.999s24.167 -21 45.5 -23v-34h-205v34c40 3.33301 60 30.333 60 81v470c0 50.667 -20 77.667 -60 81v34h205z" />
    <glyph glyph-name="uacute" unicode="&#xdc;" horiz-adv-x="618" 
d="M52 700l206 -0.00195312v-34c-40 -3.33301 -60 -30.333 -60 -81v-179h128c172.667 0 259 -67 259 -201c0 -63.333 -14.333 -110 -43 -140s-60.5 -48.333 -95.5 -55s-73.5 -10 -115.5 -10h-279v34c22 2.66699 37.5 10.334 46.5 23.001s13.5 32 13.5 58v470
c0 26.667 -4.5 46.334 -13.5 59.001s-24.5 20 -46.5 22v34zM198 38.998h112c52 0 94.167 9.66699 126.5 29s48.5 63.333 48.5 132c0 50 -12 90.333 -36 121s-73.333 46 -148 46h-103v-328z" />
    <glyph glyph-name="uacute" unicode="&#x42c;" horiz-adv-x="618" 
d="M52 700l206 -0.00195312v-34c-40 -3.33301 -60 -30.333 -60 -81v-179h128c172.667 0 259 -67 259 -201c0 -63.333 -14.333 -110 -43 -140s-60.5 -48.333 -95.5 -55s-73.5 -10 -115.5 -10h-279v34c22 2.66699 37.5 10.334 46.5 23.001s13.5 32 13.5 58v470
c0 26.667 -4.5 46.334 -13.5 59.001s-24.5 20 -46.5 22v34zM198 38.998h112c52 0 94.167 9.66699 126.5 29s48.5 63.333 48.5 132c0 50 -12 90.333 -36 121s-73.333 46 -148 46h-103v-328z" />
    <glyph glyph-name="ugrave" unicode="&#xdd;" horiz-adv-x="684" 
d="M81 694h39.002c8.66699 -13.333 21 -20 37 -20c7.33301 0 20.5 3.16699 39.5 9.5s33.167 10.5 42.5 12.5c36 8 70.333 12 103 12c75.333 0 144.666 -30.167 207.999 -90.5s95 -145.166 95 -254.499c0 -105.333 -32 -193 -96 -263c-34 -38 -72.5 -65.5 -115.5 -82.5
s-91.167 -25.5 -144.5 -25.5s-99 8.83301 -137 26.5s-66.333 39.667 -85 66s-28 51.5 -28 75.5c0 19.333 5.33301 35.333 16 48s24 19 40 19s30.333 -5.5 43 -16.5s19 -25.5 19 -43.5c0 -10.667 -2.33301 -23.667 -7 -39c-4.66699 -12.667 -7 -21 -7 -25
c0 -22.667 14.5 -40.334 43.5 -53.001s61.5 -19 97.5 -19c98.667 0 172 44.667 220 134c30 58.667 43.667 126 41 202c-15.333 -21.333 -33.666 -38.833 -54.999 -52.5s-42.333 -20.5 -63 -20.5c-27.333 0 -55 6.33301 -83 19c-30 14.667 -52 25.834 -66 33.501
s-24.167 12.834 -30.5 15.501s-15.5 4 -27.5 4c-16.667 0 -32.667 -10 -48 -30c-2 -2 -3.33301 -3.5 -4 -4.5l-3 -4.5l-27 18c1.33301 2 2.66602 4.16699 3.99902 6.5s3.33301 5.5 6 9.5c20 31.333 41.5 52 64.5 62s43.5 15 61.5 15c23.333 0 59 -12 107 -36
c41.333 -20.667 74 -31 98 -31c21.333 0 37.666 8 48.999 24s17 36.333 17 61c0 33.333 -8.66699 66.666 -26 99.999s-43.333 60.5 -78 81.5s-75 31.5 -121 31.5c-53.333 0 -96.5 -14.333 -129.5 -43s-58.167 -63.334 -75.5 -104.001h-34v172z" />
    <glyph glyph-name="ugrave" unicode="&#x42d;" horiz-adv-x="684" 
d="M81 694h39.002c8.66699 -13.333 21 -20 37 -20c7.33301 0 20.5 3.16699 39.5 9.5s33.167 10.5 42.5 12.5c36 8 70.333 12 103 12c75.333 0 144.666 -30.167 207.999 -90.5s95 -145.166 95 -254.499c0 -105.333 -32 -193 -96 -263c-34 -38 -72.5 -65.5 -115.5 -82.5
s-91.167 -25.5 -144.5 -25.5s-99 8.83301 -137 26.5s-66.333 39.667 -85 66s-28 51.5 -28 75.5c0 19.333 5.33301 35.333 16 48s24 19 40 19s30.333 -5.5 43 -16.5s19 -25.5 19 -43.5c0 -10.667 -2.33301 -23.667 -7 -39c-4.66699 -12.667 -7 -21 -7 -25
c0 -22.667 14.5 -40.334 43.5 -53.001s61.5 -19 97.5 -19c98.667 0 172 44.667 220 134c30 58.667 43.667 126 41 202c-15.333 -21.333 -33.666 -38.833 -54.999 -52.5s-42.333 -20.5 -63 -20.5c-27.333 0 -55 6.33301 -83 19c-30 14.667 -52 25.834 -66 33.501
s-24.167 12.834 -30.5 15.501s-15.5 4 -27.5 4c-16.667 0 -32.667 -10 -48 -30c-2 -2 -3.33301 -3.5 -4 -4.5l-3 -4.5l-27 18c1.33301 2 2.66602 4.16699 3.99902 6.5s3.33301 5.5 6 9.5c20 31.333 41.5 52 64.5 62s43.5 15 61.5 15c23.333 0 59 -12 107 -36
c41.333 -20.667 74 -31 98 -31c21.333 0 37.666 8 48.999 24s17 36.333 17 61c0 33.333 -8.66699 66.666 -26 99.999s-43.333 60.5 -78 81.5s-75 31.5 -121 31.5c-53.333 0 -96.5 -14.333 -129.5 -43s-58.167 -63.334 -75.5 -104.001h-34v172z" />
    <glyph glyph-name="ucircumflex" unicode="&#xde;" horiz-adv-x="1109" 
d="M197 389l165.004 -0.00488281c6 58.667 24.833 112.334 56.5 161.001s73.667 87.167 126 115.5s109.166 42.5 170.499 42.5c52.667 0 100.834 -9.66699 144.501 -29s81.334 -45.666 113.001 -78.999s55.834 -71.333 72.501 -114s25 -88 25 -136
c0 -46.667 -8.33301 -91.5 -25 -134.5s-40.834 -81.333 -72.501 -115s-69.834 -60.167 -114.501 -79.5s-92.334 -29 -143.001 -29s-98.334 9.66699 -143.001 29s-82.334 45.333 -113.001 78s-54.834 71 -72.501 115s-26.5 89.333 -26.5 136h-163v-235
c0 -25.333 4.66699 -44.666 14 -57.999s24.666 -21 45.999 -23v-34h-205v34c39.333 4 59 31 59 81v469c0 24.667 -3.83301 43.334 -11.5 56.001s-23.5 21.334 -47.5 26.001v34h205v-34c-25.333 -4.66699 -41.666 -14 -48.999 -28s-11 -31.667 -11 -53v-196zM715.004 668.995
c-42.667 0 -83.667 -11.667 -123 -35s-71.166 -58.833 -95.499 -106.5s-36.5 -106.834 -36.5 -177.501s12.167 -129.834 36.5 -177.501s56.166 -83.167 95.499 -106.5s80.333 -35 123 -35s83.667 11.667 123 35s71.166 58.833 95.499 106.5s36.5 106.834 36.5 177.501
s-12.167 129.834 -36.5 177.501s-56.166 83.167 -95.499 106.5s-80.333 35 -123 35z" />
    <glyph glyph-name="ucircumflex" unicode="&#x42e;" horiz-adv-x="1109" 
d="M197 389l165.004 -0.00488281c6 58.667 24.833 112.334 56.5 161.001s73.667 87.167 126 115.5s109.166 42.5 170.499 42.5c52.667 0 100.834 -9.66699 144.501 -29s81.334 -45.666 113.001 -78.999s55.834 -71.333 72.501 -114s25 -88 25 -136
c0 -46.667 -8.33301 -91.5 -25 -134.5s-40.834 -81.333 -72.501 -115s-69.834 -60.167 -114.501 -79.5s-92.334 -29 -143.001 -29s-98.334 9.66699 -143.001 29s-82.334 45.333 -113.001 78s-54.834 71 -72.501 115s-26.5 89.333 -26.5 136h-163v-235
c0 -25.333 4.66699 -44.666 14 -57.999s24.666 -21 45.999 -23v-34h-205v34c39.333 4 59 31 59 81v469c0 24.667 -3.83301 43.334 -11.5 56.001s-23.5 21.334 -47.5 26.001v34h205v-34c-25.333 -4.66699 -41.666 -14 -48.999 -28s-11 -31.667 -11 -53v-196zM715.004 668.995
c-42.667 0 -83.667 -11.667 -123 -35s-71.166 -58.833 -95.499 -106.5s-36.5 -106.834 -36.5 -177.501s12.167 -129.834 36.5 -177.501s56.166 -83.167 95.499 -106.5s80.333 -35 123 -35s83.667 11.667 123 35s71.166 58.833 95.499 106.5s36.5 106.834 36.5 177.501
s-12.167 129.834 -36.5 177.501s-56.166 83.167 -95.499 106.5s-80.333 35 -123 35z" />
    <glyph glyph-name="udieresis" unicode="&#xdf;" horiz-adv-x="694" 
d="M436 34c40 4 59.999 30.999 59.999 80.999v212h-103c-45.333 0 -76 -10.167 -92 -30.5s-29.333 -47.5 -40 -81.5c-25.333 -88 -56.333 -149.167 -93 -183.5s-92.667 -47.166 -168 -38.499v34c36 0 62.5 11 79.5 33s32.167 55.333 45.5 100c14 46 31.333 84.667 52 116
s52 52 94 62v3c-49.333 0 -91.666 16 -126.999 48s-53 72 -53 120c0 62.667 23.167 110.167 69.5 142.5s123.5 48.5 231.5 48.5h250v-34c-40 -3.33301 -60 -30.333 -60 -81v-470c0 -50.667 20 -77.667 60 -81v-34h-206v34zM495.999 660.999h-100
c-52.667 0 -100 -8.5 -142 -25.5s-63 -57.5 -63 -121.5c0 -98.667 62.667 -148 188 -148h117v295z" />
    <glyph glyph-name="udieresis" unicode="&#x42f;" horiz-adv-x="694" 
d="M436 34c40 4 59.999 30.999 59.999 80.999v212h-103c-45.333 0 -76 -10.167 -92 -30.5s-29.333 -47.5 -40 -81.5c-25.333 -88 -56.333 -149.167 -93 -183.5s-92.667 -47.166 -168 -38.499v34c36 0 62.5 11 79.5 33s32.167 55.333 45.5 100c14 46 31.333 84.667 52 116
s52 52 94 62v3c-49.333 0 -91.666 16 -126.999 48s-53 72 -53 120c0 62.667 23.167 110.167 69.5 142.5s123.5 48.5 231.5 48.5h250v-34c-40 -3.33301 -60 -30.333 -60 -81v-470c0 -50.667 20 -77.667 60 -81v-34h-206v34zM495.999 660.999h-100
c-52.667 0 -100 -8.5 -142 -25.5s-63 -57.5 -63 -121.5c0 -98.667 62.667 -148 188 -148h117v295z" />
    <glyph glyph-name="daggerdbl" unicode="&#xe0;" horiz-adv-x="399" 
d="M385 39l6.99902 -11.001c-16.667 -24 -38 -36 -64 -36c-33.333 0 -55 18.333 -65 55h-2c-34.667 -36.667 -74 -55 -118 -55c-39.333 0 -68.666 10.5 -87.999 31.5s-29 45.833 -29 74.5c0 33.333 10.333 60.166 31 80.499s48.834 35 84.501 44s72.834 14.5 111.501 16.5
c0 40.667 -4.66699 71.334 -14 92.001s-29.333 31 -60 31c-28.667 0 -46 -15 -52 -45c-4.66699 -20 -16.334 -30 -35.001 -30c-21.333 0 -32 10 -32 30s12.333 37.667 37 53s55 23 91 23c61.333 0 99.666 -16.167 114.999 -48.5s23 -73.166 23 -122.499v-126
c0 -30.667 6.16699 -49.5 18.5 -56.5s25.833 -7.16699 40.5 -0.5zM252.999 205.999c-52 -2 -89.833 -13 -113.5 -33s-35.5 -44.333 -35.5 -73c0 -20 6.66699 -36 20 -48s30 -18 50 -18c32 0 53.167 11.833 63.5 35.5s15.5 57.5 15.5 101.5v35z" />
    <glyph glyph-name="daggerdbl" unicode="&#x2021;" horiz-adv-x="399" 
d="M385 39l6.99902 -11.001c-16.667 -24 -38 -36 -64 -36c-33.333 0 -55 18.333 -65 55h-2c-34.667 -36.667 -74 -55 -118 -55c-39.333 0 -68.666 10.5 -87.999 31.5s-29 45.833 -29 74.5c0 33.333 10.333 60.166 31 80.499s48.834 35 84.501 44s72.834 14.5 111.501 16.5
c0 40.667 -4.66699 71.334 -14 92.001s-29.333 31 -60 31c-28.667 0 -46 -15 -52 -45c-4.66699 -20 -16.334 -30 -35.001 -30c-21.333 0 -32 10 -32 30s12.333 37.667 37 53s55 23 91 23c61.333 0 99.666 -16.167 114.999 -48.5s23 -73.166 23 -122.499v-126
c0 -30.667 6.16699 -49.5 18.5 -56.5s25.833 -7.16699 40.5 -0.5zM252.999 205.999c-52 -2 -89.833 -13 -113.5 -33s-35.5 -44.333 -35.5 -73c0 -20 6.66699 -36 20 -48s30 -18 50 -18c32 0 53.167 11.833 63.5 35.5s15.5 57.5 15.5 101.5v35z" />
    <glyph glyph-name="daggerdbl" unicode="&#x430;" horiz-adv-x="399" 
d="M385 39l6.99902 -11.001c-16.667 -24 -38 -36 -64 -36c-33.333 0 -55 18.333 -65 55h-2c-34.667 -36.667 -74 -55 -118 -55c-39.333 0 -68.666 10.5 -87.999 31.5s-29 45.833 -29 74.5c0 33.333 10.333 60.166 31 80.499s48.834 35 84.501 44s72.834 14.5 111.501 16.5
c0 40.667 -4.66699 71.334 -14 92.001s-29.333 31 -60 31c-28.667 0 -46 -15 -52 -45c-4.66699 -20 -16.334 -30 -35.001 -30c-21.333 0 -32 10 -32 30s12.333 37.667 37 53s55 23 91 23c61.333 0 99.666 -16.167 114.999 -48.5s23 -73.166 23 -122.499v-126
c0 -30.667 6.16699 -49.5 18.5 -56.5s25.833 -7.16699 40.5 -0.5zM252.999 205.999c-52 -2 -89.833 -13 -113.5 -33s-35.5 -44.333 -35.5 -73c0 -20 6.66699 -36 20 -48s30 -18 50 -18c32 0 53.167 11.833 63.5 35.5s15.5 57.5 15.5 101.5v35z" />
    <glyph glyph-name="periodcentered" unicode="&#xe1;" horiz-adv-x="458" 
d="M387 598c0 -67.333 -37.999 -101.002 -113.999 -101.002c-7.33301 0.666992 -14.333 1.16699 -21 1.5s-15.334 0.5 -26.001 0.5c-38 0 -65.167 -12 -81.5 -36s-24.833 -64.333 -25.5 -121h5c32 34 73.333 51 124 51c45.333 0 87.333 -16.333 126 -49s58 -82 58 -148
c0 -53.333 -17 -100.666 -51 -141.999s-81.667 -62 -143 -62c-49.333 0 -95.5 15.5 -138.5 46.5s-64.5 88.5 -64.5 172.5c0 50.667 8 101 24 151s37.667 91 65 123c30.667 36.667 62 60.834 94 72.501s68.333 19.167 109 22.5c21.333 2 35.333 8 42 18h18zM235.001 361.998
c-29.333 0 -56.001 -12 -80.001 -36s-36 -68.667 -36 -134c0 -62.667 11.667 -106.5 35 -131.5s50 -37.5 80 -37.5c32.667 0 59.834 12.833 81.501 38.5s32.5 69.167 32.5 130.5c0 60 -11 103.333 -33 130s-48.667 40 -80 40z" />
    <glyph glyph-name="periodcentered" unicode="&#x431;" horiz-adv-x="458" 
d="M387 598c0 -67.333 -37.999 -101.002 -113.999 -101.002c-7.33301 0.666992 -14.333 1.16699 -21 1.5s-15.334 0.5 -26.001 0.5c-38 0 -65.167 -12 -81.5 -36s-24.833 -64.333 -25.5 -121h5c32 34 73.333 51 124 51c45.333 0 87.333 -16.333 126 -49s58 -82 58 -148
c0 -53.333 -17 -100.666 -51 -141.999s-81.667 -62 -143 -62c-49.333 0 -95.5 15.5 -138.5 46.5s-64.5 88.5 -64.5 172.5c0 50.667 8 101 24 151s37.667 91 65 123c30.667 36.667 62 60.834 94 72.501s68.333 19.167 109 22.5c21.333 2 35.333 8 42 18h18zM235.001 361.998
c-29.333 0 -56.001 -12 -80.001 -36s-36 -68.667 -36 -134c0 -62.667 11.667 -106.5 35 -131.5s50 -37.5 80 -37.5c32.667 0 59.834 12.833 81.501 38.5s32.5 69.167 32.5 130.5c0 60 -11 103.333 -33 130s-48.667 40 -80 40z" />
    <glyph glyph-name="quotesinglbase" unicode="&#xe2;" horiz-adv-x="423" 
d="M26 385l199.002 -0.000976562c43.333 0 79.5 -5.16699 108.5 -15.5s43.5 -35.5 43.5 -75.5c0 -47.333 -26.667 -76.666 -80 -87.999v-2c66.667 -5.33301 100 -38.333 100 -99c0 -24.667 -9.83301 -48.334 -29.5 -71.001s-60.834 -34 -123.501 -34h-218v29
c18 2 30 8.83301 36 20.5s9 28.834 9 51.501v182c0 24 -2.83301 41.5 -8.5 52.5s-17.834 17.833 -36.501 20.5v29zM144.002 353.999v-137h65c58.667 0 88 23.333 88 70c0 44.667 -29.333 67 -88 67h-65zM144.002 185.999v-155h68c68 0 102 26.333 102 79
c0 29.333 -9.5 49.333 -28.5 60s-46.167 16 -81.5 16h-60z" />
    <glyph glyph-name="quotesinglbase" unicode="&#x201a;" horiz-adv-x="423" 
d="M26 385l199.002 -0.000976562c43.333 0 79.5 -5.16699 108.5 -15.5s43.5 -35.5 43.5 -75.5c0 -47.333 -26.667 -76.666 -80 -87.999v-2c66.667 -5.33301 100 -38.333 100 -99c0 -24.667 -9.83301 -48.334 -29.5 -71.001s-60.834 -34 -123.501 -34h-218v29
c18 2 30 8.83301 36 20.5s9 28.834 9 51.501v182c0 24 -2.83301 41.5 -8.5 52.5s-17.834 17.833 -36.501 20.5v29zM144.002 353.999v-137h65c58.667 0 88 23.333 88 70c0 44.667 -29.333 67 -88 67h-65zM144.002 185.999v-155h68c68 0 102 26.333 102 79
c0 29.333 -9.5 49.333 -28.5 60s-46.167 16 -81.5 16h-60z" />
    <glyph glyph-name="quotesinglbase" unicode="&#x432;" horiz-adv-x="423" 
d="M26 385l199.002 -0.000976562c43.333 0 79.5 -5.16699 108.5 -15.5s43.5 -35.5 43.5 -75.5c0 -47.333 -26.667 -76.666 -80 -87.999v-2c66.667 -5.33301 100 -38.333 100 -99c0 -24.667 -9.83301 -48.334 -29.5 -71.001s-60.834 -34 -123.501 -34h-218v29
c18 2 30 8.83301 36 20.5s9 28.834 9 51.501v182c0 24 -2.83301 41.5 -8.5 52.5s-17.834 17.833 -36.501 20.5v29zM144.002 353.999v-137h65c58.667 0 88 23.333 88 70c0 44.667 -29.333 67 -88 67h-65zM144.002 185.999v-155h68c68 0 102 26.333 102 79
c0 29.333 -9.5 49.333 -28.5 60s-46.167 16 -81.5 16h-60z" />
    <glyph glyph-name="quotedblbase" unicode="&#xe3;" horiz-adv-x="345" 
d="M26 385l306 0.000976562v-123h-29c-9.33301 35.333 -20.666 58.666 -33.999 69.999c-17.333 14.667 -44 22 -80 22h-45v-253c0 -49.333 16.333 -73.333 49 -72v-29h-167v29c18 2.66699 30 9.66699 36 21s9 28.333 9 51v182c0 24.667 -2.83301 42 -8.5 52
s-17.834 17 -36.501 21v29z" />
    <glyph glyph-name="quotedblbase" unicode="&#x201e;" horiz-adv-x="345" 
d="M26 385l306 0.000976562v-123h-29c-9.33301 35.333 -20.666 58.666 -33.999 69.999c-17.333 14.667 -44 22 -80 22h-45v-253c0 -49.333 16.333 -73.333 49 -72v-29h-167v29c18 2.66699 30 9.66699 36 21s9 28.333 9 51v182c0 24.667 -2.83301 42 -8.5 52
s-17.834 17 -36.501 21v29z" />
    <glyph glyph-name="quotedblbase" unicode="&#x433;" horiz-adv-x="345" 
d="M26 385l306 0.000976562v-123h-29c-9.33301 35.333 -20.666 58.666 -33.999 69.999c-17.333 14.667 -44 22 -80 22h-45v-253c0 -49.333 16.333 -73.333 49 -72v-29h-167v29c18 2.66699 30 9.66699 36 21s9 28.333 9 51v182c0 24.667 -2.83301 42 -8.5 52
s-17.834 17 -36.501 21v29z" />
    <glyph glyph-name="perthousand" unicode="&#xe4;" horiz-adv-x="468" 
d="M409 385v-29c-19.333 0 -31.333 -5 -36 -15s-7 -26.333 -7 -49v-199c0 -26 4.16699 -42.167 12.5 -48.5s23.5 -10.166 45.5 -11.499c24.667 0 37 -8 37 -24c0 -12.667 -9.66699 -34.667 -29 -66s-36 -47 -50 -47c-7.33301 0 -11 3.66699 -11 11
c0 19.333 2.33301 30.666 7 33.999s7 11.666 7 24.999c0 22.667 -15 34 -45 34h-211c-26 0 -39 -11.333 -39 -34c0 -2.66699 1.66699 -9.66699 5 -21c1.33301 -2.66699 2.5 -5.16699 3.5 -7.5s1.66699 -5.16602 2 -8.49902s0.833008 -7.33301 1.5 -12v-17
c0 -2.66699 -2.33301 -4 -7 -4c-10 0 -27.167 14.833 -51.5 44.5s-36.5 53.167 -36.5 70.5c0 10.667 7.33301 16 22 16h3c12 0 20.833 2 26.5 6s12.5 11 20.5 21c10 14 29.667 54.333 59 121c32.667 73.333 49 121 49 143c0 28 -19.333 40.667 -58 38v29h280zM293 352
c-25.333 2 -41.332 -1.5 -47.999 -10.5s-16.667 -32.833 -30 -71.5c-2.66699 -11.333 -24 -65 -64 -161c-15.333 -36.667 -23 -56 -23 -58c0 -12.667 10 -19 30 -19c1.33301 -0.666992 3.66602 -1 6.99902 -1h128v321z" />
    <glyph glyph-name="perthousand" unicode="&#x2030;" horiz-adv-x="468" 
d="M409 385v-29c-19.333 0 -31.333 -5 -36 -15s-7 -26.333 -7 -49v-199c0 -26 4.16699 -42.167 12.5 -48.5s23.5 -10.166 45.5 -11.499c24.667 0 37 -8 37 -24c0 -12.667 -9.66699 -34.667 -29 -66s-36 -47 -50 -47c-7.33301 0 -11 3.66699 -11 11
c0 19.333 2.33301 30.666 7 33.999s7 11.666 7 24.999c0 22.667 -15 34 -45 34h-211c-26 0 -39 -11.333 -39 -34c0 -2.66699 1.66699 -9.66699 5 -21c1.33301 -2.66699 2.5 -5.16699 3.5 -7.5s1.66699 -5.16602 2 -8.49902s0.833008 -7.33301 1.5 -12v-17
c0 -2.66699 -2.33301 -4 -7 -4c-10 0 -27.167 14.833 -51.5 44.5s-36.5 53.167 -36.5 70.5c0 10.667 7.33301 16 22 16h3c12 0 20.833 2 26.5 6s12.5 11 20.5 21c10 14 29.667 54.333 59 121c32.667 73.333 49 121 49 143c0 28 -19.333 40.667 -58 38v29h280zM293 352
c-25.333 2 -41.332 -1.5 -47.999 -10.5s-16.667 -32.833 -30 -71.5c-2.66699 -11.333 -24 -65 -64 -161c-15.333 -36.667 -23 -56 -23 -58c0 -12.667 10 -19 30 -19c1.33301 -0.666992 3.66602 -1 6.99902 -1h128v321z" />
    <glyph glyph-name="perthousand" unicode="&#x434;" horiz-adv-x="468" 
d="M409 385v-29c-19.333 0 -31.333 -5 -36 -15s-7 -26.333 -7 -49v-199c0 -26 4.16699 -42.167 12.5 -48.5s23.5 -10.166 45.5 -11.499c24.667 0 37 -8 37 -24c0 -12.667 -9.66699 -34.667 -29 -66s-36 -47 -50 -47c-7.33301 0 -11 3.66699 -11 11
c0 19.333 2.33301 30.666 7 33.999s7 11.666 7 24.999c0 22.667 -15 34 -45 34h-211c-26 0 -39 -11.333 -39 -34c0 -2.66699 1.66699 -9.66699 5 -21c1.33301 -2.66699 2.5 -5.16699 3.5 -7.5s1.66699 -5.16602 2 -8.49902s0.833008 -7.33301 1.5 -12v-17
c0 -2.66699 -2.33301 -4 -7 -4c-10 0 -27.167 14.833 -51.5 44.5s-36.5 53.167 -36.5 70.5c0 10.667 7.33301 16 22 16h3c12 0 20.833 2 26.5 6s12.5 11 20.5 21c10 14 29.667 54.333 59 121c32.667 73.333 49 121 49 143c0 28 -19.333 40.667 -58 38v29h280zM293 352
c-25.333 2 -41.332 -1.5 -47.999 -10.5s-16.667 -32.833 -30 -71.5c-2.66699 -11.333 -24 -65 -64 -161c-15.333 -36.667 -23 -56 -23 -58c0 -12.667 10 -19 30 -19c1.33301 -0.666992 3.66602 -1 6.99902 -1h128v321z" />
    <glyph glyph-name="Acircumflex" unicode="&#xe5;" horiz-adv-x="386" 
d="M360 77c-20.667 -26 -44.5 -46.667 -71.5 -62s-54.833 -23 -83.5 -23c-47.333 0 -89 15 -125 45s-54 77.333 -54 142c0 67.333 17 119.833 51 157.5s75.667 56.5 125 56.5c46.667 0 83.5 -16.667 110.5 -50s39.5 -73.333 37.5 -120h-239
c-9.33301 -126.667 26.334 -190 107.001 -190c43.333 0 84.666 20.333 123.999 61zM271 254c1.33301 24 -3.16699 48.001 -13.5 72.001s-30.5 36 -60.5 36c-21.333 0 -40.5 -8.33301 -57.5 -25s-25.833 -44.334 -26.5 -83.001h158z" />
    <glyph glyph-name="Acircumflex" unicode="&#x435;" horiz-adv-x="386" 
d="M360 77c-20.667 -26 -44.5 -46.667 -71.5 -62s-54.833 -23 -83.5 -23c-47.333 0 -89 15 -125 45s-54 77.333 -54 142c0 67.333 17 119.833 51 157.5s75.667 56.5 125 56.5c46.667 0 83.5 -16.667 110.5 -50s39.5 -73.333 37.5 -120h-239
c-9.33301 -126.667 26.334 -190 107.001 -190c43.333 0 84.666 20.333 123.999 61zM271 254c1.33301 24 -3.16699 48.001 -13.5 72.001s-30.5 36 -60.5 36c-21.333 0 -40.5 -8.33301 -57.5 -25s-25.833 -44.334 -26.5 -83.001h158z" />
    <glyph glyph-name="Ecircumflex" unicode="&#xe6;" horiz-adv-x="671" 
d="M255 385l160.998 0.00195312v-29c-18.667 -4 -30.667 -11.5 -36 -22.5s-8 -27.833 -8 -50.5v-39c33.333 -0.666992 57.833 5.66602 73.5 18.999s30.834 32.666 45.501 57.999c18 30 34.333 50.333 49 61s39 14 73 10v-106h-29c-6 20.667 -16 31 -30 31
c-8.66699 0 -16.5 -3.5 -23.5 -10.5s-14.5 -15.167 -22.5 -24.5c-20 -23.333 -38.333 -39.666 -55 -48.999v-3l15 -5c70 -20.667 115.667 -70.334 137 -149.001c5.33301 -16.667 11 -29.167 17 -37.5s18 -11.5 36 -9.5v-29h-176v29c6.66699 0 12 0.333008 16 1
c16.667 2 25 13.667 25 35c0 17.333 -5 37.833 -15 61.5s-26 44 -48 61s-51.333 25.5 -88 25.5v-112c0 -22.667 2.83301 -39.834 8.5 -51.501s17.5 -18.5 35.5 -20.5v-29h-161v29c18 2 29.833 8.83301 35.5 20.5s8.5 28.834 8.5 51.501v112c-36.667 0 -66 -8.5 -88 -25.5
s-38 -37.333 -48 -61s-15 -44.167 -15 -61.5c0 -21.333 8.33301 -33 25 -35c4 -0.666992 9.33301 -1 16 -1v-29h-176v29c18 -1.33301 30 1.66699 36 9s11.667 20 17 38c21.333 78.667 67 128.334 137 149.001l15 5v3c-16.667 9.33301 -35 25.666 -55 48.999
s-35.333 35 -46 35c-14 0 -24 -10.333 -30 -31h-29v106c34 4 58.833 0.333008 74.5 -11s31.5 -31.333 47.5 -60c17.333 -28 33.333 -48 48 -60s38.334 -17.667 71.001 -17v39c0 22.667 -2.33301 39.5 -7 50.5s-17 18.5 -37 22.5v29z" />
    <glyph glyph-name="Ecircumflex" unicode="&#x436;" horiz-adv-x="671" 
d="M255 385l160.998 0.00195312v-29c-18.667 -4 -30.667 -11.5 -36 -22.5s-8 -27.833 -8 -50.5v-39c33.333 -0.666992 57.833 5.66602 73.5 18.999s30.834 32.666 45.501 57.999c18 30 34.333 50.333 49 61s39 14 73 10v-106h-29c-6 20.667 -16 31 -30 31
c-8.66699 0 -16.5 -3.5 -23.5 -10.5s-14.5 -15.167 -22.5 -24.5c-20 -23.333 -38.333 -39.666 -55 -48.999v-3l15 -5c70 -20.667 115.667 -70.334 137 -149.001c5.33301 -16.667 11 -29.167 17 -37.5s18 -11.5 36 -9.5v-29h-176v29c6.66699 0 12 0.333008 16 1
c16.667 2 25 13.667 25 35c0 17.333 -5 37.833 -15 61.5s-26 44 -48 61s-51.333 25.5 -88 25.5v-112c0 -22.667 2.83301 -39.834 8.5 -51.501s17.5 -18.5 35.5 -20.5v-29h-161v29c18 2 29.833 8.83301 35.5 20.5s8.5 28.834 8.5 51.501v112c-36.667 0 -66 -8.5 -88 -25.5
s-38 -37.333 -48 -61s-15 -44.167 -15 -61.5c0 -21.333 8.33301 -33 25 -35c4 -0.666992 9.33301 -1 16 -1v-29h-176v29c18 -1.33301 30 1.66699 36 9s11.667 20 17 38c21.333 78.667 67 128.334 137 149.001l15 5v3c-16.667 9.33301 -35 25.666 -55 48.999
s-35.333 35 -46 35c-14 0 -24 -10.333 -30 -31h-29v106c34 4 58.833 0.333008 74.5 -11s31.5 -31.333 47.5 -60c17.333 -28 33.333 -48 48 -60s38.334 -17.667 71.001 -17v39c0 22.667 -2.33301 39.5 -7 50.5s-17 18.5 -37 22.5v29z" />
    <glyph glyph-name="Aacute" unicode="&#xe7;" horiz-adv-x="408" 
d="M63 275v113h20c6.66699 -8 15.667 -12 27 -12c5.33301 0 11.666 1 18.999 3s17 4.33301 29 7c20 4.66699 38.667 7 56 7c44 0 78.667 -9.66699 104 -29s38 -42.666 38 -69.999c0 -35.333 -12.333 -63.333 -37 -84v-3c17.333 -4.66699 32.166 -14.834 44.499 -30.501
s18.5 -33.834 18.5 -54.501c0 -42.667 -15.667 -75 -47 -97s-71 -33 -119 -33c-25.333 0 -43 1.33301 -53 4s-18.667 7 -26 13s-15.333 10.5 -24 13.5s-25.334 4.5 -50.001 4.5c-12 0 -26.333 -6.33301 -43 -19l-13 11c26.667 44.667 54.334 67 83.001 67
c16.667 0 35.667 -9 57 -27c30 -24 56.667 -36 80 -36c22.667 0 41.167 7.16699 55.5 21.5s21.5 35.5 21.5 63.5c0 27.333 -10.333 50 -31 68c-29.333 -21.333 -61.666 -32 -96.999 -32c-20.667 0 -36.5 5 -47.5 15s-16.5 20.667 -16.5 32c0 12.667 6 24.334 18 35.001
s30.333 16 55 16c26.667 0 53.667 -5.33301 81 -16c10.667 18 16 38 16 60c0 18.667 -5.66699 36 -17 52s-32.666 24 -63.999 24c-52 0 -88.333 -29 -109 -87h-29zM248 200c-20.667 12 -43.667 18 -69 18c-24.667 0 -37 -9 -37 -27c0 -15.333 11.333 -23 34 -23
c29.333 0 53.333 10.667 72 32z" />
    <glyph glyph-name="Aacute" unicode="&#x437;" horiz-adv-x="408" 
d="M63 275v113h20c6.66699 -8 15.667 -12 27 -12c5.33301 0 11.666 1 18.999 3s17 4.33301 29 7c20 4.66699 38.667 7 56 7c44 0 78.667 -9.66699 104 -29s38 -42.666 38 -69.999c0 -35.333 -12.333 -63.333 -37 -84v-3c17.333 -4.66699 32.166 -14.834 44.499 -30.501
s18.5 -33.834 18.5 -54.501c0 -42.667 -15.667 -75 -47 -97s-71 -33 -119 -33c-25.333 0 -43 1.33301 -53 4s-18.667 7 -26 13s-15.333 10.5 -24 13.5s-25.334 4.5 -50.001 4.5c-12 0 -26.333 -6.33301 -43 -19l-13 11c26.667 44.667 54.334 67 83.001 67
c16.667 0 35.667 -9 57 -27c30 -24 56.667 -36 80 -36c22.667 0 41.167 7.16699 55.5 21.5s21.5 35.5 21.5 63.5c0 27.333 -10.333 50 -31 68c-29.333 -21.333 -61.666 -32 -96.999 -32c-20.667 0 -36.5 5 -47.5 15s-16.5 20.667 -16.5 32c0 12.667 6 24.334 18 35.001
s30.333 16 55 16c26.667 0 53.667 -5.33301 81 -16c10.667 18 16 38 16 60c0 18.667 -5.66699 36 -17 52s-32.666 24 -63.999 24c-52 0 -88.333 -29 -109 -87h-29zM248 200c-20.667 12 -43.667 18 -69 18c-24.667 0 -37 -9 -37 -27c0 -15.333 11.333 -23 34 -23
c29.333 0 53.333 10.667 72 32z" />
    <glyph glyph-name="Edieresis" unicode="&#xe8;" horiz-adv-x="460" 
d="M26 385h161.997v-29c-17.333 -3.33301 -29 -10.333 -35 -21s-9 -28 -9 -52v-143h2l171 160c0.666992 30.667 -13.666 49.334 -42.999 56.001v29h160v-29c-18 -3.33301 -29.833 -10.666 -35.5 -21.999s-8.5 -28.333 -8.5 -51v-182c0 -21.333 2.83301 -38 8.5 -50
s17.5 -19.333 35.5 -22v-29h-162v29c30 3.33301 45 27.333 45 72v148h-2l-171 -158c-1.33301 -18.667 1.33398 -32.834 8.00098 -42.501s18.667 -16.167 36 -19.5v-29h-162v29c30 2.66699 45 26.667 45 72v182c0 23.333 -3.16699 41.166 -9.5 53.499
s-18.166 18.833 -35.499 19.5v29z" />
    <glyph glyph-name="Edieresis" unicode="&#x438;" horiz-adv-x="460" 
d="M26 385h161.997v-29c-17.333 -3.33301 -29 -10.333 -35 -21s-9 -28 -9 -52v-143h2l171 160c0.666992 30.667 -13.666 49.334 -42.999 56.001v29h160v-29c-18 -3.33301 -29.833 -10.666 -35.5 -21.999s-8.5 -28.333 -8.5 -51v-182c0 -21.333 2.83301 -38 8.5 -50
s17.5 -19.333 35.5 -22v-29h-162v29c30 3.33301 45 27.333 45 72v148h-2l-171 -158c-1.33301 -18.667 1.33398 -32.834 8.00098 -42.501s18.667 -16.167 36 -19.5v-29h-162v29c30 2.66699 45 26.667 45 72v182c0 23.333 -3.16699 41.166 -9.5 53.499
s-18.166 18.833 -35.499 19.5v29z" />
    <glyph glyph-name="Egrave" unicode="&#xe9;" horiz-adv-x="460" 
d="M26 385h161.997v-29c-17.333 -3.33301 -29 -10.333 -35 -21s-9 -28 -9 -52v-143h2l171 160c0.666992 30.667 -13.666 49.334 -42.999 56.001v29h160v-29c-18 -3.33301 -29.833 -10.666 -35.5 -21.999s-8.5 -28.333 -8.5 -51v-182c0 -21.333 2.83301 -38 8.5 -50
s17.5 -19.333 35.5 -22v-29h-162v29c30 3.33301 45 27.333 45 72v148h-2l-171 -158c-1.33301 -18.667 1.33398 -32.834 8.00098 -42.501s18.667 -16.167 36 -19.5v-29h-162v29c30 2.66699 45 26.667 45 72v182c0 23.333 -3.16699 41.166 -9.5 53.499
s-18.166 18.833 -35.499 19.5v29zM227.997 484c-43.333 0 -76.8359 9.3291 -100.503 27.9961s-36.167 39.334 -37.5 62.001c0 18.667 7 34.334 21 47.001s31.333 19 52 19c12.667 0 22.667 -3 30 -9s11 -14 11 -24c0 -8 -2.66699 -14.667 -8 -20s-12.666 -8 -21.999 -8
c-2.66699 0 -5.66699 0.5 -9 1.5s-7.66602 2.5 -12.999 4.5c-8 3.33301 -14 5 -18 5c-10.667 0 -16 -5.33301 -16 -16c0 -12.667 10.833 -23.5 32.5 -32.5s47.834 -13.5 78.501 -13.5c34.667 0 62.167 4.83301 82.5 14.5s30.5 20.167 30.5 31.5c0 10.667 -5.33301 16 -16 16
c-3.33301 0 -9.33301 -1.66699 -18 -5c-12 -4 -19.333 -6 -22 -6c-20 0 -30 9.33301 -30 28c0 10 3.83301 18 11.5 24s17.5 9 29.5 9c22 0 40 -6.66699 54 -20s20.333 -28.666 19 -45.999c0 -22 -13.167 -42.667 -39.5 -62s-60.5 -28.666 -102.5 -27.999z" />
    <glyph glyph-name="Egrave" unicode="&#x439;" horiz-adv-x="460" 
d="M26 385h161.997v-29c-17.333 -3.33301 -29 -10.333 -35 -21s-9 -28 -9 -52v-143h2l171 160c0.666992 30.667 -13.666 49.334 -42.999 56.001v29h160v-29c-18 -3.33301 -29.833 -10.666 -35.5 -21.999s-8.5 -28.333 -8.5 -51v-182c0 -21.333 2.83301 -38 8.5 -50
s17.5 -19.333 35.5 -22v-29h-162v29c30 3.33301 45 27.333 45 72v148h-2l-171 -158c-1.33301 -18.667 1.33398 -32.834 8.00098 -42.501s18.667 -16.167 36 -19.5v-29h-162v29c30 2.66699 45 26.667 45 72v182c0 23.333 -3.16699 41.166 -9.5 53.499
s-18.166 18.833 -35.499 19.5v29zM227.997 484c-43.333 0 -76.8359 9.3291 -100.503 27.9961s-36.167 39.334 -37.5 62.001c0 18.667 7 34.334 21 47.001s31.333 19 52 19c12.667 0 22.667 -3 30 -9s11 -14 11 -24c0 -8 -2.66699 -14.667 -8 -20s-12.666 -8 -21.999 -8
c-2.66699 0 -5.66699 0.5 -9 1.5s-7.66602 2.5 -12.999 4.5c-8 3.33301 -14 5 -18 5c-10.667 0 -16 -5.33301 -16 -16c0 -12.667 10.833 -23.5 32.5 -32.5s47.834 -13.5 78.501 -13.5c34.667 0 62.167 4.83301 82.5 14.5s30.5 20.167 30.5 31.5c0 10.667 -5.33301 16 -16 16
c-3.33301 0 -9.33301 -1.66699 -18 -5c-12 -4 -19.333 -6 -22 -6c-20 0 -30 9.33301 -30 28c0 10 3.83301 18 11.5 24s17.5 9 29.5 9c22 0 40 -6.66699 54 -20s20.333 -28.666 19 -45.999c0 -22 -13.167 -42.667 -39.5 -62s-60.5 -28.666 -102.5 -27.999z" />
    <glyph glyph-name="Iacute" unicode="&#xea;" horiz-adv-x="445" 
d="M143 225c31.333 -0.666992 53.502 3.83203 66.502 13.499s25.5 27.167 37.5 52.5c16 31.333 27.667 52.833 35 64.5s19.666 21.5 36.999 29.5s39.666 10.667 66.999 8v-106h-29c-10 20 -21.333 30 -34 30c-11.333 0 -25.666 -14 -42.999 -42
c-15.333 -26 -31.333 -43.667 -48 -53v-3c31.333 -5.33301 59 -20.666 83 -45.999c21.333 -22.667 36.666 -46.834 45.999 -72.501s17.333 -44.167 24 -55.5s22.334 -20.333 47.001 -27v-20c-13.333 -4 -33 -6 -59 -6c-30 0 -51.333 7.83301 -64 23.5
s-29.334 47.167 -50.001 94.5c-10.667 26.667 -22 47.334 -34 62.001s-30.333 22 -55 22h-27v-93c0 -22.667 3 -39.667 9 -51s17.667 -18.333 35 -21v-29h-161v29c18.667 2.66699 30.667 9.66699 36 21s8 28.333 8 51v182c0 24 -2.83301 41.333 -8.5 52
s-17.5 17.667 -35.5 21v29h161v-29c-17.333 -3.33301 -29 -10.333 -35 -21s-9 -28 -9 -52v-58z" />
    <glyph glyph-name="Iacute" unicode="&#x43a;" horiz-adv-x="445" 
d="M143 225c31.333 -0.666992 53.502 3.83203 66.502 13.499s25.5 27.167 37.5 52.5c16 31.333 27.667 52.833 35 64.5s19.666 21.5 36.999 29.5s39.666 10.667 66.999 8v-106h-29c-10 20 -21.333 30 -34 30c-11.333 0 -25.666 -14 -42.999 -42
c-15.333 -26 -31.333 -43.667 -48 -53v-3c31.333 -5.33301 59 -20.666 83 -45.999c21.333 -22.667 36.666 -46.834 45.999 -72.501s17.333 -44.167 24 -55.5s22.334 -20.333 47.001 -27v-20c-13.333 -4 -33 -6 -59 -6c-30 0 -51.333 7.83301 -64 23.5
s-29.334 47.167 -50.001 94.5c-10.667 26.667 -22 47.334 -34 62.001s-30.333 22 -55 22h-27v-93c0 -22.667 3 -39.667 9 -51s17.667 -18.333 35 -21v-29h-161v29c18.667 2.66699 30.667 9.66699 36 21s8 28.333 8 51v182c0 24 -2.83301 41.333 -8.5 52
s-17.5 17.667 -35.5 21v29h161v-29c-17.333 -3.33301 -29 -10.333 -35 -21s-9 -28 -9 -52v-58z" />
    <glyph glyph-name="Icircumflex" unicode="&#xeb;" horiz-adv-x="435" 
d="M148 385h132.999l85 -290c8 -24 16 -41.5 24 -52.5s20.667 -15.5 38 -13.5v-29h-112l-88 299h-3c-0.666992 -3.33301 -1.66699 -7 -3 -11s-2.66602 -8.33301 -3.99902 -13l-12 -42c-20.667 -77.333 -42 -136.833 -64 -178.5s-50 -62.5 -84 -62.5
c-16 0 -28.5 4.5 -37.5 13.5s-13.5 19.5 -13.5 31.5c0 20.667 13 31 39 31c6 0 11.167 -1.5 15.5 -4.5s10.833 -4.5 19.5 -4.5c23.333 0 44 26.333 62 79c33.333 100 50 162 50 186c0 23.333 -15 34 -45 32v29z" />
    <glyph glyph-name="Icircumflex" unicode="&#x43b;" horiz-adv-x="435" 
d="M148 385h132.999l85 -290c8 -24 16 -41.5 24 -52.5s20.667 -15.5 38 -13.5v-29h-112l-88 299h-3c-0.666992 -3.33301 -1.66699 -7 -3 -11s-2.66602 -8.33301 -3.99902 -13l-12 -42c-20.667 -77.333 -42 -136.833 -64 -178.5s-50 -62.5 -84 -62.5
c-16 0 -28.5 4.5 -37.5 13.5s-13.5 19.5 -13.5 31.5c0 20.667 13 31 39 31c6 0 11.167 -1.5 15.5 -4.5s10.833 -4.5 19.5 -4.5c23.333 0 44 26.333 62 79c33.333 100 50 162 50 186c0 23.333 -15 34 -45 32v29z" />
    <glyph glyph-name="Idieresis" unicode="&#xec;" horiz-adv-x="545" 
d="M163 385l106 -274.998h2l125 275h123v-29c-18 -3.33301 -29.833 -10.333 -35.5 -21s-8.5 -28 -8.5 -52v-182c0 -24 3.16699 -41.833 9.5 -53.5s17.833 -17.834 34.5 -18.501v-29h-162v29c30 0 45 24 45 72v207h-6l-143 -317h-15l-128 330h-9v-242
c0 -32.667 14.667 -49.334 44 -50.001v-29h-119v29c29.333 4 44 20.667 44 50v233c0 29.333 -14.667 44 -44 44v29h137z" />
    <glyph glyph-name="Idieresis" unicode="&#x43c;" horiz-adv-x="545" 
d="M163 385l106 -274.998h2l125 275h123v-29c-18 -3.33301 -29.833 -10.333 -35.5 -21s-8.5 -28 -8.5 -52v-182c0 -24 3.16699 -41.833 9.5 -53.5s17.833 -17.834 34.5 -18.501v-29h-162v29c30 0 45 24 45 72v207h-6l-143 -317h-15l-128 330h-9v-242
c0 -32.667 14.667 -49.334 44 -50.001v-29h-119v29c29.333 4 44 20.667 44 50v233c0 29.333 -14.667 44 -44 44v29h137z" />
    <glyph glyph-name="Igrave" unicode="&#xed;" horiz-adv-x="466" 
d="M26 0l-0.000976562 28.999c18.667 2.66699 30.667 9.66699 36 21s8 28.333 8 51v182c0 24 -2.83301 41.333 -8.5 52s-17.5 17.667 -35.5 21v29h162v-29c-19.333 -3.33301 -31.666 -10.5 -36.999 -21.5s-8 -28.167 -8 -51.5v-75h179v75c0 24 -2.83301 41.5 -8.5 52.5
s-17.834 17.833 -36.501 20.5v29h163v-29c-14 -3.33301 -24 -7.66602 -30 -12.999s-10 -13 -12 -23s-3 -22.333 -3 -37v-182c0 -22.667 3 -39.667 9 -51s18 -18.333 36 -21v-29h-163v29c18 2 30 8.83301 36 20.5s9 28.834 9 51.501v76h-179v-76
c0 -22.667 2.83301 -39.834 8.5 -51.501s17.834 -18.5 36.501 -20.5v-29h-162z" />
    <glyph glyph-name="Igrave" unicode="&#x43d;" horiz-adv-x="466" 
d="M26 0l-0.000976562 28.999c18.667 2.66699 30.667 9.66699 36 21s8 28.333 8 51v182c0 24 -2.83301 41.333 -8.5 52s-17.5 17.667 -35.5 21v29h162v-29c-19.333 -3.33301 -31.666 -10.5 -36.999 -21.5s-8 -28.167 -8 -51.5v-75h179v75c0 24 -2.83301 41.5 -8.5 52.5
s-17.834 17.833 -36.501 20.5v29h163v-29c-14 -3.33301 -24 -7.66602 -30 -12.999s-10 -13 -12 -23s-3 -22.333 -3 -37v-182c0 -22.667 3 -39.667 9 -51s18 -18.333 36 -21v-29h-163v29c18 2 30 8.83301 36 20.5s9 28.834 9 51.501v76h-179v-76
c0 -22.667 2.83301 -39.834 8.5 -51.501s17.834 -18.5 36.501 -20.5v-29h-162z" />
    <glyph glyph-name="Oacute" unicode="&#xee;" horiz-adv-x="432" 
d="M216 393c63.333 0 110.833 -20.667 142.5 -62s47.5 -87.333 47.5 -138c0 -66.667 -20.167 -116.834 -60.5 -150.501s-83.5 -50.5 -129.5 -50.5s-89.167 16.833 -129.5 50.5s-60.5 83.834 -60.5 150.501c0 50.667 16.167 96.667 48.5 138s79.5 62 141.5 62zM216 362
c-44.667 0 -73.5 -16.667 -86.5 -50s-19.5 -73.333 -19.5 -120c0 -48.667 6.66699 -89 20 -121s42 -48 86 -48s72.667 16 86 48s20 72.333 20 121c0 46 -6 85.833 -18 119.5s-41.333 50.5 -88 50.5z" />
    <glyph glyph-name="Oacute" unicode="&#x43e;" horiz-adv-x="432" 
d="M216 393c63.333 0 110.833 -20.667 142.5 -62s47.5 -87.333 47.5 -138c0 -66.667 -20.167 -116.834 -60.5 -150.501s-83.5 -50.5 -129.5 -50.5s-89.167 16.833 -129.5 50.5s-60.5 83.834 -60.5 150.501c0 50.667 16.167 96.667 48.5 138s79.5 62 141.5 62zM216 362
c-44.667 0 -73.5 -16.667 -86.5 -50s-19.5 -73.333 -19.5 -120c0 -48.667 6.66699 -89 20 -121s42 -48 86 -48s72.667 16 86 48s20 72.333 20 121c0 46 -6 85.833 -18 119.5s-41.333 50.5 -88 50.5z" />
    <glyph glyph-name="Ocircumflex" unicode="&#xef;" horiz-adv-x="466" 
d="M440 385v-29.001c-14 -3.33301 -24 -7.66602 -30 -12.999s-10 -13 -12 -23s-3 -22.333 -3 -37v-182c0 -22.667 3 -39.667 9 -51s18 -18.333 36 -21v-29h-163v29c18 2 30 8.83301 36 20.5s9 28.834 9 51.501v253h-179v-253c0 -22.667 3 -39.834 9 -51.501
s18 -18.5 36 -20.5v-29h-162v29c18.667 2.66699 30.667 9.66699 36 21s8 28.333 8 51v182c0 24 -2.83301 41.333 -8.5 52s-17.5 17.667 -35.5 21v29h414z" />
    <glyph glyph-name="Ocircumflex" unicode="&#x43f;" horiz-adv-x="466" 
d="M440 385v-29.001c-14 -3.33301 -24 -7.66602 -30 -12.999s-10 -13 -12 -23s-3 -22.333 -3 -37v-182c0 -22.667 3 -39.667 9 -51s18 -18.333 36 -21v-29h-163v29c18 2 30 8.83301 36 20.5s9 28.834 9 51.501v253h-179v-253c0 -22.667 3 -39.834 9 -51.501
s18 -18.5 36 -20.5v-29h-162v29c18.667 2.66699 30.667 9.66699 36 21s8 28.333 8 51v182c0 24 -2.83301 41.333 -8.5 52s-17.5 17.667 -35.5 21v29h414z" />
    <glyph glyph-name="apple" unicode="&#xf0;" horiz-adv-x="455" 
d="M13 -184l-0.000976562 29c18 2 29.833 9 35.5 21s8.5 29 8.5 51v287c0 43.333 11.5 85.666 34.5 126.999s71.833 62 146.5 62c52.667 0 97.667 -17.667 135 -53s56 -84.333 56 -147c0 -29.333 -5.33301 -57.666 -16 -84.999s-27 -51.333 -49 -72
c-32.667 -29.333 -72.667 -44 -120 -44c-50 0 -87 13.667 -111 41h-3v-115c0 -24.667 3.83301 -43 11.5 -55s20.834 -18 39.501 -18v-29h-168zM129.999 252l-0.000976562 -116c0 -26.667 7.5 -52.167 22.5 -76.5s43.167 -36.5 84.5 -36.5c32.667 0 58.834 12 78.501 36
s29.5 68.333 29.5 133c0 113.333 -35.667 170 -107 170c-34 0 -60.5 -11.833 -79.5 -35.5s-28.5 -48.5 -28.5 -74.5z" />
    <glyph glyph-name="apple" unicode="&#x440;" horiz-adv-x="455" 
d="M13 -184l-0.000976562 29c18 2 29.833 9 35.5 21s8.5 29 8.5 51v287c0 43.333 11.5 85.666 34.5 126.999s71.833 62 146.5 62c52.667 0 97.667 -17.667 135 -53s56 -84.333 56 -147c0 -29.333 -5.33301 -57.666 -16 -84.999s-27 -51.333 -49 -72
c-32.667 -29.333 -72.667 -44 -120 -44c-50 0 -87 13.667 -111 41h-3v-115c0 -24.667 3.83301 -43 11.5 -55s20.834 -18 39.501 -18v-29h-168zM129.999 252l-0.000976562 -116c0 -26.667 7.5 -52.167 22.5 -76.5s43.167 -36.5 84.5 -36.5c32.667 0 58.834 12 78.501 36
s29.5 68.333 29.5 133c0 113.333 -35.667 170 -107 170c-34 0 -60.5 -11.833 -79.5 -35.5s-28.5 -48.5 -28.5 -74.5z" />
    <glyph glyph-name="Ograve" unicode="&#xf1;" horiz-adv-x="392" 
d="M355 89l16.9951 -18.001c-45.333 -52.667 -98.666 -79 -159.999 -79c-54.667 0 -99.334 18 -134.001 54s-52 82.333 -52 139s17.167 105.5 51.5 146.5s80.833 61.5 139.5 61.5c22.667 0 43.834 -3.33301 63.501 -10s34.834 -15.5 45.501 -26.5s16 -23.5 16 -37.5
c0 -8.66699 -3.66699 -16.667 -11 -24s-16 -11 -26 -11c-25.333 0 -38.666 13 -39.999 39c0 10.667 -2.83301 19.834 -8.5 27.501s-18.167 11.5 -37.5 11.5c-28.667 0 -54 -13.667 -76 -41s-33 -72.666 -33 -135.999c0 -58.667 14 -97.834 42 -117.501
s55.333 -29.5 82 -29.5c20.667 0 42.834 5 66.501 15s41.834 22 54.501 36z" />
    <glyph glyph-name="Ograve" unicode="&#x441;" horiz-adv-x="392" 
d="M355 89l16.9951 -18.001c-45.333 -52.667 -98.666 -79 -159.999 -79c-54.667 0 -99.334 18 -134.001 54s-52 82.333 -52 139s17.167 105.5 51.5 146.5s80.833 61.5 139.5 61.5c22.667 0 43.834 -3.33301 63.501 -10s34.834 -15.5 45.501 -26.5s16 -23.5 16 -37.5
c0 -8.66699 -3.66699 -16.667 -11 -24s-16 -11 -26 -11c-25.333 0 -38.666 13 -39.999 39c0 10.667 -2.83301 19.834 -8.5 27.501s-18.167 11.5 -37.5 11.5c-28.667 0 -54 -13.667 -76 -41s-33 -72.666 -33 -135.999c0 -58.667 14 -97.834 42 -117.501
s55.333 -29.5 82 -29.5c20.667 0 42.834 5 66.501 15s41.834 22 54.501 36z" />
    <glyph glyph-name="Uacute" unicode="&#xf2;" horiz-adv-x="393" 
d="M13 385h367v-123h-29c-5.33301 63.333 -44.666 94 -117.999 92v-253c0 -21.333 3.16699 -38.166 9.5 -50.499s18.5 -19.5 36.5 -21.5v-29h-164v29c19.333 2.66699 31.666 9.5 36.999 20.5s8 28.167 8 51.5v253c-70.667 3.33301 -110 -27.334 -118 -92.001h-29v123z" />
    <glyph glyph-name="Uacute" unicode="&#x442;" horiz-adv-x="393" 
d="M13 385h367v-123h-29c-5.33301 63.333 -44.666 94 -117.999 92v-253c0 -21.333 3.16699 -38.166 9.5 -50.499s18.5 -19.5 36.5 -21.5v-29h-164v29c19.333 2.66699 31.666 9.5 36.999 20.5s8 28.167 8 51.5v253c-70.667 3.33301 -110 -27.334 -118 -92.001h-29v123z" />
    <glyph glyph-name="Ucircumflex" unicode="&#xf3;" horiz-adv-x="429" 
d="M429 385l-0.00390625 -28.998c-18 -3.33301 -30.667 -10 -38 -20s-14.666 -23.333 -21.999 -40l-157 -348c-19.333 -44 -38.5 -77 -57.5 -99s-44.833 -33 -77.5 -33c-20 0 -36.5 4.83301 -49.5 14.5s-19.5 22.5 -19.5 38.5c0 11.333 3.66699 21.333 11 30s16 13 26 13
c10.667 0 22.334 -4.66699 35.001 -14c8.66699 -7.33301 18.334 -11 29.001 -11c22 0 40.333 16 55 48l30 66l-118 294c-17.333 43.333 -41 63.666 -71 60.999v29h184v-29h-10c-19.333 0 -29 -8.33301 -29 -25c0 -6 3 -16.667 9 -32l77 -193h4l80 177
c8.66699 17.333 13 31.333 13 42c0 8.66699 -3.16699 16.167 -9.5 22.5s-16.166 9.16602 -29.499 8.49902v29h135z" />
    <glyph glyph-name="Ucircumflex" unicode="&#x443;" horiz-adv-x="429" 
d="M429 385l-0.00390625 -28.998c-18 -3.33301 -30.667 -10 -38 -20s-14.666 -23.333 -21.999 -40l-157 -348c-19.333 -44 -38.5 -77 -57.5 -99s-44.833 -33 -77.5 -33c-20 0 -36.5 4.83301 -49.5 14.5s-19.5 22.5 -19.5 38.5c0 11.333 3.66699 21.333 11 30s16 13 26 13
c10.667 0 22.334 -4.66699 35.001 -14c8.66699 -7.33301 18.334 -11 29.001 -11c22 0 40.333 16 55 48l30 66l-118 294c-17.333 43.333 -41 63.666 -71 60.999v29h184v-29h-10c-19.333 0 -29 -8.33301 -29 -25c0 -6 3 -16.667 9 -32l77 -193h4l80 177
c8.66699 17.333 13 31.333 13 42c0 8.66699 -3.16699 16.167 -9.5 22.5s-16.166 9.16602 -29.499 8.49902v29h135z" />
    <glyph glyph-name="Ugrave" unicode="&#xf4;" horiz-adv-x="583" 
d="M372 482l0.00292969 -29.002c-29.333 -4 -44 -21.667 -44 -53v-35h1c21.333 18.667 46.666 28 75.999 28c39.333 0 74.5 -16.333 105.5 -49s46.5 -80.667 46.5 -144c0 -60.667 -14 -110.5 -42 -149.5s-64.667 -58.5 -110 -58.5c-26.667 0 -51.334 9.66699 -74.001 29h-3
v-103c0 -46 15 -70.333 45 -73v-29h-163v29c18 2.66699 30 9.83398 36 21.501s9 28.834 9 51.501v103h-3c-22 -19.333 -46.667 -29 -74 -29c-45.333 0 -82 21.5 -110 64.5s-42 90.833 -42 143.5c0 54 14.167 99.667 42.5 137s64.833 56 109.5 56
c29.333 0 54.666 -9.33301 75.999 -28h1v35c0 31.333 -14.667 49 -44 53v29h161zM255.003 266.998c0 64.667 -22.667 96.9971 -68 96.9971c-22.667 0 -39.667 -6.66699 -51 -20s-18.5 -30.166 -21.5 -50.499s-4.5 -48.166 -4.5 -83.499
c0 -61.333 3.83301 -108.166 11.5 -140.499s29.167 -48.5 64.5 -48.5c46 0 69 27.667 69 83v163zM328.003 266.995v-162.999c0 -55.333 23 -83 69 -83c35.333 0 56.833 15.667 64.5 47s11.5 78.666 11.5 141.999c0 50.667 -4.5 89 -13.5 115s-30.167 39 -63.5 39
c-45.333 0 -68 -32.333 -68 -97z" />
    <glyph glyph-name="Ugrave" unicode="&#x444;" horiz-adv-x="583" 
d="M372 482l0.00292969 -29.002c-29.333 -4 -44 -21.667 -44 -53v-35h1c21.333 18.667 46.666 28 75.999 28c39.333 0 74.5 -16.333 105.5 -49s46.5 -80.667 46.5 -144c0 -60.667 -14 -110.5 -42 -149.5s-64.667 -58.5 -110 -58.5c-26.667 0 -51.334 9.66699 -74.001 29h-3
v-103c0 -46 15 -70.333 45 -73v-29h-163v29c18 2.66699 30 9.83398 36 21.501s9 28.834 9 51.501v103h-3c-22 -19.333 -46.667 -29 -74 -29c-45.333 0 -82 21.5 -110 64.5s-42 90.833 -42 143.5c0 54 14.167 99.667 42.5 137s64.833 56 109.5 56
c29.333 0 54.666 -9.33301 75.999 -28h1v35c0 31.333 -14.667 49 -44 53v29h161zM255.003 266.998c0 64.667 -22.667 96.9971 -68 96.9971c-22.667 0 -39.667 -6.66699 -51 -20s-18.5 -30.166 -21.5 -50.499s-4.5 -48.166 -4.5 -83.499
c0 -61.333 3.83301 -108.166 11.5 -140.499s29.167 -48.5 64.5 -48.5c46 0 69 27.667 69 83v163zM328.003 266.995v-162.999c0 -55.333 23 -83 69 -83c35.333 0 56.833 15.667 64.5 47s11.5 78.666 11.5 141.999c0 50.667 -4.5 89 -13.5 115s-30.167 39 -63.5 39
c-45.333 0 -68 -32.333 -68 -97z" />
    <glyph glyph-name="dotlessi" unicode="&#xf5;" horiz-adv-x="416" 
d="M392 385l0.00292969 -29c-14.667 0 -27.834 -4.16699 -39.501 -12.5s-25.834 -23.833 -42.501 -46.5l-59 -78l97 -135c15.333 -20.667 27.333 -35 36 -43s19.334 -12 32.001 -12v-29h-175v29c24 -2.66699 36 5.33301 36 24c0 8 -5 18.333 -15 31l-57 74h-1l-52 -68
c-13.333 -17.333 -20 -30.333 -20 -39c0 -16 13.333 -23.333 40 -22v-29h-152v29c19.333 -0.666992 35.5 4.5 48.5 15.5s29.833 29.833 50.5 56.5l65 87l-72 99c-16.667 24.667 -30.834 42.167 -42.501 52.5s-24.834 15.833 -39.501 16.5v29h170v-29
c-21.333 -1.33301 -32 -5.66602 -32 -12.999c0 -6 9 -21.667 27 -47l35 -48l40 57c12 15.333 18 27 18 35c0 11.333 -8.33301 16.666 -25 15.999v29h129z" />
    <glyph glyph-name="dotlessi" unicode="&#x445;" horiz-adv-x="416" 
d="M392 385l0.00292969 -29c-14.667 0 -27.834 -4.16699 -39.501 -12.5s-25.834 -23.833 -42.501 -46.5l-59 -78l97 -135c15.333 -20.667 27.333 -35 36 -43s19.334 -12 32.001 -12v-29h-175v29c24 -2.66699 36 5.33301 36 24c0 8 -5 18.333 -15 31l-57 74h-1l-52 -68
c-13.333 -17.333 -20 -30.333 -20 -39c0 -16 13.333 -23.333 40 -22v-29h-152v29c19.333 -0.666992 35.5 4.5 48.5 15.5s29.833 29.833 50.5 56.5l65 87l-72 99c-16.667 24.667 -30.834 42.167 -42.501 52.5s-24.834 15.833 -39.501 16.5v29h170v-29
c-21.333 -1.33301 -32 -5.66602 -32 -12.999c0 -6 9 -21.667 27 -47l35 -48l40 57c12 15.333 18 27 18 35c0 11.333 -8.33301 16.666 -25 15.999v29h129z" />
    <glyph glyph-name="circumflex" unicode="&#xf6;" horiz-adv-x="481" 
d="M441 385l-0.000976562 -29.0029c-19.333 -0.666992 -31.666 -6.83398 -36.999 -18.501s-8 -29.167 -8 -52.5v-220c0 -12.667 8 -24.334 24 -35.001c23.333 -14.667 41 -28.167 53 -40.5s18 -29.166 18 -50.499c0 -18 -4.66699 -35.333 -14 -52
s-23.666 -30.5 -42.999 -41.5s-42.333 -16.5 -69 -16.5c-29.333 0 -64 7 -104 21c-32.667 12.667 -58 21.834 -76 27.501s-36 8.5 -54 8.5s-27 -7.33301 -27 -22c0 -4.66699 2.66699 -7 8 -7c2.66699 0 5.66699 1.16699 9 3.5s6.66602 3.5 9.99902 3.5
c15.333 0 23 -8 23 -24c0 -19.333 -10.333 -29 -31 -29c-27.333 0 -41 14 -41 42c0 14 4.5 27.167 13.5 39.5s22.5 22.5 40.5 30.5s40 12 66 12c22 0 52 -6.33301 90 -19l50 -16c30.667 -10.667 52 -16 64 -16c18.667 0 32.667 5.33301 42 16s14 24 14 40
c0 18.667 -8 33.334 -24 44.001s-35.667 16 -59 16h-353v29c18 2 30 8.83301 36 20.5s9 28.834 9 51.501v184c0 46.667 -15 70.334 -45 71.001v29h163v-29c-12.667 -1.33301 -23 -5.33301 -31 -12c-5.33301 -6.66699 -9 -14.167 -11 -22.5s-3 -20.5 -3 -36.5v-254h179v254
c0 24 -3 41.667 -9 53s-18 17.333 -36 18v29h163z" />
    <glyph glyph-name="circumflex" unicode="&#x446;" horiz-adv-x="481" 
d="M441 385l-0.000976562 -29.0029c-19.333 -0.666992 -31.666 -6.83398 -36.999 -18.501s-8 -29.167 -8 -52.5v-220c0 -12.667 8 -24.334 24 -35.001c23.333 -14.667 41 -28.167 53 -40.5s18 -29.166 18 -50.499c0 -18 -4.66699 -35.333 -14 -52
s-23.666 -30.5 -42.999 -41.5s-42.333 -16.5 -69 -16.5c-29.333 0 -64 7 -104 21c-32.667 12.667 -58 21.834 -76 27.501s-36 8.5 -54 8.5s-27 -7.33301 -27 -22c0 -4.66699 2.66699 -7 8 -7c2.66699 0 5.66699 1.16699 9 3.5s6.66602 3.5 9.99902 3.5
c15.333 0 23 -8 23 -24c0 -19.333 -10.333 -29 -31 -29c-27.333 0 -41 14 -41 42c0 14 4.5 27.167 13.5 39.5s22.5 22.5 40.5 30.5s40 12 66 12c22 0 52 -6.33301 90 -19l50 -16c30.667 -10.667 52 -16 64 -16c18.667 0 32.667 5.33301 42 16s14 24 14 40
c0 18.667 -8 33.334 -24 44.001s-35.667 16 -59 16h-353v29c18 2 30 8.83301 36 20.5s9 28.834 9 51.501v184c0 46.667 -15 70.334 -45 71.001v29h163v-29c-12.667 -1.33301 -23 -5.33301 -31 -12c-5.33301 -6.66699 -9 -14.167 -11 -22.5s-3 -20.5 -3 -36.5v-254h179v254
c0 24 -3 41.667 -9 53s-18 17.333 -36 18v29h163z" />
    <glyph glyph-name="circumflex" unicode="&#x2c6;" horiz-adv-x="481" 
d="M441 385l-0.000976562 -29.0029c-19.333 -0.666992 -31.666 -6.83398 -36.999 -18.501s-8 -29.167 -8 -52.5v-220c0 -12.667 8 -24.334 24 -35.001c23.333 -14.667 41 -28.167 53 -40.5s18 -29.166 18 -50.499c0 -18 -4.66699 -35.333 -14 -52
s-23.666 -30.5 -42.999 -41.5s-42.333 -16.5 -69 -16.5c-29.333 0 -64 7 -104 21c-32.667 12.667 -58 21.834 -76 27.501s-36 8.5 -54 8.5s-27 -7.33301 -27 -22c0 -4.66699 2.66699 -7 8 -7c2.66699 0 5.66699 1.16699 9 3.5s6.66602 3.5 9.99902 3.5
c15.333 0 23 -8 23 -24c0 -19.333 -10.333 -29 -31 -29c-27.333 0 -41 14 -41 42c0 14 4.5 27.167 13.5 39.5s22.5 22.5 40.5 30.5s40 12 66 12c22 0 52 -6.33301 90 -19l50 -16c30.667 -10.667 52 -16 64 -16c18.667 0 32.667 5.33301 42 16s14 24 14 40
c0 18.667 -8 33.334 -24 44.001s-35.667 16 -59 16h-353v29c18 2 30 8.83301 36 20.5s9 28.834 9 51.501v184c0 46.667 -15 70.334 -45 71.001v29h163v-29c-12.667 -1.33301 -23 -5.33301 -31 -12c-5.33301 -6.66699 -9 -14.167 -11 -22.5s-3 -20.5 -3 -36.5v-254h179v254
c0 24 -3 41.667 -9 53s-18 17.333 -36 18v29h163z" />
    <glyph glyph-name="tilde" unicode="&#xf7;" horiz-adv-x="432" 
d="M13 385h160.001v-29c-28.667 -2.66699 -43 -20 -43 -52v-35c0 -21.333 3.83301 -38 11.5 -50s23.834 -18 48.501 -18c36 0 68.667 5.66699 98 17v65c0 24.667 -2.83301 42 -8.5 52s-17.834 17 -36.501 21v29h163v-29c-14 -3.33301 -24 -7.66602 -30 -12.999
s-10 -13 -12 -23s-3 -22.333 -3 -37v-182c0 -22.667 3 -39.667 9 -51s18 -18.333 36 -21v-29h-169v29c22 2 36 8.16699 42 18.5s9 28.166 9 53.499v85c-46.667 -17.333 -89.334 -26 -128.001 -26c-68.667 0 -103 28 -103 84v61c0 30 -14.667 47 -44 51v29z" />
    <glyph glyph-name="tilde" unicode="&#x447;" horiz-adv-x="432" 
d="M13 385h160.001v-29c-28.667 -2.66699 -43 -20 -43 -52v-35c0 -21.333 3.83301 -38 11.5 -50s23.834 -18 48.501 -18c36 0 68.667 5.66699 98 17v65c0 24.667 -2.83301 42 -8.5 52s-17.834 17 -36.501 21v29h163v-29c-14 -3.33301 -24 -7.66602 -30 -12.999
s-10 -13 -12 -23s-3 -22.333 -3 -37v-182c0 -22.667 3 -39.667 9 -51s18 -18.333 36 -21v-29h-169v29c22 2 36 8.16699 42 18.5s9 28.166 9 53.499v85c-46.667 -17.333 -89.334 -26 -128.001 -26c-68.667 0 -103 28 -103 84v61c0 30 -14.667 47 -44 51v29z" />
    <glyph glyph-name="tilde" unicode="&#x2dc;" horiz-adv-x="432" 
d="M13 385h160.001v-29c-28.667 -2.66699 -43 -20 -43 -52v-35c0 -21.333 3.83301 -38 11.5 -50s23.834 -18 48.501 -18c36 0 68.667 5.66699 98 17v65c0 24.667 -2.83301 42 -8.5 52s-17.834 17 -36.501 21v29h163v-29c-14 -3.33301 -24 -7.66602 -30 -12.999
s-10 -13 -12 -23s-3 -22.333 -3 -37v-182c0 -22.667 3 -39.667 9 -51s18 -18.333 36 -21v-29h-169v29c22 2 36 8.16699 42 18.5s9 28.166 9 53.499v85c-46.667 -17.333 -89.334 -26 -128.001 -26c-68.667 0 -103 28 -103 84v61c0 30 -14.667 47 -44 51v29z" />
    <glyph glyph-name="macron" unicode="&#xf8;" horiz-adv-x="669" 
d="M189 385l-0.00195312 -28.998c-18.667 -4 -30.834 -11.333 -36.501 -22s-8.5 -27.667 -8.5 -51v-252h154v252c0 24.667 -2.83301 42 -8.5 52s-17.834 17 -36.501 21v29h163v-29c-19.333 -2.66699 -31.666 -9.33398 -36.999 -20.001s-8 -28.334 -8 -53.001v-252h154v252
c0 24 -2.83301 41.5 -8.5 52.5s-17.834 17.833 -36.501 20.5v29h163v-29c-19.333 -3.33301 -31.666 -10.5 -36.999 -21.5s-8 -28.167 -8 -51.5v-182c0 -22.667 2.83301 -39.834 8.5 -51.501s17.834 -18.5 36.501 -20.5v-29h-617v29
c18.667 2.66699 30.834 9.33398 36.501 20.001s8.5 28 8.5 52v182c0 23.333 -3.16699 40.833 -9.5 52.5s-18.166 18.5 -35.499 20.5v29h163z" />
    <glyph glyph-name="macron" unicode="&#x448;" horiz-adv-x="669" 
d="M189 385l-0.00195312 -28.998c-18.667 -4 -30.834 -11.333 -36.501 -22s-8.5 -27.667 -8.5 -51v-252h154v252c0 24.667 -2.83301 42 -8.5 52s-17.834 17 -36.501 21v29h163v-29c-19.333 -2.66699 -31.666 -9.33398 -36.999 -20.001s-8 -28.334 -8 -53.001v-252h154v252
c0 24 -2.83301 41.5 -8.5 52.5s-17.834 17.833 -36.501 20.5v29h163v-29c-19.333 -3.33301 -31.666 -10.5 -36.999 -21.5s-8 -28.167 -8 -51.5v-182c0 -22.667 2.83301 -39.834 8.5 -51.501s17.834 -18.5 36.501 -20.5v-29h-617v29
c18.667 2.66699 30.834 9.33398 36.501 20.001s8.5 28 8.5 52v182c0 23.333 -3.16699 40.833 -9.5 52.5s-18.166 18.5 -35.499 20.5v29h163z" />
    <glyph glyph-name="breve" unicode="&#xf9;" horiz-adv-x="690" 
d="M188 385l-0.00292969 -28.9951c-18.667 -4 -30.834 -11.333 -36.501 -22s-8.5 -27.667 -8.5 -51v-252h154v252c0 24.667 -2.83301 42 -8.5 52s-17.834 17 -36.501 21v29h163v-29c-19.333 -2.66699 -31.666 -9.33398 -36.999 -20.001s-8 -28.334 -8 -53.001v-252h153v252
c0 22.667 -2.16699 39.667 -6.5 51s-16.833 18.666 -37.5 21.999v29h163v-29c-19.333 -3.33301 -31.666 -10.5 -36.999 -21.5s-8 -28.167 -8 -51.5v-202c0 -16.667 1.66699 -27.334 5 -32.001s9.66602 -11 18.999 -19c29.333 -20.667 44 -53 44 -97
c0 -31.333 -13.667 -56.5 -41 -75.5s-60 -28.5 -98 -28.5c-37.333 0 -85 9.66699 -143 29c-52 19.333 -92.333 29 -121 29c-21.333 0 -32 -7.66699 -32 -23c0 -4.66699 2.66699 -7 8 -7l9 3c6.66699 2.66699 11.667 4 15 4c7.33301 0 13.333 -2 18 -6s7 -9.33301 7 -16
c0 -8 -3.16699 -15.167 -9.5 -21.5s-15.833 -9.5 -28.5 -9.5c-14 0 -24.833 4.66699 -32.5 14s-11.5 18.666 -11.5 27.999c0 20.667 11.333 39.5 34 56.5s56.334 25.5 101.001 25.5c24 0 57.667 -6.33301 101 -19c70.667 -21.333 112.334 -32 125.001 -32
c20 0 36 5.33301 48 16s18 24 18 40c0 19.333 -8.66699 34.166 -26 44.499s-38 15.5 -62 15.5h-519v29c18.667 2.66699 30.834 9.33398 36.501 20.001s8.5 28 8.5 52v182c0 23.333 -3.16699 40.833 -9.5 52.5s-18.166 18.5 -35.499 20.5v29h163z" />
    <glyph glyph-name="breve" unicode="&#x449;" horiz-adv-x="690" 
d="M188 385l-0.00292969 -28.9951c-18.667 -4 -30.834 -11.333 -36.501 -22s-8.5 -27.667 -8.5 -51v-252h154v252c0 24.667 -2.83301 42 -8.5 52s-17.834 17 -36.501 21v29h163v-29c-19.333 -2.66699 -31.666 -9.33398 -36.999 -20.001s-8 -28.334 -8 -53.001v-252h153v252
c0 22.667 -2.16699 39.667 -6.5 51s-16.833 18.666 -37.5 21.999v29h163v-29c-19.333 -3.33301 -31.666 -10.5 -36.999 -21.5s-8 -28.167 -8 -51.5v-202c0 -16.667 1.66699 -27.334 5 -32.001s9.66602 -11 18.999 -19c29.333 -20.667 44 -53 44 -97
c0 -31.333 -13.667 -56.5 -41 -75.5s-60 -28.5 -98 -28.5c-37.333 0 -85 9.66699 -143 29c-52 19.333 -92.333 29 -121 29c-21.333 0 -32 -7.66699 -32 -23c0 -4.66699 2.66699 -7 8 -7l9 3c6.66699 2.66699 11.667 4 15 4c7.33301 0 13.333 -2 18 -6s7 -9.33301 7 -16
c0 -8 -3.16699 -15.167 -9.5 -21.5s-15.833 -9.5 -28.5 -9.5c-14 0 -24.833 4.66699 -32.5 14s-11.5 18.666 -11.5 27.999c0 20.667 11.333 39.5 34 56.5s56.334 25.5 101.001 25.5c24 0 57.667 -6.33301 101 -19c70.667 -21.333 112.334 -32 125.001 -32
c20 0 36 5.33301 48 16s18 24 18 40c0 19.333 -8.66699 34.166 -26 44.499s-38 15.5 -62 15.5h-519v29c18.667 2.66699 30.834 9.33398 36.501 20.001s8.5 28 8.5 52v182c0 23.333 -3.16699 40.833 -9.5 52.5s-18.166 18.5 -35.499 20.5v29h163z" />
    <glyph glyph-name="dotaccent" unicode="&#xfa;" horiz-adv-x="500" 
d="M263 385v-29.001c-18 -3.33301 -29.833 -10.666 -35.5 -21.999s-8.5 -28.333 -8.5 -51v-29c36.667 18 73.667 27 111 27c44 0 79 -12.667 105 -38s39 -60.333 39 -105c0 -46.667 -15.5 -81.334 -46.5 -104.001s-70.5 -34 -118.5 -34h-207v29
c18.667 2.66699 30.667 9.66699 36 21s8 28.333 8 51v251c-36 0.666992 -61.833 -7.16602 -77.5 -23.499s-24.5 -42.5 -26.5 -78.5h-29v135h250zM219 213.999v-183h59c32.667 0 59.5 6.66699 80.5 20s31.5 41.333 31.5 84c0 38 -8.66699 64.333 -26 79s-37 22 -59 22
c-29.333 0 -58 -7.33301 -86 -22z" />
    <glyph glyph-name="dotaccent" unicode="&#x44a;" horiz-adv-x="500" 
d="M263 385v-29.001c-18 -3.33301 -29.833 -10.666 -35.5 -21.999s-8.5 -28.333 -8.5 -51v-29c36.667 18 73.667 27 111 27c44 0 79 -12.667 105 -38s39 -60.333 39 -105c0 -46.667 -15.5 -81.334 -46.5 -104.001s-70.5 -34 -118.5 -34h-207v29
c18.667 2.66699 30.667 9.66699 36 21s8 28.333 8 51v251c-36 0.666992 -61.833 -7.16602 -77.5 -23.499s-24.5 -42.5 -26.5 -78.5h-29v135h250zM219 213.999v-183h59c32.667 0 59.5 6.66699 80.5 20s31.5 41.333 31.5 84c0 38 -8.66699 64.333 -26 79s-37 22 -59 22
c-29.333 0 -58 -7.33301 -86 -22z" />
    <glyph glyph-name="ring" unicode="&#xfb;" horiz-adv-x="610" 
d="M26 385l163.001 -0.000976562v-29c-18 -2.66699 -30 -9.5 -36 -20.5s-9 -28.5 -9 -52.5v-29c38 18 75 27 111 27c44 0 78.833 -12.833 104.5 -38.5s38.5 -60.5 38.5 -104.5c0 -37.333 -12.167 -69.666 -36.5 -96.999s-61.833 -41 -112.5 -41h-223v29
c18 2.66699 30 9.66699 36 21s9 28.333 9 51v182c0 24.667 -2.83301 42 -8.5 52s-17.834 17 -36.501 21v29zM144.001 30.999h59c74 0 111 37 111 111c0 63.333 -29.667 95 -89 95c-24.667 0 -51.667 -7.66699 -81 -23v-183zM584.001 384.999v-28.999
c-18 -3.33301 -29.833 -10.333 -35.5 -21s-8.5 -28 -8.5 -52v-202c-0.666992 -14 3 -25.667 11 -35s19 -15 33 -17v-29h-161v29c29.333 3.33301 44 20.666 44 51.999v202c0 24 -2.83301 41.333 -8.5 52s-17.5 17.667 -35.5 21v29h161z" />
    <glyph glyph-name="ring" unicode="&#x44b;" horiz-adv-x="610" 
d="M26 385l163.001 -0.000976562v-29c-18 -2.66699 -30 -9.5 -36 -20.5s-9 -28.5 -9 -52.5v-29c38 18 75 27 111 27c44 0 78.833 -12.833 104.5 -38.5s38.5 -60.5 38.5 -104.5c0 -37.333 -12.167 -69.666 -36.5 -96.999s-61.833 -41 -112.5 -41h-223v29
c18 2.66699 30 9.66699 36 21s9 28.333 9 51v182c0 24.667 -2.83301 42 -8.5 52s-17.834 17 -36.501 21v29zM144.001 30.999h59c74 0 111 37 111 111c0 63.333 -29.667 95 -89 95c-24.667 0 -51.667 -7.66699 -81 -23v-183zM584.001 384.999v-28.999
c-18 -3.33301 -29.833 -10.333 -35.5 -21s-8.5 -28 -8.5 -52v-202c-0.666992 -14 3 -25.667 11 -35s19 -15 33 -17v-29h-161v29c29.333 3.33301 44 20.666 44 51.999v202c0 24 -2.83301 41.333 -8.5 52s-17.5 17.667 -35.5 21v29h161z" />
    <glyph glyph-name="cedilla" unicode="&#xfc;" horiz-adv-x="424" 
d="M26 385l163.001 -0.000976562v-29c-18 -2.66699 -30 -9.5 -36 -20.5s-9 -28.5 -9 -52.5v-29c38 18 75 27 111 27c44 0 78.833 -12.833 104.5 -38.5s38.5 -60.5 38.5 -104.5c0 -37.333 -12.167 -69.666 -36.5 -96.999s-61.833 -41 -112.5 -41h-223v29
c18 2.66699 30 9.66699 36 21s9 28.333 9 51v182c0 24.667 -2.83301 42 -8.5 52s-17.834 17 -36.501 21v29zM144.001 30.999h59c74 0 111 37 111 111c0 63.333 -29.667 95 -89 95c-24.667 0 -51.667 -7.66699 -81 -23v-183z" />
    <glyph glyph-name="cedilla" unicode="&#x44c;" horiz-adv-x="424" 
d="M26 385l163.001 -0.000976562v-29c-18 -2.66699 -30 -9.5 -36 -20.5s-9 -28.5 -9 -52.5v-29c38 18 75 27 111 27c44 0 78.833 -12.833 104.5 -38.5s38.5 -60.5 38.5 -104.5c0 -37.333 -12.167 -69.666 -36.5 -96.999s-61.833 -41 -112.5 -41h-223v29
c18 2.66699 30 9.66699 36 21s9 28.333 9 51v182c0 24.667 -2.83301 42 -8.5 52s-17.834 17 -36.501 21v29zM144.001 30.999h59c74 0 111 37 111 111c0 63.333 -29.667 95 -89 95c-24.667 0 -51.667 -7.66699 -81 -23v-183z" />
    <glyph glyph-name="hungarumlaut" unicode="&#xfd;" horiz-adv-x="421" 
d="M59 389l15 0.00195312c8 -6 17.333 -9 28 -9l46 8c16.667 3.33301 33.667 5 51 5c67.333 0 116.833 -20.5 148.5 -61.5s47.5 -87.833 47.5 -140.5c0 -61.333 -20 -109.833 -60 -145.5s-86.667 -53.5 -140 -53.5c-40.667 0 -75.5 8.66699 -104.5 26s-43.5 38.333 -43.5 63
c0 28.667 14.333 43 43 43c11.333 0 20.5 -3 27.5 -9s10.5 -14.667 10.5 -26c0 -4 -0.166992 -7.33301 -0.5 -10s-0.5 -6 -0.5 -10c0 -30.667 22.333 -46 67 -46c46 0 77.667 19.5 95 58.5s24 79.5 20 121.5h-3c-8 -14.667 -19 -26.334 -33 -35.001s-27.333 -13 -40 -13
c-9.33301 0 -22.666 2.66699 -39.999 8c-14 4.66699 -25.667 9 -35 13c-17.333 7.33301 -30.333 11 -39 11c-12.667 0 -25 -3.33301 -37 -10l-8 15c31.333 30 59.333 45 84 45c8 0 19.333 -2.66699 34 -8c39.333 -14 63.666 -21 72.999 -21c28.667 0 43 17.333 43 52
c0 21.333 -8.5 43.666 -25.5 66.999s-45.167 35 -84.5 35c-28.667 0 -51.167 -6.16699 -67.5 -18.5s-30.5 -33.5 -42.5 -63.5h-29v109z" />
    <glyph glyph-name="hungarumlaut" unicode="&#x44d;" horiz-adv-x="421" 
d="M59 389l15 0.00195312c8 -6 17.333 -9 28 -9l46 8c16.667 3.33301 33.667 5 51 5c67.333 0 116.833 -20.5 148.5 -61.5s47.5 -87.833 47.5 -140.5c0 -61.333 -20 -109.833 -60 -145.5s-86.667 -53.5 -140 -53.5c-40.667 0 -75.5 8.66699 -104.5 26s-43.5 38.333 -43.5 63
c0 28.667 14.333 43 43 43c11.333 0 20.5 -3 27.5 -9s10.5 -14.667 10.5 -26c0 -4 -0.166992 -7.33301 -0.5 -10s-0.5 -6 -0.5 -10c0 -30.667 22.333 -46 67 -46c46 0 77.667 19.5 95 58.5s24 79.5 20 121.5h-3c-8 -14.667 -19 -26.334 -33 -35.001s-27.333 -13 -40 -13
c-9.33301 0 -22.666 2.66699 -39.999 8c-14 4.66699 -25.667 9 -35 13c-17.333 7.33301 -30.333 11 -39 11c-12.667 0 -25 -3.33301 -37 -10l-8 15c31.333 30 59.333 45 84 45c8 0 19.333 -2.66699 34 -8c39.333 -14 63.666 -21 72.999 -21c28.667 0 43 17.333 43 52
c0 21.333 -8.5 43.666 -25.5 66.999s-45.167 35 -84.5 35c-28.667 0 -51.167 -6.16699 -67.5 -18.5s-30.5 -33.5 -42.5 -63.5h-29v109z" />
    <glyph glyph-name="ogonek" unicode="&#xfe;" horiz-adv-x="645" 
d="M144 208l95.9971 -0.000976562c4.66699 64 26.167 110.833 64.5 140.5s79.833 44.5 124.5 44.5c30.667 0 60.5 -7.16699 89.5 -21.5s53 -36.5 72 -66.5s28.5 -67.333 28.5 -112c0 -26.667 -4.33301 -52.167 -13 -76.5s-21.5 -46 -38.5 -65s-36.833 -33.667 -59.5 -44
s-49 -15.5 -79 -15.5c-47.333 0 -89.666 16.167 -126.999 48.5s-58 77.833 -62 136.5h-96v-76c0 -22.667 3 -39.667 9 -51s17.667 -18.333 35 -21v-29h-162v29c18.667 2 30.834 8.83301 36.501 20.5s8.5 28.834 8.5 51.501v182c0 23.333 -2.66699 40.5 -8 51.5
s-17.666 18.167 -36.999 21.5v29h162v-29c-17.333 -3.33301 -29 -10.333 -35 -21s-9 -28 -9 -52v-75zM428.997 361.999c-45.333 0 -74.333 -17.167 -87 -51.5s-19 -73.833 -19 -118.5c0 -48.667 6.66699 -89 20 -121s42 -48 86 -48s72.667 16 86 48s20 72.333 20 121
c0 113.333 -35.333 170 -106 170z" />
    <glyph glyph-name="ogonek" unicode="&#x44e;" horiz-adv-x="645" 
d="M144 208l95.9971 -0.000976562c4.66699 64 26.167 110.833 64.5 140.5s79.833 44.5 124.5 44.5c30.667 0 60.5 -7.16699 89.5 -21.5s53 -36.5 72 -66.5s28.5 -67.333 28.5 -112c0 -26.667 -4.33301 -52.167 -13 -76.5s-21.5 -46 -38.5 -65s-36.833 -33.667 -59.5 -44
s-49 -15.5 -79 -15.5c-47.333 0 -89.666 16.167 -126.999 48.5s-58 77.833 -62 136.5h-96v-76c0 -22.667 3 -39.667 9 -51s17.667 -18.333 35 -21v-29h-162v29c18.667 2 30.834 8.83301 36.501 20.5s8.5 28.834 8.5 51.501v182c0 23.333 -2.66699 40.5 -8 51.5
s-17.666 18.167 -36.999 21.5v29h162v-29c-17.333 -3.33301 -29 -10.333 -35 -21s-9 -28 -9 -52v-75zM428.997 361.999c-45.333 0 -74.333 -17.167 -87 -51.5s-19 -73.833 -19 -118.5c0 -48.667 6.66699 -89 20 -121s42 -48 86 -48s72.667 16 86 48s20 72.333 20 121
c0 113.333 -35.333 170 -106 170z" />
    <glyph glyph-name="fl" unicode="&#xff;" horiz-adv-x="417" 
d="M390 385l-0.00390625 -29.002c-29.333 -5.33301 -44 -22.666 -44 -51.999v-203c0 -22.667 3 -39.834 9 -51.501s18 -18.5 36 -20.5v-29h-163v29c18 2.66699 30 9.66699 36 21s9 28.333 9 51v77h-11c-26 2 -45.167 -4.33301 -57.5 -19s-23.833 -35.334 -34.5 -62.001
c-10.667 -27.333 -20.167 -47.666 -28.5 -60.999s-23.166 -24.166 -44.499 -32.499s-53.666 -12.166 -96.999 -11.499v28c23.333 2 39.5 9.16699 48.5 21.5s18.833 31.5 29.5 57.5s22.334 45.167 35.001 57.5s29.667 21.5 51 27.5v3c-35.333 2 -63.666 12.667 -84.999 32
s-32 41.333 -32 66c0 44.667 17.667 72.5 53 83.5s77 16.5 125 16.5h165zM272.996 353.998h-52c-60 0 -90 -24.667 -90 -74c0 -47.333 26.333 -71 79 -71h63v145z" />
    <glyph glyph-name="fl" unicode="&#x44f;" horiz-adv-x="417" 
d="M390 385l-0.00390625 -29.002c-29.333 -5.33301 -44 -22.666 -44 -51.999v-203c0 -22.667 3 -39.834 9 -51.501s18 -18.5 36 -20.5v-29h-163v29c18 2.66699 30 9.66699 36 21s9 28.333 9 51v77h-11c-26 2 -45.167 -4.33301 -57.5 -19s-23.833 -35.334 -34.5 -62.001
c-10.667 -27.333 -20.167 -47.666 -28.5 -60.999s-23.166 -24.166 -44.499 -32.499s-53.666 -12.166 -96.999 -11.499v28c23.333 2 39.5 9.16699 48.5 21.5s18.833 31.5 29.5 57.5s22.334 45.167 35.001 57.5s29.667 21.5 51 27.5v3c-35.333 2 -63.666 12.667 -84.999 32
s-32 41.333 -32 66c0 44.667 17.667 72.5 53 83.5s77 16.5 125 16.5h165zM272.996 353.998h-52c-60 0 -90 -24.667 -90 -74c0 -47.333 26.333 -71 79 -71h63v145z" />
    <glyph glyph-name="Otilde" unicode="&#x152;" horiz-adv-x="704" 
d="M52 700h204.001v-34c-39.333 -4 -59 -31 -59 -81v-151c57.333 -4.66699 99.5 4.33301 126.5 27s50.167 54.667 69.5 96c20 45.333 41.333 81.833 64 109.5s54.334 41.5 95.001 41.5c24 0 44.333 -3.66699 61 -11v-155h-34c-4.66699 39.333 -21.667 59 -51 59
c-14 0 -26.833 -5.5 -38.5 -16.5s-24.167 -26.167 -37.5 -45.5c-13.333 -20 -32 -42.333 -56 -67s-51 -41 -81 -49v-6c63.333 -8 110.333 -29.5 141 -64.5s57 -82.5 79 -142.5c21.333 -56 43.5 -99.5 66.5 -130.5s57.167 -43.5 102.5 -37.5v-45
c-12.667 -3.33301 -32.667 -5 -60 -5c-59.333 0 -103.5 15.667 -132.5 47s-59.5 89.333 -91.5 174c-16.667 44 -31.834 78 -45.501 102s-34.334 43.333 -62.001 58s-66.167 22 -115.5 22v-280c0 -26 4.33301 -45.5 13 -58.5s24 -20.5 46 -22.5v-34h-204v34
c39.333 4.66699 59 31.667 59 81v470c0 50 -19.667 77 -59 81v34z" />
    <glyph glyph-name="oe" unicode="&#x153;" horiz-adv-x="341" 
d="M172 393c39.333 0 68.6689 -8.00586 88.002 -24.0059s29 -33 29 -51c0 -20 -10.333 -30 -31 -30c-13.333 0 -23.166 5.33301 -29.499 16s-9.5 18.334 -9.5 23.001c-3.33301 23.333 -20.333 35 -51 35c-22.667 0 -40.834 -5.5 -54.501 -16.5s-20.5 -25.5 -20.5 -43.5
c0 -20.667 6 -35 18 -43s34 -16.667 66 -26c37.333 -9.33301 69.666 -22.333 96.999 -39s41 -43.667 41 -81c0 -38.667 -15.167 -68.5 -45.5 -89.5s-66.5 -31.5 -108.5 -31.5c-40 0 -72.5 9 -97.5 27s-37.5 38.667 -37.5 62c0 10.667 3.5 20.334 10.5 29.001
s16.833 13 29.5 13c12 0 21.333 -3.16699 28 -9.5s10 -13.833 10 -22.5c0 -6 -0.666992 -11.333 -2 -16s-2 -9 -2 -13c0 -9.33301 5.83301 -18.166 17.5 -26.499s27.167 -12.5 46.5 -12.5c27.333 0 47.666 6.66699 60.999 20s20 28.666 20 45.999
c0 20.667 -7.16699 35.334 -21.5 44.001s-38.5 18.334 -72.5 29.001c-44 14 -73.667 30.333 -89 49s-23 40.334 -23 65.001c0 38.667 13 67.834 39 87.501s57.333 29.5 94 29.5z" />
    <glyph glyph-name="dagger" unicode="&#x2020;" horiz-adv-x="557" 
d="M278 707c16 0 30.502 -4.50098 43.502 -13.501s19.5 -21.833 19.5 -38.5c-36 -25.333 -52 -78.333 -48 -159c8 -2.66699 13 -8.33398 15 -17.001c60 4.66699 102.333 20.667 127 48c34.667 -4 52 -23.667 52 -59c0 -16 -4.5 -29.833 -13.5 -41.5
s-21.833 -18.834 -38.5 -21.501c-14.667 14.667 -34.334 26 -59.001 34s-47.334 12 -68.001 12c-2 -7.33301 -7 -12 -15 -14c0 -39.333 16 -79.666 48 -120.999c-16.667 -51.333 -28.834 -110.333 -36.501 -177s-11.5 -124.667 -11.5 -174v-164h-29v164
c0 31.333 -1.66699 67.666 -5 108.999s-8.66602 83.833 -15.999 127.5s-16.333 81.834 -27 114.501c29.333 36.667 45.333 77 48 121c-8 2 -13 6.66699 -15 14c-20.667 0 -43.5 -4.16699 -68.5 -12.5s-44.5 -19.5 -58.5 -33.5c-16.667 2.66699 -29.5 10.334 -38.5 23.001
s-13.5 26 -13.5 40c0 35.333 17.333 55 52 59c24.667 -27.333 67 -43.333 127 -48c2 8.66699 7 14.334 15 17.001c4 77.333 -12 130.333 -48 159c-2 16 4.16699 28.667 18.5 38s28.833 14 43.5 14z" />
    <glyph glyph-name="currency" unicode="&#x2219;" horiz-adv-x="467" 
d="M26 385l161.999 -0.00195312v-29c-17.333 -3.33301 -29 -10.333 -35 -21s-9 -28 -9 -52v-252h179v252c0 24.667 -2.83301 42 -8.5 52s-17.834 17 -36.501 21v29h163v-29c-18 -2.66699 -30 -9.5 -36 -20.5s-9 -28.5 -9 -52.5v-182c0 -22.667 3 -39.834 9 -51.501
s18 -18.5 36 -20.5v-29h-68c-48 0 -80.333 -12.167 -97 -36.5s-26 -63.166 -28 -116.499h-29c0 54.667 -9.16699 93.834 -27.5 117.501s-50.833 35.5 -97.5 35.5h-68v29c18.667 2 30.834 8.83301 36.501 20.5s8.5 28.834 8.5 51.501v182c0 23.333 -2.66699 40.5 -8 51.5
s-17.666 18.167 -36.999 21.5v29z" />
    <glyph glyph-name="glyph1" horiz-adv-x="0" 
 />
    <glyph glyph-name="sterling" horiz-adv-x="666" 
d="M477 393l0.000976562 -39.001h-159c8.66699 -36 13 -68.333 13 -97c0 -32.667 -6 -73.667 -18 -123c83.333 -61.333 140.666 -92 171.999 -92c16 0 24 10 24 30c0 6 -2.33301 14.167 -7 24.5s-7 17.833 -7 22.5c0 16 4.66699 28.333 14 37s21 13 35 13
c15.333 0 27.833 -5.83301 37.5 -17.5s14.5 -27.167 14.5 -46.5c0 -30 -11.833 -56.333 -35.5 -79s-56.167 -34 -97.5 -34c-53.333 0 -111.333 24 -174 72c-33.333 -48 -73.333 -72 -120 -72c-36.667 0 -62.334 9.16699 -77.001 27.5s-22 37.166 -22 56.499
c0 23.333 8.33301 43 25 59s39.5 26 68.5 30s60.5 0 94.5 -12c-2 48.667 -16.333 115.667 -43 201h-137v39h124c-9.33301 38.667 -14 76.334 -14 113.001s7.5 70.334 22.5 101.001s36.833 55.167 65.5 73.5s62.334 27.5 101.001 27.5c40 0 74.333 -9.5 103 -28.5
s43 -45.167 43 -78.5c0 -19.333 -4.83301 -34.833 -14.5 -46.5s-22.167 -17.5 -37.5 -17.5c-12.667 0 -24 4.66699 -34 14s-15 21.333 -15 36c0 9.33301 2.66699 19.333 8 30c4.66699 9.33301 7 15 7 17c0 8 -5.5 15.833 -16.5 23.5s-23.833 11.5 -38.5 11.5
c-31.333 0 -57.5 -12.5 -78.5 -37.5s-31.5 -57.5 -31.5 -97.5c0 -40.667 10 -87.667 30 -141h175zM119.001 75.999c0 -26 16.668 -39 50.001 -39c15.333 0 31.166 4.83301 47.499 14.5s28.5 22.167 36.5 37.5c-30.667 24 -58.667 36 -84 36
c-16.667 0 -29.167 -4.83301 -37.5 -14.5s-12.5 -21.167 -12.5 -34.5z" />
    <glyph glyph-name="germandls" horiz-adv-x="308" 
d="M256 700v-34c-39.333 -2.66699 -59 -29.667 -59 -81v-470c0 -50 19.667 -77 59 -81v-34h-204v34c39.333 4 59 31 59 81v470c0 50.667 -19.667 77.667 -59 81v34h204zM150 854c16 0 29.833 -5.49805 41.5 -16.498s17.5 -25.167 17.5 -42.5
c0 -14.667 -5.5 -28.334 -16.5 -41.001s-25.167 -19 -42.5 -19c-16 0 -29.833 6.16699 -41.5 18.5s-17.5 26.166 -17.5 41.499c0 14.667 5.5 28.167 16.5 40.5s25.167 18.5 42.5 18.5z" />
    <glyph glyph-name="notequal" horiz-adv-x="1340" 
d="M230 795c40.667 0 73.168 -11.666 97.501 -34.999s40.833 -50.5 49.5 -81.5s13 -59.167 13 -84.5c0 -68 -16.167 -118.5 -48.5 -151.5s-69.5 -49.5 -111.5 -49.5c-26 0 -51.333 6.83301 -76 20.5s-44.834 36 -60.501 67s-23.5 68.833 -23.5 113.5
c0 49.333 12.5 95.166 37.5 137.499s65.833 63.5 122.5 63.5zM230.001 752.001c-50 0 -75 -38.001 -75 -114.001v-88c0 -78 25 -116 75 -114c50.667 -1.33301 76 36.334 76 113.001v88c0 76.667 -25.333 115 -76 115zM282.001 18l328 778l38 -16l-328 -780zM718.001 402
c56.667 0 97.5 -20.8301 122.5 -62.4971s37.5 -87.834 37.5 -138.501c0 -70.667 -16.833 -121.834 -50.5 -153.501s-70.167 -47.5 -109.5 -47.5c-35.333 0 -70.833 14.167 -106.5 42.5s-53.5 81.166 -53.5 158.499c0 50 12.5 96 37.5 138s65.833 63 122.5 63z
M718.001 359.003c-50 0 -75 -38 -75 -114v-88c0 -78 25 -116 75 -114c50 0 75 38 75 114v88c0 76 -25 114 -75 114zM1110 402.003c56.667 0 97.5 -20.8311 122.5 -62.498s37.5 -87.834 37.5 -138.501c0 -70.667 -16.833 -121.834 -50.5 -153.501s-70.167 -47.5 -109.5 -47.5
s-75.833 15.833 -109.5 47.5s-50.5 82.834 -50.5 153.501c0 25.333 4.33301 53.666 13 84.999s25 58.5 49 81.5s56.667 34.5 98 34.5zM1110 359.005c-50 0 -75 -38 -75 -114v-88c0 -78 25 -116 75 -114c50 -1.33301 75 36.667 75 114v88c0 76 -25 114 -75 114z" />
    <glyph glyph-name="AE" horiz-adv-x="543" 
d="M52 700h262.001c48.667 0 86 8 112 24c35.333 22 58.666 56.667 69.999 104h34v-162h-333v-551c0 -52.667 19.667 -79.667 59 -81v-34h-204v34c21.333 2.66699 36.5 10.667 45.5 24s13.5 32.333 13.5 57v470c0 54 -19.667 81 -59 81v34z" />
    <glyph glyph-name="Oslash" horiz-adv-x="340" 
d="M26 385l158.001 -0.000976562c36 0 62.667 7.33301 80 22c14 12 25.333 35 34 69h29v-122h-183v-253c0 -49.333 16.333 -73.333 49 -72v-29h-167v29c18 2 30 8.83301 36 20.5s9 28.834 9 51.501v182c0 24 -2.83301 41.5 -8.5 52.5s-17.834 17.833 -36.501 20.5v29z" />
    <glyph glyph-name="yen" horiz-adv-x="214" 
d="M26 385l117 0.000976562v-284c0 -22.667 3 -39.834 9 -51.501s18 -18.5 36 -20.5v-29h-162v29c18.667 2.66699 30.667 9.66699 36 21s8 28.333 8 51v182c0 24 -2.83301 41.333 -8.5 52s-17.5 17.667 -35.5 21v29zM47 565.001c0 12.667 4.83496 23.834 14.502 33.501
s21.167 14.5 34.5 14.5s24.666 -4.33301 33.999 -13s14 -20.334 14 -35.001s-4.83301 -26.5 -14.5 -35.5s-20.834 -13.5 -33.501 -13.5s-24 5 -34 15s-15 21.333 -15 34z" />
    <glyph glyph-name="mu" horiz-adv-x="407" 
d="M341 386v-275.001c0 -66 19.667 -90.333 59 -73l7 -11c-9.33301 -11.333 -18.333 -19.833 -27 -25.5s-21 -8.5 -37 -8.5c-44.667 0 -67 31.667 -67 95c-27.333 -64 -63 -96 -107 -96c-49.333 0 -83.333 22 -102 66c0 -26.667 2.33301 -50 7 -70
c0.666992 -2.66699 4.5 -16 11.5 -40s11.5 -40.5 13.5 -49.5s3 -19.167 3 -30.5c0 -26.667 -5.66699 -43.667 -17 -51s-24 -11 -38 -11c-31.333 0 -47 20 -47 60c0 18.667 3.66699 44.667 11 78c6.66699 25.333 12 57.333 16 96c3.33301 35.333 5 67.333 5 96v250h73v-210
c0 -84 26 -126 78 -126c20.667 0 40 16.333 58 49s27 74.334 27 125.001v162h73z" />
    <glyph glyph-name="summation" horiz-adv-x="350" 
d="M93 700h205.002v-34c-39.333 -4 -59 -31 -59 -81v-490c-0.666992 -60.667 -10.334 -109.667 -29.001 -147s-41.5 -64.166 -68.5 -80.499s-53.833 -24.5 -80.5 -24.5s-47.834 6.83301 -63.501 20.5s-23.5 28.5 -23.5 44.5c0 12.667 4 23.834 12 33.501s18 14.5 30 14.5
c10.667 0 20.167 -2.83301 28.5 -8.5s12.5 -14.834 12.5 -27.501c0 -6 -0.166992 -9.83301 -0.5 -11.5s-0.833008 -3.83398 -1.5 -6.50098c0 -12.667 9 -19 27 -19c47.333 0 71 58 71 174v528c0 50.667 -20 77.667 -60 81v34z" />
    <glyph glyph-name="product" horiz-adv-x="689" 
d="M625 140l24.999 -17.998c-72.667 -86.667 -164 -130 -274 -130c-69.333 0 -129.333 15.167 -180 45.5s-89.5 72.5 -116.5 126.5s-40.5 114.667 -40.5 182c0 63.333 13 122.666 39 177.999s64 99.833 114 133.5s109 50.5 177 50.5c38.667 0 85.334 -7.33301 140.001 -22
c34 -9.33301 57.667 -14 71 -14c6.66699 0 14.667 4 24 12h15v-154h-30c-20.667 53.333 -51 89.833 -91 109.5s-80 29.5 -120 29.5s-77.667 -11.167 -113 -33.5s-64.833 -56 -88.5 -101s-36.5 -99.833 -38.5 -164.5h5c22 27.333 43.167 45.333 63.5 54s46.166 13 77.499 13
c14 0 26.833 -2.16699 38.5 -6.5s22 -9.33301 31 -15l33.5 -20.5c33.333 -18.667 57 -28 71 -28c21.333 0 39.333 9.66699 54 29c3.33301 4 6 7.33301 8 10l27 -18c-37.333 -61.333 -84 -92 -140 -92c-13.333 0 -29.666 3.66699 -48.999 11c-14 5.33301 -32 13.333 -54 24
s-39.167 18.5 -51.5 23.5s-26.833 7.5 -43.5 7.5c-20 0 -36.167 -6.83301 -48.5 -20.5s-18.5 -31.167 -18.5 -52.5c0 -31.333 7.66699 -66.833 23 -106.5s40.833 -74.834 76.5 -105.501s81.167 -46 136.5 -46c43.333 0 88.5 9.83301 135.5 29.5s84.167 46.167 111.5 79.5z
" />
    <glyph glyph-name="pi" horiz-adv-x="423" 
d="M362 389l0.00292969 -109h-24c-20.667 54.667 -59.334 82 -116.001 82c-38.667 0 -67.5 -13.167 -86.5 -39.5s-27.833 -65.833 -26.5 -118.5h3c11.333 12 25.5 22 42.5 30s33.167 12 48.5 12c6.66699 0 26 -6 58 -18c22 -8.66699 35.667 -13 41 -13
c12.667 0 24.334 3.33301 35.001 10l8 -16c-32.667 -29.333 -59.334 -44 -80.001 -44c-8 0 -18.667 2.66699 -32 8c-34 13.333 -55 20 -63 20c-39.333 0 -59 -13 -59 -39c0 -33.333 11.333 -62 34 -86s49.667 -36 81 -36c21.333 0 44.5 4.5 69.5 13.5s46.5 23.5 64.5 43.5
l16 -18c-46.667 -52.667 -101.334 -79 -164.001 -79c-50.667 0 -94.334 19 -131.001 57s-55 85.333 -55 142c0 50 15.167 96.167 45.5 138.5s77.833 63.5 142.5 63.5c22 0 49.667 -3.33301 83 -10c7.33301 -2 14.333 -3 21 -3c10.667 0 20 3 28 9h16z" />
    <glyph glyph-name="ordmasculine" horiz-adv-x="974" 
d="M276 700l174 0.00195312l98 -299c44 6 91.333 9 142 9c82 0 144.333 -18.333 187 -55s64 -86.667 64 -150c0 -85.333 -25.167 -140.833 -75.5 -166.5s-99.833 -38.5 -148.5 -38.5h-131l-198 613h-3c-3.33301 -12.667 -7 -27.667 -11 -45
c-6.66699 -32.667 -20 -85.834 -40 -159.501s-36 -128.834 -48 -165.501c-27.333 -82.667 -55.5 -145.167 -84.5 -187.5s-67.833 -63.5 -116.5 -63.5c-19.333 0 -36.166 4.66699 -50.499 14s-21.5 23 -21.5 41s5.5 31.667 16.5 41s24.167 14 39.5 14
c9.33301 0 22 -3.33301 38 -10c12.667 -4.66699 20.667 -7 24 -7c29.333 0 54.166 25.167 74.499 75.5s44.833 123.5 73.5 219.5c38.667 126 58 206.667 58 242c0 14 -4 24.333 -12 31s-24.333 11 -49 13v34zM667 44.002l31.999 -0.000976562c30 0 61.833 9.33301 95.5 28
s50.5 61.334 50.5 128.001c0 46.667 -13.167 86 -39.5 118s-70.166 48 -131.499 48c-40 0 -76.667 -2.66699 -110 -8z" />
    <glyph glyph-name="Omega" horiz-adv-x="611" 
d="M147 393h133.003l41 -139c27.333 11.333 47.166 18.666 59.499 21.999s29.833 5 52.5 5c30.667 0 57.667 -6.16699 81 -18.5s41 -29.166 53 -50.499s18 -46 18 -74c0 -38.667 -13.667 -71.334 -41 -98.001s-66.333 -40 -117 -40h-112l-88 305h-3
c-1.33301 -3.33301 -3.83301 -12.166 -7.5 -26.499s-7.16699 -26.833 -10.5 -37.5c-22.667 -85.333 -44.834 -148.166 -66.501 -188.499s-49.167 -60.5 -82.5 -60.5s-50 15.333 -50 46c0 21.333 12.667 32 38 32c7.33301 0 14.5 -1.66699 21.5 -5s11.5 -5 13.5 -5
c18 0 33.333 14.167 46 42.5s25 64.166 37 107.499c0.666992 4 1.66699 8.16699 3 12.5s2.66602 8.33301 3.99902 12s2.33301 7.16699 3 10.5c12.667 43.333 19 72.333 19 87c0 21.333 -11.667 32 -35 32h-10v29zM332.003 219l54 -182h20c18.667 0 39.667 6.5 63 19.5
s35 41.5 35 85.5c0 16 -3.5 31.333 -10.5 46s-17.833 26.5 -32.5 35.5s-34 13.5 -58 13.5c-18 0 -41.667 -6 -71 -18z" />
    <glyph glyph-name="ae" horiz-adv-x="1107" 
d="M542 700l205 0.000976562v-34c-22 -2 -37.5 -9.66699 -46.5 -23s-13.5 -32.666 -13.5 -57.999v-179h128c172.667 0 259 -67 259 -201c0 -63.333 -14.333 -110 -43 -140s-60.5 -48.333 -95.5 -55s-73.5 -10 -115.5 -10h-278v34c20.667 2.66699 35.667 10.667 45 24
s14 32.333 14 57v222h-403v-222c0 -24.667 4.5 -43.834 13.5 -57.501s24.167 -21.5 45.5 -23.5v-34h-205v34c40 3.33301 60 30.333 60 81v470c0 50.667 -20 77.667 -60 81v34h205v-34c-39.333 -3.33301 -59 -30.333 -59 -81v-209h403v209
c0 25.333 -4.66699 44.666 -14 57.999s-24.333 21 -45 23v34zM687 39.001h112c51.333 0 93.333 9.66699 126 29s49 63.333 49 132c0 51.333 -11.5 92 -34.5 122s-72.833 45 -149.5 45h-103v-328z" />
    <glyph glyph-name="oslash" horiz-adv-x="675" 
d="M26 385h161.999v-29c-19.333 -3.33301 -31.666 -10.5 -36.999 -21.5s-8 -28.167 -8 -51.5v-75h180v75c0 24 -2.83301 41.5 -8.5 52.5s-17.834 17.833 -36.501 20.5v29h163v-29c-14 -3.33301 -24 -7.66602 -30 -12.999s-10 -13 -12 -23s-3 -22.333 -3 -37v-29
c39.333 18 76 27 110 27c36.667 0 69.667 -11.333 99 -34s44 -59 44 -109c0 -34.667 -11.667 -66.334 -35 -95.001s-61.333 -43 -114 -43h-222v29c18 2 30 8.83301 36 20.5s9 28.834 9 51.501v76h-180v-76c0 -22.667 2.83301 -39.834 8.5 -51.501s17.834 -18.5 36.501 -20.5
v-29h-162v29c18.667 2.66699 30.667 9.66699 36 21s8 28.333 8 51v182c0 24 -2.83301 41.333 -8.5 52s-17.5 17.667 -35.5 21v29zM395.999 214v-183h60c72 0 108 37 108 111c0 63.333 -29 95 -87 95c-24 0 -51 -7.66699 -81 -23z" />
    <glyph glyph-name="questiondown" horiz-adv-x="210" 
d="M11 385l144.002 0.000976562v-361c-2.66699 -68.667 -12.334 -117.667 -29.001 -147c-24 -40.667 -59 -61 -105 -61c-18.667 0 -33.334 4.66699 -44.001 14s-16 19.666 -16 30.999c0 20.667 11.333 31 34 31c9.33301 0 20.333 -6.33301 33 -19
c7.33301 -10.667 17.333 -16 30 -16c16 0 24 10 24 30v396c0 28 -5.33301 47.667 -16 59s-29 16 -55 14v29zM58.002 584.001c0 12.667 4.66699 23.998 14 33.998s21 15 35 15c12.667 0 23.834 -4.83301 33.501 -14.5s14.5 -21.167 14.5 -34.5s-4.33301 -24.666 -13 -33.999
s-20.334 -14 -35.001 -14s-26.5 4.83301 -35.5 14.5s-13.5 20.834 -13.5 33.501z" />
    <glyph glyph-name="exclamdown" horiz-adv-x="541" 
d="M471 675v-157.993h-39c-37.333 101.333 -94.666 152 -171.999 152c-38.667 0 -69.334 -11 -92.001 -33s-34 -48.667 -34 -80c0 -40 15.167 -69.333 45.5 -88s68.5 -34.334 114.5 -47.001c57.333 -16 107.5 -39.333 150.5 -70s64.5 -79.334 64.5 -146.001
c0 -54.667 -19.667 -103.834 -59 -147.501s-89.666 -65.5 -150.999 -65.5c-40 0 -80.667 7 -122 21c-24 8 -42.333 12 -55 12c-22.667 0 -37 -8.33301 -43 -25h-33v216h34c9.33301 -34.667 26.166 -66.334 50.499 -95.001s52 -50.834 83 -66.501s62.167 -23.5 93.5 -23.5
c36.667 0 67.667 14 93 42s38 59.667 38 95c0 73.333 -57.667 126 -173 158c-56 15.333 -103.167 37.666 -141.5 66.999s-57.5 74.333 -57.5 135c0 32.667 8.16699 62.667 24.5 90s39.833 49.166 70.5 65.499s66.667 24.5 108 24.5c42 0 83 -12 123 -36
c12.667 -7.33301 22.667 -11 30 -11c6.66699 0 14 4 22 12l1.5 1.5l0.5 0.5h25z" />
    <glyph glyph-name="OE" horiz-adv-x="445" 
d="M143 225c31.333 -0.666992 53.502 3.83203 66.502 13.499s25.5 27.167 37.5 52.5c16 31.333 27.667 52.833 35 64.5s19.666 21.5 36.999 29.5s39.666 10.667 66.999 8v-106h-29c-10 20 -21.333 30 -34 30c-11.333 0 -25.666 -14 -42.999 -42
c-15.333 -26 -31.333 -43.667 -48 -53v-3c31.333 -5.33301 59 -20.666 83 -45.999c21.333 -22.667 36.666 -46.834 45.999 -72.501s17.333 -44.167 24 -55.5s22.334 -20.333 47.001 -27v-20c-13.333 -4 -33 -6 -59 -6c-30 0 -51.333 7.83301 -64 23.5
s-29.334 47.167 -50.001 94.5c-10.667 26.667 -22 47.334 -34 62.001s-30.333 22 -55 22h-27v-93c0 -22.667 3 -39.667 9 -51s17.667 -18.333 35 -21v-29h-161v29c18.667 2.66699 30.667 9.66699 36 21s8 28.333 8 51v182c0 24 -2.83301 41.333 -8.5 52
s-17.5 17.667 -35.5 21v29h161v-29c-17.333 -3.33301 -29 -10.333 -35 -21s-9 -28 -9 -52v-58z" />
    <glyph glyph-name="fraction" horiz-adv-x="797" 
d="M52 700l204 0.000976562v-34c-21.333 -2 -36.5 -9.5 -45.5 -22.5s-13.5 -32.5 -13.5 -58.5v-546h403v546c0 50 -19.667 77 -59 81v34h204v-34c-21.333 -2 -36.5 -9.83301 -45.5 -23.5s-13.5 -32.834 -13.5 -57.501v-470c0 -50.667 19.667 -77.667 59 -81v-34h-178
c-48.667 0 -84.5 -22.833 -107.5 -68.5s-37.833 -109.167 -44.5 -190.5h-33c-14 172.667 -64.333 259 -151 259h-179v34c39.333 3.33301 59 30.333 59 81v470c0 26 -4.5 45.5 -13.5 58.5s-24.167 20.5 -45.5 22.5v34z" />
  </font>
</defs>
</svg>
