<svg width="747" height="900" viewBox="0 0 747 900" fill="none" xmlns="http://www.w3.org/2000/svg">
<path d="M727.532 637.5H596.412C586.484 637.5 578.28 629.7 577.718 619.8L558.986 282.3C558.387 271.95 566.329 263.1 576.631 262.538C587.046 261.938 595.812 269.888 596.374 280.2L614.132 600H708.389C703.818 486.45 662.422 250.462 644.065 150.112C639.719 126.375 620.688 108.113 596.749 104.7L497.21 74.1375C495.187 73.5 493.238 72.525 491.553 71.25C491.103 70.95 445.473 37.5 390.365 37.5C335.257 37.5 289.627 70.95 289.177 71.2875C287.079 72.825 284.682 73.95 282.134 74.5125L151.014 104.4C125.576 108.15 106.545 126.375 102.199 150.112C83.8048 250.537 42.4456 486.675 37.8751 600H166.598L184.356 280.2C184.918 269.888 193.159 261.825 204.099 262.538C214.401 263.1 222.343 271.95 221.744 282.3L203.012 619.8C202.45 629.7 194.246 637.5 184.318 637.5H18.7315C8.39172 637.5 0 629.1 0 618.75C0 515.775 40.9471 276.712 65.3355 143.363C72.6034 103.725 104.297 73.275 144.195 67.575L270.183 38.775C283.296 29.85 331.398 0 390.365 0C450.306 0 499.008 30.825 511.146 39.225L604.916 68.25C641.929 73.3125 673.623 103.762 680.891 143.363C700.521 250.612 746.226 511.688 746.226 618.75C746.264 629.1 737.872 637.5 727.532 637.5Z" fill="black"/>
<path d="M243.506 300.002C157.753 300.002 19.7389 263.402 13.8947 261.865C5.12831 259.54 -0.715925 251.252 0.0707993 242.215L18.8023 17.2145C19.6265 6.90204 28.3554 -0.822919 39.0324 0.0770809C49.3347 0.939581 56.9772 9.97704 56.153 20.327L38.6952 229.502C76.9075 238.952 178.582 262.502 243.506 262.502C308.504 262.502 410.141 238.952 448.316 229.502L430.896 20.327C430.034 10.0145 437.677 0.939581 448.016 0.0770809C458.356 -0.860419 467.385 6.86454 468.246 17.2145L486.978 242.215C487.765 251.252 481.92 259.54 473.154 261.865C467.272 263.402 329.259 300.002 243.506 300.002Z" transform="translate(146.859 599.998)" fill="black"/>
<path d="M131.124 375.003C123.294 375.003 115.989 370.053 113.366 362.178L0.977058 24.678C-2.31969 14.853 3.00006 4.24052 12.8154 0.978022C22.7056 -2.32198 33.2327 3.00302 36.492 12.828L148.881 350.328C152.14 360.153 146.858 370.766 137.043 374.028C135.057 374.703 133.072 375.003 131.124 375.003Z" transform="translate(259.241 37.4971)" fill="black"/>
<path d="M18.7201 487.503C16.7721 487.503 14.7865 487.203 12.801 486.528C2.98565 483.266 -2.29663 472.653 0.962651 462.828L150.815 12.828C154.074 3.00302 164.564 -2.32198 174.491 0.978022C184.307 4.24052 189.589 14.853 186.33 24.678L36.4776 474.678C33.8552 482.553 26.5499 487.503 18.7201 487.503Z" transform="translate(334.182 37.4971)" fill="black"/>
<path d="M56.1946 262.5C25.2126 262.5 0 237.262 0 206.25V56.25C0 25.2375 25.2126 0 56.1946 0C87.1765 0 112.389 25.2375 112.389 56.25V206.25C112.389 237.262 87.1765 262.5 56.1946 262.5ZM56.1946 37.5C45.8548 37.5 37.463 45.9 37.463 56.25V206.25C37.463 216.6 45.8548 225 56.1946 225C66.5344 225 74.9261 216.6 74.9261 206.25V56.25C74.9261 45.9 66.5344 37.5 56.1946 37.5Z" transform="translate(296.708 487.5)" fill="black"/>
<path d="M56.1946 187.5C25.2126 187.5 0 162.262 0 131.25V56.25C0 25.2375 25.2126 0 56.1946 0C87.1765 0 112.389 25.2375 112.389 56.25V131.25C112.389 162.262 87.1765 187.5 56.1946 187.5ZM56.1946 37.5C45.8548 37.5 37.463 45.9 37.463 56.25V131.25C37.463 141.6 45.8548 150 56.1946 150C66.5344 150 74.9261 141.6 74.9261 131.25V56.25C74.9261 45.9 66.5344 37.5 56.1946 37.5Z" transform="translate(371.634 487.5)" fill="black"/>
<path d="M149.852 37.5H18.7315C8.39172 37.5 0 29.1 0 18.75C0 8.4 8.39172 0 18.7315 0H149.852C160.192 0 168.584 8.4 168.584 18.75C168.584 29.1 160.192 37.5 149.852 37.5Z" transform="translate(165.587 600)" fill="black"/>
<path d="M149.852 37.5H18.7315C8.39172 37.5 0 29.1 0 18.75C0 8.4 8.39172 0 18.7315 0H149.852C160.192 0 168.584 8.4 168.584 18.75C168.584 29.1 160.192 37.5 149.852 37.5Z" transform="translate(446.56 600)" fill="black"/>
<path d="M131.121 37.5H18.7315C8.39172 37.5 0 29.1 0 18.75C0 8.4 8.39172 0 18.7315 0H131.121C141.46 0 149.852 8.4 149.852 18.75C149.852 29.1 141.46 37.5 131.121 37.5Z" transform="translate(446.56 525)" fill="black"/>
<path d="M131.121 37.5H18.7315C8.39172 37.5 0 29.1 0 18.75C0 8.4 8.39172 0 18.7315 0H131.121C141.46 0 149.852 8.4 149.852 18.75C149.852 29.1 141.46 37.5 131.121 37.5Z" transform="translate(184.319 525)" fill="black"/>
<path d="M18.7315 168.75C8.39172 168.75 0 160.35 0 150V18.75C0 8.4 8.39172 0 18.7315 0C29.0713 0 37.463 8.4 37.463 18.75V150C37.463 160.35 29.0713 168.75 18.7315 168.75Z" transform="translate(334.171 712.5)" fill="black"/>
</svg>
