<svg width="65" height="60" viewBox="0 0 65 60" fill="none" xmlns="http://www.w3.org/2000/svg">
<path d="M10.3686 0H3.48943C1.49547 0 0 1.59359 0 3.48598V31.2742C0 33.2662 1.59517 34.7602 3.48943 34.7602H10.3686C12.3625 34.7602 13.858 33.1666 13.858 31.2742V3.48598C13.858 1.59359 12.2628 0 10.3686 0Z" transform="translate(0 25.1401)" fill="white"/>
<path d="M2.59214 26.435C0.996977 27.0326 0 28.5265 0 30.2197V52.032C0 60 7.97583 60 7.97583 60H35.8912C43.8671 60 44.8641 52.032 44.8641 52.032L48.852 31.1161C50.7462 22.7498 42.9698 21.3554 41.9728 21.1562C41.8731 21.1562 41.8731 21.1562 41.7734 21.1562H27.4169C26.5196 21.1562 25.9215 20.459 25.9215 19.6622V6.21626C25.9215 0.140686 19.5408 -0.158114 16.4502 0.0410853C15.5529 0.140685 14.9547 0.837882 15.0544 1.73428C15.9517 19.1642 7.17825 24.7418 2.59214 26.435Z" transform="translate(15.852)" fill="white"/>
</svg>
