<svg width="43" height="60" viewBox="0 0 43 60" fill="none" xmlns="http://www.w3.org/2000/svg">
<path d="M0 55.2858V12.6967C0 11.9134 0.63686 11.2766 1.42744 11.2766H8.40362C8.41826 5.091 13.4692 0.00344092 19.6475 0.00344092C23.9664 0.00344092 27.341 -0.238126 30.884 3.32682C32.919 5.36917 34.1781 8.18013 34.1854 11.2766H41.1689C41.9522 11.2766 42.5891 11.9134 42.5891 12.6967V55.2858C42.5891 57.8698 40.4735 60 37.8895 60H4.69958C2.11555 60 0 57.8698 0 55.2858ZM33.8341 48.9172H8.76231C6.53696 48.9172 6.53696 53.0092 8.76231 53.0092H33.8341C36.0521 53.0092 36.0521 48.9172 33.8341 48.9172ZM11.2512 11.2766H31.3452C31.3232 6.64289 27.568 2.85101 22.9416 2.85101C19.3693 2.85101 16.5364 2.49964 13.7181 5.33256C12.2028 6.85517 11.2585 8.95608 11.2512 11.2766Z" fill="white"/>
</svg>
