<svg xmlns="http://www.w3.org/2000/svg" width="81" height="60" fill="none"><path fill="#fff" d="M77.55 29.32l-7.58-16.54c-.23-.43-.57-.8-1-1.05-.4-.25-.9-.4-1.4-.4H51.83c-.68 0-1.33.28-1.8.76-.5.46-.76 1.1-.76 1.8V29.3H45.6V12.36c0-.68-.27-1.33-.75-1.8-.48-.5-1.13-.76-1.8-.76h-8.96V2.56c0-.68-.28-1.33-.76-1.8-.48-.5-1.13-.76-1.8-.76H11.67c-.34 0-.68.05-1 .17-.3.13-.6.3-.84.55-.24.24-.42.53-.55.85-.13.3-.2.65-.18 1V18.4c-.68 0-1.33.28-1.8.76-.5.48-.76 1.13-.76 1.8v8.36h-4c-.68 0-1.33.27-1.8.75-.5.48-.76 1.13-.76 1.8V50.8c0 .33.05.67.17 1 .13.3.3.6.55.83.24.24.53.43.85.55.3.13.65.18 1 .17H8.1c.5 1.9 1.64 3.6 3.2 4.8 1.58 1.2 3.5 1.86 5.5 1.85 1.98 0 3.92-.63 5.5-1.83 1.6-1.2 2.74-2.9 3.27-4.82h30.6c.53 1.9 1.68 3.6 3.27 4.8 1.58 1.2 3.5 1.85 5.5 1.85s3.92-.65 5.5-1.85c1.6-1.2 2.74-2.9 3.28-4.8h3.83c.34 0 .68-.05 1-.17.3-.12.6-.3.84-.55.23-.24.42-.53.54-.84.13-.33.18-.67.17-1V31.86c0-.67-.26-1.32-.74-1.8s-1.13-.75-1.8-.75zm-65.87-5.8h8.7v5.8h-8.7v-5.8zm5.1 31.37c-.8-.02-1.56-.25-2.22-.7-.66-.44-1.18-1.07-1.48-1.8-.3-.74-.37-1.55-.2-2.33.15-.78.54-1.5 1.1-2.05.58-.56 1.3-.93 2.08-1.08.8-.14 1.6-.05 2.32.26.73.32 1.35.85 1.78 1.52.43.67.65 1.45.64 2.24-.03 1.05-.46 2.05-1.2 2.78-.76.74-1.76 1.15-2.8 1.15zm6.15-45.1c-.34 0-.68.05-1 .17-.3.13-.6.3-.84.55-.25.24-.44.53-.56.85-.12.3-.18.65-.17 1v6.04h-6.14V5.1h14.75v4.7h-6.05zm17.55 19.52h-15v-14.4h15v14.4zM64.94 54.9c-.8-.02-1.57-.25-2.23-.7-.65-.44-1.17-1.07-1.47-1.8-.3-.74-.37-1.55-.2-2.33.15-.78.54-1.5 1.1-2.05.58-.56 1.3-.93 2.08-1.08.8-.14 1.6-.05 2.33.26.73.32 1.35.85 1.78 1.52.44.67.66 1.45.65 2.24-.03 1.05-.46 2.05-1.2 2.78-.75.74-1.76 1.15-2.8 1.15z"/></svg>