<svg xmlns="http://www.w3.org/2000/svg" width="77" height="60" fill="none"><path fill="#fff" fill-rule="evenodd" d="M74.88 52.45c0 3.12-2.54 5.65-5.65 5.65h-51.5c-2.57 0-5.64-2.8-5.64-5.65V25.7c0-3.1 2.52-5.65 5.64-5.65h51.5c3.1 0 5.64 2.54 5.64 5.65v26.75zM42.18 36.2c-1.44 1.64-3.53 2.6-5.73 2.6-4.18.02-7.6-3.4-7.6-7.58s3.42-7.6 7.6-7.6c2.2 0 4.3 1 5.72 2.62 1.43-1.63 3.52-2.6 5.72-2.6 4.18 0 7.58 3.4 7.58 7.58 0 4.2-3.4 7.6-7.6 7.6-2.2 0-4.28-.98-5.7-2.62zm-22.8 15.72c.25 0 .47-.2.47-.47 0-.26-.22-.48-.48-.48H18.3c-.05-.2-.24-.36-.46-.36-.27 0-.48.23-.48.5v.35c0 .26.2.47.48.47h1.53zm-2.02-4.3v1.9c0 .25.2.46.47.46.27 0 .48-.2.48-.47v-1.9c0-.25-.2-.47-.47-.47-.26 0-.47.22-.47.48zm1.38-1.16c-.26 0-.47.2-.47.47 0 .26.2.48.47.48h1.9c.26 0 .47-.2.47-.47 0-.26-.2-.47-.46-.47h-1.9zm11.54 1.74v-1.27c0-.26-.2-.47-.47-.47h-.62c-.26 0-.47.2-.47.47 0 .26.22.48.48.48h.16v.8c0 .26.2.47.47.47.27 0 .48-.2.48-.47zm-3.95 3.72c.26 0 .47-.2.47-.47 0-.26-.2-.48-.47-.48h-1.9c-.26 0-.47.22-.47.48s.2.47.47.47h1.9zm3.95-.47v-1.67c0-.26-.2-.47-.47-.47-.25 0-.46.22-.46.48v1.2H27.9c-.25 0-.46.2-.46.47 0 .26.2.47.47.47h1.9c.27 0 .48-.2.48-.47zm-7.43.47c.26 0 .48-.2.48-.47 0-.26-.22-.48-.48-.48h-1.9c-.26 0-.47.22-.47.48s.2.47.47.47h1.9zm-.63-5.46c-.26 0-.47.2-.47.47 0 .26.2.48.47.48h1.9c.26 0 .47-.2.47-.47 0-.26-.22-.47-.48-.47h-1.9zm3.48 0c-.26 0-.47.2-.47.47 0 .26.2.48.47.48h1.9c.26 0 .47-.2.47-.47 0-.26-.2-.47-.47-.47h-1.9zm6.7 0c-.25 0-.46.2-.46.47 0 .26.2.48.47.48h1.9c.27 0 .5-.2.5-.47 0-.26-.23-.47-.5-.47h-1.9zm9.34.47c0-.26-.2-.47-.47-.47h-1.9c-.26 0-.47.2-.47.47 0 .26.2.48.47.48h1.9c.26 0 .47-.2.47-.47zm-9.76 2.58v-1.9c0-.25-.2-.47-.47-.47-.25 0-.47.22-.47.48v1.9c0 .27.22.48.48.48.27 0 .48-.2.48-.47zm6.3-2.57c0-.26-.23-.47-.5-.47h-1.9c-.25 0-.46.2-.46.47 0 .26.2.48.47.48h1.9c.25 0 .47-.2.47-.47zm5.68 4.52v-1.67c0-.26-.22-.47-.48-.47s-.47.22-.47.48v1.2H41.6c-.26 0-.47.2-.47.47 0 .26.22.47.48.47h1.9c.26 0 .48-.2.48-.47zm0-3.25v-1.27c0-.26-.22-.47-.48-.47h-.63c-.26 0-.47.2-.47.47 0 .26.2.48.47.48H43v.8c0 .26.22.47.48.47s.48-.2.48-.47zM40 51.92c.27 0 .48-.2.48-.47 0-.26-.2-.48-.48-.48h-1.9c-.26 0-.47.22-.47.48s.2.47.48.47H40zm-6.96 0c.27 0 .48-.2.48-.47 0-.26-.2-.48-.48-.48h-1.07c-.05-.2-.24-.36-.46-.36-.25 0-.47.23-.47.5v.35c0 .26.22.47.48.47h1.54zm3.48 0c.27 0 .48-.2.48-.47 0-.26-.2-.48-.48-.48h-1.9c-.26 0-.47.22-.47.48s.2.47.48.47h1.9zm15.38-5c0-.25-.2-.46-.47-.46h-1.9c-.26 0-.48.2-.48.47 0 .26.22.48.48.48h1.9c.26 0 .47-.2.47-.47zm-5.85-.46c-.26 0-.47.2-.47.47 0 .26.2.48.47.48h1.9c.26 0 .47-.2.47-.47 0-.26-.2-.47-.47-.47h-1.9zm9.33.47c0-.26-.2-.47-.47-.47H53c-.25 0-.47.2-.47.47 0 .26.22.48.48.48h1.9c.27 0 .48-.2.48-.47zm-9.76 2.58v-1.9c0-.25-.2-.47-.48-.47-.26 0-.47.22-.47.48v1.9c0 .27.2.48.47.48.27 0 .48-.2.48-.47zm4.54 2.42c.26 0 .47-.2.47-.47 0-.26-.2-.48-.47-.48h-1.9c-.26 0-.47.22-.47.48s.2.47.46.47h1.9zm-3.48 0c.26 0 .47-.2.47-.47 0-.26-.2-.48-.47-.48H45.6c-.05-.2-.23-.36-.46-.36-.26 0-.47.23-.47.5v.35c0 .26.2.47.47.47h1.54zm6.96 0c.26 0 .47-.2.47-.47 0-.26-.2-.48-.46-.48h-1.9c-.26 0-.47.22-.47.48s.2.47.47.47h1.9zm3.95-.47v-1.67c0-.26-.22-.47-.48-.47s-.48.22-.48.48v1.2h-1.42c-.26 0-.47.2-.47.47 0 .26.2.47.47.47h1.9c.26 0 .47-.2.47-.47zm0-3.25v-1.27c0-.26-.22-.47-.48-.47h-.63c-.27 0-.5.2-.5.47 0 .26.23.48.5.48h.15v.8c0 .26.2.47.47.47.26 0 .47-.2.47-.47zm9.08-1.74c-.26 0-.47.2-.47.47 0 .26.22.48.48.48h1.9c.26 0 .47-.2.47-.47 0-.26-.2-.47-.47-.47h-1.9zm-3.48 0c-.26 0-.47.2-.47.47 0 .26.2.48.47.48h1.9c.26 0 .47-.2.47-.47 0-.26-.2-.47-.47-.47h-1.9zm8.07 1.74v-1.27c0-.26-.22-.47-.48-.47h-.64c-.26 0-.47.2-.47.47 0 .26.2.48.46.48h.16v.8c0 .26.2.47.47.47.25 0 .47-.2.47-.47zm-12.93-.6v1.9c0 .27.2.48.48.48.26 0 .47-.2.47-.47v-1.9c0-.25-.22-.47-.48-.47-.27 0-.48.22-.48.48zm1.38-1.14c-.26 0-.47.2-.47.47 0 .26.2.48.47.48h1.9c.26 0 .47-.2.47-.47 0-.26-.22-.47-.48-.47h-1.9zm7.6 5.46c.25 0 .47-.2.47-.47 0-.26-.23-.48-.5-.48h-1.9c-.25 0-.46.22-.46.48s.2.47.47.47h1.9zm-6.97 0c.26 0 .48-.2.48-.47 0-.26-.22-.48-.48-.48h-1.07c-.05-.2-.24-.36-.46-.36-.26 0-.48.23-.48.5v.35c0 .26.22.47.48.47h1.53zm10.92-.47v-1.67c0-.26-.22-.47-.48-.47-.27 0-.48.22-.48.48v1.2H68.9c-.27 0-.48.2-.48.47 0 .26.2.47.47.47h1.9c.25 0 .47-.2.47-.47zm-7.44.47c.26 0 .48-.2.48-.47 0-.26-.2-.48-.47-.48h-1.9c-.26 0-.47.22-.47.48s.2.47.47.47h1.9z" clip-rule="evenodd"/><path fill="#fff" d="M10.2 25.7v22.6L2.35 27.6c-.87-2.28-.47-5.92 3.3-7.28L53.9 2.26c2.92-1.1 6.2.4 7.28 3.3l4.7 12.6H17.75c-4.16 0-7.55 3.38-7.55 7.54zM36.45 25.53c4.03-.05 5.72 4.2 5.72 4.2s1.8-4.17 5.72-4.2c3.13-.02 5.68 2.55 5.68 5.7 0 3.13-2.55 5.66-5.7 5.7-3.6.02-5.7-4.2-5.7-4.2s-1.7 4.37-5.73 4.2c-3.13-.16-5.7-2.57-5.7-5.7 0-3.15 2.56-5.66 5.7-5.7z"/></svg>