<svg xmlns="http://www.w3.org/2000/svg" width="60" height="60" fill="none"><path fill="#fff" d="M58.23 46.92c.6.6.87 1.18.78 1.7l-.12.92c-.35.88-.85 1.82-1.5 2.82-.66 1-1.45 2-2.37 2.96-.9.96-1.88 1.83-2.93 2.62-1.05.78-2.1 1.44-3.15 1.97-2.1.27-4.22-.02-6.36-.85-2.14-.84-4.12-1.77-5.96-2.82-5.42-3.06-10.6-6.92-15.53-11.6-4.94-4.67-9.3-9.5-13.05-14.48-1.05-1.57-2.1-3.28-3.14-5.1-1.05-1.85-1.97-3.64-2.75-5.4-.8-1.74-1.38-3.37-1.77-4.9-.4-1.53-.47-2.78-.2-3.74.35-.86.9-1.83 1.64-2.87.73-1.04 1.6-2.03 2.55-2.95.96-.92 1.97-1.75 3.02-2.5 1.05-.73 2.1-1.24 3.14-1.5h1.6c.7.18 1.2.48 1.56.92.35.44.74.92 1.18 1.44 2.1 3.4 4.46 6.9 7.08 10.5.87 1.38.96 2.82.26 4.3-.17.28-.44.73-.78 1.4-.36.64-.73 1.32-1.12 2.02-.4.7-.7 1.36-.92 1.96-.22.6-.24 1-.06 1.18 2.27 3.15 4.8 5.9 7.6 8.26 2.8 2.36 5.55 4.9 8.25 7.6.44.18.8.18 1.05 0 .8-.44 1.67-.92 2.63-1.44.96-.52 1.92-1 2.88-1.44 1.32-.6 2.76-.52 4.34.26 1.74 1.23 3.5 2.43 5.3 3.6 1.8 1.2 3.52 2.4 5.18 3.62.53.43 1.1.96 1.7 1.56zm-1.18-17.56c.7 0 1.05-.35 1.05-1.05 0-7.85-2.76-14.54-8.26-20.04S37.64 0 29.78 0c-.7 0-1.05.35-1.05 1.05 0 .7.35 1.05 1.05 1.05 7.34 0 13.5 2.58 18.5 7.73C53.4 14.8 56 20.97 56 28.33c0 .68.35 1.03 1.05 1.03zm-8.4 0c.7 0 1.06-.35 1.06-1.05 0-5.58-1.96-10.25-5.9-14.02-3.75-3.92-8.42-5.9-14.02-5.9-.7 0-1.05.36-1.05 1.06 0 .7.35 1.05 1.05 1.05 4.9 0 9.1 1.74 12.6 5.23 3.48 3.5 5.23 7.7 5.23 12.58 0 .7.36 1.06 1.06 1.06zm-8.38 0c.7 0 1.05-.35 1.05-1.05 0-3.3-1.13-6.02-3.4-8.12-2.1-2.27-4.8-3.4-8.14-3.4-.7 0-1.05.34-1.05 1.04s.35 1.05 1.05 1.05c2.63 0 4.85.92 6.7 2.76 1.82 1.83 2.74 4.06 2.74 6.68 0 .7.35 1.06 1.05 1.06z"/></svg>