<svg width="74" height="74" viewBox="0 0 74 74" fill="none" xmlns="http://www.w3.org/2000/svg">
<g clip-path="url(#clip0)">
<path d="M44.1619 59.3616H38.5542C37.7561 59.3616 37.1091 60.0086 37.1091 60.8068C37.1091 61.605 37.7561 62.252 38.5542 62.252H44.1619C45.0273 62.252 45.7315 62.956 45.7315 63.8214C45.7315 64.6869 45.0275 65.3909 44.1619 65.3909H29.0665C26.7973 65.3909 24.6635 64.3905 23.2124 62.646L19.6024 58.3069C17.6654 55.9785 14.8464 54.6148 11.83 54.5285V45.9915H17.1511C19.7752 45.9915 22.2598 46.9951 24.1475 48.8174L31.9389 56.3381C32.4897 56.8698 32.5154 57.7601 31.9961 58.3226C31.4669 58.8958 30.5684 58.9333 29.9934 58.4061L23.8764 52.7989C23.2883 52.2597 22.374 52.2993 21.8347 52.8877C21.2953 53.476 21.3351 54.3902 21.9235 54.9295L28.0405 60.5367C28.8654 61.2929 29.9094 61.6663 30.9507 61.6663C32.1133 61.6663 33.2726 61.2008 34.12 60.2829C35.6963 58.5752 35.6184 55.8728 33.9463 54.2587L26.1549 46.738C23.7255 44.3929 20.5279 43.1013 17.1511 43.1013H11.5493C11.0056 41.8144 9.7304 40.9089 8.24781 40.9089H1.44517C0.647065 40.9089 0 41.5559 0 42.3541V52.9218C0 53.7199 0.647065 54.3669 1.44517 54.3669C2.24327 54.3669 2.89033 53.72 2.89033 52.9218V43.7991H8.24795C8.62951 43.7991 8.93982 44.1096 8.93982 44.491V56.0741C8.93982 56.4556 8.62951 56.766 8.24795 56.766H6.74699C5.94889 56.766 5.30183 57.4129 5.30183 58.2112C5.30183 59.0093 5.94889 59.6563 6.74699 59.6563H8.24781C9.75035 59.6563 11.0388 58.7261 11.57 57.4116C13.8229 57.4245 15.9387 58.4222 17.3806 60.1554L20.9905 64.4945C22.9926 66.9011 25.9361 68.2812 29.0665 68.2812H44.1619C46.6209 68.2812 48.6217 66.2806 48.6217 63.8214C48.6217 61.3622 46.6209 59.3616 44.1619 59.3616Z" fill="#66C4FF"/>
<path d="M72.5547 19.0686C71.7566 19.0686 71.1095 19.7155 71.1095 20.5137V30.2009H65.7519C65.3703 30.2009 65.06 29.8905 65.06 29.509V17.9259C65.06 17.5445 65.3703 17.234 65.7519 17.234H67.1468C67.9449 17.234 68.5919 16.5871 68.5919 15.7889C68.5919 14.9908 67.9449 14.3437 67.1468 14.3437H65.7519C64.2494 14.3437 62.9609 15.2739 62.4297 16.5884C60.1768 16.5755 58.061 15.5778 56.6191 13.8446L53.0092 9.50567C51.0073 7.09908 48.0636 5.71881 44.9331 5.71881H29.838C27.3789 5.71881 25.3782 7.71941 25.3782 10.1785C25.3782 12.6375 27.3789 14.6381 29.838 14.6381H36.0106C36.8087 14.6381 37.4558 13.9912 37.4558 13.1929C37.4558 12.3947 36.8087 11.7478 36.0106 11.7478H29.838C28.9725 11.7478 28.2684 11.0438 28.2684 10.1783C28.2684 9.31301 28.9724 8.60885 29.838 8.60885H44.9332C47.2025 8.60885 49.3364 9.6093 50.7874 11.3538L54.3974 15.6927C56.3343 18.0211 59.1535 19.3848 62.1698 19.4712V28.0082H56.8488C54.2247 28.0082 51.7401 27.0046 49.8523 25.1824L42.061 17.6617C41.5101 17.13 41.4844 16.2398 42.0037 15.6771C42.533 15.1038 43.4314 15.0665 44.0065 15.5936L50.1236 21.2008C50.712 21.7401 51.6259 21.7005 52.1654 21.1121C52.7047 20.5237 52.6649 19.6095 52.0765 19.0703L45.9594 13.4632C44.2135 11.8628 41.4864 11.9769 39.8798 13.717C38.3036 15.4248 38.3815 18.1272 40.0536 19.7412L47.8449 27.2619C50.2744 29.607 53.472 30.8986 56.8488 30.8986H62.4505C62.9943 32.1855 64.2694 33.0909 65.752 33.0909H72.5548C73.3529 33.0909 74 32.444 74 31.6458V20.5134C73.9998 19.7155 73.3528 19.0686 72.5547 19.0686Z" fill="#66C4FF"/>
<path d="M46.6601 54.8701C46.3314 54.1428 45.4773 53.8184 44.7506 54.1469C44.0187 54.4656 43.6839 55.3171 44.0026 56.0488C44.2393 56.5926 44.7706 56.9172 45.3282 56.9172C45.5209 56.9172 45.7166 56.8785 45.9045 56.7967C45.9106 56.7941 45.9296 56.7856 45.9356 56.783C46.663 56.4545 46.9886 55.5975 46.6601 54.8701Z" fill="#66C4FF"/>
<path d="M50.2524 52.4372C49.7799 51.7955 48.8718 51.6619 48.2294 52.1322C47.5855 52.6037 47.4456 53.508 47.917 54.1519C48.2002 54.5385 48.639 54.7435 49.0841 54.7435C49.3804 54.7435 49.6795 54.6527 49.9367 54.4644C49.939 54.4628 49.9526 54.4527 49.9548 54.4511C50.5949 53.977 50.7247 53.0786 50.2524 52.4372Z" fill="#66C4FF"/>
<path d="M42.6199 56.4925C42.4553 55.7142 41.6911 55.2159 40.9121 55.3769C40.134 55.5314 39.6252 56.2851 39.7744 57.0656C39.9068 57.7579 40.5125 58.2396 41.1922 58.2396C41.2821 58.2396 41.3736 58.2311 41.4651 58.2136C41.4745 58.2117 41.4982 58.207 41.5077 58.2049C42.2882 58.0395 42.7851 57.2731 42.6199 56.4925Z" fill="#66C4FF"/>
<path d="M53.2714 49.294C52.6788 48.7595 51.7652 48.8064 51.2305 49.3992C51.2234 49.4071 51.2068 49.4259 51.1998 49.4339C50.6784 50.0381 50.7457 50.9507 51.35 51.472C51.623 51.7076 51.9589 51.823 52.2932 51.823C52.6946 51.823 53.0936 51.6567 53.3789 51.3324C53.9111 50.7397 53.8632 49.8277 53.2714 49.294ZM52.4643 50.5125L52.3036 50.3671L52.4776 50.5241L52.4643 50.5125Z" fill="#66C4FF"/>
<path d="M56.9497 41.4621C56.186 41.2304 55.3781 41.6662 55.1464 42.43C54.9117 43.1929 55.3398 44.0015 56.1026 44.2363C56.2441 44.2799 56.3872 44.3006 56.528 44.3006C57.1457 44.3006 57.7176 43.9014 57.9087 43.28L57.9147 43.2602C58.1463 42.4964 57.7134 41.6937 56.9497 41.4621Z" fill="#66C4FF"/>
<path d="M58.8007 34.0034C58.7975 33.985 58.794 33.9667 58.7901 33.9483C58.6269 33.1673 57.8615 32.6676 57.0807 32.8305C56.3027 32.9927 55.8025 33.7535 55.9592 34.5314C56.0917 35.2209 56.696 35.7035 57.3765 35.7035C57.461 35.7035 57.5469 35.6961 57.6329 35.6807C58.4185 35.54 58.9413 34.7891 58.8007 34.0034Z" fill="#66C4FF"/>
<path d="M57.4754 37.139C56.6829 37.069 55.979 37.6565 55.9089 38.4514C55.9076 38.4655 55.9056 38.4939 55.9048 38.5079C55.8579 39.3047 56.4657 39.9887 57.2625 40.0355C57.2914 40.0372 57.32 40.0381 57.3486 40.0381C58.101 40.0381 58.7334 39.4562 58.7887 38.6984C58.8546 37.9064 58.2681 37.2089 57.4754 37.139Z" fill="#66C4FF"/>
<path d="M55.535 45.5742C54.8413 45.181 53.9587 45.4246 53.5653 46.1191L53.5452 46.1552C53.1647 46.8568 53.4215 47.7403 54.1229 48.1209C54.3436 48.2405 54.5811 48.2973 54.8151 48.2973C55.3251 48.2973 55.8178 48.0268 56.0787 47.5458L54.8225 46.8315L56.0797 47.544C56.4733 46.8496 56.2295 45.9678 55.535 45.5742Z" fill="#66C4FF"/>
<path d="M29.3246 18.0518C28.9678 17.3378 28.0993 17.0483 27.3859 17.4055L27.373 17.4118C26.659 17.7688 26.3762 18.6336 26.7332 19.3474C26.986 19.8531 27.4982 20.1442 28.0292 20.1442C28.248 20.1442 28.47 20.0948 28.6783 19.9907C29.3923 19.6339 29.6815 18.7658 29.3246 18.0518Z" fill="#66C4FF"/>
<path d="M33.5054 16.8469C33.3174 16.0715 32.5372 15.5949 31.7604 15.7831C31.7537 15.7846 31.7332 15.7898 31.7266 15.7916C30.9536 15.9907 30.4855 16.7795 30.6845 17.5523C30.8526 18.2044 31.4375 18.6378 32.0805 18.6378C32.1996 18.6378 32.3207 18.6229 32.4415 18.5919C33.2171 18.4038 33.6935 17.6226 33.5054 16.8469Z" fill="#66C4FF"/>
<path d="M25.5033 20.136C25.0035 19.515 24.0936 19.4174 23.4718 19.916L24.3678 21.0499L23.4675 19.9194C22.8431 20.4165 22.74 21.3256 23.2371 21.95C23.5227 22.3084 23.9437 22.495 24.3688 22.495C24.6841 22.495 25.002 22.3921 25.268 22.1804L25.2871 22.1651C25.9072 21.6643 26.0031 20.7571 25.5033 20.136Z" fill="#66C4FF"/>
<path d="M17.798 30.4182C17.0279 30.2084 16.2336 30.6621 16.0236 31.4321C16.02 31.4453 16.013 31.4726 16.0097 31.4859C15.8218 32.2613 16.2982 33.041 17.0735 33.2294C17.1879 33.2571 17.3024 33.2704 17.4151 33.2704C18.0635 33.2704 18.6526 32.8305 18.8168 32.1747C19.0149 31.4105 18.5621 30.6267 17.798 30.4182Z" fill="#66C4FF"/>
<path d="M16.8773 34.6642C16.0785 34.6198 15.3972 35.2267 15.3509 36.0234C15.3498 36.042 15.3491 36.0605 15.3485 36.079C15.3251 36.8764 15.9525 37.5408 16.75 37.5647C16.7647 37.5651 16.7792 37.5654 16.7938 37.5654C17.5685 37.5654 18.2086 36.9507 18.2372 36.1725C18.2733 35.3835 17.6681 34.7102 16.8773 34.6642Z" fill="#66C4FF"/>
<path d="M19.6168 26.4688C18.9099 26.0979 18.0365 26.3704 17.6658 27.0771L17.6422 27.1237C17.29 27.8395 17.5854 28.7041 18.3011 29.0566C18.5061 29.1576 18.7233 29.2053 18.9376 29.2053C19.4683 29.2053 19.9793 28.9117 20.2325 28.4058C20.5924 27.7015 20.3189 26.8372 19.6168 26.4688Z" fill="#66C4FF"/>
<path d="M22.2267 22.9919C21.6126 22.4821 20.7015 22.5667 20.1917 23.1806C20.1848 23.1892 20.1689 23.2088 20.1619 23.2173C19.6665 23.8427 19.7724 24.7501 20.3975 25.2458C20.6629 25.4564 20.9794 25.5584 21.2939 25.5584C21.7178 25.5584 22.1381 25.3729 22.4236 25.017C22.9242 24.4032 22.8375 23.499 22.2267 22.9919Z" fill="#66C4FF"/>
<path d="M18.5105 40.1837C18.3699 39.398 17.6185 38.8752 16.8332 39.016C16.0476 39.1568 15.5248 39.9076 15.6654 40.6933L15.668 40.7075C15.7932 41.406 16.3998 41.8912 17.085 41.8912C17.1704 41.8912 17.257 41.8836 17.344 41.868C18.1297 41.7274 18.6513 40.9693 18.5105 40.1837Z" fill="#66C4FF"/>
<path d="M41.962 29.2132C40.0809 29.2132 38.338 29.9889 37.0961 31.2979C35.854 29.9889 34.1112 29.2132 32.2302 29.2132C28.5297 29.2132 25.5193 32.2236 25.5193 35.9241C25.5193 37.9208 26.3999 39.7999 27.9351 41.0799C27.9444 41.0877 27.9539 41.0954 27.9635 41.103L36.199 47.6231C36.4617 47.8312 36.7788 47.9352 37.0959 47.9352C37.4145 47.9352 37.733 47.8302 37.9964 47.6204L46.5808 40.7826C46.6228 40.7492 46.6629 40.7134 46.7009 40.6755C47.9726 39.4073 48.6729 37.7199 48.6729 35.9241C48.6729 32.2236 45.6624 29.2132 41.962 29.2132ZM44.7121 38.5763L37.0935 44.6449L29.773 38.8494C28.9064 38.1203 28.4096 37.0553 28.4096 35.9243C28.4095 33.8175 30.1235 32.1035 32.2302 32.1035C33.7811 32.1035 35.167 33.0298 35.761 34.4633C35.9849 35.0031 36.5117 35.3552 37.0961 35.3552C37.6804 35.3552 38.2072 35.0033 38.4311 34.4633C39.0251 33.0298 40.411 32.1035 41.962 32.1035C44.0687 32.1035 45.7827 33.8175 45.7827 35.9242C45.7827 36.9218 45.403 37.8606 44.7121 38.5763Z" fill="#66C4FF"/>
<path d="M1.44517 59.6516C2.24052 59.6516 2.88528 59.0068 2.88528 58.2115C2.88528 57.4161 2.24052 56.7714 1.44517 56.7714C0.649824 56.7714 0.00506592 57.4161 0.00506592 58.2115C0.00506592 59.0068 0.649824 59.6516 1.44517 59.6516Z" fill="#66C4FF"/>
<path d="M72.5545 17.2288C73.3499 17.2288 73.9947 16.5841 73.9947 15.7887C73.9947 14.9934 73.3499 14.3486 72.5545 14.3486C71.7592 14.3486 71.1144 14.9934 71.1144 15.7887C71.1144 16.5841 71.7592 17.2288 72.5545 17.2288Z" fill="#66C4FF"/>
</g>
<defs>
<clipPath id="clip0">
<rect width="74" height="74" fill="white"/>
</clipPath>
</defs>
</svg>
