<svg fill="none" height="18" viewBox="0 0 18 18" width="18" xmlns="http://www.w3.org/2000/svg"><path d="m8.99982 0c-4.97043 0-8.99982 4.02951-8.99982 8.99976 0 4.97024 4.02939 9.00024 8.99976 9.00024 4.97034 0 9.00004-4.0298 9.00004-9.00024 0-4.97043-4.0296-8.99976-8.99998-8.99976zm.62148 10.1003c-.00048.0236-.00402.0473-.00732.071-.00234.0177-.00342.0359-.00744.0534-.00402.0181-.01092.0361-.0168.0543-.00702.0219-.01356.0438-.02274.0645-.00174.0036-.00234.0075-.0039.0111-.01356.0289-.02928.056-.0465.0817-.00108.0015-.00252.0031-.0036.0047-.01962.0288-.042.0549-.06552.0795-.00654.0067-.0132.0127-.0201.0191-.0207.0198-.04248.0378-.06564.0543-.00714.0052-.01398.0106-.02148.0156-.0297.0194-.06084.0365-.09324.0505-.00702.0032-.01434.005-.02148.0078-.02736.0106-.05508.0194-.0837.026-.01026.0025-.0204.0047-.03084.0066-.03672.0067-.07392.0113-.1116.0113-.00762 0-.01542-.0023-.02304-.0026-.03612-.0014-.07188-.0042-.10626-.0116-.01074-.0023-.0213-.007-.03204-.0099-.03204-.0087-.06336-.0184-.09324-.0318-.00342-.0017-.00702-.002-.01044-.0036l-3.45093-1.62772c-.31092-.14658-.44412-.51756-.29754-.82849.14658-.31074.51757-.44412.82849-.29754l2.56297 1.20865v-5.37213c0-.34375.27871-.62245.62245-.62245s.62244.2787.62244.62245v6.35413h.00012c0 .0037-.00108.0074-.00108.0112z" fill="#66c4ff"/></svg>