<?xml version="1.0" encoding="utf-8"?>
<!-- Generator: Adobe Illustrator 20.1.0, SVG Export Plug-In . SVG Version: 6.00 Build 0)  -->
<svg version="1.1" id="Слой_1" xmlns="http://www.w3.org/2000/svg" xmlns:xlink="http://www.w3.org/1999/xlink" x="0px" y="0px"
	 viewBox="0 0 1190.6 841.9" style="enable-background:new 0 0 1190.6 841.9;" xml:space="preserve">
<style type="text/css">
	.st0{fill:#000000;}
</style>
<g>
	<path class="st0" d="M788.5,529.2c-3.1,8.5-5.7,16.8-8.7,24.8c-2.6,7-3.2,14.4-6.1,21.3c-1.2,2.9-0.4,6.7-0.3,10.2
		c0,7.9-3.8,13-10.1,17.7c-5.3,4-11.6,4.3-17.2,6.9c-4.5,2.1-9.4,2.4-14.1,3.7c-7.2,2-14.7,2.7-22.2,3.9c-8.9,1.4-17.8,1.8-26.7,2.4
		c-8.1,0.5-16.3,1-24.4,1.5c-6.6,0.4-13.2,0-19.7,1c-6.6,1-13.3,0.8-19.9,0.9c-10.1,0.1-20.2,0.8-30.3-0.1
		c-5.5-0.5-11.1-0.3-16.5-0.1c-3.2,0.1-6.2-0.6-9.3-0.6c-10.8-0.1-21.7-0.3-32.4-1.4c-6.7-0.7-13.8-0.9-20.2-2.6
		c-6.5-1.7-13.3-2.5-19.7-4.5c-4.2-1.3-8.5-3.2-13.4-2.8c-1.5,0.1-4.5-1.8-6.8-2.9c-3.8-1.8-8-2.7-11.9-3.9
		c-2.4-0.8-3.1-2.7-3.7-3.8c-3.8-7.6-6.7-15.5-3.4-24.1c1.6-4.2,0.2-8.5-1-12.3c-1.2-3.9-1.2-7.9-2.6-11.7
		c-2.1-5.6-3.5-11.5-5.4-17.1c-1.1-3.2-2.3-6.4-3.3-9.7c-0.7-2.2-2.5-3.9-5.4-1.9c-1.1,0.8-2.6,1.2-3.4-1c-0.6-1.5-2-3-3.2-3.9
		c-4.1-3.1-3-6.4-0.3-9c4-4,2.1-8,0.7-11.8c-2.2-6.4-4.9-12.9-8.2-18.6c-5.5-9.7-10.2-20-17.1-29c-4.4-5.7-8.5-11.9-12.5-18
		c-1.1-1.6-2.2-2.4-4.1-2.4c-6.3-0.1-11.2-2.8-15.6-7.3c-5.8-6-6.8-13.4-5.7-20.6c1.2-7.6,5.1-14.3,13.5-17.3
		c6.5-2.3,12.8-2.5,18.9,0.3c4.8,2.3,8,6.7,10.1,11.8c2,4.9,3.4,9.9,2.3,15.4c-0.3,1.7,0.9,4.2,2.7,5.2c6.4,3.7,11.2,9.4,17.5,13.2
		c4.7,2.9,9.4,5.5,14.3,7.9c3.2,1.6,6.2,1.5,9.3,2.1c2.8,0.5,3.8-1,3-3.5c-1.3-3.6-3-7.1-4.3-10.8c-0.5-1.3-1.3-0.9-2-0.9
		c-13.6-0.3-21.1-11.8-19.6-23.8c1.3-10.9,7.6-17.9,19.3-20.6c9.9-2.2,16.7,2.3,21.2,9.9c3.6,6.1,4.4,13.4,1.5,20.2
		c-0.8,1.9,0.4,2.6,1,2.7c1.8,0.2,3.3,1,4.8,1.7c2.5,1.1,3.5,0.9,3.6-2.6c0.2-5.4,1.4-10.8,1-16.2c-0.4-5-0.5-10-2.1-14.8
		c-1.2-3.5-1.6-7.3-2.9-10.8c-0.5-1.4-0.9-2.1-2.2-2.2c-2.5-0.2-4.4-3.1-7.3-1.6c-0.9-3.4-4.7-4-6.6-6.7c-5.3-7.6-4.7-15.5-1.1-22.9
		c3.4-7,9.7-11.9,17.7-13.6c5.3-1.1,10.6-1.5,16.1,1c5.9,2.8,9.7,6.8,11,13.1c0.3,1.6,1.1,2.9,1.3,4.4c1,6-0.1,11.5-4,16.3
		c-0.9,1.1-1.2,2.6-0.4,4.4c3.4,8.1,7.6,15.6,12.4,23c5.6,8.4,12.7,15,20.1,21.5c1.2,1,1.9,2.2,3.5,2.8c1.3,0.5,2.3,2.7,3.8,2
		c1.3-0.6,1-2.8,1.7-4.2c3.9-8.3,3.2-17,2.1-25.7c-0.2-1.5-1.4-2.2-2.7-2.7c-5.4-2.3-9.2-6.5-10.6-11.9c-2.3-9.1-1.8-18.3,9.8-24.5
		c2.7-1.5,5.3-3.5,8.2-3.6c3.8-0.1,7.3-2.1,11.3-0.4c5.9,2.5,9.4,7.1,11.7,12.7c2.6,6.3,1.4,12.5-2.5,17.8c-2.7,3.7-1.3,6.5,0.9,9.4
		c4.5,5.9,9.1,11.7,13.8,17.5c0.9,1,1.6,2.9,3.4,2.5c1.5-0.4,1.4-2.3,1.7-3.5c2.5-12.1,4.6-24.4,6.3-36.6c1.2-8.5,1.4-17.1,2.8-25.5
		c0.3-1.8,0.1-3.5-1.4-5.1c-8.7-9.5-8-20.4-2.6-30.6c4.6-8.6,11.7-12.5,23.2-10.4c4.3,0.8,8.1,1.7,11.9,4.3
		c3.9,2.7,5.2,6.5,6.4,10.4c2.9,9.5-1.8,17.2-6.6,24.8c-0.9,1.4-1.1,2.5-1,4.1c0.3,9.1,2.4,18,2.8,27.1c0.4,7.9,2.3,15.7,3.7,23.5
		c0.9,5.2,1.2,10.7,3.3,15.7c0.7,1.8,1.3,1.8,2.3,0.7c6.7-7,12.9-14.4,18-22.7c1-1.7,0.8-2.3-0.4-3.9c-8.7-12.2-4.9-27.1,9.7-32.8
		c5.2-2,11.4-0.2,16.6,2.6c4.9,2.6,9,6.3,11.7,11.4c0.3,0.7,0.7,1.2,0.7,2c0.6,8.8-0.5,17-7.9,23c-0.6,0.5-1.2,1.1-1.8,1.2
		c-5.4,0.9-4.8,5-5.4,8.9c-0.4,2.5,2.2,5.6-1.5,7.5c-0.5,0.3,0.7,0.4,1,0.5c0.8,0.4,0.5,1,0.6,1.6c1,3.7,1.9,7.3,3,10.9
		c1.2,3.9,2.1,3.8,5.3,1.8c6.7-4.1,12-9.7,17.1-15.3c4.9-5.4,9-11.7,12.8-18.2c1.9-3.2,2.8-6.7,4.5-10c1.6-3,4-6.5-0.2-10
		c-2.3-1.9-2.4-5.3-2.3-8.2c0.1-6,0.1-12.2,3.4-17.5c3.9-6,13.4-11.4,21.8-7.9c1.1,0.5,2,0.1,3,0.3c9.2,2.1,18.3,8.3,19.9,19
		c0.8,5.7-0.6,11.3-4.7,16.3c-3.3,4.2-6.6,7.2-12,8c-1.1,0.2-2.1,0.9-2.8,2.6c-2.6,6.9-3.7,14.2-4.9,21.4c-1,6.1-1.1,12.6,1,18.8
		c0,0.1,0.2,0.2,0.2,0.3c0.1,1.9-0.9,5.1,1.1,5.2c2.7,0.1,5.5-1.6,8.1-2.8c1-0.4-0.1-1.5-0.2-2.2c-1.5-8.3-2-16.2,4.1-23.2
		c5.3-6.2,11.9-8.3,19.4-6.5c5.8,1.4,11.2,4,14.5,9.6c3.6,6.1,4.9,12.4,3,19.5c-1.3,4.9-3.7,9.2-7.8,12c-2.5,1.7-5.5,3.1-8.8,2.9
		c-2.5-0.1-4,0.9-5,3.3c-1.5,3.6-2.7,7.2-3.6,11c-0.3,1.5,0.2,1.5,1.8,1.6c8,0.3,14-4.3,20.4-7.8c8-4.4,15.1-10.3,21.9-16.5
		c2.7-2.4,4-5.3,3.2-8.9c-2-9.3,7.1-22,15.5-24.2c11.8-3,23.9,1.6,27.7,14.6c2.8,9.4,1.2,19-6,26.4c-2.9,2.9-7.3,4-11.5,5.3
		c-2.2,0.7-4.2-1.4-6.5,0.6c-2.5,2.1-4.6,4.7-6.3,7.2c-4.2,6.4-9.2,12.2-12.9,18.8c-5.9,10.6-12.1,21.1-16.2,32.7
		c-1.2,3.3-2.5,6.8-4.3,10.1c-1.5,2.9-1.8,6.4-3.3,9.4c-0.5,1.1-0.3,2.9,0.9,4.2c2.4,2.5,3.5,5.8,5.3,8.6c1.5,2.3,0.2,3.6-0.6,4.3
		c-1.8,1.3-3.4,2.9-5,4.4C793.6,532.9,791.2,531.7,788.5,529.2z M467.3,426.3c-0.1-1.2-0.4-2.1-2-2.1c0.3,1.1,0.4,2,1.4,2.6
		c1.2,2.9,2.4,5.8,3.6,8.7c0.2,0.4-0.2,1.3,0.5,1c1.6-0.8,3.6-1,4.5-2.8c0.6-1.2,1.4-2.6,1.5-3.9
		C476.9,428.8,468.6,425.9,467.3,426.3z M443.9,493.9c3.9-3.7,8.5-6.3,13.2-8.1c4.7-1.9,8.2-5.4,13.1-7.1c5-1.7,9.9-4.4,14.9-6.6
		c6-2.6,12-5.3,18.2-7.4c5.3-1.9,10.9-2.9,16.3-4.7c9.8-3.2,20-5,30.1-6.8c5-0.9,10.1-0.7,15-1.6c11.5-2.1,23-1.9,34.6-2.6
		c8.3-0.6,16.7-0.1,25,0.4c6.7,0.5,13.3,1,20.1,1c5.5,0,10.9,1.7,16.4,2c5.2,0.3,10.2,2,15.2,2.2c7.3,0.2,14.2,2.4,21.2,3.8
		c7.1,1.4,14.1,3.5,20.9,5.9c5.2,1.9,10.8,3,15.7,5.5c6.8,3.4,14,6,20.8,9.5c9.9,5,19.5,10.4,28.3,17.3c9.9-24.1,23.3-46.1,38.7-67
		c-2.1,2.4-5.1,3.6-7.3,5.6c-6.5,6-14.2,10.3-22.4,13.4c-5.8,2.2-11.8,3.9-18.3,3.3c-9.5-0.9-18.6-1.3-26.9-7.5
		c-4.7-3.5-6.5-8.2-8.4-12.8c-2.3-5.8-4.5-11.7-5.2-18.1c-0.7-6.2-1.4-12.4-0.5-18.7c0.6-4.1,2.5-8.1,1.5-12.6
		c-0.7,0.7-1.6,1-1.8,1.6c-1.4,4.1-4.2,7.4-6.6,10.7c-5.6,7.5-11.9,14.4-18.8,20.9c-11.1,10.4-24,15.5-39,15.3
		c-5-0.1-9.9-1.2-14.9-2.5c-12.1-3.3-20.2-10.9-24.3-22.2c-3.6-10.2-5.9-20.9-8-31.7c-2.4-12.5-3.3-25.2-5-37.8
		c-0.1-0.7,0.2-1.6-0.9-1.7c-1.3-0.2-1.3,0.6-1.4,1.6c-0.6,5.3-0.9,10.6-1.6,15.8c-1.5,10.7-3.5,21.3-6,31.8
		c-2.1,8.8-2.9,17.9-7.3,26.1c-4.1,7.9-10.2,13.6-17.9,17.4c-6.4,3.1-13.7,3.5-20.8,3.9c-12.4,0.6-23.6-3.7-33.2-10.9
		c-6.7-5-13-10.8-17.9-17.5c-5.1-6.8-10.6-13.5-13.8-21.7c-0.3-0.7-0.4-1.4-1.3-1.2c-1,2.9,0.6,5.3,1.1,7.9
		c1.8,9.4,1.8,18.8,0.2,28.2c-0.9,5.3-3.1,10.2-4.4,15.3c-1.5,5.9-5,10.3-9.1,14.2c-1.5,1.4-4,2.5-6.4,3.1c-2.4,0.5-4.8,1.5-7,2.8
		c-2.1,1.2-3.9-0.6-5.8,0c-0.2,0.1-0.7-0.3-0.9-0.2c-4.8,2.6-10.2,1.6-14.8,0.6c-8.3-1.7-16-5.4-23.4-9.9c-4.2-2.6-7.7-6.3-12.4-8.4
		C425.2,452.1,436.5,471.7,443.9,493.9z M757.7,563c3-1.3,1.8-4.4,3-6.6c3-6,4.3-12.5,6.5-18.8c1.9-5.2,3.3-10.5,5.1-15.8
		c0.8-2.4,2.2-5.6-1.3-7.6c-4.9-2.8-8.2-7.6-13.6-10c-8.2-3.7-16.5-7.3-24.8-10.6c-7.3-2.9-15-4.8-22.3-7.7
		c-8.1-3.2-16.5-5.5-24.9-7.7c-9.6-2.5-19.2-5.3-29.4-5.5c-3.4-0.1-6.9-0.2-10.3-0.6c-6.6-0.7-13.1-1.9-19.7-2.1
		c-10-0.4-20-0.1-30-0.1c-2.2,0-4.5-0.5-6.4,0.1c-5.9,1.8-12,0.9-18,1.7c-5.2,0.7-10.7,0.3-15.8,1.4c-8.9,1.8-17.7,4.1-26.3,6.7
		c-7.9,2.4-15.7,4.8-23.3,8.1c-4.8,2.1-9.7,4-14.6,5.8c-5.3,2-10,5.2-15.4,7.1c-2.2,0.8-4.7,1.9-6.8,3.2c-1.5,0.9-2.6,2.2-4.5,3
		c-3.8,1.5-7.2,3.9-10.8,6c-1.3,0.8-1.6,1.7-1,3.3c3,7.5,6.3,14.9,8.2,22.8c1.7,6.9,3.6,13.8,5.5,20.8c0.9-0.7,1.6-1.8,2.6-2
		c5.7-1.5,10.1-5.6,15.6-7.8c7.7-3.1,15.6-6,23.5-8c4.5-1.2,9.4-2.1,14.2-2.7c11.1-1.2,21.8-4.1,32.9-5.1c10-0.9,20-2,30.1-2.7
		c6.1-0.4,12.3,0,18.4-0.1c8.7-0.2,17.4-1.2,26-0.5c9.6,0.8,19.2,1.3,28.8,2.7c9,1.4,18,2.5,27,4.1c8.9,1.5,17.7,3,26.2,5.8
		c6.5,2.1,13.1,3.9,19.3,6.5c7.1,3,14.1,6.3,21.1,9.6C754.2,560.4,757.2,560.6,757.7,563z M689.3,602.6c8.3,0.1,16.4-1.6,24.4-3.1
		c8.1-1.5,16-4,24-6.3c1.4-0.4,2.7-1.5,2.9-3.4c0.4-3.5-1.1-6.4-3.7-7.9c-6.2-3.4-12.5-6.7-19.2-9.1c-5.4-2-10.9-4.1-16.6-5.5
		c-12.7-3.2-25.7-5.1-38.6-7.1c-12.2-1.8-24.5-2.7-36.7-3.3c-13.1-0.6-26.2-1.2-39.4,0.4c-10.1,1.3-20.4,1.1-30.6,2.4
		c-11.3,1.4-22.4,3.4-33.6,5.4c-3.6,0.6-7.1,1.5-10.7,2.2c-1.4,0.3-2.2,1.3-2.8,2.5c-3.4-2.4-6.1,0.3-9,1.4
		c-4.8,1.9-9.2,4.4-13.8,6.7c-3.6,1.9-6,4.4-6.6,8.2c-0.4,2.2,0.7,3.9,3.3,4.6c4,1.1,8.2,1.6,12.2,2.5c5.4,1.2,10.9,1.6,16.2,2.9
		c5.5,1.3,11.4,0.8,16.9,2.1c8.7,2,17.7,2.1,26.5,3.1c6.5,0.8,13.2,1.4,20,1.1c8.5-0.4,17.1,0.9,25.6,0.9
		c22.9-0.1,45.9,0.6,68.8-0.6C675.7,602.3,682.5,602.6,689.3,602.6z M555.5,418.8c11.2,0.5,16.1-0.9,22.2-4.9c1.7-1.1,2.7-2,1-4.2
		c-4.2-5.2-8.1-10.7-12.3-15.9c-2.3-2.7-3.6-6.2-6.9-9.1c0.3,6.5,1.1,12,0.3,17.7C558.9,408.1,557.3,413.3,555.5,418.8z
		 M668.9,385.3c-1,0.6-2.3,0.9-2.6,1.5c-1.7,4.8-5.9,7.8-8.5,12c-2.5,3.9-5.7,7.3-8.9,10.7c-0.9,0.9-1.1,2.4,0.4,3.3
		c6.5,4.1,13.5,6.2,21.2,5.3c1.7-0.2,2.2-0.1,1.5-2.2c-2.2-7.1-4-14.3-4-21.8C668.1,391.2,669.4,388.4,668.9,385.3z M762.4,424.3
		c-2.8,1.1-5.2,2.6-8,3.3c-1.1,0.3-2.7,0.1-2.9,1.8c-0.1,1.5,0.6,2.7,2.1,3.4c0.9,0.4,1.7,1,2.4,1.6c1.8,1.7,2.2,0.7,3-1
		C760.4,430.5,760.2,427,762.4,424.3z M822.5,427.7c-0.3,0.5-0.5,0.9-0.7,1.2c0.3,0.1,0.6,0.4,0.9,0.4c0.5,0,0.9-0.3,0.8-0.9
		C823.3,428.2,822.9,428.1,822.5,427.7z M408,430.1c-0.2,0.2-0.4,0.4-0.6,0.5c0.3,0.2,0.6,0.4,0.9,0.5c0.1,0,0.3-0.3,0.4-0.4
		C408.5,430.5,408.2,430.3,408,430.1z"/>
	<path class="st0" d="M472.5,521.2c-1-8.3,4.5-15.2,12.5-18.3c9-3.5,21.3,2.3,23.9,11.6c0.9,3.2,0.9,6.8,0.2,10.2
		c-0.3,1.2-0.8,2-0.1,3.4c0.8,1.6-1.5,1-2.1,2.2c-3,5.8-7.6,9.6-14.2,10.9c-10,2-21.4-8.7-20.3-18.1
		C472.6,522.4,472.5,521.8,472.5,521.2z M498,521.7c0-4.6-2.5-7.6-6.4-7.6c-5.2,0-7.4,3-7.8,9.6c-0.2,3.5,3,6.1,6.9,6.1
		C494.6,529.9,498,526.1,498,521.7z"/>
	<path class="st0" d="M531.7,505.9c-1-10.5,8.3-20.5,20.8-19.7c7.5,0.5,16.2,7.7,16.3,17.3c0.1,13.6-10.5,21.6-18.1,21.9
		C540.7,525.8,531,516,531.7,505.9z M543.7,506.5c0,4.5,2.7,7.5,6.7,7.6c3.7,0,6.7-3.7,6.8-8.4c0.1-3.6-3.2-8-6-8.1
		C547.4,497.5,543.7,501.9,543.7,506.5z"/>
	<path class="st0" d="M677.3,524.6c-10.6,0-17.8-6.5-18.4-16.3c-0.2-3.1-0.1-6.4,0.5-9.4c1-4.9,4.4-8.4,8.8-10.5
		c4.3-2,8.8-3.5,13.7-2.1c9.3,2.6,13.4,7.4,13.9,16.4c0.5,8-2,15.5-10.7,19.2C682.3,523.1,680.2,525.8,677.3,524.6z M677.7,497.6
		c-3.7,0-7.5,3.8-7.4,7.6c0,4.6,3,8.9,6.2,8.9c4.7,0,7.7-3.5,8.1-10.7C684.7,500.8,680.8,497.7,677.7,497.6z"/>
	<path class="st0" d="M735,504.4c5.6-1.3,10.4,2.2,14.6,6.2c1.7,1.6,2.9,4.4,3.1,6.8c1.7,18.4-9.4,25.2-18.9,25.6
		c-9.5,0.4-18.3-8-18.2-19.5C715.7,512.9,722.8,503.9,735,504.4z M741,523c0-4.8-2.2-7.5-6.1-7.4c-4.3,0.1-7.2,3.5-7.4,8.2
		c-0.2,4.6,4.2,8.1,6.6,8.2C737.9,532.3,741,528.2,741,523z"/>
	<path class="st0" d="M630.8,501.3c1.5,10.8-10.4,19.8-18.4,20.4c-7.4,0.6-17.4-8.9-17.8-15.3c-0.4-5.5-0.6-11,2.4-15.4
		c3.8-5.4,9.5-8.6,16.4-8.3C622.7,483.1,631.9,490.4,630.8,501.3z M614,494.6c-4.8-0.1-8.9,4.9-8,9.6c1.2,6,3.8,7.6,9.4,5.6
		c2.9-1.1,3.2-4.1,4-6.4C620.5,499.9,617,494.7,614,494.6z"/>
</g>
</svg>
