<svg width="90" height="90" viewBox="0 0 90 90" fill="none" xmlns="http://www.w3.org/2000/svg">
<g clip-path="url(#clip0)">
<path d="M54.3385 27.9016C53.5466 27.34 52.4494 27.526 51.8876 28.3179L51.8535 28.3659C51.2917 29.1576 51.478 30.2548 52.2697 30.8166C52.5786 31.0356 52.9336 31.1411 53.2855 31.1411C53.8359 31.1411 54.3779 30.8834 54.7206 30.4004L54.7547 30.3524C55.3165 29.5607 55.1302 28.4634 54.3385 27.9016Z" fill="#66C4FF"/>
<path d="M50.3339 32.8832C49.7183 32.1324 48.6107 32.0233 47.8601 32.639C45.418 34.6422 42.643 36.0682 39.612 36.8775C38.674 37.1279 38.1166 38.0912 38.3671 39.0292C38.577 39.8153 39.2875 40.334 40.0642 40.334C40.2144 40.334 40.3669 40.3147 40.5188 40.2739C44.0374 39.3343 47.2574 37.6801 50.0896 35.3569C50.8403 34.7414 50.9497 33.6336 50.3339 32.8832Z" fill="#66C4FF"/>
<path d="M84.7266 39.8092C81.8188 39.8092 79.4531 42.1748 79.4531 45.0824V45.9615C79.4531 53.3333 74.0856 59.471 67.0544 60.682C67.9727 59.3276 68.5099 57.6947 68.5099 55.9387V54.7177C68.5099 50.0454 64.7086 46.2444 60.0363 46.2444C55.3641 46.2444 51.563 50.0454 51.563 54.7177V55.9387C51.563 57.6501 52.0745 59.2434 52.9504 60.577C46.1953 59.1451 41.1103 53.1369 41.1103 45.9615V45.0824C41.1103 42.1748 38.7446 39.8092 35.8369 39.8092C32.9291 39.8092 30.5634 42.1748 30.5634 45.0824V45.9615C30.5634 49.5294 31.2894 52.9798 32.69 56.1676H21.0503H20.7294V38.465C20.7294 37.6803 20.2094 36.9905 19.4549 36.775C10.0702 34.091 3.51562 25.402 3.51562 15.6445V14.7656C3.51562 13.7964 4.30418 13.0078 5.27344 13.0078C6.2427 13.0078 7.03125 13.7964 7.03125 14.7656V15.6445C7.03125 25.8217 15.3111 34.1016 25.4883 34.1016H33.9481C44.1253 34.1016 52.4051 25.8217 52.4051 15.6445V14.7656C52.4051 13.7964 53.1937 13.0078 54.163 13.0078C55.1322 13.0078 55.9208 13.7964 55.9208 14.7656V15.6445C55.9208 18.3465 55.434 20.9858 54.4739 23.4888C54.1262 24.3951 54.5792 25.4118 55.4857 25.7595C56.3917 26.1074 57.4088 25.654 57.7564 24.7477C58.8713 21.8413 59.4364 18.7785 59.4364 15.6445V14.7656C59.4364 11.8579 57.0707 9.49219 54.163 9.49219C51.2552 9.49219 48.8895 11.8579 48.8895 14.7656V15.6445C48.8895 23.0161 43.522 29.1538 36.491 30.365C37.4092 29.0106 37.9462 27.3779 37.9462 25.6221V24.4011C37.9462 19.7288 34.145 15.9275 29.4727 15.9275C24.8005 15.9275 20.9994 19.7288 20.9994 24.4011V25.6221C20.9994 27.3333 21.5109 28.9266 22.3868 30.26C15.6317 28.8281 10.5469 22.8199 10.5469 15.6445V14.7656C10.5469 11.8579 8.18121 9.49219 5.27344 9.49219C2.36566 9.49219 0 11.8579 0 14.7656V15.6445C0 21.2882 1.81441 26.6393 5.24689 31.1191C8.29564 35.0979 12.5082 38.1284 17.2139 39.7531V57.9252C17.2139 58.8959 18.0009 59.683 18.9717 59.683H19.2927V88.2422C19.2927 89.2129 20.0797 90 21.0505 90C22.0213 90 22.8083 89.2129 22.8083 88.2422V59.683H34.5786C34.9629 60.2805 35.3733 60.8653 35.8105 61.4359C35.9269 61.5878 36.048 61.7354 36.1677 61.8845V88.2422C36.1677 89.2129 36.9547 90 37.9255 90C38.8963 90 39.6833 89.2129 39.6833 88.2422V65.4768C42.0783 67.484 44.8312 69.0525 47.7775 70.0699V88.2422C47.7775 89.2129 48.5645 90 49.5353 90C50.5062 90 51.2931 89.2129 51.2931 88.2422V68.7818C51.2931 67.9971 50.7732 67.3073 50.0187 67.0918C40.6338 64.4078 34.0792 55.719 34.0792 45.9615V45.0824C34.0792 44.1132 34.8678 43.3248 35.8371 43.3248C36.8063 43.3248 37.5949 44.1132 37.5949 45.0824V45.9615C37.5949 56.1387 45.8747 64.4186 56.0519 64.4186H64.5117C74.6889 64.4186 82.9688 56.1387 82.9688 45.9615V45.0824C82.9688 44.1132 83.7573 43.3248 84.7266 43.3248C85.6958 43.3248 86.4844 44.1132 86.4844 45.0824V45.9615C86.4844 55.8991 79.778 64.6304 70.1757 67.1943C69.4065 67.3996 68.8714 68.0964 68.8714 68.8925V81.621C68.8714 82.5917 69.6584 83.3788 70.6293 83.3788C71.6001 83.3788 72.3871 82.5917 72.3871 81.621V70.2053C82.8239 66.8146 90 57.0338 90 45.9615V45.0824C90 42.1748 87.6343 39.8092 84.7266 39.8092ZM24.515 24.4009C24.515 21.667 26.739 19.443 29.4727 19.443C32.2065 19.443 34.4306 21.667 34.4306 24.4009V25.6219C34.4306 28.3556 32.2066 30.5796 29.4727 30.5796C26.739 30.5796 24.515 28.3556 24.515 25.6219V24.4009ZM64.9942 55.9387C64.9942 58.6724 62.7703 60.8964 60.0363 60.8964C57.3026 60.8964 55.0786 58.6724 55.0786 55.9387V54.7177C55.0786 51.984 57.3026 49.76 60.0363 49.76C62.7701 49.76 64.9942 51.984 64.9942 54.7177V55.9387Z" fill="#66C4FF"/>
<path d="M71.8717 86.9994C71.5447 86.6723 71.0912 86.4844 70.6289 86.4844C70.1666 86.4844 69.7131 86.6723 69.3861 86.9994C69.0592 87.3264 68.8711 87.7799 68.8711 88.2422C68.8711 88.7045 69.0592 89.158 69.3861 89.4848C69.7131 89.8117 70.1666 90 70.6289 90C71.0912 90 71.5447 89.8119 71.8717 89.4848C72.1986 89.158 72.3867 88.7045 72.3867 88.2422C72.3867 87.7799 72.1986 87.3264 71.8717 86.9994Z" fill="#66C4FF"/>
<path d="M29.4728 65.7422C28.5019 65.7422 27.715 66.5293 27.715 67.5V88.2422C27.715 89.2129 28.5019 90 29.4728 90C30.4436 90 31.2306 89.2129 31.2306 88.2422V67.5C31.2306 66.5293 30.4436 65.7422 29.4728 65.7422Z" fill="#66C4FF"/>
<path d="M81.9141 14.4141C80.9432 14.4141 80.1562 15.2012 80.1562 16.1719V18.3568C80.1562 19.3275 80.9432 20.1146 81.9141 20.1146C82.8849 20.1146 83.6719 19.3275 83.6719 18.3568V16.1719C83.6719 15.2012 82.8849 14.4141 81.9141 14.4141Z" fill="#66C4FF"/>
<path d="M81.9141 24.8853C80.9432 24.8853 80.1562 25.6724 80.1562 26.6431V28.828C80.1562 29.7987 80.9432 30.5858 81.9141 30.5858C82.8849 30.5858 83.6719 29.7987 83.6719 28.828V26.6431C83.6719 25.6724 82.8849 24.8853 81.9141 24.8853Z" fill="#66C4FF"/>
<path d="M88.2422 20.7422H86.0573C85.0864 20.7422 84.2994 21.5293 84.2994 22.5C84.2994 23.4707 85.0864 24.2578 86.0573 24.2578H88.2422C89.2131 24.2578 90 23.4707 90 22.5C90 21.5293 89.2131 20.7422 88.2422 20.7422Z" fill="#66C4FF"/>
<path d="M77.7709 20.7422H75.5859C74.6151 20.7422 73.8281 21.5293 73.8281 22.5C73.8281 23.4707 74.6151 24.2578 75.5859 24.2578H77.7709C78.7417 24.2578 79.5287 23.4707 79.5287 22.5C79.5287 21.5293 78.7417 20.7422 77.7709 20.7422Z" fill="#66C4FF"/>
<path d="M38.6495 0C37.6787 0 36.8917 0.787148 36.8917 1.75781V3.94277C36.8917 4.91344 37.6787 5.70059 38.6495 5.70059C39.6204 5.70059 40.4073 4.91344 40.4073 3.94277V1.75781C40.4073 0.787148 39.6204 0 38.6495 0Z" fill="#66C4FF"/>
<path d="M38.6495 10.4713C37.6787 10.4713 36.8917 11.2585 36.8917 12.2291V14.4141C36.8917 15.3848 37.6787 16.1719 38.6495 16.1719C39.6204 16.1719 40.4073 15.3848 40.4073 14.4141V12.2291C40.4073 11.2585 39.6204 10.4713 38.6495 10.4713Z" fill="#66C4FF"/>
<path d="M44.9777 6.32812H42.7927C41.8219 6.32812 41.0349 7.11527 41.0349 8.08594C41.0349 9.0566 41.8219 9.84375 42.7927 9.84375H44.9777C45.9485 9.84375 46.7355 9.0566 46.7355 8.08594C46.7355 7.11527 45.9485 6.32812 44.9777 6.32812Z" fill="#66C4FF"/>
<path d="M34.5064 6.32812H32.3214C31.3506 6.32812 30.5636 7.11527 30.5636 8.08594C30.5636 9.0566 31.3506 9.84375 32.3214 9.84375H34.5064C35.4772 9.84375 36.2642 9.0566 36.2642 8.08594C36.2642 7.11527 35.4772 6.32812 34.5064 6.32812Z" fill="#66C4FF"/>
</g>
<defs>
<clipPath id="clip0">
<rect width="90" height="90" fill="white"/>
</clipPath>
</defs>
</svg>
