<svg fill="none" height="68" viewBox="0 0 68 68" width="68" xmlns="http://www.w3.org/2000/svg"><g fill="#66c4ff"><path d="m57.1562 9.91379c-1.5249-2.25489-3.6428-4.00177-6.138-5.07251-.0716-.07849-.1523-.15034-.2444-.2117l-6.6061-4.406322c-.3096-.2063908-.6916-.2734611-1.0526-.1852736-.0524.0128828-.1033.0296172-.1532.0484765.0089-.0289531.0166-.0560468.0265-.0864609h-18.5867c0 .00053125-.0001.00092969-.0002.00146094-.2598.00013281-.5167.07503906-.7366.22179706l-6.606 4.406322c-.1349.08991-.2473.20121-.3376.32579-2.3824 1.07883-4.4058 2.78229-5.8776 4.95842-1.58924 2.34961-2.42915 5.09101-2.42915 7.92741v30.6378c0 .7333.59474 1.3281 1.32813 1.3281h7.35992c.7334 0 1.3281-.5948 1.3281-1.3281v-17.053l1.2254 3.6522v6.3331.0002 25.2604c0 .7334.5947 1.3281 1.3281 1.3281h26.0312c.7334 0 1.3282-.5947 1.3282-1.3281v-25.2603-6.1612l1.2254-3.7077v16.9363c0 .7333.5948 1.3281 1.3282 1.3281h7.3599c.7334 0 1.3281-.5948 1.3281-1.3281v-30.6378c0-2.8364-.84-5.5778-2.429-7.92741zm-13.2588-6.67795 4.365 2.91152-10.0916 17.41384-2.7274-4.9491zm-2.7126-.57959-7.2587 13.20245-7.276-13.20245zm-22.823 20.21325c-.2072-.6172-.8306-.9941-1.4731-.8882-.6425.1049-1.1142.6598-1.1142 1.3107v23.8588h-4.7038v-29.3096c0-4.3635 2.4191-8.26861 6.2444-10.22414l4.5876 8.34404c.3534.6429 1.1609.8771 1.8038.5239.6426-.3535.8772-1.161.5238-1.8038l-4.6835-8.51843 4.3893-2.92772 8.7219 15.82655c.0254.0751.0551.1489.0943.2196l4.2248 7.6177 3.7527 6.8096h-6.0383l-5.9404-10.8046c-.3533-.6428-1.1609-.8771-1.8038-.5238-.6426.3534-.8772 1.1609-.5238 1.8037l5.2368 9.5247h-9.6622zm15.8137 42.4743h-11.863v-22.6041h11.863zm11.5118 0h-8.8557v-22.6041h3.5432v13.5788c0 .7334.5948 1.3281 1.3281 1.3281.7334 0 1.3282-.5947 1.3282-1.3281v-13.5788h2.6562zm0-25.2605-23.375-.0001v-3.7186h11.3957c.0684.0109.1376.0181.2081.0181h9.0722c.0701 0 .1392-.0073.2073-.0181h2.4917zm11.2417 7.0675h-4.7037v-23.8588c0-.652-.4732-1.2077-1.1171-1.3113-.6435-.1034-1.2674.2755-1.4721.8945l-3.5804 10.8331h-2.2928l-4.0957-7.4319 10.8603-18.74022c3.9165 1.92791 6.4015 5.88172 6.4015 10.30492z"/><path d="m26.2262 18.4223c-.247-.247-.5897-.3891-.939-.3891s-.6919.142-.9388.3891c-.2471.2469-.3893.5896-.3893.939 0 .3493.1421.692.3893.9389.2469.2471.5897.3893.9388.3893.3493 0 .692-.1422.939-.3893.2484-.2469.3905-.5896.3905-.9389 0-.3494-.1421-.6921-.3905-.939z"/><path d="m42.642 60.1653c-.2469-.2472-.5896-.3892-.9389-.3892-.3507 0-.6919.142-.939.3892-.247.2471-.3891.5897-.3891.9403 0 .3493.142.6906.3891.939.2471.2469.5897.3878.939.3878s.692-.1409.9389-.3878c.247-.2484.3892-.5897.3892-.939-.0001-.3506-.1422-.692-.3892-.9403z"/></g></svg>