<svg width="68" height="68" viewBox="0 0 68 68" fill="none" xmlns="http://www.w3.org/2000/svg">
<g clip-path="url(#clip0)">
<path d="M20.7185 49.1409C19.9854 49.1409 19.3904 49.7359 19.3904 50.469C19.3904 51.2021 19.9854 51.7971 20.7185 51.7971C21.4516 51.7971 22.0466 51.2021 22.0466 50.469C22.0466 49.7359 21.4516 49.1409 20.7185 49.1409Z" fill="#66C4FF"/>
<path d="M59.7844 25.2352L67.6109 17.4087C67.9402 17.0795 68.0728 16.6019 67.9609 16.15C67.8489 15.6981 67.5084 15.3379 67.0635 15.2006L48.0049 9.31831C46.2868 3.79583 41.1804 0.000976562 35.3278 0.000976562C29.8873 0.000976562 25.0215 3.31664 23.0077 8.31836L0.932425 15.2018C0.488699 15.3402 0.149496 15.7006 0.038332 16.152C-0.0728321 16.6033 0.0599804 17.0801 0.388691 17.4088L8.42106 25.4412L3.35506 33.8848C3.14774 34.2302 3.10856 34.6511 3.24828 35.0289C3.388 35.4068 3.69174 35.7007 4.07397 35.8281L11.4216 38.2771V58.704C11.4216 59.2575 11.765 59.7531 12.2834 59.9475C16.776 61.6321 33.4686 67.8926 33.5582 67.9243C33.8217 68.0172 34.1185 68.0298 34.4079 67.9362C34.4118 67.9348 34.4158 67.934 34.4196 67.9327L58.3259 59.964C58.8681 59.7832 59.234 59.2756 59.234 58.704V37.7302L67.0697 35.2679C67.5128 35.1287 67.8509 34.7682 67.9615 34.3172C68.072 33.8662 67.9391 33.3902 67.6108 33.0617L59.7844 25.2352ZM48.609 13.2822C48.609 12.9447 48.5948 12.6081 48.5695 12.2725L64.1741 17.0889L57.5472 23.7157L46.7193 20.1068C47.9454 18.0574 48.609 15.6925 48.609 13.2822ZM25.2775 9.82538C26.7518 5.53793 30.7908 2.65723 35.3278 2.65723C40.2154 2.65723 44.4545 5.96319 45.6364 10.6966C45.8464 11.5377 45.9528 12.4077 45.9528 13.2822C45.9528 15.7491 45.1341 18.0612 43.585 19.9696C41.556 22.4721 38.5464 23.9072 35.3278 23.9072C31.8486 23.9072 28.5853 22.1995 26.5976 19.3379C25.3581 17.5575 24.7028 15.4633 24.7028 13.2822C24.7028 12.0961 24.896 10.933 25.2775 9.82538ZM3.82003 17.0837L22.188 11.3563C22.0958 11.9909 22.0466 12.6337 22.0466 13.2821C22.0466 15.4205 22.5531 17.4917 23.5186 19.3605L10.4522 23.7157L3.82003 17.0837ZM6.48465 33.8316L10.6842 26.8322L32.0089 33.9404L27.8096 40.9399C25.5325 40.1809 8.91591 34.6419 6.48465 33.8316ZM32.6715 64.7564L14.0778 57.7837V39.1626C28.7071 44.0132 27.9927 43.8651 28.4 43.8651C28.8566 43.8651 29.2939 43.6288 29.5392 43.2202L32.6715 37.9992V64.7564ZM33.9997 31.8041L14.2935 25.2355L25.0239 21.6588C27.5354 24.7463 31.3162 26.5635 35.3278 26.5635C39.0388 26.5635 42.5266 25.0363 45.0353 22.3455L53.7059 25.2354L33.9997 31.8041ZM56.5778 57.7468L35.3278 64.8301V36.9899L40.0361 42.8748C40.3787 43.3029 40.9488 43.4763 41.4714 43.3122L56.5778 38.5651V57.7468ZM41.5424 40.5057L36.2267 33.8617L57.5472 26.7549L64.183 33.3907L41.5424 40.5057Z" fill="#66C4FF"/>
<path d="M29.1539 52.089L26.2001 50.9813C25.5134 50.724 24.7478 51.0718 24.4902 51.7586C24.2327 52.4455 24.5806 53.211 25.2674 53.4685L28.2212 54.5762C28.9094 54.8341 29.674 54.4845 29.9311 53.799C30.1886 53.1122 29.8407 52.3465 29.1539 52.089Z" fill="#66C4FF"/>
<path d="M29.1536 57.7624L21.1848 54.7741C20.498 54.5166 19.7325 54.8646 19.4749 55.5513C19.2172 56.2381 19.5653 57.0038 20.2521 57.2613L28.2208 60.2496C28.3745 60.3072 28.532 60.3346 28.687 60.3346C29.2248 60.3346 29.7308 60.0056 29.9308 59.4724C30.1884 58.7855 29.8405 58.0199 29.1536 57.7624Z" fill="#66C4FF"/>
<path d="M42.9079 8.35777C42.3893 7.83901 41.5483 7.83914 41.0295 8.35777L33.9999 15.3875L32.2828 13.6704C31.7641 13.1518 30.9232 13.1518 30.4044 13.6704C29.8856 14.189 29.8858 15.03 30.4044 15.5488L33.0608 18.2049C33.5794 18.7235 34.4204 18.7235 34.9392 18.2049L42.9079 10.2361C43.4265 9.71751 43.4265 8.87654 42.9079 8.35777Z" fill="#66C4FF"/>
</g>
<defs>
<clipPath id="clip0">
<rect width="68" height="68" fill="white"/>
</clipPath>
</defs>
</svg>
