<svg fill="none" height="68" viewBox="0 0 68 68" width="68" xmlns="http://www.w3.org/2000/svg"><g fill="#66c4ff"><path d="m48.6094 52.5938c-.7331 0-1.3282.595-1.3282 1.3281s.5951 1.3281 1.3282 1.3281 1.3281-.595 1.3281-1.3281-.595-1.3281-1.3281-1.3281z"/><path d="m51.8795 48.299-6.3126-2.1038-2.2662-4.5324c2.0416-2.078 3.4591-4.8275 3.9371-7.6953l.2826-1.6941h2.4171c2.197 0 3.9844-1.7874 3.9844-3.9843v-8.3672c0-10.98495-8.937-19.9219-19.9219-19.9219-11.0131 0-19.9219 8.91132-19.9219 19.9219v8.3672c0 1.7313 1.1105 3.2076 2.6563 3.7559v1.5566c0 2.1969 1.7874 3.9843 3.9844 3.9843h1.1663c.5758 1.2507 1.321 2.4091 2.2278 3.4497.1881.2162.3842.4258.5852.6297l-2.265 4.5299-6.3127 2.1039c-7.3399 2.4475-12.66728 10.1744-12.66728 18.3728 0 .7335.59461 1.3281 1.32813 1.3281h58.43755c.7333 0 1.3281-.5946 1.3281-1.3281 0-8.1984-5.3273-15.9253-12.6674-18.3729zm-.6139-20.0099c0 .7323-.5958 1.3281-1.3281 1.3281h-2.027c.3376-2.6151.5626-5.3979.6531-8.1388.0026-.0773.0047-.1524.0071-.2284h2.6949zm-33.2031 1.3281c-.7323 0-1.3281-.5958-1.3281-1.3281v-7.0391h2.6958c.0044.1385.009.2777.0142.4178.0001.0048.0004.0095.0005.0142v.0012c.093 2.6658.3151 5.3764.645 7.9339h-2.0274zm2.6563 5.3125c-.7324 0-1.3282-.5958-1.3282-1.3281v-1.3282h1.0888l.2826 1.6946c.054.3221.1202.6429.1969.9617zm-1.3259-16.3359h-2.6081c.6727-8.90128 8.1012-15.93755 17.2152-15.93755 9.0735 0 16.5346 7.03534 17.215 15.93755h-2.6077c-.0957-7.3349-6.0687-13.2813-13.4185-13.2813h-2.3773c-7.3497 0-13.3231 5.9464-13.4186 13.2813zm13.4184-10.62505h2.3774c5.9512 0 10.7679 4.86775 10.7644 10.81225 0 .418-.0033.7819-.0103 1.113 0 .0042-.0002.0086-.0002.013l-1.6612-.2373c-4.513-.6444-8.7741-2.775-11.9985-5.9994-.2492-.2491-.5869-.3891-.9391-.3891-3.5669 0-6.9812 1.6251-9.2382 4.3706.5562-5.4079 5.128-9.68305 10.7057-9.68305zm-9.099 26.96095c-.6648-2.2117-1.4256-8.7196-1.5937-12.8899l1.7875-2.3834c1.6417-2.1882 4.1958-3.5478 6.9128-3.7039 3.5749 3.4021 8.1997 5.6488 13.0869 6.3466l1.9553.2794c-.1307 2.7738-.3978 5.5573-.7804 8.1173-.0002.0008-.0003.0017-.0004.0026-.1217.8231-.2176 1.3527-.4625 2.8321-.7033 4.2188-3.8513 8.0338-8.0068 9.0728-1.7103.427-3.512.4269-5.2213 0-2.5948-.6486-4.974-2.444-6.5094-5.0174h2.7075c.5483 1.5458 2.0245 2.6563 3.756 2.6563h2.6562c2.2014 0 3.9844-1.7829 3.9844-3.9844 0-2.197-1.7874-3.9844-3.9844-3.9844h-2.6562c-1.77 0-3.2245 1.1433-3.7582 2.6563zm7.5198 10.3615c.9109.1919 1.8397.2901 2.7679.2901.7266 0 1.4534-.0609 2.1719-.1788l-2.3468 2.4818zm.7671 4.524-4.2126 4.4548c-1.1597-2.2199-2.1562-4.5301-2.9735-6.8952l1.5819-3.1639zm9.3807-6.0543 1.8067 3.6137c-.8186 2.3691-1.8154 4.6802-2.9739 6.8974l-4.5087-4.5088zm-11.3643-7.5031c0-.7332.5948-1.3281 1.3282-1.3281h2.6562c.7323 0 1.3281.5958 1.3281 1.3281 0 .7334-.5948 1.3281-1.3281 1.3281h-2.6562c-.7324 0-1.3282-.5958-1.3282-1.3281zm-23.8531 29.086c.52634-6.5794 4.905-12.5597 10.7979-14.5248l5.5906-1.8631c1.0243 2.8322 2.2932 5.585 3.7803 8.1998.0025.0045.0049.0091.0074.0134 0 .0002.0001.0002.0001.0003 1.0866 1.911 2.3095 3.7785 3.6354 5.5514l1.6338 2.623zm27.8375-1.1839-1.8012-2.8918c-.0202-.0324-.0417-.0638-.0646-.0944-1.0755-1.4346-2.0787-2.935-2.9925-4.4707l4.7365-5.0089 4.9908 4.9908c-.9198 1.5469-1.9265 3.0535-3.003 4.4885-.0651.0868.0272-.0499-1.866 2.9865zm2.392 1.1839 1.6337-2.6228c1.3317-1.7797 2.5634-3.6622 3.6608-5.5957.0067-.0117.0129-.0236.0195-.0353.0008-.0015.0016-.0028.0024-.0043 1.4683-2.5898 2.7239-5.3187 3.7406-8.1298l5.5904 1.8631c5.8931 1.9651 10.2718 7.9454 10.7981 14.5248z"/><path d="m57.846 59.9689c-.8876-1.7766-2.1877-3.3549-3.7598-4.5643-.5814-.4475-1.4152-.3387-1.8624.2427-.4473.5815-.3385 1.4153.2428 1.8626 1.2556.9659 2.2939 2.2267 3.003 3.6461.3285.6573 1.1267.9219 1.7817.5946.6561-.3278.9224-1.1254.5947-1.7817z"/></g></svg>