<svg fill="none" height="68" viewBox="0 0 68 68" width="68" xmlns="http://www.w3.org/2000/svg"><g fill="#66c4ff"><path d="m28.0234 53.9219c-.733 0-1.3281.595-1.3281 1.3281s.5951 1.3281 1.3281 1.3281c.7331 0 1.3282-.595 1.3282-1.3281s-.5951-1.3281-1.3282-1.3281z"/><path d="m37.3203 68c.7336 0 1.3146-.5945 1.3146-1.3281 0-.0742 0-7.0282.0047-9.7026 2.3471-3.2409 3.7079-7.0178 3.9522-11.0162h9.3379c.7336 0 1.3281-.5945 1.3281-1.3281v-43.29688c0-.733577-.5945-1.32812-1.3281-1.32812h-26.5625c-.7336 0-1.3281.594543-1.3281 1.32812v24.15268l-6.5743 6.5747c-1.7556 1.7557-2.7226 4.0897-2.7226 6.5732v28.0432c0 .7336.5945 1.3281 1.3281 1.3281zm-10.625-65.34375h23.9063v40.64065h-15.9977c-.0545-.5966-.1437-1.1896-.2708-1.7754l.8814-.8809h8.7464c.7336 0 1.3282-.5945 1.3282-1.3281 0-.7325.5955-1.3281 1.3281-1.3281.7336 0 1.3281-.5946 1.3281-1.3282v-27.35932c0-.73359-.5945-1.32813-1.3281-1.32813-.7326 0-1.3281-.59558-1.3281-1.32813 0-.73358-.5946-1.32812-1.3282-1.32812h-10.625c-.7335 0-1.3281.59454-1.3281 1.32812 0 .73255-.5956 1.32813-1.3281 1.32813-.7336 0-1.3281.59454-1.3281 1.32813v22.82452l-2.6563 2.6563c0-1.2809 0-29.94768 0-32.12145zm11.564 27.74845c-1.6933-1.6933-4.2935-1.9392-6.2515-.7393v-19.2682c1.1305-.40047 2.028-1.29799 2.4285-2.42845h8.4243c.4005 1.13046 1.298 2.02798 2.4285 2.42845v25.1587c-1.1305.4005-2.028 1.298-2.4285 2.4285h-4.9898l.4083-.4088c1.961-1.9824 1.9522-5.1994-.0198-7.1709zm-20.8609 8.224c0-1.7738.6906-3.4412 1.9445-4.6951l4.6962-4.6957v8.1965l-1.6031 1.6031c-.5188.5188-.5188 1.3593 0 1.8781s1.3592.5188 1.878 0l8.6328-8.6328c.9468-.9468 2.4877-.9468 3.4345 0 .9416.9416.9458 2.4783.013 3.4209-1.4086 1.4091-3.0495 3.0495-4.4674 4.4679-.3372.3373-.468.8296-.3424 1.2898.2817 1.0303.4249 2.0944.4249 3.1636 0 2.1048-.5562 4.1758-1.6078 5.9895-.3678.634-.1515 1.447.483 1.8148.6329.3668 1.4464.1536 1.8153-.4825 1.0635-1.835 1.711-3.8858 1.9035-5.9947h5.3244c-.2495 3.5636-1.5004 6.9218-3.6612 9.7768-.1738.2298-.2682.5099-.2692.7984-.0037 1.6788-.0047 6.4694-.0047 8.8165h-18.5943z"/><path d="m42.6328 22.9766c0-2.1972-1.7872-3.9844-3.9844-3.9844-2.1971 0-3.9843 1.7872-3.9843 3.9844 0 2.1971 1.7872 3.9843 3.9843 3.9843 2.1972 0 3.9844-1.7872 3.9844-3.9843zm-3.9844 1.3281c-.7325 0-1.3281-.5956-1.3281-1.3281 0-.7326.5956-1.3282 1.3281-1.3282.7326 0 1.3282.5956 1.3282 1.3282 0 .7325-.5956 1.3281-1.3282 1.3281z"/></g></svg>