<svg fill="none" height="70" viewBox="0 0 70 70" width="70" xmlns="http://www.w3.org/2000/svg"><g fill="#66c4ff"><path d="m63.1641 32.2656c.7546 0 1.3671-.6125 1.3671-1.3672 0-.7546-.6125-1.3672-1.3671-1.3672-.7547 0-1.3672.6126-1.3672 1.3672 0 .7547.6125 1.3672 1.3672 1.3672z"/><path d="m35 45.9375c-.7546 0-1.3672.6126-1.3672 1.3672s.6126 1.3672 1.3672 1.3672 1.3672-.6126 1.3672-1.3672-.6126-1.3672-1.3672-1.3672z"/><path d="m21.3281 21.3282h1.6134l2.0743 10.3746c.3824 1.9103 2.0743 3.2972 4.023 3.2972h11.9224c1.9487 0 3.6406-1.3869 4.023-3.2978l2.0743-10.374h1.6134c.7551 0 1.3672-.6121 1.3672-1.3672 0-.7552-.6121-1.3672-1.3672-1.3672-1.1071 0-5.5019 0-7.2178 0l-2.4225-7.268c-.2393-.7167-1.0131-1.1039-1.7293-.8652-.7167.2393-1.1039 1.0131-.8652 1.7293l2.1347 6.4039h-7.1436l2.1347-6.4039c.2387-.7162-.1485-1.49-.8652-1.7293-.7162-.2387-1.4906.1485-1.7293.8652l-2.4225 7.268c-1.1968 0-5.646 0-7.2178 0-.7551 0-1.3672.612-1.3672 1.3672 0 .7551.6121 1.3672 1.3672 1.3672zm22.9421 0-1.9675 9.8378c-.1271.6372-.6916 1.0997-1.3415 1.0997h-11.9218c-.6505 0-1.2145-.4625-1.3421-1.0991l-1.9675-9.8384z"/><path d="m32.2656 29.5312c.7552 0 1.3672-.612 1.3672-1.3671v-2.7344c0-.7552-.612-1.3672-1.3672-1.3672-.7551 0-1.3672.612-1.3672 1.3672v2.7344c0 .7551.6121 1.3671 1.3672 1.3671z"/><path d="m37.7344 29.5312c.7551 0 1.3672-.612 1.3672-1.3671v-2.7344c0-.7552-.6121-1.3672-1.3672-1.3672-.7552 0-1.3672.612-1.3672 1.3672v2.7344c0 .7551.612 1.3671 1.3672 1.3671z"/><path d="m4.10156 54.1406h24.06254v5.4688h-4.1016c-1.8254 0-3.5419.7113-4.8332 2.0027-1.2914 1.2913-2.0027 3.0078-2.0027 4.8332 0 .7552.612 1.3672 1.3672 1.3672h32.8124c.7552 0 1.3672-.612 1.3672-1.3672 0-3.7694-3.0665-6.8359-6.8359-6.8359h-4.1016v-5.4688h24.0625c1.0954 0 2.1251-.4267 2.9-1.2016s1.2016-1.8046 1.2016-2.8999v-43.75004c0-1.09535-.4267-2.12501-1.2016-2.89993s-1.8046-1.20163-2.9-1.20163h-61.79684c-1.09535 0-2.12501.42671-2.89993 1.20163-.774918.77492-1.20163 1.80458-1.20163 2.89993v43.75004c0 1.0953.426712 2.125 1.20163 2.8999.77492.7749 1.80458 1.2016 2.89993 1.2016zm45.70304 10.9375h-29.6108c.2008-.5698.5287-1.0921.9693-1.5327.7749-.7749 1.8046-1.2016 2.8994-1.2016h21.875c1.7827 0 3.3031 1.1428 3.8671 2.7343zm-10.703-5.4687h-8.2032v-5.4688h8.2032zm27.7635-8.6037c-.2585.2585-.6019.4005-.9667.4005h-61.79684c-.36476 0-.70816-.142-.96664-.4005-.25849-.2585-.40054-.6019-.40054-.9666v-6.836h64.53122v6.836c0 .3647-.142.7081-.4005.9666zm-63.73018-45.68328c.25848-.25849.60188-.40054.96664-.40054h61.79684c.3648 0 .7082.14205.9667.40054.2585.25848.4005.60188.4005.96664v34.17974h-64.53122v-34.17974c0-.36476.14205-.70816.40054-.96664z"/><path d="m63.1641 26.7969c.7551 0 1.3671-.6121 1.3671-1.3672v-10.9375c0-.7552-.612-1.3672-1.3671-1.3672-.7552 0-1.3672.612-1.3672 1.3672v10.9375c0 .7551.612 1.3672 1.3672 1.3672z"/></g></svg>