<svg width="18" height="18" viewBox="0 0 18 18" fill="none" xmlns="http://www.w3.org/2000/svg">
<g clip-path="url(#clip0)">
<path d="M17.5964 14.2252L14.8166 11.4451C14.2629 10.8936 13.346 10.9104 12.773 11.4835L11.3726 12.8837C11.2841 12.8349 11.1925 12.784 11.0962 12.73C10.2118 12.2399 9.00138 11.5683 7.72765 10.2936C6.45014 9.01628 5.77787 7.80398 5.28635 6.91902C5.23448 6.82526 5.18478 6.73487 5.13571 6.64903L6.07564 5.71049L6.53774 5.24782C7.1116 4.67381 7.12742 3.75715 6.57502 3.20408L3.79521 0.423644C3.24282 -0.128648 2.32548 -0.111893 1.75163 0.462118L0.968182 1.25006L0.989591 1.27132C0.726891 1.60652 0.507371 1.99312 0.344011 2.41003C0.193423 2.80688 0.0996683 3.18557 0.0567985 3.56503C-0.310258 6.60802 1.0803 9.38907 4.85408 13.1629C10.0706 18.3791 14.2744 17.985 14.4558 17.9658C14.8508 17.9186 15.2293 17.8242 15.614 17.6748C16.0273 17.5133 16.4136 17.2941 16.7486 17.032L16.7657 17.0472L17.5594 16.27C18.1321 15.6961 18.1486 14.7791 17.5964 14.2252Z" fill="#66C4FF"/>
</g>
<defs>
<clipPath id="clip0">
<rect width="18" height="18" fill="white" transform="matrix(-1 0 0 1 18 0)"/>
</clipPath>
</defs>
</svg>
