<svg fill="none" height="24" viewBox="0 0 24 24" width="24" xmlns="http://www.w3.org/2000/svg"><path d="m11.7504 3.00458c-3.48625.12548-6.38249 2.91558-6.71708 6.47702-.06836.7123-.02878 1.4024.09354 2.0631 0 0 .01079.0775.04677.2251.10794.4945.26984.9743.47131 1.4246.70158 1.705 2.32419 4.5579 5.96516 7.6617.2231.1919.5505.1919.7771 0 3.641-3.1001 5.2636-5.953 5.9688-7.6654.2051-.4503.3634-.9264.4713-1.4246.0324-.1439.0468-.2251.0468-.2251.0827-.4429.1259-.8969.1259-1.3619 0-4.05226-3.2704-7.31845-7.2496-7.17452zm.2483 10.74702c-1.8781 0-3.39996-1.5611-3.39996-3.4876 0-1.92649 1.52186-3.48761 3.39996-3.48761 1.878 0 3.3999 1.56112 3.3999 3.48761 0 1.9265-1.5219 3.4876-3.3999 3.4876z" fill="#66c4ff"/></svg>