<svg width="72" height="72" viewBox="0 0 72 72" fill="none" xmlns="http://www.w3.org/2000/svg">
<g clip-path="url(#clip0)">
<path d="M16.414 40.5862C16.042 40.2141 15.528 40 15 40C14.474 40 13.9578 40.2141 13.586 40.5862C13.2139 40.958 13 41.474 13 42C13 42.5282 13.2141 43.0422 13.586 43.416C13.958 43.7881 14.474 44 15 44C15.526 44 16.0422 43.7881 16.414 43.416C16.7861 43.042 17 42.5282 17 42C17 41.474 16.7861 40.958 16.414 40.5862Z" fill="#66C4FF"/>
<path d="M27.414 40.5862C27.0422 40.2141 26.5262 40 26 40C25.474 40 24.9578 40.2141 24.586 40.5862C24.2139 40.958 24 41.474 24 42C24 42.5282 24.2139 43.0422 24.586 43.416C24.958 43.7881 25.474 44 26 44C26.526 44 27.0422 43.7881 27.414 43.416C27.7861 43.042 28 42.526 28 42C28 41.474 27.7861 40.958 27.414 40.5862Z" fill="#66C4FF"/>
<path d="M25.8702 48.6837C25.1196 48.4826 24.3485 48.9292 24.1478 49.6797C23.7458 51.1847 22.3785 52.236 20.8226 52.236C19.2669 52.236 17.8996 51.1847 17.4974 49.6797C17.2969 48.9289 16.5258 48.4823 15.775 48.6837C15.0244 48.8843 14.5784 49.6553 14.779 50.4061C15.5094 53.1402 17.9946 55.0499 20.8228 55.0499C23.6507 55.0499 26.136 53.1402 26.8664 50.4061C27.0668 49.6554 26.6207 48.8842 25.8702 48.6837Z" fill="#66C4FF"/>
<path d="M36.0171 5.6243C35.24 5.6243 34.6101 6.25416 34.6101 7.03125V15.9629C34.6101 16.74 35.24 17.3699 36.0171 17.3699C36.7942 17.3699 37.424 16.74 37.424 15.9629V7.03125C37.424 6.25416 36.7942 5.6243 36.0171 5.6243Z" fill="#66C4FF"/>
<path d="M37.0123 19.9399C36.7504 19.6768 36.3875 19.5277 36.0177 19.5277C35.6463 19.5277 35.2846 19.677 35.0216 19.9399C34.7599 20.2016 34.6108 20.5646 34.6108 20.9346C34.6108 21.3045 34.76 21.6676 35.0216 21.9292C35.2847 22.1909 35.6463 22.3414 36.0177 22.3414C36.3876 22.3414 36.7507 22.1909 37.0123 21.9292C37.2739 21.6675 37.4245 21.3045 37.4245 20.9346C37.4245 20.5646 37.2739 20.2016 37.0123 19.9399Z" fill="#66C4FF"/>
<path d="M27.4431 18.4148L23.8513 14.8261C23.3017 14.277 22.4107 14.2772 21.8616 14.8269C21.3125 15.3766 21.3127 16.2674 21.8624 16.8166L25.4543 20.4055C25.7289 20.68 26.0888 20.8171 26.4486 20.8171C26.8089 20.8171 27.1694 20.6795 27.444 20.4047C27.9931 19.8548 27.9928 18.9641 27.4431 18.4148Z" fill="#66C4FF"/>
<path d="M50.1752 14.8298C49.6255 14.2805 48.7346 14.2809 48.1855 14.8305L44.3668 18.6522C43.8175 19.2019 43.8179 20.0928 44.3675 20.6419C44.6421 20.9166 45.002 21.0537 45.3619 21.0537C45.7221 21.0537 46.0824 20.9161 46.3571 20.6412L50.1757 16.8195C50.7251 16.2698 50.7247 15.3789 50.1752 14.8298Z" fill="#66C4FF"/>
<path d="M71.2882 40.1541C68.3165 29.0634 56.8761 22.4584 45.7857 25.4303C41.9792 26.4503 38.6165 28.4782 35.9899 31.2864C32.06 27.1008 26.6212 24.7303 20.8226 24.7303C9.34102 24.7303 0 34.0715 0 45.5531C0 57.0347 9.34102 66.3757 20.8226 66.3757C26.6266 66.3757 32.0742 63.9979 36.0055 59.8022C39.8983 63.9297 45.3881 66.3685 51.1798 66.3685C52.9585 66.3685 54.7664 66.1383 56.5643 65.6567C67.6547 62.6848 74.2598 51.2443 71.2882 40.1541ZM20.8226 63.5618C10.8924 63.5618 2.81377 55.483 2.81377 45.5529C2.81377 35.6228 10.8924 27.5441 20.8226 27.5441C25.9632 27.5441 30.7776 29.6983 34.1944 33.49C33.8212 34.0179 33.4693 34.5651 33.1419 35.1319C30.3609 39.9487 29.6222 45.5602 31.0618 50.9325C31.7223 53.3981 32.8015 55.6416 34.2023 57.6079C30.7848 61.4044 25.965 63.5618 20.8226 63.5618ZM55.836 62.9387C46.2444 65.508 36.3499 59.7961 33.7798 50.2045C32.5349 45.5581 33.1737 40.7049 35.5788 36.5391C36.0226 35.7705 36.5169 35.0426 37.0568 34.3582C37.0801 34.3313 37.1018 34.3035 37.1229 34.2752C39.5037 31.2936 42.7594 29.1544 46.5138 28.1483C48.0693 27.7317 49.6319 27.5327 51.1708 27.5327C59.1211 27.5327 66.4166 32.8462 68.5699 40.8823C71.1402 50.4741 65.4276 60.3685 55.836 62.9387Z" fill="#66C4FF"/>
<path d="M47.0539 42.785C46.6185 41.1597 44.9426 40.1913 43.3165 40.6271C41.6912 41.0628 40.7233 42.7392 41.1588 44.3645C41.3272 44.9931 41.8957 45.4078 42.5169 45.4078C42.6373 45.4078 42.7601 45.3922 42.8819 45.3594C43.6325 45.1582 44.0779 44.387 43.8766 43.6364C43.8427 43.5098 43.9181 43.379 44.0447 43.3451C44.1232 43.3243 44.1862 43.3465 44.2251 43.3689C44.2639 43.3914 44.3148 43.4347 44.3359 43.5132C44.537 44.2637 45.3082 44.7093 46.059 44.508C46.8098 44.307 47.255 43.5357 47.0539 42.785Z" fill="#66C4FF"/>
<path d="M59.7893 39.3725C59.5782 38.5851 59.0734 37.9271 58.3674 37.5195C57.6615 37.1121 56.8391 37.0036 56.0519 37.2147C55.2645 37.4257 54.6064 37.9305 54.199 38.6364C53.7915 39.3424 53.6831 40.1646 53.8942 40.9521C54.0626 41.5807 54.631 41.9953 55.2523 41.9953C55.3727 41.9951 55.4955 41.9797 55.6174 41.9469C56.3679 41.7457 56.8132 40.9743 56.6122 40.2237C56.5912 40.1452 56.6134 40.0823 56.6359 40.0434C56.6584 40.0044 56.7016 39.9537 56.7802 39.9327C56.8587 39.9118 56.9218 39.9341 56.9606 39.9565C56.9994 39.9788 57.0502 40.0222 57.0713 40.1008C57.2724 40.8513 58.0436 41.2968 58.7944 41.0955C59.545 40.8944 59.9904 40.1231 59.7893 39.3725Z" fill="#66C4FF"/>
<path d="M58.5568 48.2006C58.3555 47.4501 57.5841 47.0045 56.8335 47.2057C56.0829 47.4069 55.6377 48.1781 55.8388 48.9288C56.3174 50.7154 55.2533 52.5586 53.4667 53.0373C52.601 53.2693 51.6971 53.1501 50.9212 52.7022C50.1451 52.254 49.5901 51.5308 49.3583 50.6652C49.1571 49.9147 48.3858 49.4688 47.6351 49.6704C46.8846 49.8717 46.4392 50.643 46.6403 51.3935C47.0668 52.9851 48.0875 54.3153 49.5144 55.1391C50.4648 55.6878 51.5197 55.9682 52.5886 55.9682C53.1245 55.9682 53.6638 55.8979 54.1953 55.7553C57.4804 54.875 59.4369 51.4858 58.5568 48.2006Z" fill="#66C4FF"/>
</g>
<defs>
<clipPath id="clip0">
<rect width="72" height="72" fill="white"/>
</clipPath>
</defs>
</svg>
